<svg width="88" height="54" viewBox="0 0 88 54" xmlns="http://www.w3.org/2000/svg"><mask id="satori_om-id"><rect x="0" y="0" width="88" height="54" fill="#fff"/></mask><mask id="satori_om-id-0"><rect x="15" y="0" width="58" height="54" fill="#fff"/></mask><defs><clipPath id="satori_bc-id-0-0"><rect x="15" y="20" width="58" height="15"/></clipPath></defs><mask id="satori_om-id-0-0"><rect x="15" y="22" width="58" height="11" fill="#fff"/><path width="58" height="15" fill="none" stroke="#000" stroke-width="4" d="M15,20 A0,0 0 0 1 15,20 h58 A0,0 0 0 1 73,20"/><path width="58" height="15" fill="none" stroke="#000" stroke-width="4" d="M73,35 A0,0 0 0 1 73,35 h-58 A0,0 0 0 1 15,35"/></mask><path width="58" height="15" clip-path="url(#satori_bc-id-0-0)" fill="none" stroke="white" stroke-width="4" d="M15,20 A0,0 0 0 1 15,20 h58 A0,0 0 0 1 73,20"/><path width="58" height="15" clip-path="url(#satori_bc-id-0-0)" fill="none" stroke="white" stroke-width="4" d="M73,35 A0,0 0 0 1 73,35 h-58 A0,0 0 0 1 15,35"/><mask id="satori_om-id-1"><rect x="0" y="0" width="88" height="54" fill="#fff"/></mask><defs><clipPath id="satori_bc-id-1-0"><path x="0" y="0" width="88" height="54" d="M15,0 h58 a15,27 0 0 1 15,27 v0 a15,27 0 0 1 -15,27 h-58 a15,27 0 0 1 -15,-27 v0 a15,27 0 0 1 15,-27"/></clipPath></defs><clipPath id="satori_cp-id-1-0"><path x="0" y="0" width="88" height="54" d="M15,0 h58 a15,27 0 0 1 15,27 v0 a15,27 0 0 1 -15,27 h-58 a15,27 0 0 1 -15,-27 v0 a15,27 0 0 1 15,-27"/></clipPath><mask id="satori_om-id-1-0"><rect x="2" y="2" width="84" height="50" fill="#fff"/><path width="88" height="54" fill="none" stroke="#000" stroke-width="4" d="M1.888,13.888 A15,27 0 0 1 15,0 h58 a15,27 0 0 1 15,27 v0 a15,27 0 0 1 -15,27 h-58 a15,27 0 0 1 -15,-27 v0 A15,27 0 0 1 1.888,13.888"/></mask><path width="88" height="54" clip-path="url(#satori_bc-id-1-0)" fill="none" stroke="white" stroke-width="4" d="M1.888,13.888 A15,27 0 0 1 15,0 h58 a15,27 0 0 1 15,27 v0 a15,27 0 0 1 -15,27 h-58 a15,27 0 0 1 -15,-27 v0 A15,27 0 0 1 1.888,13.888"/><mask id="satori_om-id-1-0-0"><rect x="2" y="2" width="84" height="50" fill="#fff" mask="url(#satori_om-id-1-0)"/></mask><mask id="satori_om-id-1-0-0-0"><rect x="2" y="2" width="84" height="50" fill="#fff" mask="url(#satori_om-id-1-0)"/></mask><rect x="2" y="2" width="84" height="50" fill="#718472" clip-path="url(#satori_cp-id-1-0)" mask="url(#satori_om-id-1-0)"/><mask id="satori_om-id-1-0-0-0-0"><rect x="12" y="18" width="64" height="19" fill="#fff" mask="url(#satori_om-id-1-0)"/></mask><mask id="satori_om-id-1-0-0-0-0-0"><rect x="12" y="18" width="34" height="19" fill="#fff" mask="url(#satori_om-id-1-0)"/></mask><path fill="white" d="M18.0 20.8L18.0 26.8L19.0 26.8Q19.6 26.8 20.4 26.7Q21.2 26.7 21.8 26.3L21.8 26.3Q22.6 25.9 22.9 25.2Q23.3 24.4 23.3 23.5L23.3 23.5Q23.3 22.9 23.0 22.2Q22.8 21.6 22.2 21.2L22.2 21.2Q21.7 20.9 21.0 20.8Q20.3 20.8 19.3 20.8L19.3 20.8L18.0 20.8ZM18.0 28.8L18.0 35.4L19.3 35.4Q20.0 35.4 20.8 35.4Q21.7 35.3 22.3 35.0L22.3 35.0Q23.1 34.5 23.4 33.7Q23.8 32.8 23.8 32.0L23.8 32.0Q23.8 31.1 23.5 30.4Q23.2 29.7 22.4 29.3L22.4 29.3Q21.8 28.9 21.0 28.9Q20.2 28.8 19.0 28.8L19.0 28.8L18.0 28.8ZM13.8 20.8L13.7 18.7L19.9 18.7Q21.4 18.7 22.6 18.8Q23.9 18.9 24.9 19.5L24.9 19.5Q25.9 20.0 26.4 20.9Q27.0 21.8 27.0 23.0L27.0 23.0Q27.0 24.6 25.9 25.9Q24.9 27.2 22.8 27.6L22.8 27.6Q23.4 27.7 24.2 27.9Q25.0 28.1 25.9 28.6L25.9 28.6Q27.7 29.8 27.7 32.2L27.7 32.2Q27.7 33.7 26.9 34.9Q26.1 36.1 24.6 36.8L24.6 36.8Q23.6 37.2 22.3 37.4Q21.0 37.6 19.0 37.6L19.0 37.6L14.3 37.6L14.3 24.0Q14.3 23.3 15.1 22.3Q16.0 21.2 17.3 20.9L17.3 20.9L17.3 20.8L13.8 20.8ZM36.4 20.8L36.4 20.8L34.5 20.8L34.5 27.5L36.2 27.5Q36.7 27.5 37.4 27.4Q38.1 27.3 38.7 27.0Q39.3 26.6 39.7 25.9Q40.1 25.1 40.1 23.8L40.1 23.8Q40.1 22.7 39.8 22.1Q39.4 21.5 38.9 21.2Q38.3 20.9 37.6 20.9Q37.0 20.8 36.4 20.8ZM34.5 37.6L30.7 37.6L30.7 24.1Q30.7 23.3 31.5 22.3Q32.4 21.2 33.7 20.9L33.7 20.9L33.7 20.8L30.3 20.8L30.1 18.7L36.2 18.7Q38.2 18.7 39.5 18.8Q40.7 18.9 41.8 19.5L41.8 19.5Q42.6 20.0 43.1 20.7Q43.6 21.4 43.8 22.2Q44.0 23.0 44.0 23.7L44.0 23.7Q44.0 25.3 43.4 26.4Q42.7 27.6 41.7 28.2Q40.6 28.9 39.3 29.2Q38.1 29.4 36.8 29.4L36.8 29.4L34.5 29.4L34.5 37.6Z " transform="matrix(1.00,0.00,0.00,1.00,0.00,-1.00)" clip-path="url(#satori_cp-id-1-0)" mask="url(#satori_om-id-1-0)"/><mask id="satori_om-id-1-0-0-0-0-1"><rect x="50" y="18" width="26" height="19" fill="#fff" mask="url(#satori_om-id-1-0)"/></mask><path fill="white" d="M50.0 22.5L56.8 18.7L59.2 18.7L59.2 37.6L55.6 37.6L55.6 21.6L50.9 24.3L50.0 22.5ZM74.7 32.2L74.7 32.2Q74.7 33.8 73.8 35.1Q72.8 36.4 71.2 37.1Q69.6 37.9 67.3 37.9L67.3 37.9Q65.5 37.9 64.2 37.5Q62.9 37.2 62.0 36.7L62.0 36.7L62.7 34.5Q63.2 34.8 64.4 35.2Q65.5 35.6 66.9 35.6L66.9 35.6Q68.3 35.6 69.1 35.1Q70.0 34.6 70.4 33.9Q70.8 33.1 70.8 32.1L70.8 32.1Q70.8 31.1 70.2 30.2Q69.6 29.3 68.5 28.8L68.5 28.8Q67.9 28.7 67.1 28.6Q66.3 28.5 65.6 28.5L65.6 28.5L64.6 28.5L64.6 26.7L65.4 26.7Q66.2 26.7 67.0 26.6Q67.8 26.5 68.5 26.0L68.5 26.0Q69.1 25.7 69.5 25.1Q69.9 24.4 69.9 23.5L69.9 23.5Q69.9 22.1 69.0 21.3Q68.2 20.6 66.7 20.6L66.7 20.6Q65.5 20.6 64.6 20.9Q63.8 21.2 63.2 21.5L63.2 21.5L62.5 19.4Q63.1 19.0 64.3 18.7Q65.5 18.4 67.5 18.4L67.5 18.4Q70.3 18.4 72.0 19.6Q73.7 20.7 73.7 22.8L73.7 22.8Q73.7 24.0 73.1 24.9Q72.5 25.8 71.5 26.4Q70.6 27.0 69.5 27.4L69.5 27.4Q71.0 27.6 72.2 28.2Q73.3 28.8 74.0 29.8Q74.7 30.8 74.7 32.2Z " transform="matrix(1.00,0.00,0.00,1.00,0.00,-1.00)" clip-path="url(#satori_cp-id-1-0)" mask="url(#satori_om-id-1-0)"/></svg>