<svg width="88" height="54" viewBox="0 0 88 54" xmlns="http://www.w3.org/2000/svg"><mask id="satori_om-id"><rect x="0" y="0" width="88" height="54" fill="#fff"/></mask><mask id="satori_om-id-0"><rect x="15" y="0" width="58" height="54" fill="#fff"/></mask><defs><clipPath id="satori_bc-id-0-0"><rect x="15" y="20" width="58" height="15"/></clipPath></defs><mask id="satori_om-id-0-0"><rect x="15" y="22" width="58" height="11" fill="#fff"/><path width="58" height="15" fill="none" stroke="#000" stroke-width="4" d="M15,20 A0,0 0 0 1 15,20 h58 A0,0 0 0 1 73,20"/><path width="58" height="15" fill="none" stroke="#000" stroke-width="4" d="M73,35 A0,0 0 0 1 73,35 h-58 A0,0 0 0 1 15,35"/></mask><path width="58" height="15" clip-path="url(#satori_bc-id-0-0)" fill="none" stroke="white" stroke-width="4" d="M15,20 A0,0 0 0 1 15,20 h58 A0,0 0 0 1 73,20"/><path width="58" height="15" clip-path="url(#satori_bc-id-0-0)" fill="none" stroke="white" stroke-width="4" d="M73,35 A0,0 0 0 1 73,35 h-58 A0,0 0 0 1 15,35"/><mask id="satori_om-id-1"><rect x="0" y="0" width="88" height="54" fill="#fff"/></mask><defs><clipPath id="satori_bc-id-1-0"><path x="0" y="0" width="88" height="54" d="M15,0 h58 a15,27 0 0 1 15,27 v0 a15,27 0 0 1 -15,27 h-58 a15,27 0 0 1 -15,-27 v0 a15,27 0 0 1 15,-27"/></clipPath></defs><clipPath id="satori_cp-id-1-0"><path x="0" y="0" width="88" height="54" d="M15,0 h58 a15,27 0 0 1 15,27 v0 a15,27 0 0 1 -15,27 h-58 a15,27 0 0 1 -15,-27 v0 a15,27 0 0 1 15,-27"/></clipPath><mask id="satori_om-id-1-0"><rect x="2" y="2" width="84" height="50" fill="#fff"/><path width="88" height="54" fill="none" stroke="#000" stroke-width="4" d="M1.888,13.888 A15,27 0 0 1 15,0 h58 a15,27 0 0 1 15,27 v0 a15,27 0 0 1 -15,27 h-58 a15,27 0 0 1 -15,-27 v0 A15,27 0 0 1 1.888,13.888"/></mask><path width="88" height="54" clip-path="url(#satori_bc-id-1-0)" fill="none" stroke="white" stroke-width="4" d="M1.888,13.888 A15,27 0 0 1 15,0 h58 a15,27 0 0 1 15,27 v0 a15,27 0 0 1 -15,27 h-58 a15,27 0 0 1 -15,-27 v0 A15,27 0 0 1 1.888,13.888"/><mask id="satori_om-id-1-0-0"><rect x="2" y="2" width="84" height="50" fill="#fff" mask="url(#satori_om-id-1-0)"/></mask><mask id="satori_om-id-1-0-0-0"><rect x="2" y="2" width="84" height="50" fill="#fff" mask="url(#satori_om-id-1-0)"/></mask><rect x="2" y="2" width="84" height="50" fill="#718472" clip-path="url(#satori_cp-id-1-0)" mask="url(#satori_om-id-1-0)"/><mask id="satori_om-id-1-0-0-0-0"><rect x="18" y="18" width="53" height="19" fill="#fff" mask="url(#satori_om-id-1-0)"/></mask><mask id="satori_om-id-1-0-0-0-0-0"><rect x="18" y="18" width="34" height="19" fill="#fff" mask="url(#satori_om-id-1-0)"/></mask><path fill="white" d="M24.0 20.8L24.0 26.8L25.0 26.8Q25.6 26.8 26.4 26.7Q27.2 26.7 27.8 26.3L27.8 26.3Q28.6 25.9 28.9 25.2Q29.3 24.4 29.3 23.5L29.3 23.5Q29.3 22.9 29.0 22.2Q28.8 21.6 28.2 21.2L28.2 21.2Q27.7 20.9 27.0 20.8Q26.3 20.8 25.3 20.8L25.3 20.8L24.0 20.8ZM24.0 28.8L24.0 35.4L25.3 35.4Q26.0 35.4 26.8 35.4Q27.7 35.3 28.3 35.0L28.3 35.0Q29.1 34.5 29.4 33.7Q29.8 32.8 29.8 32.0L29.8 32.0Q29.8 31.1 29.5 30.4Q29.2 29.7 28.4 29.3L28.4 29.3Q27.8 28.9 27.0 28.9Q26.2 28.8 25.0 28.8L25.0 28.8L24.0 28.8ZM19.8 20.8L19.7 18.7L25.9 18.7Q27.4 18.7 28.6 18.8Q29.9 18.9 30.9 19.5L30.9 19.5Q31.9 20.0 32.4 20.9Q33.0 21.8 33.0 23.0L33.0 23.0Q33.0 24.6 31.9 25.9Q30.9 27.2 28.8 27.6L28.8 27.6Q29.4 27.7 30.2 27.9Q31.0 28.1 31.9 28.6L31.9 28.6Q33.7 29.8 33.7 32.2L33.7 32.2Q33.7 33.7 32.9 34.9Q32.1 36.1 30.6 36.8L30.6 36.8Q29.6 37.2 28.3 37.4Q27.0 37.6 25.0 37.6L25.0 37.6L20.3 37.6L20.3 24.0Q20.3 23.3 21.1 22.3Q22.0 21.2 23.3 20.9L23.3 20.9L23.3 20.8L19.8 20.8ZM42.4 20.8L42.4 20.8L40.5 20.8L40.5 27.5L42.2 27.5Q42.7 27.5 43.4 27.4Q44.1 27.3 44.7 27.0Q45.3 26.6 45.7 25.9Q46.1 25.1 46.1 23.8L46.1 23.8Q46.1 22.7 45.8 22.1Q45.4 21.5 44.9 21.2Q44.3 20.9 43.6 20.9Q43.0 20.8 42.4 20.8ZM40.5 37.6L36.7 37.6L36.7 24.1Q36.7 23.3 37.5 22.3Q38.4 21.2 39.7 20.9L39.7 20.9L39.7 20.8L36.3 20.8L36.1 18.7L42.2 18.7Q44.2 18.7 45.5 18.8Q46.7 18.9 47.8 19.5L47.8 19.5Q48.6 20.0 49.1 20.7Q49.6 21.4 49.8 22.2Q50.0 23.0 50.0 23.7L50.0 23.7Q50.0 25.3 49.4 26.4Q48.7 27.6 47.7 28.2Q46.6 28.9 45.3 29.2Q44.1 29.4 42.8 29.4L42.8 29.4L40.5 29.4L40.5 37.6Z " transform="matrix(1.00,0.00,0.00,1.00,0.00,-1.00)" clip-path="url(#satori_cp-id-1-0)" mask="url(#satori_om-id-1-0)"/><mask id="satori_om-id-1-0-0-0-0-1"><rect x="56" y="18" width="15" height="19" fill="#fff" mask="url(#satori_om-id-1-0)"/></mask><path fill="white" d="M56.5 21.8L56.5 18.7L69.7 18.7L69.7 20.5L61.2 37.6L58.6 37.6L66.7 21.8L56.5 21.8Z " transform="matrix(1.00,0.00,0.00,1.00,0.00,-1.00)" clip-path="url(#satori_cp-id-1-0)" mask="url(#satori_om-id-1-0)"/></svg>