<svg width="88" height="54" viewBox="0 0 88 54" xmlns="http://www.w3.org/2000/svg"><mask id="satori_om-id"><rect x="0" y="0" width="88" height="54" fill="#fff"/></mask><mask id="satori_om-id-0"><rect x="15" y="0" width="58" height="54" fill="#fff"/></mask><defs><clipPath id="satori_bc-id-0-0"><rect x="15" y="20" width="58" height="15"/></clipPath></defs><mask id="satori_om-id-0-0"><rect x="15" y="22" width="58" height="11" fill="#fff"/><path width="58" height="15" fill="none" stroke="#000" stroke-width="4" d="M15,20 A0,0 0 0 1 15,20 h58 A0,0 0 0 1 73,20"/><path width="58" height="15" fill="none" stroke="#000" stroke-width="4" d="M73,35 A0,0 0 0 1 73,35 h-58 A0,0 0 0 1 15,35"/></mask><path width="58" height="15" clip-path="url(#satori_bc-id-0-0)" fill="none" stroke="white" stroke-width="4" d="M15,20 A0,0 0 0 1 15,20 h58 A0,0 0 0 1 73,20"/><path width="58" height="15" clip-path="url(#satori_bc-id-0-0)" fill="none" stroke="white" stroke-width="4" d="M73,35 A0,0 0 0 1 73,35 h-58 A0,0 0 0 1 15,35"/><mask id="satori_om-id-1"><rect x="0" y="0" width="88" height="54" fill="#fff"/></mask><defs><clipPath id="satori_bc-id-1-0"><path x="0" y="0" width="88" height="54" d="M15,0 h58 a15,27 0 0 1 15,27 v0 a15,27 0 0 1 -15,27 h-58 a15,27 0 0 1 -15,-27 v0 a15,27 0 0 1 15,-27"/></clipPath></defs><clipPath id="satori_cp-id-1-0"><path x="0" y="0" width="88" height="54" d="M15,0 h58 a15,27 0 0 1 15,27 v0 a15,27 0 0 1 -15,27 h-58 a15,27 0 0 1 -15,-27 v0 a15,27 0 0 1 15,-27"/></clipPath><mask id="satori_om-id-1-0"><rect x="2" y="2" width="84" height="50" fill="#fff"/><path width="88" height="54" fill="none" stroke="#000" stroke-width="4" d="M1.888,13.888 A15,27 0 0 1 15,0 h58 a15,27 0 0 1 15,27 v0 a15,27 0 0 1 -15,27 h-58 a15,27 0 0 1 -15,-27 v0 A15,27 0 0 1 1.888,13.888"/></mask><path width="88" height="54" clip-path="url(#satori_bc-id-1-0)" fill="none" stroke="white" stroke-width="4" d="M1.888,13.888 A15,27 0 0 1 15,0 h58 a15,27 0 0 1 15,27 v0 a15,27 0 0 1 -15,27 h-58 a15,27 0 0 1 -15,-27 v0 A15,27 0 0 1 1.888,13.888"/><mask id="satori_om-id-1-0-0"><rect x="2" y="2" width="84" height="50" fill="#fff" mask="url(#satori_om-id-1-0)"/></mask><mask id="satori_om-id-1-0-0-0"><rect x="2" y="2" width="84" height="50" fill="#fff" mask="url(#satori_om-id-1-0)"/></mask><rect x="2" y="2" width="84" height="50" fill="#FF9E18" clip-path="url(#satori_cp-id-1-0)" mask="url(#satori_om-id-1-0)"/><mask id="satori_om-id-1-0-0-0-0"><rect x="11" y="18" width="67" height="19" fill="#fff" mask="url(#satori_om-id-1-0)"/></mask><mask id="satori_om-id-1-0-0-0-0-0"><rect x="11" y="18" width="31" height="19" fill="#fff" mask="url(#satori_om-id-1-0)"/></mask><path fill="#231F20" d="M25.3 19.2L25.3 19.2L24.6 21.6Q24.0 21.3 23.1 21.0Q22.3 20.7 21.2 20.7L21.2 20.7Q19.6 20.7 18.5 21.6Q17.4 22.6 16.8 24.3Q16.3 26.0 16.3 28.1L16.3 28.1Q16.3 31.6 17.6 33.6Q18.8 35.6 21.0 35.6L21.0 35.6Q21.7 35.6 22.4 35.4Q23.1 35.2 23.7 34.9Q24.3 34.7 24.6 34.5L24.6 34.5L25.4 36.8Q24.5 37.3 23.2 37.6Q22.0 37.9 20.3 37.9L20.3 37.9Q18.1 37.9 16.5 37.1Q14.9 36.3 13.9 34.9Q13.0 33.6 12.5 31.8Q12.0 30.1 12.0 28.2L12.0 28.2Q12.0 25.4 13.0 23.2Q14.1 21.0 16.0 19.7Q18.0 18.4 20.7 18.4L20.7 18.4Q23.4 18.4 25.3 19.2ZM39.6 19.2L39.6 19.2L38.8 21.6Q38.3 21.3 37.4 21.0Q36.5 20.7 35.5 20.7L35.5 20.7Q33.8 20.7 32.7 21.6Q31.6 22.6 31.1 24.3Q30.5 26.0 30.5 28.1L30.5 28.1Q30.5 31.6 31.8 33.6Q33.1 35.6 35.2 35.6L35.2 35.6Q36.0 35.6 36.7 35.4Q37.4 35.2 37.9 34.9Q38.5 34.7 38.8 34.5L38.8 34.5L39.6 36.8Q38.7 37.3 37.5 37.6Q36.2 37.9 34.5 37.9L34.5 37.9Q32.3 37.9 30.7 37.1Q29.2 36.3 28.2 34.9Q27.2 33.6 26.7 31.8Q26.2 30.1 26.2 28.2L26.2 28.2Q26.2 25.4 27.3 23.2Q28.3 21.0 30.2 19.7Q32.2 18.4 35.0 18.4L35.0 18.4Q37.6 18.4 39.6 19.2Z " transform="matrix(1.00,0.00,0.00,1.00,0.00,-1.00)" clip-path="url(#satori_cp-id-1-0)" mask="url(#satori_om-id-1-0)"/><mask id="satori_om-id-1-0-0-0-0-1"><rect x="46" y="18" width="32" height="19" fill="#fff" mask="url(#satori_om-id-1-0)"/></mask><path fill="#231F20" d="M50.5 34.5L50.5 34.5L59.8 34.5L59.8 37.6L46.3 37.6L46.3 35.7Q49.1 33.3 51.9 30.2L51.9 30.2Q53.6 28.4 54.5 26.8Q55.4 25.3 55.4 23.8L55.4 23.8Q55.4 22.8 55.0 22.2Q54.6 21.5 54.0 21.2Q53.4 20.9 52.9 20.8Q52.3 20.6 51.9 20.6L51.9 20.6Q50.6 20.6 49.6 20.9Q48.6 21.2 48.2 21.5L48.2 21.5L47.4 19.3Q48.2 18.9 49.4 18.7Q50.7 18.4 52.8 18.4L52.8 18.4Q54.9 18.4 56.3 19.0Q57.8 19.7 58.6 20.8Q59.3 21.9 59.3 23.3L59.3 23.3Q59.3 24.7 58.5 26.2Q57.7 27.6 56.0 29.4L56.0 29.4Q54.0 31.4 50.5 34.5ZM63.3 28.2L63.3 28.2Q63.3 27.2 63.4 25.9Q63.5 24.7 63.9 23.4Q64.3 22.0 65.0 20.9Q65.8 19.8 67.0 19.1Q68.2 18.4 70.0 18.4L70.0 18.4Q71.7 18.4 72.8 19.0Q74.0 19.6 74.7 20.7Q75.4 21.7 75.8 23.0Q76.2 24.2 76.3 25.5Q76.4 26.8 76.4 27.9L76.4 27.9Q76.4 29.1 76.3 30.4Q76.1 31.8 75.7 33.1Q75.4 34.5 74.6 35.5Q73.9 36.6 72.7 37.2Q71.5 37.9 69.7 37.9L69.7 37.9Q68.0 37.9 66.8 37.2Q65.7 36.5 65.0 35.4Q64.2 34.3 63.9 33.0Q63.5 31.7 63.4 30.5Q63.3 29.2 63.3 28.2ZM67.1 28.2L67.1 28.2Q67.1 29.8 67.2 31.2Q67.2 32.7 67.5 33.7Q67.8 34.8 68.3 35.4Q68.9 36.0 69.8 36.0L69.8 36.0Q71.0 36.0 71.6 35.0Q72.2 34.1 72.4 32.3Q72.6 30.6 72.6 28.1L72.6 28.1Q72.6 23.8 72.0 22.0Q71.4 20.2 69.9 20.2L69.9 20.2Q68.9 20.2 68.4 20.9Q67.8 21.5 67.5 22.6Q67.2 23.7 67.2 25.2Q67.1 26.6 67.1 28.2Z " transform="matrix(1.00,0.00,0.00,1.00,0.00,-1.00)" clip-path="url(#satori_cp-id-1-0)" mask="url(#satori_om-id-1-0)"/></svg>