<svg width="88" height="54" viewBox="0 0 88 54" xmlns="http://www.w3.org/2000/svg"><mask id="satori_om-id"><rect x="0" y="0" width="88" height="54" fill="#fff"/></mask><mask id="satori_om-id-0"><rect x="15" y="0" width="58" height="54" fill="#fff"/></mask><defs><clipPath id="satori_bc-id-0-0"><rect x="15" y="20" width="58" height="15"/></clipPath></defs><mask id="satori_om-id-0-0"><rect x="15" y="22" width="58" height="11" fill="#fff"/><path width="58" height="15" fill="none" stroke="#000" stroke-width="4" d="M15,20 A0,0 0 0 1 15,20 h58 A0,0 0 0 1 73,20"/><path width="58" height="15" fill="none" stroke="#000" stroke-width="4" d="M73,35 A0,0 0 0 1 73,35 h-58 A0,0 0 0 1 15,35"/></mask><path width="58" height="15" clip-path="url(#satori_bc-id-0-0)" fill="none" stroke="white" stroke-width="4" d="M15,20 A0,0 0 0 1 15,20 h58 A0,0 0 0 1 73,20"/><path width="58" height="15" clip-path="url(#satori_bc-id-0-0)" fill="none" stroke="white" stroke-width="4" d="M73,35 A0,0 0 0 1 73,35 h-58 A0,0 0 0 1 15,35"/><mask id="satori_om-id-1"><rect x="0" y="0" width="88" height="54" fill="#fff"/></mask><defs><clipPath id="satori_bc-id-1-0"><path x="0" y="0" width="88" height="54" d="M15,0 h58 a15,27 0 0 1 15,27 v0 a15,27 0 0 1 -15,27 h-58 a15,27 0 0 1 -15,-27 v0 a15,27 0 0 1 15,-27"/></clipPath></defs><clipPath id="satori_cp-id-1-0"><path x="0" y="0" width="88" height="54" d="M15,0 h58 a15,27 0 0 1 15,27 v0 a15,27 0 0 1 -15,27 h-58 a15,27 0 0 1 -15,-27 v0 a15,27 0 0 1 15,-27"/></clipPath><mask id="satori_om-id-1-0"><rect x="2" y="2" width="84" height="50" fill="#fff"/><path width="88" height="54" fill="none" stroke="#000" stroke-width="4" d="M1.888,13.888 A15,27 0 0 1 15,0 h58 a15,27 0 0 1 15,27 v0 a15,27 0 0 1 -15,27 h-58 a15,27 0 0 1 -15,-27 v0 A15,27 0 0 1 1.888,13.888"/></mask><path width="88" height="54" clip-path="url(#satori_bc-id-1-0)" fill="none" stroke="white" stroke-width="4" d="M1.888,13.888 A15,27 0 0 1 15,0 h58 a15,27 0 0 1 15,27 v0 a15,27 0 0 1 -15,27 h-58 a15,27 0 0 1 -15,-27 v0 A15,27 0 0 1 1.888,13.888"/><mask id="satori_om-id-1-0-0"><rect x="2" y="2" width="84" height="50" fill="#fff" mask="url(#satori_om-id-1-0)"/></mask><mask id="satori_om-id-1-0-0-0"><rect x="2" y="2" width="84" height="50" fill="#fff" mask="url(#satori_om-id-1-0)"/></mask><rect x="2" y="2" width="84" height="50" fill="#FF9E18" clip-path="url(#satori_cp-id-1-0)" mask="url(#satori_om-id-1-0)"/><mask id="satori_om-id-1-0-0-0-0"><rect x="13" y="18" width="62" height="19" fill="#fff" mask="url(#satori_om-id-1-0)"/></mask><mask id="satori_om-id-1-0-0-0-0-0"><rect x="13" y="18" width="31" height="19" fill="#fff" mask="url(#satori_om-id-1-0)"/></mask><path fill="#231F20" d="M27.3 19.2L27.3 19.2L26.6 21.6Q26.0 21.3 25.1 21.0Q24.3 20.7 23.2 20.7L23.2 20.7Q21.6 20.7 20.5 21.6Q19.4 22.6 18.8 24.3Q18.3 26.0 18.3 28.1L18.3 28.1Q18.3 31.6 19.6 33.6Q20.8 35.6 23.0 35.6L23.0 35.6Q23.7 35.6 24.4 35.4Q25.1 35.2 25.7 34.9Q26.3 34.7 26.6 34.5L26.6 34.5L27.4 36.8Q26.5 37.3 25.2 37.6Q24.0 37.9 22.3 37.9L22.3 37.9Q20.1 37.9 18.5 37.1Q16.9 36.3 15.9 34.9Q15.0 33.6 14.5 31.8Q14.0 30.1 14.0 28.2L14.0 28.2Q14.0 25.4 15.0 23.2Q16.1 21.0 18.0 19.7Q20.0 18.4 22.7 18.4L22.7 18.4Q25.4 18.4 27.3 19.2ZM41.6 19.2L41.6 19.2L40.8 21.6Q40.3 21.3 39.4 21.0Q38.5 20.7 37.5 20.7L37.5 20.7Q35.8 20.7 34.7 21.6Q33.6 22.6 33.1 24.3Q32.5 26.0 32.5 28.1L32.5 28.1Q32.5 31.6 33.8 33.6Q35.1 35.6 37.2 35.6L37.2 35.6Q38.0 35.6 38.7 35.4Q39.4 35.2 39.9 34.9Q40.5 34.7 40.8 34.5L40.8 34.5L41.6 36.8Q40.7 37.3 39.5 37.6Q38.2 37.9 36.5 37.9L36.5 37.9Q34.3 37.9 32.7 37.1Q31.2 36.3 30.2 34.9Q29.2 33.6 28.7 31.8Q28.2 30.1 28.2 28.2L28.2 28.2Q28.2 25.4 29.3 23.2Q30.3 21.0 32.2 19.7Q34.2 18.4 37.0 18.4L37.0 18.4Q39.6 18.4 41.6 19.2Z " transform="matrix(1.00,0.00,0.00,1.00,0.00,-1.00)" clip-path="url(#satori_cp-id-1-0)" mask="url(#satori_om-id-1-0)"/><mask id="satori_om-id-1-0-0-0-0-1"><rect x="48" y="18" width="27" height="19" fill="#fff" mask="url(#satori_om-id-1-0)"/></mask><path fill="#231F20" d="M52.5 34.5L52.5 34.5L61.8 34.5L61.8 37.6L48.3 37.6L48.3 35.7Q51.1 33.3 53.9 30.2L53.9 30.2Q55.6 28.4 56.5 26.8Q57.4 25.3 57.4 23.8L57.4 23.8Q57.4 22.8 57.0 22.2Q56.6 21.5 56.0 21.2Q55.4 20.9 54.9 20.8Q54.3 20.6 53.9 20.6L53.9 20.6Q52.6 20.6 51.6 20.9Q50.6 21.2 50.2 21.5L50.2 21.5L49.4 19.3Q50.2 18.9 51.4 18.7Q52.7 18.4 54.8 18.4L54.8 18.4Q56.9 18.4 58.3 19.0Q59.8 19.7 60.6 20.8Q61.3 21.9 61.3 23.3L61.3 23.3Q61.3 24.7 60.5 26.2Q59.7 27.6 58.0 29.4L58.0 29.4Q56.0 31.4 52.5 34.5ZM63.1 22.5L70.0 18.7L72.3 18.7L72.3 37.6L68.7 37.6L68.7 21.6L64.0 24.3L63.1 22.5Z " transform="matrix(1.00,0.00,0.00,1.00,0.00,-1.00)" clip-path="url(#satori_cp-id-1-0)" mask="url(#satori_om-id-1-0)"/></svg>