<svg width="88" height="54" viewBox="0 0 88 54" xmlns="http://www.w3.org/2000/svg"><mask id="satori_om-id"><rect x="0" y="0" width="88" height="54" fill="#fff"/></mask><mask id="satori_om-id-0"><rect x="15" y="0" width="58" height="54" fill="#fff"/></mask><defs><clipPath id="satori_bc-id-0-0"><rect x="15" y="20" width="58" height="15"/></clipPath></defs><mask id="satori_om-id-0-0"><rect x="15" y="22" width="58" height="11" fill="#fff"/><path width="58" height="15" fill="none" stroke="#000" stroke-width="4" d="M15,20 A0,0 0 0 1 15,20 h58 A0,0 0 0 1 73,20"/><path width="58" height="15" fill="none" stroke="#000" stroke-width="4" d="M73,35 A0,0 0 0 1 73,35 h-58 A0,0 0 0 1 15,35"/></mask><path width="58" height="15" clip-path="url(#satori_bc-id-0-0)" fill="none" stroke="white" stroke-width="4" d="M15,20 A0,0 0 0 1 15,20 h58 A0,0 0 0 1 73,20"/><path width="58" height="15" clip-path="url(#satori_bc-id-0-0)" fill="none" stroke="white" stroke-width="4" d="M73,35 A0,0 0 0 1 73,35 h-58 A0,0 0 0 1 15,35"/><mask id="satori_om-id-1"><rect x="0" y="0" width="88" height="54" fill="#fff"/></mask><defs><clipPath id="satori_bc-id-1-0"><path x="0" y="0" width="88" height="54" d="M15,0 h58 a15,27 0 0 1 15,27 v0 a15,27 0 0 1 -15,27 h-58 a15,27 0 0 1 -15,-27 v0 a15,27 0 0 1 15,-27"/></clipPath></defs><clipPath id="satori_cp-id-1-0"><path x="0" y="0" width="88" height="54" d="M15,0 h58 a15,27 0 0 1 15,27 v0 a15,27 0 0 1 -15,27 h-58 a15,27 0 0 1 -15,-27 v0 a15,27 0 0 1 15,-27"/></clipPath><mask id="satori_om-id-1-0"><rect x="2" y="2" width="84" height="50" fill="#fff"/><path width="88" height="54" fill="none" stroke="#000" stroke-width="4" d="M1.888,13.888 A15,27 0 0 1 15,0 h58 a15,27 0 0 1 15,27 v0 a15,27 0 0 1 -15,27 h-58 a15,27 0 0 1 -15,-27 v0 A15,27 0 0 1 1.888,13.888"/></mask><path width="88" height="54" clip-path="url(#satori_bc-id-1-0)" fill="none" stroke="white" stroke-width="4" d="M1.888,13.888 A15,27 0 0 1 15,0 h58 a15,27 0 0 1 15,27 v0 a15,27 0 0 1 -15,27 h-58 a15,27 0 0 1 -15,-27 v0 A15,27 0 0 1 1.888,13.888"/><mask id="satori_om-id-1-0-0"><rect x="2" y="2" width="84" height="50" fill="#fff" mask="url(#satori_om-id-1-0)"/></mask><mask id="satori_om-id-1-0-0-0"><rect x="2" y="2" width="84" height="50" fill="#fff" mask="url(#satori_om-id-1-0)"/></mask><rect x="2" y="2" width="84" height="50" fill="#FF9E18" clip-path="url(#satori_cp-id-1-0)" mask="url(#satori_om-id-1-0)"/><mask id="satori_om-id-1-0-0-0-0"><rect x="11" y="18" width="66" height="19" fill="#fff" mask="url(#satori_om-id-1-0)"/></mask><mask id="satori_om-id-1-0-0-0-0-0"><rect x="11" y="18" width="31" height="19" fill="#fff" mask="url(#satori_om-id-1-0)"/></mask><path fill="#231F20" d="M25.3 19.2L25.3 19.2L24.6 21.6Q24.0 21.3 23.1 21.0Q22.3 20.7 21.2 20.7L21.2 20.7Q19.6 20.7 18.5 21.6Q17.4 22.6 16.8 24.3Q16.3 26.0 16.3 28.1L16.3 28.1Q16.3 31.6 17.6 33.6Q18.8 35.6 21.0 35.6L21.0 35.6Q21.7 35.6 22.4 35.4Q23.1 35.2 23.7 34.9Q24.3 34.7 24.6 34.5L24.6 34.5L25.4 36.8Q24.5 37.3 23.2 37.6Q22.0 37.9 20.3 37.9L20.3 37.9Q18.1 37.9 16.5 37.1Q14.9 36.3 13.9 34.9Q13.0 33.6 12.5 31.8Q12.0 30.1 12.0 28.2L12.0 28.2Q12.0 25.4 13.0 23.2Q14.1 21.0 16.0 19.7Q18.0 18.4 20.7 18.4L20.7 18.4Q23.4 18.4 25.3 19.2ZM39.6 19.2L39.6 19.2L38.8 21.6Q38.3 21.3 37.4 21.0Q36.5 20.7 35.5 20.7L35.5 20.7Q33.8 20.7 32.7 21.6Q31.6 22.6 31.1 24.3Q30.5 26.0 30.5 28.1L30.5 28.1Q30.5 31.6 31.8 33.6Q33.1 35.6 35.2 35.6L35.2 35.6Q36.0 35.6 36.7 35.4Q37.4 35.2 37.9 34.9Q38.5 34.7 38.8 34.5L38.8 34.5L39.6 36.8Q38.7 37.3 37.5 37.6Q36.2 37.9 34.5 37.9L34.5 37.9Q32.3 37.9 30.7 37.1Q29.2 36.3 28.2 34.9Q27.2 33.6 26.7 31.8Q26.2 30.1 26.2 28.2L26.2 28.2Q26.2 25.4 27.3 23.2Q28.3 21.0 30.2 19.7Q32.2 18.4 35.0 18.4L35.0 18.4Q37.6 18.4 39.6 19.2Z " transform="matrix(1.00,0.00,0.00,1.00,0.00,-1.00)" clip-path="url(#satori_cp-id-1-0)" mask="url(#satori_om-id-1-0)"/><mask id="satori_om-id-1-0-0-0-0-1"><rect x="46" y="18" width="31" height="19" fill="#fff" mask="url(#satori_om-id-1-0)"/></mask><path fill="#231F20" d="M50.5 34.5L50.5 34.5L59.8 34.5L59.8 37.6L46.3 37.6L46.3 35.7Q49.1 33.3 51.9 30.2L51.9 30.2Q53.6 28.4 54.5 26.8Q55.4 25.3 55.4 23.8L55.4 23.8Q55.4 22.8 55.0 22.2Q54.6 21.5 54.0 21.2Q53.4 20.9 52.9 20.8Q52.3 20.6 51.9 20.6L51.9 20.6Q50.6 20.6 49.6 20.9Q48.6 21.2 48.2 21.5L48.2 21.5L47.4 19.3Q48.2 18.9 49.4 18.7Q50.7 18.4 52.8 18.4L52.8 18.4Q54.9 18.4 56.3 19.0Q57.8 19.7 58.6 20.8Q59.3 21.9 59.3 23.3L59.3 23.3Q59.3 24.7 58.5 26.2Q57.7 27.6 56.0 29.4L56.0 29.4Q54.0 31.4 50.5 34.5ZM62.3 30.3L71.3 18.7L73.6 18.7L73.6 30.0L75.9 30.0L75.9 32.3L73.6 32.3L73.6 37.6L70.1 37.6L70.1 32.3L62.3 32.3L62.3 30.3ZM70.1 30.0L70.1 23.3L65.0 30.0L70.1 30.0Z " transform="matrix(1.00,0.00,0.00,1.00,0.00,-1.00)" clip-path="url(#satori_cp-id-1-0)" mask="url(#satori_om-id-1-0)"/></svg>