<svg width="88" height="54" viewBox="0 0 88 54" xmlns="http://www.w3.org/2000/svg"><mask id="satori_om-id"><rect x="0" y="0" width="88" height="54" fill="#fff"/></mask><mask id="satori_om-id-0"><rect x="15" y="0" width="58" height="54" fill="#fff"/></mask><defs><clipPath id="satori_bc-id-0-0"><rect x="15" y="20" width="58" height="15"/></clipPath></defs><mask id="satori_om-id-0-0"><rect x="15" y="22" width="58" height="11" fill="#fff"/><path width="58" height="15" fill="none" stroke="#000" stroke-width="4" d="M15,20 A0,0 0 0 1 15,20 h58 A0,0 0 0 1 73,20"/><path width="58" height="15" fill="none" stroke="#000" stroke-width="4" d="M73,35 A0,0 0 0 1 73,35 h-58 A0,0 0 0 1 15,35"/></mask><path width="58" height="15" clip-path="url(#satori_bc-id-0-0)" fill="none" stroke="white" stroke-width="4" d="M15,20 A0,0 0 0 1 15,20 h58 A0,0 0 0 1 73,20"/><path width="58" height="15" clip-path="url(#satori_bc-id-0-0)" fill="none" stroke="white" stroke-width="4" d="M73,35 A0,0 0 0 1 73,35 h-58 A0,0 0 0 1 15,35"/><mask id="satori_om-id-1"><rect x="0" y="0" width="88" height="54" fill="#fff"/></mask><defs><clipPath id="satori_bc-id-1-0"><path x="0" y="0" width="88" height="54" d="M15,0 h58 a15,27 0 0 1 15,27 v0 a15,27 0 0 1 -15,27 h-58 a15,27 0 0 1 -15,-27 v0 a15,27 0 0 1 15,-27"/></clipPath></defs><clipPath id="satori_cp-id-1-0"><path x="0" y="0" width="88" height="54" d="M15,0 h58 a15,27 0 0 1 15,27 v0 a15,27 0 0 1 -15,27 h-58 a15,27 0 0 1 -15,-27 v0 a15,27 0 0 1 15,-27"/></clipPath><mask id="satori_om-id-1-0"><rect x="2" y="2" width="84" height="50" fill="#fff"/><path width="88" height="54" fill="none" stroke="#000" stroke-width="4" d="M1.888,13.888 A15,27 0 0 1 15,0 h58 a15,27 0 0 1 15,27 v0 a15,27 0 0 1 -15,27 h-58 a15,27 0 0 1 -15,-27 v0 A15,27 0 0 1 1.888,13.888"/></mask><path width="88" height="54" clip-path="url(#satori_bc-id-1-0)" fill="none" stroke="white" stroke-width="4" d="M1.888,13.888 A15,27 0 0 1 15,0 h58 a15,27 0 0 1 15,27 v0 a15,27 0 0 1 -15,27 h-58 a15,27 0 0 1 -15,-27 v0 A15,27 0 0 1 1.888,13.888"/><mask id="satori_om-id-1-0-0"><rect x="2" y="2" width="84" height="50" fill="#fff" mask="url(#satori_om-id-1-0)"/></mask><mask id="satori_om-id-1-0-0-0"><rect x="2" y="2" width="84" height="50" fill="#fff" mask="url(#satori_om-id-1-0)"/></mask><rect x="2" y="2" width="84" height="50" fill="#FF9E18" clip-path="url(#satori_cp-id-1-0)" mask="url(#satori_om-id-1-0)"/><mask id="satori_om-id-1-0-0-0-0"><rect x="19" y="18" width="51" height="19" fill="#fff" mask="url(#satori_om-id-1-0)"/></mask><mask id="satori_om-id-1-0-0-0-0-0"><rect x="19" y="18" width="31" height="19" fill="#fff" mask="url(#satori_om-id-1-0)"/></mask><path fill="#231F20" d="M33.3 19.2L33.3 19.2L32.6 21.6Q32.0 21.3 31.1 21.0Q30.3 20.7 29.2 20.7L29.2 20.7Q27.6 20.7 26.5 21.6Q25.4 22.6 24.8 24.3Q24.3 26.0 24.3 28.1L24.3 28.1Q24.3 31.6 25.6 33.6Q26.8 35.6 29.0 35.6L29.0 35.6Q29.7 35.6 30.4 35.4Q31.1 35.2 31.7 34.9Q32.3 34.7 32.6 34.5L32.6 34.5L33.4 36.8Q32.5 37.3 31.2 37.6Q30.0 37.9 28.3 37.9L28.3 37.9Q26.1 37.9 24.5 37.1Q22.9 36.3 21.9 34.9Q21.0 33.6 20.5 31.8Q20.0 30.1 20.0 28.2L20.0 28.2Q20.0 25.4 21.0 23.2Q22.1 21.0 24.0 19.7Q26.0 18.4 28.7 18.4L28.7 18.4Q31.4 18.4 33.3 19.2ZM47.6 19.2L47.6 19.2L46.8 21.6Q46.3 21.3 45.4 21.0Q44.5 20.7 43.5 20.7L43.5 20.7Q41.8 20.7 40.7 21.6Q39.6 22.6 39.1 24.3Q38.5 26.0 38.5 28.1L38.5 28.1Q38.5 31.6 39.8 33.6Q41.1 35.6 43.2 35.6L43.2 35.6Q44.0 35.6 44.7 35.4Q45.4 35.2 45.9 34.9Q46.5 34.7 46.8 34.5L46.8 34.5L47.6 36.8Q46.7 37.3 45.5 37.6Q44.2 37.9 42.5 37.9L42.5 37.9Q40.3 37.9 38.7 37.1Q37.2 36.3 36.2 34.9Q35.2 33.6 34.7 31.8Q34.2 30.1 34.2 28.2L34.2 28.2Q34.2 25.4 35.3 23.2Q36.3 21.0 38.2 19.7Q40.2 18.4 43.0 18.4L43.0 18.4Q45.6 18.4 47.6 19.2Z " transform="matrix(1.00,0.00,0.00,1.00,0.00,-1.00)" clip-path="url(#satori_cp-id-1-0)" mask="url(#satori_om-id-1-0)"/><mask id="satori_om-id-1-0-0-0-0-1"><rect x="54" y="18" width="16" height="19" fill="#fff" mask="url(#satori_om-id-1-0)"/></mask><path fill="#231F20" d="M56.1 29.2L56.1 18.7L66.7 18.7L66.7 21.7L58.3 21.7L58.3 26.5Q59.1 26.2 59.9 26.1Q60.7 26.0 61.3 26.0L61.3 26.0Q62.6 26.0 63.8 26.4Q65.0 26.7 65.9 27.5Q66.8 28.2 67.4 29.2Q67.9 30.3 67.9 31.6L67.9 31.6Q67.9 32.8 67.4 34.0Q67.0 35.1 66.0 36.0Q65.1 36.9 63.7 37.4Q62.3 37.9 60.6 37.9L60.6 37.9Q59.3 37.9 58.3 37.7Q57.3 37.5 56.6 37.2Q55.8 37.0 55.3 36.7L55.3 36.7L56.1 34.5Q56.8 34.9 57.8 35.2Q58.8 35.6 60.2 35.6L60.2 35.6Q61.2 35.6 62.1 35.2Q63.0 34.9 63.5 34.0Q64.0 33.2 64.0 31.8L64.0 31.8Q64.0 30.7 63.7 30.0Q63.3 29.3 62.7 28.9Q62.1 28.5 61.4 28.3Q60.7 28.1 59.9 28.1L59.9 28.1Q59.0 28.1 58.2 28.3Q57.5 28.5 57.0 28.7Q56.5 29.0 56.1 29.2L56.1 29.2Z " transform="matrix(1.00,0.00,0.00,1.00,0.00,-1.00)" clip-path="url(#satori_cp-id-1-0)" mask="url(#satori_om-id-1-0)"/></svg>