<svg width="88" height="54" viewBox="0 0 88 54" xmlns="http://www.w3.org/2000/svg"><mask id="satori_om-id"><rect x="0" y="0" width="88" height="54" fill="#fff"/></mask><mask id="satori_om-id-0"><rect x="15" y="0" width="58" height="54" fill="#fff"/></mask><defs><clipPath id="satori_bc-id-0-0"><rect x="15" y="20" width="58" height="15"/></clipPath></defs><mask id="satori_om-id-0-0"><rect x="15" y="22" width="58" height="11" fill="#fff"/><path width="58" height="15" fill="none" stroke="#000" stroke-width="4" d="M15,20 A0,0 0 0 1 15,20 h58 A0,0 0 0 1 73,20"/><path width="58" height="15" fill="none" stroke="#000" stroke-width="4" d="M73,35 A0,0 0 0 1 73,35 h-58 A0,0 0 0 1 15,35"/></mask><path width="58" height="15" clip-path="url(#satori_bc-id-0-0)" fill="none" stroke="white" stroke-width="4" d="M15,20 A0,0 0 0 1 15,20 h58 A0,0 0 0 1 73,20"/><path width="58" height="15" clip-path="url(#satori_bc-id-0-0)" fill="none" stroke="white" stroke-width="4" d="M73,35 A0,0 0 0 1 73,35 h-58 A0,0 0 0 1 15,35"/><mask id="satori_om-id-1"><rect x="0" y="0" width="88" height="54" fill="#fff"/></mask><defs><clipPath id="satori_bc-id-1-0"><path x="0" y="0" width="88" height="54" d="M15,0 h58 a15,27 0 0 1 15,27 v0 a15,27 0 0 1 -15,27 h-58 a15,27 0 0 1 -15,-27 v0 a15,27 0 0 1 15,-27"/></clipPath></defs><clipPath id="satori_cp-id-1-0"><path x="0" y="0" width="88" height="54" d="M15,0 h58 a15,27 0 0 1 15,27 v0 a15,27 0 0 1 -15,27 h-58 a15,27 0 0 1 -15,-27 v0 a15,27 0 0 1 15,-27"/></clipPath><mask id="satori_om-id-1-0"><rect x="2" y="2" width="84" height="50" fill="#fff"/><path width="88" height="54" fill="none" stroke="#000" stroke-width="4" d="M1.888,13.888 A15,27 0 0 1 15,0 h58 a15,27 0 0 1 15,27 v0 a15,27 0 0 1 -15,27 h-58 a15,27 0 0 1 -15,-27 v0 A15,27 0 0 1 1.888,13.888"/></mask><path width="88" height="54" clip-path="url(#satori_bc-id-1-0)" fill="none" stroke="white" stroke-width="4" d="M1.888,13.888 A15,27 0 0 1 15,0 h58 a15,27 0 0 1 15,27 v0 a15,27 0 0 1 -15,27 h-58 a15,27 0 0 1 -15,-27 v0 A15,27 0 0 1 1.888,13.888"/><mask id="satori_om-id-1-0-0"><rect x="2" y="2" width="84" height="50" fill="#fff" mask="url(#satori_om-id-1-0)"/></mask><mask id="satori_om-id-1-0-0-0"><rect x="2" y="2" width="84" height="50" fill="#fff" mask="url(#satori_om-id-1-0)"/></mask><rect x="2" y="2" width="84" height="50" fill="#FF9E18" clip-path="url(#satori_cp-id-1-0)" mask="url(#satori_om-id-1-0)"/><mask id="satori_om-id-1-0-0-0-0"><rect x="18" y="18" width="52" height="19" fill="#fff" mask="url(#satori_om-id-1-0)"/></mask><mask id="satori_om-id-1-0-0-0-0-0"><rect x="18" y="18" width="31" height="19" fill="#fff" mask="url(#satori_om-id-1-0)"/></mask><path fill="#231F20" d="M32.3 19.2L32.3 19.2L31.6 21.6Q31.0 21.3 30.1 21.0Q29.3 20.7 28.2 20.7L28.2 20.7Q26.6 20.7 25.5 21.6Q24.4 22.6 23.8 24.3Q23.3 26.0 23.3 28.1L23.3 28.1Q23.3 31.6 24.6 33.6Q25.8 35.6 28.0 35.6L28.0 35.6Q28.7 35.6 29.4 35.4Q30.1 35.2 30.7 34.9Q31.3 34.7 31.6 34.5L31.6 34.5L32.4 36.8Q31.5 37.3 30.2 37.6Q29.0 37.9 27.3 37.9L27.3 37.9Q25.1 37.9 23.5 37.1Q21.9 36.3 20.9 34.9Q20.0 33.6 19.5 31.8Q19.0 30.1 19.0 28.2L19.0 28.2Q19.0 25.4 20.0 23.2Q21.1 21.0 23.0 19.7Q25.0 18.4 27.7 18.4L27.7 18.4Q30.4 18.4 32.3 19.2ZM46.6 19.2L46.6 19.2L45.8 21.6Q45.3 21.3 44.4 21.0Q43.5 20.7 42.5 20.7L42.5 20.7Q40.8 20.7 39.7 21.6Q38.6 22.6 38.1 24.3Q37.5 26.0 37.5 28.1L37.5 28.1Q37.5 31.6 38.8 33.6Q40.1 35.6 42.2 35.6L42.2 35.6Q43.0 35.6 43.7 35.4Q44.4 35.2 44.9 34.9Q45.5 34.7 45.8 34.5L45.8 34.5L46.6 36.8Q45.7 37.3 44.5 37.6Q43.2 37.9 41.5 37.9L41.5 37.9Q39.3 37.9 37.7 37.1Q36.2 36.3 35.2 34.9Q34.2 33.6 33.7 31.8Q33.2 30.1 33.2 28.2L33.2 28.2Q33.2 25.4 34.3 23.2Q35.3 21.0 37.2 19.7Q39.2 18.4 42.0 18.4L42.0 18.4Q44.6 18.4 46.6 19.2Z " transform="matrix(1.00,0.00,0.00,1.00,0.00,-1.00)" clip-path="url(#satori_cp-id-1-0)" mask="url(#satori_om-id-1-0)"/><mask id="satori_om-id-1-0-0-0-0-1"><rect x="53" y="18" width="17" height="19" fill="#fff" mask="url(#satori_om-id-1-0)"/></mask><path fill="#231F20" d="M67.3 19.3L67.3 19.3L66.6 21.5Q66.1 21.2 65.2 20.9Q64.4 20.6 63.3 20.6L63.3 20.6Q61.8 20.6 60.9 21.4Q59.9 22.3 59.4 23.9Q58.9 25.4 58.9 27.5L58.9 27.5Q58.9 27.8 58.9 28.1L58.9 28.1Q59.4 27.1 60.2 26.6Q60.9 26.1 61.7 25.9Q62.4 25.7 63.0 25.7L63.0 25.7Q64.4 25.7 65.6 26.4Q66.8 27.0 67.5 28.3Q68.3 29.6 68.3 31.5L68.3 31.5Q68.3 33.3 67.5 34.8Q66.8 36.2 65.3 37.1Q63.9 37.9 61.9 37.9L61.9 37.9Q60.3 37.9 59.1 37.3Q57.9 36.7 57.1 35.8Q56.3 34.8 55.9 33.6Q55.4 32.4 55.2 31.0Q55.0 29.7 55.0 28.5L55.0 28.5Q55.0 25.2 56.1 22.9Q57.2 20.7 59.0 19.5Q60.8 18.4 63.1 18.4L63.1 18.4Q64.1 18.4 64.9 18.6Q65.8 18.7 66.4 18.9Q67.0 19.2 67.3 19.3ZM59.2 32.0L59.2 32.0Q59.2 32.6 59.3 33.3Q59.4 34.0 59.7 34.6Q60.0 35.2 60.5 35.6Q61.1 36.0 61.9 36.0L61.9 36.0Q62.8 36.0 63.3 35.6Q63.8 35.1 64.1 34.5Q64.4 33.9 64.5 33.1Q64.6 32.4 64.6 31.8L64.6 31.8Q64.6 30.3 64.2 29.5Q63.8 28.6 63.2 28.3Q62.6 27.9 61.9 27.9L61.9 27.9Q60.5 27.9 59.9 29.0Q59.2 30.1 59.2 32.0Z " transform="matrix(1.00,0.00,0.00,1.00,0.00,-1.00)" clip-path="url(#satori_cp-id-1-0)" mask="url(#satori_om-id-1-0)"/></svg>