<svg width="88" height="54" viewBox="0 0 88 54" xmlns="http://www.w3.org/2000/svg"><mask id="satori_om-id"><rect x="0" y="0" width="88" height="54" fill="#fff"/></mask><mask id="satori_om-id-0"><rect x="15" y="0" width="58" height="54" fill="#fff"/></mask><defs><clipPath id="satori_bc-id-0-0"><rect x="15" y="20" width="58" height="15"/></clipPath></defs><mask id="satori_om-id-0-0"><rect x="15" y="22" width="58" height="11" fill="#fff"/><path width="58" height="15" fill="none" stroke="#000" stroke-width="4" d="M15,20 A0,0 0 0 1 15,20 h58 A0,0 0 0 1 73,20"/><path width="58" height="15" fill="none" stroke="#000" stroke-width="4" d="M73,35 A0,0 0 0 1 73,35 h-58 A0,0 0 0 1 15,35"/></mask><path width="58" height="15" clip-path="url(#satori_bc-id-0-0)" fill="none" stroke="white" stroke-width="4" d="M15,20 A0,0 0 0 1 15,20 h58 A0,0 0 0 1 73,20"/><path width="58" height="15" clip-path="url(#satori_bc-id-0-0)" fill="none" stroke="white" stroke-width="4" d="M73,35 A0,0 0 0 1 73,35 h-58 A0,0 0 0 1 15,35"/><mask id="satori_om-id-1"><rect x="0" y="0" width="88" height="54" fill="#fff"/></mask><defs><clipPath id="satori_bc-id-1-0"><path x="0" y="0" width="88" height="54" d="M15,0 h58 a15,27 0 0 1 15,27 v0 a15,27 0 0 1 -15,27 h-58 a15,27 0 0 1 -15,-27 v0 a15,27 0 0 1 15,-27"/></clipPath></defs><clipPath id="satori_cp-id-1-0"><path x="0" y="0" width="88" height="54" d="M15,0 h58 a15,27 0 0 1 15,27 v0 a15,27 0 0 1 -15,27 h-58 a15,27 0 0 1 -15,-27 v0 a15,27 0 0 1 15,-27"/></clipPath><mask id="satori_om-id-1-0"><rect x="2" y="2" width="84" height="50" fill="#fff"/><path width="88" height="54" fill="none" stroke="#000" stroke-width="4" d="M1.888,13.888 A15,27 0 0 1 15,0 h58 a15,27 0 0 1 15,27 v0 a15,27 0 0 1 -15,27 h-58 a15,27 0 0 1 -15,-27 v0 A15,27 0 0 1 1.888,13.888"/></mask><path width="88" height="54" clip-path="url(#satori_bc-id-1-0)" fill="none" stroke="white" stroke-width="4" d="M1.888,13.888 A15,27 0 0 1 15,0 h58 a15,27 0 0 1 15,27 v0 a15,27 0 0 1 -15,27 h-58 a15,27 0 0 1 -15,-27 v0 A15,27 0 0 1 1.888,13.888"/><mask id="satori_om-id-1-0-0"><rect x="2" y="2" width="84" height="50" fill="#fff" mask="url(#satori_om-id-1-0)"/></mask><mask id="satori_om-id-1-0-0-0"><rect x="2" y="2" width="84" height="50" fill="#fff" mask="url(#satori_om-id-1-0)"/></mask><rect x="2" y="2" width="84" height="50" fill="#FF9E18" clip-path="url(#satori_cp-id-1-0)" mask="url(#satori_om-id-1-0)"/><mask id="satori_om-id-1-0-0-0-0"><rect x="18" y="18" width="52" height="19" fill="#fff" mask="url(#satori_om-id-1-0)"/></mask><mask id="satori_om-id-1-0-0-0-0-0"><rect x="18" y="18" width="31" height="19" fill="#fff" mask="url(#satori_om-id-1-0)"/></mask><path fill="#231F20" d="M32.3 19.2L32.3 19.2L31.6 21.6Q31.0 21.3 30.1 21.0Q29.3 20.7 28.2 20.7L28.2 20.7Q26.6 20.7 25.5 21.6Q24.4 22.6 23.8 24.3Q23.3 26.0 23.3 28.1L23.3 28.1Q23.3 31.6 24.6 33.6Q25.8 35.6 28.0 35.6L28.0 35.6Q28.7 35.6 29.4 35.4Q30.1 35.2 30.7 34.9Q31.3 34.7 31.6 34.5L31.6 34.5L32.4 36.8Q31.5 37.3 30.2 37.6Q29.0 37.9 27.3 37.9L27.3 37.9Q25.1 37.9 23.5 37.1Q21.9 36.3 20.9 34.9Q20.0 33.6 19.5 31.8Q19.0 30.1 19.0 28.2L19.0 28.2Q19.0 25.4 20.0 23.2Q21.1 21.0 23.0 19.7Q25.0 18.4 27.7 18.4L27.7 18.4Q30.4 18.4 32.3 19.2ZM46.6 19.2L46.6 19.2L45.8 21.6Q45.3 21.3 44.4 21.0Q43.5 20.7 42.5 20.7L42.5 20.7Q40.8 20.7 39.7 21.6Q38.6 22.6 38.1 24.3Q37.5 26.0 37.5 28.1L37.5 28.1Q37.5 31.6 38.8 33.6Q40.1 35.6 42.2 35.6L42.2 35.6Q43.0 35.6 43.7 35.4Q44.4 35.2 44.9 34.9Q45.5 34.7 45.8 34.5L45.8 34.5L46.6 36.8Q45.7 37.3 44.5 37.6Q43.2 37.9 41.5 37.9L41.5 37.9Q39.3 37.9 37.7 37.1Q36.2 36.3 35.2 34.9Q34.2 33.6 33.7 31.8Q33.2 30.1 33.2 28.2L33.2 28.2Q33.2 25.4 34.3 23.2Q35.3 21.0 37.2 19.7Q39.2 18.4 42.0 18.4L42.0 18.4Q44.6 18.4 46.6 19.2Z " transform="matrix(1.00,0.00,0.00,1.00,0.00,-1.00)" clip-path="url(#satori_cp-id-1-0)" mask="url(#satori_om-id-1-0)"/><mask id="satori_om-id-1-0-0-0-0-1"><rect x="53" y="18" width="17" height="19" fill="#fff" mask="url(#satori_om-id-1-0)"/></mask><path fill="#231F20" d="M68.0 23.1L68.0 23.1Q68.0 24.7 66.9 26.0Q65.8 27.2 64.1 27.7L64.1 27.7Q64.5 27.8 65.0 27.9Q65.5 28.1 66.1 28.4Q66.7 28.7 67.3 29.2Q67.8 29.8 68.1 30.5Q68.5 31.3 68.5 32.5L68.5 32.5Q68.5 33.5 68.1 34.5Q67.7 35.4 66.8 36.2Q66.0 37.0 64.7 37.4Q63.4 37.9 61.6 37.9L61.6 37.9Q59.8 37.9 58.5 37.4Q57.2 37.0 56.4 36.2Q55.6 35.4 55.3 34.5Q54.9 33.6 54.9 32.7L54.9 32.7Q54.9 31.6 55.3 30.7Q55.8 29.9 56.4 29.3Q57.0 28.7 57.8 28.3Q58.6 27.9 59.3 27.7L59.3 27.7Q57.8 27.3 57.0 26.5Q56.1 25.8 55.8 24.9Q55.5 24.0 55.5 23.2L55.5 23.2Q55.5 22.3 55.8 21.5Q56.2 20.6 56.9 19.9Q57.7 19.2 58.9 18.8Q60.1 18.4 61.8 18.4L61.8 18.4Q63.5 18.4 64.7 18.8Q65.9 19.3 66.7 20.0Q67.4 20.7 67.7 21.5Q68.0 22.4 68.0 23.1ZM59.0 23.5L59.0 23.5Q59.0 25.0 59.8 25.9Q60.5 26.8 61.7 26.8L61.7 26.8Q62.9 26.8 63.6 25.9Q64.4 25.1 64.4 23.5L64.4 23.5Q64.4 22.6 64.1 21.9Q63.8 21.1 63.2 20.7Q62.6 20.3 61.7 20.3L61.7 20.3Q60.8 20.3 60.2 20.8Q59.6 21.3 59.3 22.0Q59.0 22.8 59.0 23.5ZM58.8 32.3L58.8 32.3Q58.8 33.5 59.2 34.4Q59.6 35.2 60.3 35.6Q60.9 36.1 61.7 36.1L61.7 36.1Q62.7 36.1 63.3 35.6Q64.0 35.1 64.3 34.2Q64.6 33.4 64.6 32.3L64.6 32.3Q64.6 31.1 64.2 30.3Q63.8 29.5 63.2 29.1Q62.5 28.7 61.7 28.7L61.7 28.7Q60.4 28.7 59.6 29.6Q58.8 30.6 58.8 32.3Z " transform="matrix(1.00,0.00,0.00,1.00,0.00,-1.00)" clip-path="url(#satori_cp-id-1-0)" mask="url(#satori_om-id-1-0)"/></svg>