<svg width="172" height="54" viewBox="0 0 172 54" xmlns="http://www.w3.org/2000/svg"><mask id="satori_om-id"><rect x="0" y="0" width="172" height="54" fill="#fff"/></mask><mask id="satori_om-id-0"><rect x="15" y="0" width="142" height="54" fill="#fff"/></mask><defs><clipPath id="satori_bc-id-0-0"><rect x="15" y="20" width="142" height="15"/></clipPath></defs><mask id="satori_om-id-0-0"><rect x="15" y="22" width="142" height="11" fill="#fff"/><path width="142" height="15" fill="none" stroke="#000" stroke-width="4" d="M15,20 A0,0 0 0 1 15,20 h142 A0,0 0 0 1 157,20"/><path width="142" height="15" fill="none" stroke="#000" stroke-width="4" d="M157,35 A0,0 0 0 1 157,35 h-142 A0,0 0 0 1 15,35"/></mask><path width="142" height="15" clip-path="url(#satori_bc-id-0-0)" fill="none" stroke="white" stroke-width="4" d="M15,20 A0,0 0 0 1 15,20 h142 A0,0 0 0 1 157,20"/><path width="142" height="15" clip-path="url(#satori_bc-id-0-0)" fill="none" stroke="white" stroke-width="4" d="M157,35 A0,0 0 0 1 157,35 h-142 A0,0 0 0 1 15,35"/><mask id="satori_om-id-1"><rect x="0" y="0" width="172" height="54" fill="#fff"/></mask><defs><clipPath id="satori_bc-id-1-0"><path x="0" y="0" width="172" height="54" d="M15,0 h142 a15,27 0 0 1 15,27 v0 a15,27 0 0 1 -15,27 h-142 a15,27 0 0 1 -15,-27 v0 a15,27 0 0 1 15,-27"/></clipPath></defs><clipPath id="satori_cp-id-1-0"><path x="0" y="0" width="172" height="54" d="M15,0 h142 a15,27 0 0 1 15,27 v0 a15,27 0 0 1 -15,27 h-142 a15,27 0 0 1 -15,-27 v0 a15,27 0 0 1 15,-27"/></clipPath><mask id="satori_om-id-1-0"><rect x="2" y="2" width="168" height="50" fill="#fff"/><path width="172" height="54" fill="none" stroke="#000" stroke-width="4" d="M1.888,13.888 A15,27 0 0 1 15,0 h142 a15,27 0 0 1 15,27 v0 a15,27 0 0 1 -15,27 h-142 a15,27 0 0 1 -15,-27 v0 A15,27 0 0 1 1.888,13.888"/></mask><path width="172" height="54" clip-path="url(#satori_bc-id-1-0)" fill="none" stroke="white" stroke-width="4" d="M1.888,13.888 A15,27 0 0 1 15,0 h142 a15,27 0 0 1 15,27 v0 a15,27 0 0 1 -15,27 h-142 a15,27 0 0 1 -15,-27 v0 A15,27 0 0 1 1.888,13.888"/><mask id="satori_om-id-1-0-0"><rect x="2" y="2" width="84" height="50" fill="#fff" mask="url(#satori_om-id-1-0)"/></mask><mask id="satori_om-id-1-0-0-0"><rect x="2" y="2" width="84" height="50" fill="#fff" mask="url(#satori_om-id-1-0)"/></mask><rect x="2" y="2" width="84" height="50" fill="#005DA6" clip-path="url(#satori_cp-id-1-0)" mask="url(#satori_om-id-1-0)"/><mask id="satori_om-id-1-0-0-0-0"><rect x="20" y="18" width="48" height="19" fill="#fff" mask="url(#satori_om-id-1-0)"/></mask><mask id="satori_om-id-1-0-0-0-0-0"><rect x="20" y="18" width="32" height="19" fill="#fff" mask="url(#satori_om-id-1-0)"/></mask><path fill="white" d="M27.2 20.8L27.2 20.8L26.1 20.8L26.1 35.5L27.0 35.5Q27.7 35.5 28.5 35.4Q29.2 35.4 29.9 35.0Q30.6 34.6 31.1 33.7Q31.7 32.9 32.0 31.4Q32.3 29.9 32.3 27.6L32.3 27.6Q32.3 25.6 32.0 24.3Q31.7 23.1 31.2 22.3Q30.7 21.6 30.1 21.3Q29.4 20.9 28.7 20.9Q27.9 20.8 27.2 20.8ZM26.2 37.6L22.3 37.6L22.3 24.0Q22.3 23.3 23.1 22.3Q24.0 21.2 25.3 20.9L25.3 20.9L25.3 20.8L21.8 20.8L21.7 18.7L26.8 18.7Q28.0 18.7 29.2 18.7Q30.5 18.8 31.7 19.2Q32.9 19.6 33.9 20.5L33.9 20.5Q35.1 21.6 35.6 22.9Q36.1 24.2 36.3 25.5Q36.4 26.8 36.4 27.6L36.4 27.6Q36.4 29.1 36.1 30.9Q35.7 32.6 34.8 34.1Q33.8 35.6 32.1 36.6L32.1 36.6Q30.8 37.2 29.4 37.4Q28.0 37.6 26.2 37.6L26.2 37.6ZM44.7 37.6L40.8 37.6L40.8 24.2Q40.8 23.5 41.7 22.5Q42.6 21.4 43.9 21.1L43.9 21.1L43.9 21.0L36.0 21.0L35.8 18.7L49.6 18.7L49.6 21.0L44.7 21.0L44.7 37.6Z " transform="matrix(1.00,0.00,0.00,1.00,0.00,-1.00)" clip-path="url(#satori_cp-id-1-0)" mask="url(#satori_om-id-1-0)"/><mask id="satori_om-id-1-0-0-0-0-1"><rect x="56" y="18" width="12" height="19" fill="#fff" mask="url(#satori_om-id-1-0)"/></mask><path fill="white" d="M56.0 22.5L62.8 18.7L65.2 18.7L65.2 37.6L61.6 37.6L61.6 21.6L56.9 24.3L56.0 22.5Z " transform="matrix(1.00,0.00,0.00,1.00,0.00,-1.00)" clip-path="url(#satori_cp-id-1-0)" mask="url(#satori_om-id-1-0)"/><mask id="satori_om-id-1-0-1"><rect x="86" y="2" width="84" height="50" fill="#fff" mask="url(#satori_om-id-1-0)"/></mask><mask id="satori_om-id-1-0-1-0"><rect x="86" y="2" width="84" height="50" fill="#fff" mask="url(#satori_om-id-1-0)"/></mask><rect x="86" y="2" width="84" height="50" fill="#718472" clip-path="url(#satori_cp-id-1-0)" mask="url(#satori_om-id-1-0)"/><mask id="satori_om-id-1-0-1-0-0"><rect x="101" y="18" width="55" height="19" fill="#fff" mask="url(#satori_om-id-1-0)"/></mask><mask id="satori_om-id-1-0-1-0-0-0"><rect x="101" y="18" width="34" height="19" fill="#fff" mask="url(#satori_om-id-1-0)"/></mask><path fill="white" d="M107.0 20.8L107.0 26.8L108.0 26.8Q108.6 26.8 109.4 26.7Q110.2 26.7 110.8 26.3L110.8 26.3Q111.6 25.9 111.9 25.2Q112.3 24.4 112.3 23.5L112.3 23.5Q112.3 22.9 112.0 22.2Q111.8 21.6 111.2 21.2L111.2 21.2Q110.7 20.9 110.0 20.8Q109.3 20.8 108.3 20.8L108.3 20.8L107.0 20.8ZM107.0 28.8L107.0 35.4L108.3 35.4Q109.0 35.4 109.8 35.4Q110.7 35.3 111.3 35.0L111.3 35.0Q112.1 34.5 112.4 33.7Q112.8 32.8 112.8 32.0L112.8 32.0Q112.8 31.1 112.5 30.4Q112.2 29.7 111.4 29.3L111.4 29.3Q110.8 28.9 110.0 28.9Q109.2 28.8 108.0 28.8L108.0 28.8L107.0 28.8ZM102.8 20.8L102.7 18.7L108.9 18.7Q110.4 18.7 111.6 18.8Q112.9 18.9 113.9 19.5L113.9 19.5Q114.9 20.0 115.4 20.9Q116.0 21.8 116.0 23.0L116.0 23.0Q116.0 24.6 114.9 25.9Q113.9 27.2 111.8 27.6L111.8 27.6Q112.4 27.7 113.2 27.9Q114.0 28.1 114.9 28.6L114.9 28.6Q116.7 29.8 116.7 32.2L116.7 32.2Q116.7 33.7 115.9 34.9Q115.1 36.1 113.6 36.8L113.6 36.8Q112.6 37.2 111.3 37.4Q110.0 37.6 108.0 37.6L108.0 37.6L103.3 37.6L103.3 24.0Q103.3 23.3 104.1 22.3Q105.0 21.2 106.3 20.9L106.3 20.9L106.3 20.8L102.8 20.8ZM125.4 20.8L125.4 20.8L123.5 20.8L123.5 27.5L125.2 27.5Q125.7 27.5 126.4 27.4Q127.1 27.3 127.7 27.0Q128.3 26.6 128.7 25.9Q129.1 25.1 129.1 23.8L129.1 23.8Q129.1 22.7 128.8 22.1Q128.4 21.5 127.9 21.2Q127.3 20.9 126.6 20.9Q126.0 20.8 125.4 20.8ZM123.5 37.6L119.7 37.6L119.7 24.1Q119.7 23.3 120.5 22.3Q121.4 21.2 122.7 20.9L122.7 20.9L122.7 20.8L119.3 20.8L119.1 18.7L125.2 18.7Q127.2 18.7 128.5 18.8Q129.7 18.9 130.8 19.5L130.8 19.5Q131.6 20.0 132.1 20.7Q132.6 21.4 132.8 22.2Q133.0 23.0 133.0 23.7L133.0 23.7Q133.0 25.3 132.4 26.4Q131.7 27.6 130.7 28.2Q129.6 28.9 128.3 29.2Q127.1 29.4 125.8 29.4L125.8 29.4L123.5 29.4L123.5 37.6Z " transform="matrix(1.00,0.00,0.00,1.00,0.00,-1.00)" clip-path="url(#satori_cp-id-1-0)" mask="url(#satori_om-id-1-0)"/><mask id="satori_om-id-1-0-1-0-0-1"><rect x="139" y="18" width="17" height="19" fill="#fff" mask="url(#satori_om-id-1-0)"/></mask><path fill="white" d="M153.3 19.3L153.3 19.3L152.6 21.5Q152.1 21.2 151.2 20.9Q150.4 20.6 149.3 20.6L149.3 20.6Q147.8 20.6 146.9 21.4Q145.9 22.3 145.4 23.9Q144.9 25.4 144.9 27.5L144.9 27.5Q144.9 27.8 144.9 28.1L144.9 28.1Q145.4 27.1 146.2 26.6Q146.9 26.1 147.7 25.9Q148.4 25.7 149.0 25.7L149.0 25.7Q150.4 25.7 151.6 26.4Q152.8 27.0 153.5 28.3Q154.3 29.6 154.3 31.5L154.3 31.5Q154.3 33.3 153.5 34.8Q152.8 36.2 151.3 37.1Q149.9 37.9 147.9 37.9L147.9 37.9Q146.3 37.9 145.1 37.3Q143.9 36.7 143.1 35.8Q142.3 34.8 141.9 33.6Q141.4 32.4 141.2 31.0Q141.0 29.7 141.0 28.5L141.0 28.5Q141.0 25.2 142.1 22.9Q143.2 20.7 145.0 19.5Q146.8 18.4 149.1 18.4L149.1 18.4Q150.1 18.4 150.9 18.6Q151.8 18.7 152.4 18.9Q153.0 19.2 153.3 19.3ZM145.2 32.0L145.2 32.0Q145.2 32.6 145.3 33.3Q145.4 34.0 145.7 34.6Q146.0 35.2 146.5 35.6Q147.1 36.0 147.9 36.0L147.9 36.0Q148.8 36.0 149.3 35.6Q149.8 35.1 150.1 34.5Q150.4 33.9 150.5 33.1Q150.6 32.4 150.6 31.8L150.6 31.8Q150.6 30.3 150.2 29.5Q149.8 28.6 149.2 28.3Q148.6 27.9 147.9 27.9L147.9 27.9Q146.5 27.9 145.9 29.0Q145.2 30.1 145.2 32.0Z " transform="matrix(1.00,0.00,0.00,1.00,0.00,-1.00)" clip-path="url(#satori_cp-id-1-0)" mask="url(#satori_om-id-1-0)"/></svg>