<svg width="88" height="54" viewBox="0 0 88 54" xmlns="http://www.w3.org/2000/svg"><mask id="satori_om-id"><rect x="0" y="0" width="88" height="54" fill="#fff"/></mask><mask id="satori_om-id-0"><rect x="15" y="0" width="58" height="54" fill="#fff"/></mask><defs><clipPath id="satori_bc-id-0-0"><rect x="15" y="20" width="58" height="15"/></clipPath></defs><mask id="satori_om-id-0-0"><rect x="15" y="22" width="58" height="11" fill="#fff"/><path width="58" height="15" fill="none" stroke="#000" stroke-width="4" d="M15,20 A0,0 0 0 1 15,20 h58 A0,0 0 0 1 73,20"/><path width="58" height="15" fill="none" stroke="#000" stroke-width="4" d="M73,35 A0,0 0 0 1 73,35 h-58 A0,0 0 0 1 15,35"/></mask><path width="58" height="15" clip-path="url(#satori_bc-id-0-0)" fill="none" stroke="white" stroke-width="4" d="M15,20 A0,0 0 0 1 15,20 h58 A0,0 0 0 1 73,20"/><path width="58" height="15" clip-path="url(#satori_bc-id-0-0)" fill="none" stroke="white" stroke-width="4" d="M73,35 A0,0 0 0 1 73,35 h-58 A0,0 0 0 1 15,35"/><mask id="satori_om-id-1"><rect x="0" y="0" width="88" height="54" fill="#fff"/></mask><defs><clipPath id="satori_bc-id-1-0"><path x="0" y="0" width="88" height="54" d="M15,0 h58 a15,27 0 0 1 15,27 v0 a15,27 0 0 1 -15,27 h-58 a15,27 0 0 1 -15,-27 v0 a15,27 0 0 1 15,-27"/></clipPath></defs><clipPath id="satori_cp-id-1-0"><path x="0" y="0" width="88" height="54" d="M15,0 h58 a15,27 0 0 1 15,27 v0 a15,27 0 0 1 -15,27 h-58 a15,27 0 0 1 -15,-27 v0 a15,27 0 0 1 15,-27"/></clipPath><mask id="satori_om-id-1-0"><rect x="2" y="2" width="84" height="50" fill="#fff"/><path width="88" height="54" fill="none" stroke="#000" stroke-width="4" d="M1.888,13.888 A15,27 0 0 1 15,0 h58 a15,27 0 0 1 15,27 v0 a15,27 0 0 1 -15,27 h-58 a15,27 0 0 1 -15,-27 v0 A15,27 0 0 1 1.888,13.888"/></mask><path width="88" height="54" clip-path="url(#satori_bc-id-1-0)" fill="none" stroke="white" stroke-width="4" d="M1.888,13.888 A15,27 0 0 1 15,0 h58 a15,27 0 0 1 15,27 v0 a15,27 0 0 1 -15,27 h-58 a15,27 0 0 1 -15,-27 v0 A15,27 0 0 1 1.888,13.888"/><mask id="satori_om-id-1-0-0"><rect x="2" y="2" width="84" height="50" fill="#fff" mask="url(#satori_om-id-1-0)"/></mask><mask id="satori_om-id-1-0-0-0"><rect x="2" y="2" width="84" height="50" fill="#fff" mask="url(#satori_om-id-1-0)"/></mask><rect x="2" y="2" width="84" height="50" fill="#005DA6" clip-path="url(#satori_cp-id-1-0)" mask="url(#satori_om-id-1-0)"/><mask id="satori_om-id-1-0-0-0-0"><rect x="13" y="18" width="63" height="19" fill="#fff" mask="url(#satori_om-id-1-0)"/></mask><mask id="satori_om-id-1-0-0-0-0-0"><rect x="13" y="18" width="32" height="19" fill="#fff" mask="url(#satori_om-id-1-0)"/></mask><path fill="white" d="M20.2 20.8L20.2 20.8L19.1 20.8L19.1 35.5L20.0 35.5Q20.7 35.5 21.5 35.4Q22.2 35.4 22.9 35.0Q23.6 34.6 24.1 33.7Q24.7 32.9 25.0 31.4Q25.3 29.9 25.3 27.6L25.3 27.6Q25.3 25.6 25.0 24.3Q24.7 23.1 24.2 22.3Q23.7 21.6 23.1 21.3Q22.4 20.9 21.7 20.9Q20.9 20.8 20.2 20.8ZM19.2 37.6L15.3 37.6L15.3 24.0Q15.3 23.3 16.1 22.3Q17.0 21.2 18.3 20.9L18.3 20.9L18.3 20.8L14.8 20.8L14.7 18.7L19.8 18.7Q21.0 18.7 22.2 18.7Q23.5 18.8 24.7 19.2Q25.9 19.6 26.9 20.5L26.9 20.5Q28.1 21.6 28.6 22.9Q29.1 24.2 29.3 25.5Q29.4 26.8 29.4 27.6L29.4 27.6Q29.4 29.1 29.1 30.9Q28.7 32.6 27.8 34.1Q26.8 35.6 25.1 36.6L25.1 36.6Q23.8 37.2 22.4 37.4Q21.0 37.6 19.2 37.6L19.2 37.6ZM37.7 37.6L33.8 37.6L33.8 24.2Q33.8 23.5 34.7 22.5Q35.6 21.4 36.9 21.1L36.9 21.1L36.9 21.0L29.0 21.0L28.8 18.7L42.6 18.7L42.6 21.0L37.7 21.0L37.7 37.6Z " transform="matrix(1.00,0.00,0.00,1.00,0.00,-1.00)" clip-path="url(#satori_cp-id-1-0)" mask="url(#satori_om-id-1-0)"/><mask id="satori_om-id-1-0-0-0-0-1"><rect x="49" y="18" width="27" height="19" fill="#fff" mask="url(#satori_om-id-1-0)"/></mask><path fill="white" d="M53.5 34.5L53.5 34.5L62.8 34.5L62.8 37.6L49.3 37.6L49.3 35.7Q52.1 33.3 54.9 30.2L54.9 30.2Q56.6 28.4 57.5 26.8Q58.4 25.3 58.4 23.8L58.4 23.8Q58.4 22.8 58.0 22.2Q57.6 21.5 57.0 21.2Q56.4 20.9 55.9 20.8Q55.3 20.6 54.9 20.6L54.9 20.6Q53.6 20.6 52.6 20.9Q51.6 21.2 51.2 21.5L51.2 21.5L50.4 19.3Q51.2 18.9 52.4 18.7Q53.7 18.4 55.8 18.4L55.8 18.4Q57.9 18.4 59.3 19.0Q60.8 19.7 61.6 20.8Q62.3 21.9 62.3 23.3L62.3 23.3Q62.3 24.7 61.5 26.2Q60.7 27.6 59.0 29.4L59.0 29.4Q57.0 31.4 53.5 34.5ZM64.1 22.5L71.0 18.7L73.3 18.7L73.3 37.6L69.7 37.6L69.7 21.6L65.0 24.3L64.1 22.5Z " transform="matrix(1.00,0.00,0.00,1.00,0.00,-1.00)" clip-path="url(#satori_cp-id-1-0)" mask="url(#satori_om-id-1-0)"/></svg>