<svg width="88" height="54" viewBox="0 0 88 54" xmlns="http://www.w3.org/2000/svg"><mask id="satori_om-id"><rect x="0" y="0" width="88" height="54" fill="#fff"/></mask><mask id="satori_om-id-0"><rect x="15" y="0" width="58" height="54" fill="#fff"/></mask><defs><clipPath id="satori_bc-id-0-0"><rect x="15" y="20" width="58" height="15"/></clipPath></defs><mask id="satori_om-id-0-0"><rect x="15" y="22" width="58" height="11" fill="#fff"/><path width="58" height="15" fill="none" stroke="#000" stroke-width="4" d="M15,20 A0,0 0 0 1 15,20 h58 A0,0 0 0 1 73,20"/><path width="58" height="15" fill="none" stroke="#000" stroke-width="4" d="M73,35 A0,0 0 0 1 73,35 h-58 A0,0 0 0 1 15,35"/></mask><path width="58" height="15" clip-path="url(#satori_bc-id-0-0)" fill="none" stroke="white" stroke-width="4" d="M15,20 A0,0 0 0 1 15,20 h58 A0,0 0 0 1 73,20"/><path width="58" height="15" clip-path="url(#satori_bc-id-0-0)" fill="none" stroke="white" stroke-width="4" d="M73,35 A0,0 0 0 1 73,35 h-58 A0,0 0 0 1 15,35"/><mask id="satori_om-id-1"><rect x="0" y="0" width="88" height="54" fill="#fff"/></mask><defs><clipPath id="satori_bc-id-1-0"><path x="0" y="0" width="88" height="54" d="M15,0 h58 a15,27 0 0 1 15,27 v0 a15,27 0 0 1 -15,27 h-58 a15,27 0 0 1 -15,-27 v0 a15,27 0 0 1 15,-27"/></clipPath></defs><clipPath id="satori_cp-id-1-0"><path x="0" y="0" width="88" height="54" d="M15,0 h58 a15,27 0 0 1 15,27 v0 a15,27 0 0 1 -15,27 h-58 a15,27 0 0 1 -15,-27 v0 a15,27 0 0 1 15,-27"/></clipPath><mask id="satori_om-id-1-0"><rect x="2" y="2" width="84" height="50" fill="#fff"/><path width="88" height="54" fill="none" stroke="#000" stroke-width="4" d="M1.888,13.888 A15,27 0 0 1 15,0 h58 a15,27 0 0 1 15,27 v0 a15,27 0 0 1 -15,27 h-58 a15,27 0 0 1 -15,-27 v0 A15,27 0 0 1 1.888,13.888"/></mask><path width="88" height="54" clip-path="url(#satori_bc-id-1-0)" fill="none" stroke="white" stroke-width="4" d="M1.888,13.888 A15,27 0 0 1 15,0 h58 a15,27 0 0 1 15,27 v0 a15,27 0 0 1 -15,27 h-58 a15,27 0 0 1 -15,-27 v0 A15,27 0 0 1 1.888,13.888"/><mask id="satori_om-id-1-0-0"><rect x="2" y="2" width="84" height="50" fill="#fff" mask="url(#satori_om-id-1-0)"/></mask><mask id="satori_om-id-1-0-0-0"><rect x="2" y="2" width="84" height="50" fill="#fff" mask="url(#satori_om-id-1-0)"/></mask><rect x="2" y="2" width="84" height="50" fill="#005DA6" clip-path="url(#satori_cp-id-1-0)" mask="url(#satori_om-id-1-0)"/><mask id="satori_om-id-1-0-0-0-0"><rect x="11" y="18" width="66" height="19" fill="#fff" mask="url(#satori_om-id-1-0)"/></mask><mask id="satori_om-id-1-0-0-0-0-0"><rect x="11" y="18" width="32" height="19" fill="#fff" mask="url(#satori_om-id-1-0)"/></mask><path fill="white" d="M18.2 20.8L18.2 20.8L17.1 20.8L17.1 35.5L18.0 35.5Q18.7 35.5 19.5 35.4Q20.2 35.4 20.9 35.0Q21.6 34.6 22.1 33.7Q22.7 32.9 23.0 31.4Q23.3 29.9 23.3 27.6L23.3 27.6Q23.3 25.6 23.0 24.3Q22.7 23.1 22.2 22.3Q21.7 21.6 21.1 21.3Q20.4 20.9 19.7 20.9Q18.9 20.8 18.2 20.8ZM17.2 37.6L13.3 37.6L13.3 24.0Q13.3 23.3 14.1 22.3Q15.0 21.2 16.3 20.9L16.3 20.9L16.3 20.8L12.8 20.8L12.7 18.7L17.8 18.7Q19.0 18.7 20.2 18.7Q21.5 18.8 22.7 19.2Q23.9 19.6 24.9 20.5L24.9 20.5Q26.1 21.6 26.6 22.9Q27.1 24.2 27.3 25.5Q27.4 26.8 27.4 27.6L27.4 27.6Q27.4 29.1 27.1 30.9Q26.7 32.6 25.8 34.1Q24.8 35.6 23.1 36.6L23.1 36.6Q21.8 37.2 20.4 37.4Q19.0 37.6 17.2 37.6L17.2 37.6ZM35.7 37.6L31.8 37.6L31.8 24.2Q31.8 23.5 32.7 22.5Q33.6 21.4 34.9 21.1L34.9 21.1L34.9 21.0L27.0 21.0L26.8 18.7L40.6 18.7L40.6 21.0L35.7 21.0L35.7 37.6Z " transform="matrix(1.00,0.00,0.00,1.00,0.00,-1.00)" clip-path="url(#satori_cp-id-1-0)" mask="url(#satori_om-id-1-0)"/><mask id="satori_om-id-1-0-0-0-0-1"><rect x="47" y="18" width="30" height="19" fill="#fff" mask="url(#satori_om-id-1-0)"/></mask><path fill="white" d="M51.5 34.5L51.5 34.5L60.8 34.5L60.8 37.6L47.3 37.6L47.3 35.7Q50.1 33.3 52.9 30.2L52.9 30.2Q54.6 28.4 55.5 26.8Q56.4 25.3 56.4 23.8L56.4 23.8Q56.4 22.8 56.0 22.2Q55.6 21.5 55.0 21.2Q54.4 20.9 53.9 20.8Q53.3 20.6 52.9 20.6L52.9 20.6Q51.6 20.6 50.6 20.9Q49.6 21.2 49.2 21.5L49.2 21.5L48.4 19.3Q49.2 18.9 50.4 18.7Q51.7 18.4 53.8 18.4L53.8 18.4Q55.9 18.4 57.3 19.0Q58.8 19.7 59.6 20.8Q60.3 21.9 60.3 23.3L60.3 23.3Q60.3 24.7 59.5 26.2Q58.7 27.6 57.0 29.4L57.0 29.4Q55.0 31.4 51.5 34.5ZM75.5 32.2L75.5 32.2Q75.5 33.8 74.6 35.1Q73.6 36.4 72.0 37.1Q70.3 37.9 68.1 37.9L68.1 37.9Q66.3 37.9 65.0 37.5Q63.7 37.2 62.8 36.7L62.8 36.7L63.5 34.5Q64.0 34.8 65.2 35.2Q66.3 35.6 67.7 35.6L67.7 35.6Q69.1 35.6 69.9 35.1Q70.8 34.6 71.2 33.9Q71.6 33.1 71.6 32.1L71.6 32.1Q71.6 31.1 71.0 30.2Q70.4 29.3 69.3 28.8L69.3 28.8Q68.7 28.7 67.9 28.6Q67.1 28.5 66.4 28.5L66.4 28.5L65.4 28.5L65.4 26.7L66.2 26.7Q67.0 26.7 67.8 26.6Q68.6 26.5 69.3 26.0L69.3 26.0Q69.9 25.7 70.3 25.1Q70.7 24.4 70.7 23.5L70.7 23.5Q70.7 22.1 69.8 21.3Q69.0 20.6 67.5 20.6L67.5 20.6Q66.3 20.6 65.4 20.9Q64.5 21.2 64.0 21.5L64.0 21.5L63.3 19.4Q63.9 19.0 65.1 18.7Q66.3 18.4 68.3 18.4L68.3 18.4Q71.1 18.4 72.8 19.6Q74.4 20.7 74.4 22.8L74.4 22.8Q74.4 24.0 73.9 24.9Q73.3 25.8 72.3 26.4Q71.4 27.0 70.3 27.4L70.3 27.4Q71.8 27.6 73.0 28.2Q74.1 28.8 74.8 29.8Q75.5 30.8 75.5 32.2Z " transform="matrix(1.00,0.00,0.00,1.00,0.00,-1.00)" clip-path="url(#satori_cp-id-1-0)" mask="url(#satori_om-id-1-0)"/></svg>