<svg width="88" height="54" viewBox="0 0 88 54" xmlns="http://www.w3.org/2000/svg"><mask id="satori_om-id"><rect x="0" y="0" width="88" height="54" fill="#fff"/></mask><mask id="satori_om-id-0"><rect x="15" y="0" width="58" height="54" fill="#fff"/></mask><defs><clipPath id="satori_bc-id-0-0"><rect x="15" y="20" width="58" height="15"/></clipPath></defs><mask id="satori_om-id-0-0"><rect x="15" y="22" width="58" height="11" fill="#fff"/><path width="58" height="15" fill="none" stroke="#000" stroke-width="4" d="M15,20 A0,0 0 0 1 15,20 h58 A0,0 0 0 1 73,20"/><path width="58" height="15" fill="none" stroke="#000" stroke-width="4" d="M73,35 A0,0 0 0 1 73,35 h-58 A0,0 0 0 1 15,35"/></mask><path width="58" height="15" clip-path="url(#satori_bc-id-0-0)" fill="none" stroke="white" stroke-width="4" d="M15,20 A0,0 0 0 1 15,20 h58 A0,0 0 0 1 73,20"/><path width="58" height="15" clip-path="url(#satori_bc-id-0-0)" fill="none" stroke="white" stroke-width="4" d="M73,35 A0,0 0 0 1 73,35 h-58 A0,0 0 0 1 15,35"/><mask id="satori_om-id-1"><rect x="0" y="0" width="88" height="54" fill="#fff"/></mask><defs><clipPath id="satori_bc-id-1-0"><path x="0" y="0" width="88" height="54" d="M15,0 h58 a15,27 0 0 1 15,27 v0 a15,27 0 0 1 -15,27 h-58 a15,27 0 0 1 -15,-27 v0 a15,27 0 0 1 15,-27"/></clipPath></defs><clipPath id="satori_cp-id-1-0"><path x="0" y="0" width="88" height="54" d="M15,0 h58 a15,27 0 0 1 15,27 v0 a15,27 0 0 1 -15,27 h-58 a15,27 0 0 1 -15,-27 v0 a15,27 0 0 1 15,-27"/></clipPath><mask id="satori_om-id-1-0"><rect x="2" y="2" width="84" height="50" fill="#fff"/><path width="88" height="54" fill="none" stroke="#000" stroke-width="4" d="M1.888,13.888 A15,27 0 0 1 15,0 h58 a15,27 0 0 1 15,27 v0 a15,27 0 0 1 -15,27 h-58 a15,27 0 0 1 -15,-27 v0 A15,27 0 0 1 1.888,13.888"/></mask><path width="88" height="54" clip-path="url(#satori_bc-id-1-0)" fill="none" stroke="white" stroke-width="4" d="M1.888,13.888 A15,27 0 0 1 15,0 h58 a15,27 0 0 1 15,27 v0 a15,27 0 0 1 -15,27 h-58 a15,27 0 0 1 -15,-27 v0 A15,27 0 0 1 1.888,13.888"/><mask id="satori_om-id-1-0-0"><rect x="2" y="2" width="84" height="50" fill="#fff" mask="url(#satori_om-id-1-0)"/></mask><mask id="satori_om-id-1-0-0-0"><rect x="2" y="2" width="84" height="50" fill="#fff" mask="url(#satori_om-id-1-0)"/></mask><rect x="2" y="2" width="84" height="50" fill="#005DA6" clip-path="url(#satori_cp-id-1-0)" mask="url(#satori_om-id-1-0)"/><mask id="satori_om-id-1-0-0-0-0"><rect x="11" y="18" width="67" height="19" fill="#fff" mask="url(#satori_om-id-1-0)"/></mask><mask id="satori_om-id-1-0-0-0-0-0"><rect x="11" y="18" width="32" height="19" fill="#fff" mask="url(#satori_om-id-1-0)"/></mask><path fill="white" d="M18.2 20.8L18.2 20.8L17.1 20.8L17.1 35.5L18.0 35.5Q18.7 35.5 19.5 35.4Q20.2 35.4 20.9 35.0Q21.6 34.6 22.1 33.7Q22.7 32.9 23.0 31.4Q23.3 29.9 23.3 27.6L23.3 27.6Q23.3 25.6 23.0 24.3Q22.7 23.1 22.2 22.3Q21.7 21.6 21.1 21.3Q20.4 20.9 19.7 20.9Q18.9 20.8 18.2 20.8ZM17.2 37.6L13.3 37.6L13.3 24.0Q13.3 23.3 14.1 22.3Q15.0 21.2 16.3 20.9L16.3 20.9L16.3 20.8L12.8 20.8L12.7 18.7L17.8 18.7Q19.0 18.7 20.2 18.7Q21.5 18.8 22.7 19.2Q23.9 19.6 24.9 20.5L24.9 20.5Q26.1 21.6 26.6 22.9Q27.1 24.2 27.3 25.5Q27.4 26.8 27.4 27.6L27.4 27.6Q27.4 29.1 27.1 30.9Q26.7 32.6 25.8 34.1Q24.8 35.6 23.1 36.6L23.1 36.6Q21.8 37.2 20.4 37.4Q19.0 37.6 17.2 37.6L17.2 37.6ZM35.7 37.6L31.8 37.6L31.8 24.2Q31.8 23.5 32.7 22.5Q33.6 21.4 34.9 21.1L34.9 21.1L34.9 21.0L27.0 21.0L26.8 18.7L40.6 18.7L40.6 21.0L35.7 21.0L35.7 37.6Z " transform="matrix(1.00,0.00,0.00,1.00,0.00,-1.00)" clip-path="url(#satori_cp-id-1-0)" mask="url(#satori_om-id-1-0)"/><mask id="satori_om-id-1-0-0-0-0-1"><rect x="47" y="18" width="31" height="19" fill="#fff" mask="url(#satori_om-id-1-0)"/></mask><path fill="white" d="M51.5 34.5L51.5 34.5L60.8 34.5L60.8 37.6L47.3 37.6L47.3 35.7Q50.1 33.3 52.9 30.2L52.9 30.2Q54.6 28.4 55.5 26.8Q56.4 25.3 56.4 23.8L56.4 23.8Q56.4 22.8 56.0 22.2Q55.6 21.5 55.0 21.2Q54.4 20.9 53.9 20.8Q53.3 20.6 52.9 20.6L52.9 20.6Q51.6 20.6 50.6 20.9Q49.6 21.2 49.2 21.5L49.2 21.5L48.4 19.3Q49.2 18.9 50.4 18.7Q51.7 18.4 53.8 18.4L53.8 18.4Q55.9 18.4 57.3 19.0Q58.8 19.7 59.6 20.8Q60.3 21.9 60.3 23.3L60.3 23.3Q60.3 24.7 59.5 26.2Q58.7 27.6 57.0 29.4L57.0 29.4Q55.0 31.4 51.5 34.5ZM64.2 29.2L64.2 18.7L74.8 18.7L74.8 21.7L66.4 21.7L66.4 26.5Q67.3 26.2 68.0 26.1Q68.8 26.0 69.4 26.0L69.4 26.0Q70.7 26.0 71.9 26.4Q73.1 26.7 74 27.5Q74.9 28.2 75.5 29.2Q76.0 30.3 76.0 31.6L76.0 31.6Q76.0 32.8 75.5 34.0Q75.1 35.1 74.1 36.0Q73.2 36.9 71.8 37.4Q70.5 37.9 68.7 37.9L68.7 37.9Q67.4 37.9 66.4 37.7Q65.5 37.5 64.7 37.2Q64.0 37.0 63.4 36.7L63.4 36.7L64.2 34.5Q64.9 34.9 65.9 35.2Q66.9 35.6 68.3 35.6L68.3 35.6Q69.3 35.6 70.2 35.2Q71.1 34.9 71.6 34.0Q72.1 33.2 72.1 31.8L72.1 31.8Q72.1 30.7 71.8 30.0Q71.4 29.3 70.8 28.9Q70.2 28.5 69.5 28.3Q68.8 28.1 68.0 28.1L68.0 28.1Q67.1 28.1 66.4 28.3Q65.6 28.5 65.1 28.7Q64.6 29.0 64.2 29.2L64.2 29.2Z " transform="matrix(1.00,0.00,0.00,1.00,0.00,-1.00)" clip-path="url(#satori_cp-id-1-0)" mask="url(#satori_om-id-1-0)"/></svg>