<svg width="88" height="54" viewBox="0 0 88 54" xmlns="http://www.w3.org/2000/svg"><mask id="satori_om-id"><rect x="0" y="0" width="88" height="54" fill="#fff"/></mask><mask id="satori_om-id-0"><rect x="15" y="0" width="58" height="54" fill="#fff"/></mask><defs><clipPath id="satori_bc-id-0-0"><rect x="15" y="20" width="58" height="15"/></clipPath></defs><mask id="satori_om-id-0-0"><rect x="15" y="22" width="58" height="11" fill="#fff"/><path width="58" height="15" fill="none" stroke="#000" stroke-width="4" d="M15,20 A0,0 0 0 1 15,20 h58 A0,0 0 0 1 73,20"/><path width="58" height="15" fill="none" stroke="#000" stroke-width="4" d="M73,35 A0,0 0 0 1 73,35 h-58 A0,0 0 0 1 15,35"/></mask><path width="58" height="15" clip-path="url(#satori_bc-id-0-0)" fill="none" stroke="white" stroke-width="4" d="M15,20 A0,0 0 0 1 15,20 h58 A0,0 0 0 1 73,20"/><path width="58" height="15" clip-path="url(#satori_bc-id-0-0)" fill="none" stroke="white" stroke-width="4" d="M73,35 A0,0 0 0 1 73,35 h-58 A0,0 0 0 1 15,35"/><mask id="satori_om-id-1"><rect x="0" y="0" width="88" height="54" fill="#fff"/></mask><defs><clipPath id="satori_bc-id-1-0"><path x="0" y="0" width="88" height="54" d="M15,0 h58 a15,27 0 0 1 15,27 v0 a15,27 0 0 1 -15,27 h-58 a15,27 0 0 1 -15,-27 v0 a15,27 0 0 1 15,-27"/></clipPath></defs><clipPath id="satori_cp-id-1-0"><path x="0" y="0" width="88" height="54" d="M15,0 h58 a15,27 0 0 1 15,27 v0 a15,27 0 0 1 -15,27 h-58 a15,27 0 0 1 -15,-27 v0 a15,27 0 0 1 15,-27"/></clipPath><mask id="satori_om-id-1-0"><rect x="2" y="2" width="84" height="50" fill="#fff"/><path width="88" height="54" fill="none" stroke="#000" stroke-width="4" d="M1.888,13.888 A15,27 0 0 1 15,0 h58 a15,27 0 0 1 15,27 v0 a15,27 0 0 1 -15,27 h-58 a15,27 0 0 1 -15,-27 v0 A15,27 0 0 1 1.888,13.888"/></mask><path width="88" height="54" clip-path="url(#satori_bc-id-1-0)" fill="none" stroke="white" stroke-width="4" d="M1.888,13.888 A15,27 0 0 1 15,0 h58 a15,27 0 0 1 15,27 v0 a15,27 0 0 1 -15,27 h-58 a15,27 0 0 1 -15,-27 v0 A15,27 0 0 1 1.888,13.888"/><mask id="satori_om-id-1-0-0"><rect x="2" y="2" width="84" height="50" fill="#fff" mask="url(#satori_om-id-1-0)"/></mask><mask id="satori_om-id-1-0-0-0"><rect x="2" y="2" width="84" height="50" fill="#fff" mask="url(#satori_om-id-1-0)"/></mask><rect x="2" y="2" width="84" height="50" fill="#005DA6" clip-path="url(#satori_cp-id-1-0)" mask="url(#satori_om-id-1-0)"/><mask id="satori_om-id-1-0-0-0-0"><rect x="10" y="18" width="68" height="19" fill="#fff" mask="url(#satori_om-id-1-0)"/></mask><mask id="satori_om-id-1-0-0-0-0-0"><rect x="10" y="18" width="32" height="19" fill="#fff" mask="url(#satori_om-id-1-0)"/></mask><path fill="white" d="M17.2 20.8L17.2 20.8L16.1 20.8L16.1 35.5L17.0 35.5Q17.7 35.5 18.5 35.4Q19.2 35.4 19.9 35.0Q20.6 34.6 21.1 33.7Q21.7 32.9 22.0 31.4Q22.3 29.9 22.3 27.6L22.3 27.6Q22.3 25.6 22.0 24.3Q21.7 23.1 21.2 22.3Q20.7 21.6 20.1 21.3Q19.4 20.9 18.7 20.9Q17.9 20.8 17.2 20.8ZM16.2 37.6L12.3 37.6L12.3 24.0Q12.3 23.3 13.1 22.3Q14.0 21.2 15.3 20.9L15.3 20.9L15.3 20.8L11.8 20.8L11.7 18.7L16.8 18.7Q18.0 18.7 19.2 18.7Q20.5 18.8 21.7 19.2Q22.9 19.6 23.9 20.5L23.9 20.5Q25.1 21.6 25.6 22.9Q26.1 24.2 26.3 25.5Q26.4 26.8 26.4 27.6L26.4 27.6Q26.4 29.1 26.1 30.9Q25.7 32.6 24.8 34.1Q23.8 35.6 22.1 36.6L22.1 36.6Q20.8 37.2 19.4 37.4Q18.0 37.6 16.2 37.6L16.2 37.6ZM34.7 37.6L30.8 37.6L30.8 24.2Q30.8 23.5 31.7 22.5Q32.6 21.4 33.9 21.1L33.9 21.1L33.9 21.0L26.0 21.0L25.8 18.7L39.6 18.7L39.6 21.0L34.7 21.0L34.7 37.6Z " transform="matrix(1.00,0.00,0.00,1.00,0.00,-1.00)" clip-path="url(#satori_cp-id-1-0)" mask="url(#satori_om-id-1-0)"/><mask id="satori_om-id-1-0-0-0-0-1"><rect x="46" y="18" width="32" height="19" fill="#fff" mask="url(#satori_om-id-1-0)"/></mask><path fill="white" d="M50.5 34.5L50.5 34.5L59.8 34.5L59.8 37.6L46.3 37.6L46.3 35.7Q49.1 33.3 51.9 30.2L51.9 30.2Q53.6 28.4 54.5 26.8Q55.4 25.3 55.4 23.8L55.4 23.8Q55.4 22.8 55.0 22.2Q54.6 21.5 54.0 21.2Q53.4 20.9 52.9 20.8Q52.3 20.6 51.9 20.6L51.9 20.6Q50.6 20.6 49.6 20.9Q48.6 21.2 48.2 21.5L48.2 21.5L47.4 19.3Q48.2 18.9 49.4 18.7Q50.7 18.4 52.8 18.4L52.8 18.4Q54.9 18.4 56.3 19.0Q57.8 19.7 58.6 20.8Q59.3 21.9 59.3 23.3L59.3 23.3Q59.3 24.7 58.5 26.2Q57.7 27.6 56.0 29.4L56.0 29.4Q54.0 31.4 50.5 34.5ZM76.1 23.1L76.1 23.1Q76.1 24.7 75.0 26.0Q73.9 27.2 72.2 27.7L72.2 27.7Q72.6 27.8 73.1 27.9Q73.6 28.1 74.2 28.4Q74.8 28.7 75.4 29.2Q75.9 29.8 76.2 30.5Q76.6 31.3 76.6 32.5L76.6 32.5Q76.6 33.5 76.2 34.5Q75.8 35.4 74.9 36.2Q74.1 37.0 72.8 37.4Q71.5 37.9 69.7 37.9L69.7 37.9Q67.9 37.9 66.6 37.4Q65.3 37.0 64.5 36.2Q63.7 35.4 63.4 34.5Q63.0 33.6 63.0 32.7L63.0 32.7Q63.0 31.6 63.5 30.7Q63.9 29.9 64.5 29.3Q65.2 28.7 65.9 28.3Q66.7 27.9 67.4 27.7L67.4 27.7Q65.9 27.3 65.1 26.5Q64.2 25.8 63.9 24.9Q63.6 24.0 63.6 23.2L63.6 23.2Q63.6 22.3 63.9 21.5Q64.3 20.6 65.1 19.9Q65.8 19.2 67.0 18.8Q68.2 18.4 69.9 18.4L69.9 18.4Q71.6 18.4 72.8 18.8Q74.0 19.3 74.8 20.0Q75.5 20.7 75.8 21.5Q76.1 22.4 76.1 23.1ZM67.1 23.5L67.1 23.5Q67.1 25.0 67.9 25.9Q68.6 26.8 69.8 26.8L69.8 26.8Q71.0 26.8 71.7 25.9Q72.5 25.1 72.5 23.5L72.5 23.5Q72.5 22.6 72.2 21.9Q71.9 21.1 71.3 20.7Q70.7 20.3 69.8 20.3L69.8 20.3Q68.9 20.3 68.3 20.8Q67.7 21.3 67.4 22.0Q67.1 22.8 67.1 23.5ZM66.9 32.3L66.9 32.3Q66.9 33.5 67.3 34.4Q67.7 35.2 68.4 35.6Q69.0 36.1 69.8 36.1L69.8 36.1Q70.8 36.1 71.4 35.6Q72.1 35.1 72.4 34.2Q72.7 33.4 72.7 32.3L72.7 32.3Q72.7 31.1 72.3 30.3Q71.9 29.5 71.3 29.1Q70.6 28.7 69.8 28.7L69.8 28.7Q68.6 28.7 67.7 29.6Q66.9 30.6 66.9 32.3Z " transform="matrix(1.00,0.00,0.00,1.00,0.00,-1.00)" clip-path="url(#satori_cp-id-1-0)" mask="url(#satori_om-id-1-0)"/></svg>