<svg width="88" height="54" viewBox="0 0 88 54" xmlns="http://www.w3.org/2000/svg"><mask id="satori_om-id"><rect x="0" y="0" width="88" height="54" fill="#fff"/></mask><mask id="satori_om-id-0"><rect x="15" y="0" width="58" height="54" fill="#fff"/></mask><defs><clipPath id="satori_bc-id-0-0"><rect x="15" y="20" width="58" height="15"/></clipPath></defs><mask id="satori_om-id-0-0"><rect x="15" y="22" width="58" height="11" fill="#fff"/><path width="58" height="15" fill="none" stroke="#000" stroke-width="4" d="M15,20 A0,0 0 0 1 15,20 h58 A0,0 0 0 1 73,20"/><path width="58" height="15" fill="none" stroke="#000" stroke-width="4" d="M73,35 A0,0 0 0 1 73,35 h-58 A0,0 0 0 1 15,35"/></mask><path width="58" height="15" clip-path="url(#satori_bc-id-0-0)" fill="none" stroke="white" stroke-width="4" d="M15,20 A0,0 0 0 1 15,20 h58 A0,0 0 0 1 73,20"/><path width="58" height="15" clip-path="url(#satori_bc-id-0-0)" fill="none" stroke="white" stroke-width="4" d="M73,35 A0,0 0 0 1 73,35 h-58 A0,0 0 0 1 15,35"/><mask id="satori_om-id-1"><rect x="0" y="0" width="88" height="54" fill="#fff"/></mask><defs><clipPath id="satori_bc-id-1-0"><path x="0" y="0" width="88" height="54" d="M15,0 h58 a15,27 0 0 1 15,27 v0 a15,27 0 0 1 -15,27 h-58 a15,27 0 0 1 -15,-27 v0 a15,27 0 0 1 15,-27"/></clipPath></defs><clipPath id="satori_cp-id-1-0"><path x="0" y="0" width="88" height="54" d="M15,0 h58 a15,27 0 0 1 15,27 v0 a15,27 0 0 1 -15,27 h-58 a15,27 0 0 1 -15,-27 v0 a15,27 0 0 1 15,-27"/></clipPath><mask id="satori_om-id-1-0"><rect x="2" y="2" width="84" height="50" fill="#fff"/><path width="88" height="54" fill="none" stroke="#000" stroke-width="4" d="M1.888,13.888 A15,27 0 0 1 15,0 h58 a15,27 0 0 1 15,27 v0 a15,27 0 0 1 -15,27 h-58 a15,27 0 0 1 -15,-27 v0 A15,27 0 0 1 1.888,13.888"/></mask><path width="88" height="54" clip-path="url(#satori_bc-id-1-0)" fill="none" stroke="white" stroke-width="4" d="M1.888,13.888 A15,27 0 0 1 15,0 h58 a15,27 0 0 1 15,27 v0 a15,27 0 0 1 -15,27 h-58 a15,27 0 0 1 -15,-27 v0 A15,27 0 0 1 1.888,13.888"/><mask id="satori_om-id-1-0-0"><rect x="2" y="2" width="84" height="50" fill="#fff" mask="url(#satori_om-id-1-0)"/></mask><mask id="satori_om-id-1-0-0-0"><rect x="2" y="2" width="84" height="50" fill="#fff" mask="url(#satori_om-id-1-0)"/></mask><rect x="2" y="2" width="84" height="50" fill="#005DA6" clip-path="url(#satori_cp-id-1-0)" mask="url(#satori_om-id-1-0)"/><mask id="satori_om-id-1-0-0-0-0"><rect x="11" y="18" width="67" height="19" fill="#fff" mask="url(#satori_om-id-1-0)"/></mask><mask id="satori_om-id-1-0-0-0-0-0"><rect x="11" y="18" width="32" height="19" fill="#fff" mask="url(#satori_om-id-1-0)"/></mask><path fill="white" d="M18.2 20.8L18.2 20.8L17.1 20.8L17.1 35.5L18.0 35.5Q18.7 35.5 19.5 35.4Q20.2 35.4 20.9 35.0Q21.6 34.6 22.1 33.7Q22.7 32.9 23.0 31.4Q23.3 29.9 23.3 27.6L23.3 27.6Q23.3 25.6 23.0 24.3Q22.7 23.1 22.2 22.3Q21.7 21.6 21.1 21.3Q20.4 20.9 19.7 20.9Q18.9 20.8 18.2 20.8ZM17.2 37.6L13.3 37.6L13.3 24.0Q13.3 23.3 14.1 22.3Q15.0 21.2 16.3 20.9L16.3 20.9L16.3 20.8L12.8 20.8L12.7 18.7L17.8 18.7Q19.0 18.7 20.2 18.7Q21.5 18.8 22.7 19.2Q23.9 19.6 24.9 20.5L24.9 20.5Q26.1 21.6 26.6 22.9Q27.1 24.2 27.3 25.5Q27.4 26.8 27.4 27.6L27.4 27.6Q27.4 29.1 27.1 30.9Q26.7 32.6 25.8 34.1Q24.8 35.6 23.1 36.6L23.1 36.6Q21.8 37.2 20.4 37.4Q19.0 37.6 17.2 37.6L17.2 37.6ZM35.7 37.6L31.8 37.6L31.8 24.2Q31.8 23.5 32.7 22.5Q33.6 21.4 34.9 21.1L34.9 21.1L34.9 21.0L27.0 21.0L26.8 18.7L40.6 18.7L40.6 21.0L35.7 21.0L35.7 37.6Z " transform="matrix(1.00,0.00,0.00,1.00,0.00,-1.00)" clip-path="url(#satori_cp-id-1-0)" mask="url(#satori_om-id-1-0)"/><mask id="satori_om-id-1-0-0-0-0-1"><rect x="47" y="18" width="31" height="19" fill="#fff" mask="url(#satori_om-id-1-0)"/></mask><path fill="white" d="M51.5 34.5L51.5 34.5L60.8 34.5L60.8 37.6L47.3 37.6L47.3 35.7Q50.1 33.3 52.9 30.2L52.9 30.2Q54.6 28.4 55.5 26.8Q56.4 25.3 56.4 23.8L56.4 23.8Q56.4 22.8 56.0 22.2Q55.6 21.5 55.0 21.2Q54.4 20.9 53.9 20.8Q53.3 20.6 52.9 20.6L52.9 20.6Q51.6 20.6 50.6 20.9Q49.6 21.2 49.2 21.5L49.2 21.5L48.4 19.3Q49.2 18.9 50.4 18.7Q51.7 18.4 53.8 18.4L53.8 18.4Q55.9 18.4 57.3 19.0Q58.8 19.7 59.6 20.8Q60.3 21.9 60.3 23.3L60.3 23.3Q60.3 24.7 59.5 26.2Q58.7 27.6 57.0 29.4L57.0 29.4Q55.0 31.4 51.5 34.5ZM64.3 36.9L64.3 36.9L65.1 34.8Q65.7 35.2 66.6 35.5Q67.4 35.7 68.4 35.7L68.4 35.7Q69.6 35.7 70.4 35.2Q71.2 34.7 71.7 33.8Q72.2 33.0 72.4 32.0Q72.7 31.0 72.7 30.1Q72.8 29.2 72.8 28.5L72.8 28.5L72.8 28.2Q72.4 28.7 71.8 29.3Q71.3 29.8 70.5 30.2Q69.7 30.6 68.7 30.6L68.7 30.6Q67.3 30.6 66.1 29.9Q64.9 29.2 64.1 27.9Q63.3 26.6 63.3 24.7L63.3 24.7Q63.3 23.0 64.1 21.6Q64.8 20.1 66.3 19.3Q67.7 18.4 69.8 18.4L69.8 18.4Q71.5 18.4 72.7 18.9Q73.9 19.5 74.7 20.4Q75.4 21.3 75.9 22.5Q76.3 23.6 76.5 24.9Q76.7 26.1 76.7 27.2L76.7 27.2Q76.7 29.8 76.1 31.9Q75.5 34.0 74.3 35.4L74.3 35.4Q73.5 36.4 72.5 36.9Q71.5 37.5 70.6 37.7Q69.6 37.9 68.8 37.9L68.8 37.9Q67.4 37.9 66.3 37.6Q65.2 37.3 64.3 36.9ZM67.1 24.3L67.1 24.3Q67.1 25.4 67.3 26.3Q67.6 27.2 68.2 27.8Q68.7 28.4 69.7 28.4L69.7 28.4Q70.7 28.4 71.3 27.9Q71.9 27.4 72.2 26.4Q72.5 25.5 72.5 24.2L72.5 24.2Q72.5 23.1 72.2 22.2Q71.9 21.3 71.3 20.8Q70.7 20.3 69.8 20.3L69.8 20.3Q68.8 20.3 68.2 20.8Q67.6 21.4 67.3 22.3Q67.1 23.3 67.1 24.3Z " transform="matrix(1.00,0.00,0.00,1.00,0.00,-1.00)" clip-path="url(#satori_cp-id-1-0)" mask="url(#satori_om-id-1-0)"/></svg>