<svg width="88" height="54" viewBox="0 0 88 54" xmlns="http://www.w3.org/2000/svg"><mask id="satori_om-id"><rect x="0" y="0" width="88" height="54" fill="#fff"/></mask><mask id="satori_om-id-0"><rect x="15" y="0" width="58" height="54" fill="#fff"/></mask><defs><clipPath id="satori_bc-id-0-0"><rect x="15" y="20" width="58" height="15"/></clipPath></defs><mask id="satori_om-id-0-0"><rect x="15" y="22" width="58" height="11" fill="#fff"/><path width="58" height="15" fill="none" stroke="#000" stroke-width="4" d="M15,20 A0,0 0 0 1 15,20 h58 A0,0 0 0 1 73,20"/><path width="58" height="15" fill="none" stroke="#000" stroke-width="4" d="M73,35 A0,0 0 0 1 73,35 h-58 A0,0 0 0 1 15,35"/></mask><path width="58" height="15" clip-path="url(#satori_bc-id-0-0)" fill="none" stroke="white" stroke-width="4" d="M15,20 A0,0 0 0 1 15,20 h58 A0,0 0 0 1 73,20"/><path width="58" height="15" clip-path="url(#satori_bc-id-0-0)" fill="none" stroke="white" stroke-width="4" d="M73,35 A0,0 0 0 1 73,35 h-58 A0,0 0 0 1 15,35"/><mask id="satori_om-id-1"><rect x="0" y="0" width="88" height="54" fill="#fff"/></mask><defs><clipPath id="satori_bc-id-1-0"><path x="0" y="0" width="88" height="54" d="M15,0 h58 a15,27 0 0 1 15,27 v0 a15,27 0 0 1 -15,27 h-58 a15,27 0 0 1 -15,-27 v0 a15,27 0 0 1 15,-27"/></clipPath></defs><clipPath id="satori_cp-id-1-0"><path x="0" y="0" width="88" height="54" d="M15,0 h58 a15,27 0 0 1 15,27 v0 a15,27 0 0 1 -15,27 h-58 a15,27 0 0 1 -15,-27 v0 a15,27 0 0 1 15,-27"/></clipPath><mask id="satori_om-id-1-0"><rect x="2" y="2" width="84" height="50" fill="#fff"/><path width="88" height="54" fill="none" stroke="#000" stroke-width="4" d="M1.888,13.888 A15,27 0 0 1 15,0 h58 a15,27 0 0 1 15,27 v0 a15,27 0 0 1 -15,27 h-58 a15,27 0 0 1 -15,-27 v0 A15,27 0 0 1 1.888,13.888"/></mask><path width="88" height="54" clip-path="url(#satori_bc-id-1-0)" fill="none" stroke="white" stroke-width="4" d="M1.888,13.888 A15,27 0 0 1 15,0 h58 a15,27 0 0 1 15,27 v0 a15,27 0 0 1 -15,27 h-58 a15,27 0 0 1 -15,-27 v0 A15,27 0 0 1 1.888,13.888"/><mask id="satori_om-id-1-0-0"><rect x="2" y="2" width="84" height="50" fill="#fff" mask="url(#satori_om-id-1-0)"/></mask><mask id="satori_om-id-1-0-0-0"><rect x="2" y="2" width="84" height="50" fill="#fff" mask="url(#satori_om-id-1-0)"/></mask><rect x="2" y="2" width="84" height="50" fill="#005DA6" clip-path="url(#satori_cp-id-1-0)" mask="url(#satori_om-id-1-0)"/><mask id="satori_om-id-1-0-0-0-0"><rect x="12" y="18" width="65" height="19" fill="#fff" mask="url(#satori_om-id-1-0)"/></mask><mask id="satori_om-id-1-0-0-0-0-0"><rect x="12" y="18" width="32" height="19" fill="#fff" mask="url(#satori_om-id-1-0)"/></mask><path fill="white" d="M19.2 20.8L19.2 20.8L18.1 20.8L18.1 35.5L19.0 35.5Q19.7 35.5 20.5 35.4Q21.2 35.4 21.9 35.0Q22.6 34.6 23.1 33.7Q23.7 32.9 24.0 31.4Q24.3 29.9 24.3 27.6L24.3 27.6Q24.3 25.6 24.0 24.3Q23.7 23.1 23.2 22.3Q22.7 21.6 22.1 21.3Q21.4 20.9 20.7 20.9Q19.9 20.8 19.2 20.8ZM18.2 37.6L14.3 37.6L14.3 24.0Q14.3 23.3 15.1 22.3Q16.0 21.2 17.3 20.9L17.3 20.9L17.3 20.8L13.8 20.8L13.7 18.7L18.8 18.7Q20.0 18.7 21.2 18.7Q22.5 18.8 23.7 19.2Q24.9 19.6 25.9 20.5L25.9 20.5Q27.1 21.6 27.6 22.9Q28.1 24.2 28.3 25.5Q28.4 26.8 28.4 27.6L28.4 27.6Q28.4 29.1 28.1 30.9Q27.7 32.6 26.8 34.1Q25.8 35.6 24.1 36.6L24.1 36.6Q22.8 37.2 21.4 37.4Q20.0 37.6 18.2 37.6L18.2 37.6ZM36.7 37.6L32.8 37.6L32.8 24.2Q32.8 23.5 33.7 22.5Q34.6 21.4 35.9 21.1L35.9 21.1L35.9 21.0L28.0 21.0L27.8 18.7L41.6 18.7L41.6 21.0L36.7 21.0L36.7 37.6Z " transform="matrix(1.00,0.00,0.00,1.00,0.00,-1.00)" clip-path="url(#satori_cp-id-1-0)" mask="url(#satori_om-id-1-0)"/><mask id="satori_om-id-1-0-0-0-0-1"><rect x="48" y="18" width="29" height="19" fill="#fff" mask="url(#satori_om-id-1-0)"/></mask><path fill="white" d="M61.4 32.2L61.4 32.2Q61.4 33.8 60.4 35.1Q59.5 36.4 57.9 37.1Q56.2 37.9 54.0 37.9L54.0 37.9Q52.2 37.9 50.9 37.5Q49.6 37.2 48.7 36.7L48.7 36.7L49.4 34.5Q49.9 34.8 51.1 35.2Q52.2 35.6 53.6 35.6L53.6 35.6Q55.0 35.6 55.8 35.1Q56.7 34.6 57.1 33.9Q57.5 33.1 57.5 32.1L57.5 32.1Q57.5 31.1 56.9 30.2Q56.3 29.3 55.2 28.8L55.2 28.8Q54.6 28.7 53.8 28.6Q53.0 28.5 52.2 28.5L52.2 28.5L51.3 28.5L51.3 26.7L52.0 26.7Q52.9 26.7 53.7 26.6Q54.5 26.5 55.2 26.0L55.2 26.0Q55.8 25.7 56.2 25.1Q56.6 24.4 56.6 23.5L56.6 23.5Q56.6 22.1 55.7 21.3Q54.9 20.6 53.4 20.6L53.4 20.6Q52.2 20.6 51.3 20.9Q50.4 21.2 49.9 21.5L49.9 21.5L49.1 19.4Q49.8 19.0 51.0 18.7Q52.2 18.4 54.1 18.4L54.1 18.4Q57.0 18.4 58.7 19.6Q60.3 20.7 60.3 22.8L60.3 22.8Q60.3 24.0 59.7 24.9Q59.2 25.8 58.2 26.4Q57.3 27.0 56.2 27.4L56.2 27.4Q57.7 27.6 58.9 28.2Q60.0 28.8 60.7 29.8Q61.4 30.8 61.4 32.2ZM75.6 32.2L75.6 32.2Q75.6 33.8 74.7 35.1Q73.8 36.4 72.2 37.1Q70.5 37.9 68.3 37.9L68.3 37.9Q66.5 37.9 65.2 37.5Q63.9 37.2 63.0 36.7L63.0 36.7L63.7 34.5Q64.2 34.8 65.4 35.2Q66.5 35.6 67.9 35.6L67.9 35.6Q69.3 35.6 70.1 35.1Q71.0 34.6 71.4 33.9Q71.8 33.1 71.8 32.1L71.8 32.1Q71.8 31.1 71.2 30.2Q70.6 29.3 69.5 28.8L69.5 28.8Q68.9 28.7 68.1 28.6Q67.3 28.5 66.5 28.5L66.5 28.5L65.6 28.5L65.6 26.7L66.3 26.7Q67.2 26.7 68.0 26.6Q68.8 26.5 69.5 26.0L69.5 26.0Q70.1 25.7 70.5 25.1Q70.9 24.4 70.9 23.5L70.9 23.5Q70.9 22.1 70.0 21.3Q69.1 20.6 67.7 20.6L67.7 20.6Q66.5 20.6 65.6 20.9Q64.7 21.2 64.2 21.5L64.2 21.5L63.4 19.4Q64.1 19.0 65.3 18.7Q66.5 18.4 68.4 18.4L68.4 18.4Q71.3 18.4 72.9 19.6Q74.6 20.7 74.6 22.8L74.6 22.8Q74.6 24.0 74.0 24.9Q73.4 25.8 72.5 26.4Q71.6 27.0 70.5 27.4L70.5 27.4Q72.0 27.6 73.1 28.2Q74.3 28.8 75.0 29.8Q75.6 30.8 75.6 32.2Z " transform="matrix(1.00,0.00,0.00,1.00,0.00,-1.00)" clip-path="url(#satori_cp-id-1-0)" mask="url(#satori_om-id-1-0)"/></svg>