<svg width="172" height="54" viewBox="0 0 172 54" xmlns="http://www.w3.org/2000/svg"><mask id="satori_om-id"><rect x="0" y="0" width="172" height="54" fill="#fff"/></mask><mask id="satori_om-id-0"><rect x="15" y="0" width="142" height="54" fill="#fff"/></mask><defs><clipPath id="satori_bc-id-0-0"><rect x="15" y="20" width="142" height="15"/></clipPath></defs><mask id="satori_om-id-0-0"><rect x="15" y="22" width="142" height="11" fill="#fff"/><path width="142" height="15" fill="none" stroke="#000" stroke-width="4" d="M15,20 A0,0 0 0 1 15,20 h142 A0,0 0 0 1 157,20"/><path width="142" height="15" fill="none" stroke="#000" stroke-width="4" d="M157,35 A0,0 0 0 1 157,35 h-142 A0,0 0 0 1 15,35"/></mask><path width="142" height="15" clip-path="url(#satori_bc-id-0-0)" fill="none" stroke="white" stroke-width="4" d="M15,20 A0,0 0 0 1 15,20 h142 A0,0 0 0 1 157,20"/><path width="142" height="15" clip-path="url(#satori_bc-id-0-0)" fill="none" stroke="white" stroke-width="4" d="M157,35 A0,0 0 0 1 157,35 h-142 A0,0 0 0 1 15,35"/><mask id="satori_om-id-1"><rect x="0" y="0" width="172" height="54" fill="#fff"/></mask><defs><clipPath id="satori_bc-id-1-0"><path x="0" y="0" width="172" height="54" d="M15,0 h142 a15,27 0 0 1 15,27 v0 a15,27 0 0 1 -15,27 h-142 a15,27 0 0 1 -15,-27 v0 a15,27 0 0 1 15,-27"/></clipPath></defs><clipPath id="satori_cp-id-1-0"><path x="0" y="0" width="172" height="54" d="M15,0 h142 a15,27 0 0 1 15,27 v0 a15,27 0 0 1 -15,27 h-142 a15,27 0 0 1 -15,-27 v0 a15,27 0 0 1 15,-27"/></clipPath><mask id="satori_om-id-1-0"><rect x="2" y="2" width="168" height="50" fill="#fff"/><path width="172" height="54" fill="none" stroke="#000" stroke-width="4" d="M1.888,13.888 A15,27 0 0 1 15,0 h142 a15,27 0 0 1 15,27 v0 a15,27 0 0 1 -15,27 h-142 a15,27 0 0 1 -15,-27 v0 A15,27 0 0 1 1.888,13.888"/></mask><path width="172" height="54" clip-path="url(#satori_bc-id-1-0)" fill="none" stroke="white" stroke-width="4" d="M1.888,13.888 A15,27 0 0 1 15,0 h142 a15,27 0 0 1 15,27 v0 a15,27 0 0 1 -15,27 h-142 a15,27 0 0 1 -15,-27 v0 A15,27 0 0 1 1.888,13.888"/><mask id="satori_om-id-1-0-0"><rect x="2" y="2" width="84" height="50" fill="#fff" mask="url(#satori_om-id-1-0)"/></mask><mask id="satori_om-id-1-0-0-0"><rect x="2" y="2" width="84" height="50" fill="#fff" mask="url(#satori_om-id-1-0)"/></mask><rect x="2" y="2" width="84" height="50" fill="#005DA6" clip-path="url(#satori_cp-id-1-0)" mask="url(#satori_om-id-1-0)"/><mask id="satori_om-id-1-0-0-0-0"><rect x="11" y="18" width="66" height="19" fill="#fff" mask="url(#satori_om-id-1-0)"/></mask><mask id="satori_om-id-1-0-0-0-0-0"><rect x="11" y="18" width="32" height="19" fill="#fff" mask="url(#satori_om-id-1-0)"/></mask><path fill="white" d="M18.2 20.8L18.2 20.8L17.1 20.8L17.1 35.5L18.0 35.5Q18.7 35.5 19.5 35.4Q20.2 35.4 20.9 35.0Q21.6 34.6 22.1 33.7Q22.7 32.9 23.0 31.4Q23.3 29.9 23.3 27.6L23.3 27.6Q23.3 25.6 23.0 24.3Q22.7 23.1 22.2 22.3Q21.7 21.6 21.1 21.3Q20.4 20.9 19.7 20.9Q18.9 20.8 18.2 20.8ZM17.2 37.6L13.3 37.6L13.3 24.0Q13.3 23.3 14.1 22.3Q15.0 21.2 16.3 20.9L16.3 20.9L16.3 20.8L12.8 20.8L12.7 18.7L17.8 18.7Q19.0 18.7 20.2 18.7Q21.5 18.8 22.7 19.2Q23.9 19.6 24.9 20.5L24.9 20.5Q26.1 21.6 26.6 22.9Q27.1 24.2 27.3 25.5Q27.4 26.8 27.4 27.6L27.4 27.6Q27.4 29.1 27.1 30.9Q26.7 32.6 25.8 34.1Q24.8 35.6 23.1 36.6L23.1 36.6Q21.8 37.2 20.4 37.4Q19.0 37.6 17.2 37.6L17.2 37.6ZM35.7 37.6L31.8 37.6L31.8 24.2Q31.8 23.5 32.7 22.5Q33.6 21.4 34.9 21.1L34.9 21.1L34.9 21.0L27.0 21.0L26.8 18.7L40.6 18.7L40.6 21.0L35.7 21.0L35.7 37.6Z " transform="matrix(1.00,0.00,0.00,1.00,0.00,-1.00)" clip-path="url(#satori_cp-id-1-0)" mask="url(#satori_om-id-1-0)"/><mask id="satori_om-id-1-0-0-0-0-1"><rect x="47" y="18" width="30" height="19" fill="#fff" mask="url(#satori_om-id-1-0)"/></mask><path fill="white" d="M60.4 32.2L60.4 32.2Q60.4 33.8 59.4 35.1Q58.5 36.4 56.9 37.1Q55.2 37.9 53.0 37.9L53.0 37.9Q51.2 37.9 49.9 37.5Q48.6 37.2 47.7 36.7L47.7 36.7L48.4 34.5Q48.9 34.8 50.1 35.2Q51.2 35.6 52.6 35.6L52.6 35.6Q54.0 35.6 54.8 35.1Q55.7 34.6 56.1 33.9Q56.5 33.1 56.5 32.1L56.5 32.1Q56.5 31.1 55.9 30.2Q55.3 29.3 54.2 28.8L54.2 28.8Q53.6 28.7 52.8 28.6Q52.0 28.5 51.2 28.5L51.2 28.5L50.3 28.5L50.3 26.7L51.0 26.7Q51.9 26.7 52.7 26.6Q53.5 26.5 54.2 26.0L54.2 26.0Q54.8 25.7 55.2 25.1Q55.6 24.4 55.6 23.5L55.6 23.5Q55.6 22.1 54.7 21.3Q53.9 20.6 52.4 20.6L52.4 20.6Q51.2 20.6 50.3 20.9Q49.4 21.2 48.9 21.5L48.9 21.5L48.1 19.4Q48.8 19.0 50.0 18.7Q51.2 18.4 53.1 18.4L53.1 18.4Q56.0 18.4 57.7 19.6Q59.3 20.7 59.3 22.8L59.3 22.8Q59.3 24.0 58.7 24.9Q58.2 25.8 57.2 26.4Q56.3 27.0 55.2 27.4L55.2 27.4Q56.7 27.6 57.9 28.2Q59.0 28.8 59.7 29.8Q60.4 30.8 60.4 32.2ZM63.4 29.2L63.4 18.7L74.0 18.7L74.0 21.7L65.6 21.7L65.6 26.5Q66.4 26.2 67.2 26.1Q68.0 26.0 68.6 26.0L68.6 26.0Q69.9 26.0 71.1 26.4Q72.3 26.7 73.2 27.5Q74.1 28.2 74.7 29.2Q75.2 30.3 75.2 31.6L75.2 31.6Q75.2 32.8 74.7 34.0Q74.3 35.1 73.3 36.0Q72.4 36.9 71.0 37.4Q69.6 37.9 67.8 37.9L67.8 37.9Q66.6 37.9 65.6 37.7Q64.6 37.5 63.9 37.2Q63.1 37.0 62.6 36.7L62.6 36.7L63.4 34.5Q64.1 34.9 65.1 35.2Q66.1 35.6 67.5 35.6L67.5 35.6Q68.5 35.6 69.4 35.2Q70.3 34.9 70.8 34.0Q71.3 33.2 71.3 31.8L71.3 31.8Q71.3 30.7 71.0 30.0Q70.6 29.3 70.0 28.9Q69.4 28.5 68.7 28.3Q67.9 28.1 67.2 28.1L67.2 28.1Q66.3 28.1 65.5 28.3Q64.8 28.5 64.3 28.7Q63.7 29.0 63.4 29.2L63.4 29.2Z " transform="matrix(1.00,0.00,0.00,1.00,0.00,-1.00)" clip-path="url(#satori_cp-id-1-0)" mask="url(#satori_om-id-1-0)"/><mask id="satori_om-id-1-0-1"><rect x="86" y="2" width="84" height="50" fill="#fff" mask="url(#satori_om-id-1-0)"/></mask><mask id="satori_om-id-1-0-1-0"><rect x="86" y="2" width="84" height="50" fill="#fff" mask="url(#satori_om-id-1-0)"/></mask><rect x="86" y="2" width="84" height="50" fill="#00953B" clip-path="url(#satori_cp-id-1-0)" mask="url(#satori_om-id-1-0)"/><mask id="satori_om-id-1-0-1-0-0"><rect x="104" y="18" width="48" height="19" fill="#fff" mask="url(#satori_om-id-1-0)"/></mask><mask id="satori_om-id-1-0-1-0-0-0"><rect x="104" y="18" width="32" height="19" fill="#fff" mask="url(#satori_om-id-1-0)"/></mask><path fill="white" d="M118.3 19.2L118.3 19.2L117.6 21.6Q117.0 21.3 116.1 21.0Q115.3 20.7 114.2 20.7L114.2 20.7Q112.6 20.7 111.5 21.6Q110.4 22.6 109.8 24.3Q109.3 26.0 109.3 28.1L109.3 28.1Q109.3 31.6 110.6 33.6Q111.8 35.6 114.0 35.6L114.0 35.6Q114.7 35.6 115.4 35.4Q116.1 35.2 116.7 34.9Q117.3 34.7 117.6 34.5L117.6 34.5L118.4 36.8Q117.5 37.3 116.2 37.6Q115.0 37.9 113.3 37.9L113.3 37.9Q111.1 37.9 109.5 37.1Q107.9 36.3 106.9 34.9Q106.0 33.6 105.5 31.8Q105.0 30.1 105.0 28.2L105.0 28.2Q105.0 25.4 106.0 23.2Q107.1 21.0 109.0 19.7Q111.0 18.4 113.7 18.4L113.7 18.4Q116.4 18.4 118.3 19.2ZM129.9 35.5L129.9 35.5L129.9 30.1Q129.9 29.5 130.4 28.7Q130.9 27.9 131.8 27.4Q132.6 26.8 133.6 26.8L133.6 26.8L133.6 36.7Q132.5 37.2 131.1 37.5Q129.8 37.9 127.9 37.9L127.9 37.9Q125.2 37.9 123.3 36.7Q121.3 35.5 120.3 33.4Q119.2 31.2 119.2 28.2L119.2 28.2Q119.2 25.1 120.4 22.9Q121.5 20.7 123.5 19.6Q125.5 18.4 128.3 18.4L128.3 18.4Q129.7 18.4 130.8 18.6Q131.9 18.7 132.6 19.0Q133.4 19.2 133.8 19.4L133.8 19.4L133.1 21.8Q132.3 21.3 131.2 21.0Q130.1 20.7 128.8 20.7L128.8 20.7Q127.0 20.7 125.8 21.7Q124.6 22.6 124.0 24.3Q123.5 26.0 123.5 28.3L123.5 28.3Q123.5 30.1 123.8 31.7Q124.2 33.3 125.1 34.3Q126.1 35.4 127.7 35.6L127.7 35.6Q128.1 35.7 128.4 35.7L128.4 35.7Q129.0 35.7 129.5 35.6Q129.9 35.5 129.9 35.5Z " transform="matrix(1.00,0.00,0.00,1.00,0.00,-1.00)" clip-path="url(#satori_cp-id-1-0)" mask="url(#satori_om-id-1-0)"/><mask id="satori_om-id-1-0-1-0-0-1"><rect x="140" y="18" width="12" height="19" fill="#fff" mask="url(#satori_om-id-1-0)"/></mask><path fill="white" d="M140.0 22.5L146.8 18.7L149.2 18.7L149.2 37.6L145.6 37.6L145.6 21.6L140.9 24.3L140.0 22.5Z " transform="matrix(1.00,0.00,0.00,1.00,0.00,-1.00)" clip-path="url(#satori_cp-id-1-0)" mask="url(#satori_om-id-1-0)"/></svg>