<svg width="88" height="54" viewBox="0 0 88 54" xmlns="http://www.w3.org/2000/svg"><mask id="satori_om-id"><rect x="0" y="0" width="88" height="54" fill="#fff"/></mask><mask id="satori_om-id-0"><rect x="15" y="0" width="58" height="54" fill="#fff"/></mask><defs><clipPath id="satori_bc-id-0-0"><rect x="15" y="20" width="58" height="15"/></clipPath></defs><mask id="satori_om-id-0-0"><rect x="15" y="22" width="58" height="11" fill="#fff"/><path width="58" height="15" fill="none" stroke="#000" stroke-width="4" d="M15,20 A0,0 0 0 1 15,20 h58 A0,0 0 0 1 73,20"/><path width="58" height="15" fill="none" stroke="#000" stroke-width="4" d="M73,35 A0,0 0 0 1 73,35 h-58 A0,0 0 0 1 15,35"/></mask><path width="58" height="15" clip-path="url(#satori_bc-id-0-0)" fill="none" stroke="white" stroke-width="4" d="M15,20 A0,0 0 0 1 15,20 h58 A0,0 0 0 1 73,20"/><path width="58" height="15" clip-path="url(#satori_bc-id-0-0)" fill="none" stroke="white" stroke-width="4" d="M73,35 A0,0 0 0 1 73,35 h-58 A0,0 0 0 1 15,35"/><mask id="satori_om-id-1"><rect x="0" y="0" width="88" height="54" fill="#fff"/></mask><defs><clipPath id="satori_bc-id-1-0"><path x="0" y="0" width="88" height="54" d="M15,0 h58 a15,27 0 0 1 15,27 v0 a15,27 0 0 1 -15,27 h-58 a15,27 0 0 1 -15,-27 v0 a15,27 0 0 1 15,-27"/></clipPath></defs><clipPath id="satori_cp-id-1-0"><path x="0" y="0" width="88" height="54" d="M15,0 h58 a15,27 0 0 1 15,27 v0 a15,27 0 0 1 -15,27 h-58 a15,27 0 0 1 -15,-27 v0 a15,27 0 0 1 15,-27"/></clipPath><mask id="satori_om-id-1-0"><rect x="2" y="2" width="84" height="50" fill="#fff"/><path width="88" height="54" fill="none" stroke="#000" stroke-width="4" d="M1.888,13.888 A15,27 0 0 1 15,0 h58 a15,27 0 0 1 15,27 v0 a15,27 0 0 1 -15,27 h-58 a15,27 0 0 1 -15,-27 v0 A15,27 0 0 1 1.888,13.888"/></mask><path width="88" height="54" clip-path="url(#satori_bc-id-1-0)" fill="none" stroke="white" stroke-width="4" d="M1.888,13.888 A15,27 0 0 1 15,0 h58 a15,27 0 0 1 15,27 v0 a15,27 0 0 1 -15,27 h-58 a15,27 0 0 1 -15,-27 v0 A15,27 0 0 1 1.888,13.888"/><mask id="satori_om-id-1-0-0"><rect x="2" y="2" width="84" height="50" fill="#fff" mask="url(#satori_om-id-1-0)"/></mask><mask id="satori_om-id-1-0-0-0"><rect x="2" y="2" width="84" height="50" fill="#fff" mask="url(#satori_om-id-1-0)"/></mask><rect x="2" y="2" width="84" height="50" fill="#005DA6" clip-path="url(#satori_cp-id-1-0)" mask="url(#satori_om-id-1-0)"/><mask id="satori_om-id-1-0-0-0-0"><rect x="18" y="18" width="53" height="19" fill="#fff" mask="url(#satori_om-id-1-0)"/></mask><mask id="satori_om-id-1-0-0-0-0-0"><rect x="18" y="18" width="32" height="19" fill="#fff" mask="url(#satori_om-id-1-0)"/></mask><path fill="white" d="M25.2 20.8L25.2 20.8L24.1 20.8L24.1 35.5L25.0 35.5Q25.7 35.5 26.5 35.4Q27.2 35.4 27.9 35.0Q28.6 34.6 29.1 33.7Q29.7 32.9 30.0 31.4Q30.3 29.9 30.3 27.6L30.3 27.6Q30.3 25.6 30.0 24.3Q29.7 23.1 29.2 22.3Q28.7 21.6 28.1 21.3Q27.4 20.9 26.7 20.9Q25.9 20.8 25.2 20.8ZM24.2 37.6L20.3 37.6L20.3 24.0Q20.3 23.3 21.1 22.3Q22.0 21.2 23.3 20.9L23.3 20.9L23.3 20.8L19.8 20.8L19.7 18.7L24.8 18.7Q26.0 18.7 27.2 18.7Q28.5 18.8 29.7 19.2Q30.9 19.6 31.9 20.5L31.9 20.5Q33.1 21.6 33.6 22.9Q34.1 24.2 34.3 25.5Q34.4 26.8 34.4 27.6L34.4 27.6Q34.4 29.1 34.1 30.9Q33.7 32.6 32.8 34.1Q31.8 35.6 30.1 36.6L30.1 36.6Q28.8 37.2 27.4 37.4Q26.0 37.6 24.2 37.6L24.2 37.6ZM42.7 37.6L38.8 37.6L38.8 24.2Q38.8 23.5 39.7 22.5Q40.6 21.4 41.9 21.1L41.9 21.1L41.9 21.0L34.0 21.0L33.8 18.7L47.6 18.7L47.6 21.0L42.7 21.0L42.7 37.6Z " transform="matrix(1.00,0.00,0.00,1.00,0.00,-1.00)" clip-path="url(#satori_cp-id-1-0)" mask="url(#satori_om-id-1-0)"/><mask id="satori_om-id-1-0-0-0-0-1"><rect x="54" y="18" width="17" height="19" fill="#fff" mask="url(#satori_om-id-1-0)"/></mask><path fill="white" d="M68.3 19.3L68.3 19.3L67.6 21.5Q67.1 21.2 66.2 20.9Q65.4 20.6 64.3 20.6L64.3 20.6Q62.8 20.6 61.9 21.4Q60.9 22.3 60.4 23.9Q59.9 25.4 59.9 27.5L59.9 27.5Q59.9 27.8 59.9 28.1L59.9 28.1Q60.4 27.1 61.2 26.6Q61.9 26.1 62.7 25.9Q63.4 25.7 64.0 25.7L64.0 25.7Q65.4 25.7 66.6 26.4Q67.8 27.0 68.5 28.3Q69.3 29.6 69.3 31.5L69.3 31.5Q69.3 33.3 68.5 34.8Q67.8 36.2 66.3 37.1Q64.9 37.9 62.9 37.9L62.9 37.9Q61.3 37.9 60.1 37.3Q58.9 36.7 58.1 35.8Q57.3 34.8 56.9 33.6Q56.4 32.4 56.2 31.0Q56.0 29.7 56.0 28.5L56.0 28.5Q56.0 25.2 57.1 22.9Q58.2 20.7 60.0 19.5Q61.8 18.4 64.1 18.4L64.1 18.4Q65.1 18.4 65.9 18.6Q66.8 18.7 67.4 18.9Q68.0 19.2 68.3 19.3ZM60.2 32.0L60.2 32.0Q60.2 32.6 60.3 33.3Q60.4 34.0 60.7 34.6Q61.0 35.2 61.5 35.6Q62.1 36.0 62.9 36.0L62.9 36.0Q63.8 36.0 64.3 35.6Q64.8 35.1 65.1 34.5Q65.4 33.9 65.5 33.1Q65.6 32.4 65.6 31.8L65.6 31.8Q65.6 30.3 65.2 29.5Q64.8 28.6 64.2 28.3Q63.6 27.9 62.9 27.9L62.9 27.9Q61.5 27.9 60.9 29.0Q60.2 30.1 60.2 32.0Z " transform="matrix(1.00,0.00,0.00,1.00,0.00,-1.00)" clip-path="url(#satori_cp-id-1-0)" mask="url(#satori_om-id-1-0)"/></svg>