<svg width="88" height="54" viewBox="0 0 88 54" xmlns="http://www.w3.org/2000/svg"><mask id="satori_om-id"><rect x="0" y="0" width="88" height="54" fill="#fff"/></mask><mask id="satori_om-id-0"><rect x="15" y="0" width="58" height="54" fill="#fff"/></mask><defs><clipPath id="satori_bc-id-0-0"><rect x="15" y="20" width="58" height="15"/></clipPath></defs><mask id="satori_om-id-0-0"><rect x="15" y="22" width="58" height="11" fill="#fff"/><path width="58" height="15" fill="none" stroke="#000" stroke-width="4" d="M15,20 A0,0 0 0 1 15,20 h58 A0,0 0 0 1 73,20"/><path width="58" height="15" fill="none" stroke="#000" stroke-width="4" d="M73,35 A0,0 0 0 1 73,35 h-58 A0,0 0 0 1 15,35"/></mask><path width="58" height="15" clip-path="url(#satori_bc-id-0-0)" fill="none" stroke="white" stroke-width="4" d="M15,20 A0,0 0 0 1 15,20 h58 A0,0 0 0 1 73,20"/><path width="58" height="15" clip-path="url(#satori_bc-id-0-0)" fill="none" stroke="white" stroke-width="4" d="M73,35 A0,0 0 0 1 73,35 h-58 A0,0 0 0 1 15,35"/><mask id="satori_om-id-1"><rect x="0" y="0" width="88" height="54" fill="#fff"/></mask><defs><clipPath id="satori_bc-id-1-0"><path x="0" y="0" width="88" height="54" d="M15,0 h58 a15,27 0 0 1 15,27 v0 a15,27 0 0 1 -15,27 h-58 a15,27 0 0 1 -15,-27 v0 a15,27 0 0 1 15,-27"/></clipPath></defs><clipPath id="satori_cp-id-1-0"><path x="0" y="0" width="88" height="54" d="M15,0 h58 a15,27 0 0 1 15,27 v0 a15,27 0 0 1 -15,27 h-58 a15,27 0 0 1 -15,-27 v0 a15,27 0 0 1 15,-27"/></clipPath><mask id="satori_om-id-1-0"><rect x="2" y="2" width="84" height="50" fill="#fff"/><path width="88" height="54" fill="none" stroke="#000" stroke-width="4" d="M1.888,13.888 A15,27 0 0 1 15,0 h58 a15,27 0 0 1 15,27 v0 a15,27 0 0 1 -15,27 h-58 a15,27 0 0 1 -15,-27 v0 A15,27 0 0 1 1.888,13.888"/></mask><path width="88" height="54" clip-path="url(#satori_bc-id-1-0)" fill="none" stroke="white" stroke-width="4" d="M1.888,13.888 A15,27 0 0 1 15,0 h58 a15,27 0 0 1 15,27 v0 a15,27 0 0 1 -15,27 h-58 a15,27 0 0 1 -15,-27 v0 A15,27 0 0 1 1.888,13.888"/><mask id="satori_om-id-1-0-0"><rect x="2" y="2" width="84" height="50" fill="#fff" mask="url(#satori_om-id-1-0)"/></mask><mask id="satori_om-id-1-0-0-0"><rect x="2" y="2" width="84" height="50" fill="#fff" mask="url(#satori_om-id-1-0)"/></mask><rect x="2" y="2" width="84" height="50" fill="#005DA6" clip-path="url(#satori_cp-id-1-0)" mask="url(#satori_om-id-1-0)"/><mask id="satori_om-id-1-0-0-0-0"><rect x="19" y="18" width="51" height="19" fill="#fff" mask="url(#satori_om-id-1-0)"/></mask><mask id="satori_om-id-1-0-0-0-0-0"><rect x="19" y="18" width="32" height="19" fill="#fff" mask="url(#satori_om-id-1-0)"/></mask><path fill="white" d="M26.2 20.8L26.2 20.8L25.1 20.8L25.1 35.5L26.0 35.5Q26.7 35.5 27.5 35.4Q28.2 35.4 28.9 35.0Q29.6 34.6 30.1 33.7Q30.7 32.9 31.0 31.4Q31.3 29.9 31.3 27.6L31.3 27.6Q31.3 25.6 31.0 24.3Q30.7 23.1 30.2 22.3Q29.7 21.6 29.1 21.3Q28.4 20.9 27.7 20.9Q26.9 20.8 26.2 20.8ZM25.2 37.6L21.3 37.6L21.3 24.0Q21.3 23.3 22.1 22.3Q23.0 21.2 24.3 20.9L24.3 20.9L24.3 20.8L20.8 20.8L20.7 18.7L25.8 18.7Q27.0 18.7 28.2 18.7Q29.5 18.8 30.7 19.2Q31.9 19.6 32.9 20.5L32.9 20.5Q34.1 21.6 34.6 22.9Q35.1 24.2 35.3 25.5Q35.4 26.8 35.4 27.6L35.4 27.6Q35.4 29.1 35.1 30.9Q34.7 32.6 33.8 34.1Q32.8 35.6 31.1 36.6L31.1 36.6Q29.8 37.2 28.4 37.4Q27.0 37.6 25.2 37.6L25.2 37.6ZM43.7 37.6L39.8 37.6L39.8 24.2Q39.8 23.5 40.7 22.5Q41.6 21.4 42.9 21.1L42.9 21.1L42.9 21.0L35.0 21.0L34.8 18.7L48.6 18.7L48.6 21.0L43.7 21.0L43.7 37.6Z " transform="matrix(1.00,0.00,0.00,1.00,0.00,-1.00)" clip-path="url(#satori_cp-id-1-0)" mask="url(#satori_om-id-1-0)"/><mask id="satori_om-id-1-0-0-0-0-1"><rect x="55" y="18" width="15" height="19" fill="#fff" mask="url(#satori_om-id-1-0)"/></mask><path fill="white" d="M55.5 21.8L55.5 18.7L68.7 18.7L68.7 20.5L60.2 37.6L57.6 37.6L65.7 21.8L55.5 21.8Z " transform="matrix(1.00,0.00,0.00,1.00,0.00,-1.00)" clip-path="url(#satori_cp-id-1-0)" mask="url(#satori_om-id-1-0)"/></svg>