<svg width="88" height="54" viewBox="0 0 88 54" xmlns="http://www.w3.org/2000/svg"><mask id="satori_om-id"><rect x="0" y="0" width="88" height="54" fill="#fff"/></mask><mask id="satori_om-id-0"><rect x="15" y="0" width="58" height="54" fill="#fff"/></mask><defs><clipPath id="satori_bc-id-0-0"><rect x="15" y="20" width="58" height="15"/></clipPath></defs><mask id="satori_om-id-0-0"><rect x="15" y="22" width="58" height="11" fill="#fff"/><path width="58" height="15" fill="none" stroke="#000" stroke-width="4" d="M15,20 A0,0 0 0 1 15,20 h58 A0,0 0 0 1 73,20"/><path width="58" height="15" fill="none" stroke="#000" stroke-width="4" d="M73,35 A0,0 0 0 1 73,35 h-58 A0,0 0 0 1 15,35"/></mask><path width="58" height="15" clip-path="url(#satori_bc-id-0-0)" fill="none" stroke="white" stroke-width="4" d="M15,20 A0,0 0 0 1 15,20 h58 A0,0 0 0 1 73,20"/><path width="58" height="15" clip-path="url(#satori_bc-id-0-0)" fill="none" stroke="white" stroke-width="4" d="M73,35 A0,0 0 0 1 73,35 h-58 A0,0 0 0 1 15,35"/><mask id="satori_om-id-1"><rect x="0" y="0" width="88" height="54" fill="#fff"/></mask><defs><clipPath id="satori_bc-id-1-0"><path x="0" y="0" width="88" height="54" d="M15,0 h58 a15,27 0 0 1 15,27 v0 a15,27 0 0 1 -15,27 h-58 a15,27 0 0 1 -15,-27 v0 a15,27 0 0 1 15,-27"/></clipPath></defs><clipPath id="satori_cp-id-1-0"><path x="0" y="0" width="88" height="54" d="M15,0 h58 a15,27 0 0 1 15,27 v0 a15,27 0 0 1 -15,27 h-58 a15,27 0 0 1 -15,-27 v0 a15,27 0 0 1 15,-27"/></clipPath><mask id="satori_om-id-1-0"><rect x="2" y="2" width="84" height="50" fill="#fff"/><path width="88" height="54" fill="none" stroke="#000" stroke-width="4" d="M1.888,13.888 A15,27 0 0 1 15,0 h58 a15,27 0 0 1 15,27 v0 a15,27 0 0 1 -15,27 h-58 a15,27 0 0 1 -15,-27 v0 A15,27 0 0 1 1.888,13.888"/></mask><path width="88" height="54" clip-path="url(#satori_bc-id-1-0)" fill="none" stroke="white" stroke-width="4" d="M1.888,13.888 A15,27 0 0 1 15,0 h58 a15,27 0 0 1 15,27 v0 a15,27 0 0 1 -15,27 h-58 a15,27 0 0 1 -15,-27 v0 A15,27 0 0 1 1.888,13.888"/><mask id="satori_om-id-1-0-0"><rect x="2" y="2" width="84" height="50" fill="#fff" mask="url(#satori_om-id-1-0)"/></mask><mask id="satori_om-id-1-0-0-0"><rect x="2" y="2" width="84" height="50" fill="#fff" mask="url(#satori_om-id-1-0)"/></mask><rect x="2" y="2" width="84" height="50" fill="#005DA6" clip-path="url(#satori_cp-id-1-0)" mask="url(#satori_om-id-1-0)"/><mask id="satori_om-id-1-0-0-0-0"><rect x="18" y="18" width="53" height="19" fill="#fff" mask="url(#satori_om-id-1-0)"/></mask><mask id="satori_om-id-1-0-0-0-0-0"><rect x="18" y="18" width="32" height="19" fill="#fff" mask="url(#satori_om-id-1-0)"/></mask><path fill="white" d="M25.2 20.8L25.2 20.8L24.1 20.8L24.1 35.5L25.0 35.5Q25.7 35.5 26.5 35.4Q27.2 35.4 27.9 35.0Q28.6 34.6 29.1 33.7Q29.7 32.9 30.0 31.4Q30.3 29.9 30.3 27.6L30.3 27.6Q30.3 25.6 30.0 24.3Q29.7 23.1 29.2 22.3Q28.7 21.6 28.1 21.3Q27.4 20.9 26.7 20.9Q25.9 20.8 25.2 20.8ZM24.2 37.6L20.3 37.6L20.3 24.0Q20.3 23.3 21.1 22.3Q22.0 21.2 23.3 20.9L23.3 20.9L23.3 20.8L19.8 20.8L19.7 18.7L24.8 18.7Q26.0 18.7 27.2 18.7Q28.5 18.8 29.7 19.2Q30.9 19.6 31.9 20.5L31.9 20.5Q33.1 21.6 33.6 22.9Q34.1 24.2 34.3 25.5Q34.4 26.8 34.4 27.6L34.4 27.6Q34.4 29.1 34.1 30.9Q33.7 32.6 32.8 34.1Q31.8 35.6 30.1 36.6L30.1 36.6Q28.8 37.2 27.4 37.4Q26.0 37.6 24.2 37.6L24.2 37.6ZM42.7 37.6L38.8 37.6L38.8 24.2Q38.8 23.5 39.7 22.5Q40.6 21.4 41.9 21.1L41.9 21.1L41.9 21.0L34.0 21.0L33.8 18.7L47.6 18.7L47.6 21.0L42.7 21.0L42.7 37.6Z " transform="matrix(1.00,0.00,0.00,1.00,0.00,-1.00)" clip-path="url(#satori_cp-id-1-0)" mask="url(#satori_om-id-1-0)"/><mask id="satori_om-id-1-0-0-0-0-1"><rect x="54" y="18" width="17" height="19" fill="#fff" mask="url(#satori_om-id-1-0)"/></mask><path fill="white" d="M69.0 23.1L69.0 23.1Q69.0 24.7 67.9 26.0Q66.8 27.2 65.1 27.7L65.1 27.7Q65.5 27.8 66.0 27.9Q66.5 28.1 67.1 28.4Q67.7 28.7 68.3 29.2Q68.8 29.8 69.1 30.5Q69.5 31.3 69.5 32.5L69.5 32.5Q69.5 33.5 69.1 34.5Q68.7 35.4 67.8 36.2Q67.0 37.0 65.7 37.4Q64.4 37.9 62.6 37.9L62.6 37.9Q60.8 37.9 59.5 37.4Q58.2 37.0 57.4 36.2Q56.6 35.4 56.3 34.5Q55.9 33.6 55.9 32.7L55.9 32.7Q55.9 31.6 56.3 30.7Q56.8 29.9 57.4 29.3Q58.0 28.7 58.8 28.3Q59.6 27.9 60.3 27.7L60.3 27.7Q58.8 27.3 58.0 26.5Q57.1 25.8 56.8 24.9Q56.5 24.0 56.5 23.2L56.5 23.2Q56.5 22.3 56.8 21.5Q57.2 20.6 57.9 19.9Q58.7 19.2 59.9 18.8Q61.1 18.4 62.8 18.4L62.8 18.4Q64.5 18.4 65.7 18.8Q66.9 19.3 67.7 20.0Q68.4 20.7 68.7 21.5Q69.0 22.4 69.0 23.1ZM60.0 23.5L60.0 23.5Q60.0 25.0 60.8 25.9Q61.5 26.8 62.7 26.8L62.7 26.8Q63.9 26.8 64.6 25.9Q65.4 25.1 65.4 23.5L65.4 23.5Q65.4 22.6 65.1 21.9Q64.8 21.1 64.2 20.7Q63.6 20.3 62.7 20.3L62.7 20.3Q61.8 20.3 61.2 20.8Q60.6 21.3 60.3 22.0Q60.0 22.8 60.0 23.5ZM59.8 32.3L59.8 32.3Q59.8 33.5 60.2 34.4Q60.6 35.2 61.3 35.6Q61.9 36.1 62.7 36.1L62.7 36.1Q63.7 36.1 64.3 35.6Q65.0 35.1 65.3 34.2Q65.6 33.4 65.6 32.3L65.6 32.3Q65.6 31.1 65.2 30.3Q64.8 29.5 64.2 29.1Q63.5 28.7 62.7 28.7L62.7 28.7Q61.4 28.7 60.6 29.6Q59.8 30.6 59.8 32.3Z " transform="matrix(1.00,0.00,0.00,1.00,0.00,-1.00)" clip-path="url(#satori_cp-id-1-0)" mask="url(#satori_om-id-1-0)"/></svg>