<svg width="256" height="54" viewBox="0 0 256 54" xmlns="http://www.w3.org/2000/svg"><mask id="satori_om-id"><rect x="0" y="0" width="256" height="54" fill="#fff"/></mask><mask id="satori_om-id-0"><rect x="15" y="0" width="226" height="54" fill="#fff"/></mask><defs><clipPath id="satori_bc-id-0-0"><rect x="15" y="20" width="226" height="15"/></clipPath></defs><mask id="satori_om-id-0-0"><rect x="15" y="22" width="226" height="11" fill="#fff"/><path width="226" height="15" fill="none" stroke="#000" stroke-width="4" d="M15,20 A0,0 0 0 1 15,20 h226 A0,0 0 0 1 241,20"/><path width="226" height="15" fill="none" stroke="#000" stroke-width="4" d="M241,35 A0,0 0 0 1 241,35 h-226 A0,0 0 0 1 15,35"/></mask><path width="226" height="15" clip-path="url(#satori_bc-id-0-0)" fill="none" stroke="white" stroke-width="4" d="M15,20 A0,0 0 0 1 15,20 h226 A0,0 0 0 1 241,20"/><path width="226" height="15" clip-path="url(#satori_bc-id-0-0)" fill="none" stroke="white" stroke-width="4" d="M241,35 A0,0 0 0 1 241,35 h-226 A0,0 0 0 1 15,35"/><mask id="satori_om-id-1"><rect x="0" y="0" width="256" height="54" fill="#fff"/></mask><defs><clipPath id="satori_bc-id-1-0"><path x="0" y="0" width="256" height="54" d="M15,0 h226 a15,27 0 0 1 15,27 v0 a15,27 0 0 1 -15,27 h-226 a15,27 0 0 1 -15,-27 v0 a15,27 0 0 1 15,-27"/></clipPath></defs><clipPath id="satori_cp-id-1-0"><path x="0" y="0" width="256" height="54" d="M15,0 h226 a15,27 0 0 1 15,27 v0 a15,27 0 0 1 -15,27 h-226 a15,27 0 0 1 -15,-27 v0 a15,27 0 0 1 15,-27"/></clipPath><mask id="satori_om-id-1-0"><rect x="2" y="2" width="252" height="50" fill="#fff"/><path width="256" height="54" fill="none" stroke="#000" stroke-width="4" d="M1.888,13.888 A15,27 0 0 1 15,0 h226 a15,27 0 0 1 15,27 v0 a15,27 0 0 1 -15,27 h-226 a15,27 0 0 1 -15,-27 v0 A15,27 0 0 1 1.888,13.888"/></mask><path width="256" height="54" clip-path="url(#satori_bc-id-1-0)" fill="none" stroke="white" stroke-width="4" d="M1.888,13.888 A15,27 0 0 1 15,0 h226 a15,27 0 0 1 15,27 v0 a15,27 0 0 1 -15,27 h-226 a15,27 0 0 1 -15,-27 v0 A15,27 0 0 1 1.888,13.888"/><mask id="satori_om-id-1-0-0"><rect x="2" y="2" width="84" height="50" fill="#fff" mask="url(#satori_om-id-1-0)"/></mask><mask id="satori_om-id-1-0-0-0"><rect x="2" y="2" width="84" height="50" fill="#fff" mask="url(#satori_om-id-1-0)"/></mask><rect x="2" y="2" width="84" height="50" fill="#00953B" clip-path="url(#satori_cp-id-1-0)" mask="url(#satori_om-id-1-0)"/><mask id="satori_om-id-1-0-0-0-0"><rect x="9" y="18" width="71" height="19" fill="#fff" mask="url(#satori_om-id-1-0)"/></mask><mask id="satori_om-id-1-0-0-0-0-0"><rect x="9" y="18" width="39" height="19" fill="#fff" mask="url(#satori_om-id-1-0)"/></mask><path fill="white" d="M22.6 37.6L11.3 37.6L11.3 24.1Q11.3 23.4 12.1 22.3Q13.0 21.3 14.3 20.9L14.3 20.9L14.3 20.8L10.8 20.8L10.7 18.7L22.4 18.7L22.4 21.0L15.1 21.0L15.1 26.7L22.0 26.7L22.0 28.9L15.1 28.9L15.1 35.2L22.6 35.2L22.6 37.6ZM29.4 37.8L25.1 18.7L29.0 18.7L31.7 32.3L35.4 18.7L38.2 18.7L41.6 32.2L44.0 20.7Q44.2 19.8 44.7 19.4Q45.3 18.9 46.0 18.7Q46.6 18.5 47.1 18.5L47.1 18.5L42.6 37.6L39.7 37.6L36.1 23.9L32.9 35.4Q32.6 36.3 32.0 36.8Q31.5 37.4 30.7 37.6Q30.0 37.8 29.4 37.8L29.4 37.8Z " transform="matrix(1.00,0.00,0.00,1.00,0.00,-1.00)" clip-path="url(#satori_cp-id-1-0)" mask="url(#satori_om-id-1-0)"/><mask id="satori_om-id-1-0-0-0-0-1"><rect x="52" y="18" width="28" height="19" fill="#fff" mask="url(#satori_om-id-1-0)"/></mask><path fill="white" d="M52.0 22.5L58.8 18.7L61.2 18.7L61.2 37.6L57.6 37.6L57.6 21.6L52.9 24.3L52.0 22.5ZM77.6 19.3L77.6 19.3L76.9 21.5Q76.4 21.2 75.6 20.9Q74.7 20.6 73.6 20.6L73.6 20.6Q72.1 20.6 71.2 21.4Q70.2 22.3 69.7 23.9Q69.2 25.4 69.2 27.5L69.2 27.5Q69.2 27.8 69.2 28.1L69.2 28.1Q69.7 27.1 70.5 26.6Q71.2 26.1 72.0 25.9Q72.7 25.7 73.3 25.7L73.3 25.7Q74.7 25.7 75.9 26.4Q77.1 27.0 77.9 28.3Q78.6 29.6 78.6 31.5L78.6 31.5Q78.6 33.3 77.8 34.8Q77.1 36.2 75.6 37.1Q74.2 37.9 72.2 37.9L72.2 37.9Q70.6 37.9 69.4 37.3Q68.2 36.7 67.4 35.8Q66.6 34.8 66.2 33.6Q65.7 32.4 65.5 31.0Q65.4 29.7 65.4 28.5L65.4 28.5Q65.4 25.2 66.4 22.9Q67.5 20.7 69.3 19.5Q71.1 18.4 73.4 18.4L73.4 18.4Q74.4 18.4 75.2 18.6Q76.1 18.7 76.7 18.9Q77.3 19.2 77.6 19.3ZM69.5 32.0L69.5 32.0Q69.5 32.6 69.6 33.3Q69.8 34.0 70.0 34.6Q70.3 35.2 70.9 35.6Q71.4 36.0 72.2 36.0L72.2 36.0Q73.1 36.0 73.6 35.6Q74.1 35.1 74.4 34.5Q74.7 33.9 74.8 33.1Q74.9 32.4 74.9 31.8L74.9 31.8Q74.9 30.3 74.5 29.5Q74.1 28.6 73.5 28.3Q72.9 27.9 72.2 27.9L72.2 27.9Q70.8 27.9 70.2 29.0Q69.5 30.1 69.5 32.0Z " transform="matrix(1.00,0.00,0.00,1.00,0.00,-1.00)" clip-path="url(#satori_cp-id-1-0)" mask="url(#satori_om-id-1-0)"/><mask id="satori_om-id-1-0-1"><rect x="86" y="2" width="84" height="50" fill="#fff" mask="url(#satori_om-id-1-0)"/></mask><mask id="satori_om-id-1-0-1-0"><rect x="86" y="2" width="84" height="50" fill="#fff" mask="url(#satori_om-id-1-0)"/></mask><rect x="86" y="2" width="84" height="50" fill="#9E28B5" clip-path="url(#satori_cp-id-1-0)" mask="url(#satori_om-id-1-0)"/><mask id="satori_om-id-1-0-1-0-0"><rect x="102" y="18" width="52" height="19" fill="#fff" mask="url(#satori_om-id-1-0)"/></mask><mask id="satori_om-id-1-0-1-0-0-0"><rect x="102" y="18" width="33" height="19" fill="#fff" mask="url(#satori_om-id-1-0)"/></mask><path fill="white" d="M118.0 18.5L118.0 37.6L115.6 37.6L106.2 24.8L106.2 37.6L103.6 37.6L103.6 18.7L106.0 18.7L115.4 31.5L115.4 20.7Q115.4 20.3 115.8 19.8Q116.1 19.3 116.7 18.9Q117.3 18.5 118.0 18.5L118.0 18.5ZM132.8 37.6L121.5 37.6L121.5 24.1Q121.5 23.4 122.3 22.3Q123.2 21.3 124.5 20.9L124.5 20.9L124.5 20.8L121.1 20.8L120.9 18.7L132.7 18.7L132.7 21.0L125.3 21.0L125.3 26.7L132.2 26.7L132.2 28.9L125.3 28.9L125.3 35.2L132.8 35.2L132.8 37.6Z " transform="matrix(1.00,0.00,0.00,1.00,0.00,-1.00)" clip-path="url(#satori_cp-id-1-0)" mask="url(#satori_om-id-1-0)"/><mask id="satori_om-id-1-0-1-0-0-1"><rect x="139" y="18" width="15" height="19" fill="#fff" mask="url(#satori_om-id-1-0)"/></mask><path fill="white" d="M152.4 32.2L152.4 32.2Q152.4 33.8 151.4 35.1Q150.5 36.4 148.9 37.1Q147.2 37.9 145.0 37.9L145.0 37.9Q143.2 37.9 141.9 37.5Q140.6 37.2 139.7 36.7L139.7 36.7L140.4 34.5Q140.9 34.8 142.1 35.2Q143.2 35.6 144.6 35.6L144.6 35.6Q146.0 35.6 146.8 35.1Q147.7 34.6 148.1 33.9Q148.5 33.1 148.5 32.1L148.5 32.1Q148.5 31.1 147.9 30.2Q147.3 29.3 146.2 28.8L146.2 28.8Q145.6 28.7 144.8 28.6Q144.0 28.5 143.2 28.5L143.2 28.5L142.3 28.5L142.3 26.7L143.0 26.7Q143.9 26.7 144.7 26.6Q145.5 26.5 146.2 26.0L146.2 26.0Q146.8 25.7 147.2 25.1Q147.6 24.4 147.6 23.5L147.6 23.5Q147.6 22.1 146.7 21.3Q145.9 20.6 144.4 20.6L144.4 20.6Q143.2 20.6 142.3 20.9Q141.4 21.2 140.9 21.5L140.9 21.5L140.1 19.4Q140.8 19.0 142.0 18.7Q143.2 18.4 145.1 18.4L145.1 18.4Q148.0 18.4 149.7 19.6Q151.3 20.7 151.3 22.8L151.3 22.8Q151.3 24.0 150.7 24.9Q150.2 25.8 149.2 26.4Q148.3 27.0 147.2 27.4L147.2 27.4Q148.7 27.6 149.9 28.2Q151.0 28.8 151.7 29.8Q152.4 30.8 152.4 32.2Z " transform="matrix(1.00,0.00,0.00,1.00,0.00,-1.00)" clip-path="url(#satori_cp-id-1-0)" mask="url(#satori_om-id-1-0)"/><mask id="satori_om-id-1-0-2"><rect x="170" y="2" width="84" height="50" fill="#fff" mask="url(#satori_om-id-1-0)"/></mask><mask id="satori_om-id-1-0-2-0"><rect x="170" y="2" width="84" height="50" fill="#fff" mask="url(#satori_om-id-1-0)"/></mask><rect x="170" y="2" width="84" height="50" fill="#9D5918" clip-path="url(#satori_cp-id-1-0)" mask="url(#satori_om-id-1-0)"/><mask id="satori_om-id-1-0-2-0-0"><rect x="183" y="18" width="59" height="19" fill="#fff" mask="url(#satori_om-id-1-0)"/></mask><mask id="satori_om-id-1-0-2-0-0-0"><rect x="183" y="18" width="29" height="19" fill="#fff" mask="url(#satori_om-id-1-0)"/></mask><path fill="white" d="M192.5 37.6L188.6 37.6L188.6 24.2Q188.6 23.5 189.5 22.5Q190.4 21.4 191.7 21.1L191.7 21.1L191.7 21.0L183.8 21.0L183.6 18.7L197.4 18.7L197.4 21.0L192.5 21.0L192.5 37.6ZM211.7 37.6L200.4 37.6L200.4 24.1Q200.4 23.4 201.3 22.3Q202.1 21.3 203.5 20.9L203.5 20.9L203.5 20.8L200.0 20.8L199.8 18.7L211.6 18.7L211.6 21.0L204.2 21.0L204.2 26.7L211.1 26.7L211.1 28.9L204.2 28.9L204.2 35.2L211.7 35.2L211.7 37.6Z " transform="matrix(1.00,0.00,0.00,1.00,0.00,-1.00)" clip-path="url(#satori_cp-id-1-0)" mask="url(#satori_om-id-1-0)"/><mask id="satori_om-id-1-0-2-0-0-1"><rect x="216" y="18" width="26" height="19" fill="#fff" mask="url(#satori_om-id-1-0)"/></mask><path fill="white" d="M216.0 22.5L222.8 18.7L225.2 18.7L225.2 37.6L221.6 37.6L221.6 21.6L216.9 24.3L216.0 22.5ZM227.8 21.8L227.8 18.7L241.0 18.7L241.0 20.5L232.5 37.6L229.9 37.6L238.0 21.8L227.8 21.8Z " transform="matrix(1.00,0.00,0.00,1.00,0.00,-1.00)" clip-path="url(#satori_cp-id-1-0)" mask="url(#satori_om-id-1-0)"/></svg>