<svg width="88" height="54" viewBox="0 0 88 54" xmlns="http://www.w3.org/2000/svg"><mask id="satori_om-id"><rect x="0" y="0" width="88" height="54" fill="#fff"/></mask><mask id="satori_om-id-0"><rect x="15" y="0" width="58" height="54" fill="#fff"/></mask><defs><clipPath id="satori_bc-id-0-0"><rect x="15" y="20" width="58" height="15"/></clipPath></defs><mask id="satori_om-id-0-0"><rect x="15" y="22" width="58" height="11" fill="#fff"/><path width="58" height="15" fill="none" stroke="#000" stroke-width="4" d="M15,20 A0,0 0 0 1 15,20 h58 A0,0 0 0 1 73,20"/><path width="58" height="15" fill="none" stroke="#000" stroke-width="4" d="M73,35 A0,0 0 0 1 73,35 h-58 A0,0 0 0 1 15,35"/></mask><path width="58" height="15" clip-path="url(#satori_bc-id-0-0)" fill="none" stroke="white" stroke-width="4" d="M15,20 A0,0 0 0 1 15,20 h58 A0,0 0 0 1 73,20"/><path width="58" height="15" clip-path="url(#satori_bc-id-0-0)" fill="none" stroke="white" stroke-width="4" d="M73,35 A0,0 0 0 1 73,35 h-58 A0,0 0 0 1 15,35"/><mask id="satori_om-id-1"><rect x="0" y="0" width="88" height="54" fill="#fff"/></mask><defs><clipPath id="satori_bc-id-1-0"><path x="0" y="0" width="88" height="54" d="M15,0 h58 a15,27 0 0 1 15,27 v0 a15,27 0 0 1 -15,27 h-58 a15,27 0 0 1 -15,-27 v0 a15,27 0 0 1 15,-27"/></clipPath></defs><clipPath id="satori_cp-id-1-0"><path x="0" y="0" width="88" height="54" d="M15,0 h58 a15,27 0 0 1 15,27 v0 a15,27 0 0 1 -15,27 h-58 a15,27 0 0 1 -15,-27 v0 a15,27 0 0 1 15,-27"/></clipPath><mask id="satori_om-id-1-0"><rect x="2" y="2" width="84" height="50" fill="#fff"/><path width="88" height="54" fill="none" stroke="#000" stroke-width="4" d="M1.888,13.888 A15,27 0 0 1 15,0 h58 a15,27 0 0 1 15,27 v0 a15,27 0 0 1 -15,27 h-58 a15,27 0 0 1 -15,-27 v0 A15,27 0 0 1 1.888,13.888"/></mask><path width="88" height="54" clip-path="url(#satori_bc-id-1-0)" fill="none" stroke="white" stroke-width="4" d="M1.888,13.888 A15,27 0 0 1 15,0 h58 a15,27 0 0 1 15,27 v0 a15,27 0 0 1 -15,27 h-58 a15,27 0 0 1 -15,-27 v0 A15,27 0 0 1 1.888,13.888"/><mask id="satori_om-id-1-0-0"><rect x="2" y="2" width="84" height="50" fill="#fff" mask="url(#satori_om-id-1-0)"/></mask><mask id="satori_om-id-1-0-0-0"><rect x="2" y="2" width="84" height="50" fill="#fff" mask="url(#satori_om-id-1-0)"/></mask><rect x="2" y="2" width="84" height="50" fill="#00953B" clip-path="url(#satori_cp-id-1-0)" mask="url(#satori_om-id-1-0)"/><mask id="satori_om-id-1-0-0-0-0"><rect x="9" y="18" width="71" height="19" fill="#fff" mask="url(#satori_om-id-1-0)"/></mask><mask id="satori_om-id-1-0-0-0-0-0"><rect x="9" y="18" width="39" height="19" fill="#fff" mask="url(#satori_om-id-1-0)"/></mask><path fill="white" d="M22.6 37.6L11.3 37.6L11.3 24.1Q11.3 23.4 12.1 22.3Q13.0 21.3 14.3 20.9L14.3 20.9L14.3 20.8L10.8 20.8L10.7 18.7L22.4 18.7L22.4 21.0L15.1 21.0L15.1 26.7L22.0 26.7L22.0 28.9L15.1 28.9L15.1 35.2L22.6 35.2L22.6 37.6ZM29.4 37.8L25.1 18.7L29.0 18.7L31.7 32.3L35.4 18.7L38.2 18.7L41.6 32.2L44.0 20.7Q44.2 19.8 44.7 19.4Q45.3 18.9 46.0 18.7Q46.6 18.5 47.1 18.5L47.1 18.5L42.6 37.6L39.7 37.6L36.1 23.9L32.9 35.4Q32.6 36.3 32.0 36.8Q31.5 37.4 30.7 37.6Q30.0 37.8 29.4 37.8L29.4 37.8Z " transform="matrix(1.00,0.00,0.00,1.00,0.00,-1.00)" clip-path="url(#satori_cp-id-1-0)" mask="url(#satori_om-id-1-0)"/><mask id="satori_om-id-1-0-0-0-0-1"><rect x="52" y="18" width="28" height="19" fill="#fff" mask="url(#satori_om-id-1-0)"/></mask><path fill="white" d="M52.0 22.5L58.8 18.7L61.2 18.7L61.2 37.6L57.6 37.6L57.6 21.6L52.9 24.3L52.0 22.5ZM65.6 36.9L65.6 36.9L66.3 34.8Q66.9 35.2 67.8 35.5Q68.6 35.7 69.6 35.7L69.6 35.7Q70.8 35.7 71.6 35.2Q72.4 34.7 72.9 33.8Q73.4 33.0 73.6 32.0Q73.9 31.0 73.9 30.1Q74.0 29.2 74.0 28.5L74.0 28.5L74.0 28.2Q73.6 28.7 73.0 29.3Q72.5 29.8 71.7 30.2Q70.9 30.6 69.9 30.6L69.9 30.6Q68.5 30.6 67.3 29.9Q66.1 29.2 65.3 27.9Q64.6 26.6 64.6 24.7L64.6 24.7Q64.6 23.0 65.3 21.6Q66.0 20.1 67.5 19.3Q68.9 18.4 71.0 18.4L71.0 18.4Q72.7 18.4 73.9 18.9Q75.1 19.5 75.9 20.4Q76.6 21.3 77.1 22.5Q77.5 23.6 77.7 24.9Q77.9 26.1 77.9 27.2L77.9 27.2Q77.9 29.8 77.3 31.9Q76.7 34.0 75.5 35.4L75.5 35.4Q74.7 36.4 73.7 36.9Q72.8 37.5 71.8 37.7Q70.8 37.9 70.0 37.9L70.0 37.9Q68.6 37.9 67.5 37.6Q66.4 37.3 65.6 36.9ZM68.3 24.3L68.3 24.3Q68.3 25.4 68.5 26.3Q68.8 27.2 69.4 27.8Q69.9 28.4 70.9 28.4L70.9 28.4Q71.9 28.4 72.5 27.9Q73.1 27.4 73.4 26.4Q73.7 25.5 73.7 24.2L73.7 24.2Q73.7 23.1 73.4 22.2Q73.1 21.3 72.5 20.8Q71.9 20.3 71.0 20.3L71.0 20.3Q70.0 20.3 69.4 20.8Q68.8 21.4 68.5 22.3Q68.3 23.3 68.3 24.3Z " transform="matrix(1.00,0.00,0.00,1.00,0.00,-1.00)" clip-path="url(#satori_cp-id-1-0)" mask="url(#satori_om-id-1-0)"/></svg>