<svg width="172" height="54" viewBox="0 0 172 54" xmlns="http://www.w3.org/2000/svg"><mask id="satori_om-id"><rect x="0" y="0" width="172" height="54" fill="#fff"/></mask><mask id="satori_om-id-0"><rect x="15" y="0" width="142" height="54" fill="#fff"/></mask><defs><clipPath id="satori_bc-id-0-0"><rect x="15" y="20" width="142" height="15"/></clipPath></defs><mask id="satori_om-id-0-0"><rect x="15" y="22" width="142" height="11" fill="#fff"/><path width="142" height="15" fill="none" stroke="#000" stroke-width="4" d="M15,20 A0,0 0 0 1 15,20 h142 A0,0 0 0 1 157,20"/><path width="142" height="15" fill="none" stroke="#000" stroke-width="4" d="M157,35 A0,0 0 0 1 157,35 h-142 A0,0 0 0 1 15,35"/></mask><path width="142" height="15" clip-path="url(#satori_bc-id-0-0)" fill="none" stroke="white" stroke-width="4" d="M15,20 A0,0 0 0 1 15,20 h142 A0,0 0 0 1 157,20"/><path width="142" height="15" clip-path="url(#satori_bc-id-0-0)" fill="none" stroke="white" stroke-width="4" d="M157,35 A0,0 0 0 1 157,35 h-142 A0,0 0 0 1 15,35"/><mask id="satori_om-id-1"><rect x="0" y="0" width="172" height="54" fill="#fff"/></mask><defs><clipPath id="satori_bc-id-1-0"><path x="0" y="0" width="172" height="54" d="M15,0 h142 a15,27 0 0 1 15,27 v0 a15,27 0 0 1 -15,27 h-142 a15,27 0 0 1 -15,-27 v0 a15,27 0 0 1 15,-27"/></clipPath></defs><clipPath id="satori_cp-id-1-0"><path x="0" y="0" width="172" height="54" d="M15,0 h142 a15,27 0 0 1 15,27 v0 a15,27 0 0 1 -15,27 h-142 a15,27 0 0 1 -15,-27 v0 a15,27 0 0 1 15,-27"/></clipPath><mask id="satori_om-id-1-0"><rect x="2" y="2" width="168" height="50" fill="#fff"/><path width="172" height="54" fill="none" stroke="#000" stroke-width="4" d="M1.888,13.888 A15,27 0 0 1 15,0 h142 a15,27 0 0 1 15,27 v0 a15,27 0 0 1 -15,27 h-142 a15,27 0 0 1 -15,-27 v0 A15,27 0 0 1 1.888,13.888"/></mask><path width="172" height="54" clip-path="url(#satori_bc-id-1-0)" fill="none" stroke="white" stroke-width="4" d="M1.888,13.888 A15,27 0 0 1 15,0 h142 a15,27 0 0 1 15,27 v0 a15,27 0 0 1 -15,27 h-142 a15,27 0 0 1 -15,-27 v0 A15,27 0 0 1 1.888,13.888"/><mask id="satori_om-id-1-0-0"><rect x="2" y="2" width="84" height="50" fill="#fff" mask="url(#satori_om-id-1-0)"/></mask><mask id="satori_om-id-1-0-0-0"><rect x="2" y="2" width="84" height="50" fill="#fff" mask="url(#satori_om-id-1-0)"/></mask><rect x="2" y="2" width="84" height="50" fill="#00953B" clip-path="url(#satori_cp-id-1-0)" mask="url(#satori_om-id-1-0)"/><mask id="satori_om-id-1-0-0-0-0"><rect x="15" y="18" width="59" height="19" fill="#fff" mask="url(#satori_om-id-1-0)"/></mask><mask id="satori_om-id-1-0-0-0-0-0"><rect x="15" y="18" width="39" height="19" fill="#fff" mask="url(#satori_om-id-1-0)"/></mask><path fill="white" d="M28.6 37.6L17.3 37.6L17.3 24.1Q17.3 23.4 18.1 22.3Q19.0 21.3 20.3 20.9L20.3 20.9L20.3 20.8L16.8 20.8L16.7 18.7L28.4 18.7L28.4 21.0L21.1 21.0L21.1 26.7L28.0 26.7L28.0 28.9L21.1 28.9L21.1 35.2L28.6 35.2L28.6 37.6ZM35.4 37.8L31.1 18.7L35.0 18.7L37.7 32.3L41.4 18.7L44.2 18.7L47.6 32.2L50.0 20.7Q50.2 19.8 50.7 19.4Q51.3 18.9 52.0 18.7Q52.6 18.5 53.1 18.5L53.1 18.5L48.6 37.6L45.7 37.6L42.1 23.9L38.9 35.4Q38.6 36.3 38.0 36.8Q37.5 37.4 36.7 37.6Q36.0 37.8 35.4 37.8L35.4 37.8Z " transform="matrix(1.00,0.00,0.00,1.00,0.00,-1.00)" clip-path="url(#satori_cp-id-1-0)" mask="url(#satori_om-id-1-0)"/><mask id="satori_om-id-1-0-0-0-0-1"><rect x="58" y="18" width="16" height="19" fill="#fff" mask="url(#satori_om-id-1-0)"/></mask><path fill="white" d="M62.5 34.5L62.5 34.5L71.8 34.5L71.8 37.6L58.3 37.6L58.3 35.7Q61.1 33.3 63.9 30.2L63.9 30.2Q65.6 28.4 66.5 26.8Q67.4 25.3 67.4 23.8L67.4 23.8Q67.4 22.8 67.0 22.2Q66.6 21.5 66.0 21.2Q65.4 20.9 64.9 20.8Q64.3 20.6 63.9 20.6L63.9 20.6Q62.6 20.6 61.6 20.9Q60.6 21.2 60.2 21.5L60.2 21.5L59.4 19.3Q60.2 18.9 61.4 18.7Q62.7 18.4 64.8 18.4L64.8 18.4Q66.9 18.4 68.3 19.0Q69.8 19.7 70.6 20.8Q71.3 21.9 71.3 23.3L71.3 23.3Q71.3 24.7 70.5 26.2Q69.7 27.6 68.0 29.4L68.0 29.4Q66.0 31.4 62.5 34.5Z " transform="matrix(1.00,0.00,0.00,1.00,0.00,-1.00)" clip-path="url(#satori_cp-id-1-0)" mask="url(#satori_om-id-1-0)"/><mask id="satori_om-id-1-0-1"><rect x="86" y="2" width="84" height="50" fill="#fff" mask="url(#satori_om-id-1-0)"/></mask><mask id="satori_om-id-1-0-1-0"><rect x="86" y="2" width="84" height="50" fill="#fff" mask="url(#satori_om-id-1-0)"/></mask><rect x="86" y="2" width="84" height="50" fill="#005DA6" clip-path="url(#satori_cp-id-1-0)" mask="url(#satori_om-id-1-0)"/><mask id="satori_om-id-1-0-1-0-0"><rect x="95" y="18" width="66" height="19" fill="#fff" mask="url(#satori_om-id-1-0)"/></mask><mask id="satori_om-id-1-0-1-0-0-0"><rect x="95" y="18" width="32" height="19" fill="#fff" mask="url(#satori_om-id-1-0)"/></mask><path fill="white" d="M102.2 20.8L102.2 20.8L101.1 20.8L101.1 35.5L102.0 35.5Q102.7 35.5 103.5 35.4Q104.2 35.4 104.9 35.0Q105.6 34.6 106.1 33.7Q106.7 32.9 107.0 31.4Q107.3 29.9 107.3 27.6L107.3 27.6Q107.3 25.6 107.0 24.3Q106.7 23.1 106.2 22.3Q105.7 21.6 105.1 21.3Q104.4 20.9 103.7 20.9Q102.9 20.8 102.2 20.8ZM101.2 37.6L97.3 37.6L97.3 24.0Q97.3 23.3 98.1 22.3Q99.0 21.2 100.3 20.9L100.3 20.9L100.3 20.8L96.8 20.8L96.7 18.7L101.8 18.7Q103.0 18.7 104.2 18.7Q105.5 18.8 106.7 19.2Q107.9 19.6 108.9 20.5L108.9 20.5Q110.1 21.6 110.6 22.9Q111.1 24.2 111.3 25.5Q111.4 26.8 111.4 27.6L111.4 27.6Q111.4 29.1 111.1 30.9Q110.7 32.6 109.8 34.1Q108.8 35.6 107.1 36.6L107.1 36.6Q105.8 37.2 104.4 37.4Q103.0 37.6 101.2 37.6L101.2 37.6ZM119.7 37.6L115.8 37.6L115.8 24.2Q115.8 23.5 116.7 22.5Q117.6 21.4 118.9 21.1L118.9 21.1L118.9 21.0L111.0 21.0L110.8 18.7L124.6 18.7L124.6 21.0L119.7 21.0L119.7 37.6Z " transform="matrix(1.00,0.00,0.00,1.00,0.00,-1.00)" clip-path="url(#satori_cp-id-1-0)" mask="url(#satori_om-id-1-0)"/><mask id="satori_om-id-1-0-1-0-0-1"><rect x="131" y="18" width="30" height="19" fill="#fff" mask="url(#satori_om-id-1-0)"/></mask><path fill="white" d="M144.4 32.2L144.4 32.2Q144.4 33.8 143.4 35.1Q142.5 36.4 140.9 37.1Q139.2 37.9 137.0 37.9L137.0 37.9Q135.2 37.9 133.9 37.5Q132.6 37.2 131.7 36.7L131.7 36.7L132.4 34.5Q132.9 34.8 134.1 35.2Q135.2 35.6 136.6 35.6L136.6 35.6Q138.0 35.6 138.8 35.1Q139.7 34.6 140.1 33.9Q140.5 33.1 140.5 32.1L140.5 32.1Q140.5 31.1 139.9 30.2Q139.3 29.3 138.2 28.8L138.2 28.8Q137.6 28.7 136.8 28.6Q136.0 28.5 135.2 28.5L135.2 28.5L134.3 28.5L134.3 26.7L135.0 26.7Q135.9 26.7 136.7 26.6Q137.5 26.5 138.2 26.0L138.2 26.0Q138.8 25.7 139.2 25.1Q139.6 24.4 139.6 23.5L139.6 23.5Q139.6 22.1 138.7 21.3Q137.9 20.6 136.4 20.6L136.4 20.6Q135.2 20.6 134.3 20.9Q133.4 21.2 132.9 21.5L132.9 21.5L132.1 19.4Q132.8 19.0 134.0 18.7Q135.2 18.4 137.1 18.4L137.1 18.4Q140.0 18.4 141.7 19.6Q143.3 20.7 143.3 22.8L143.3 22.8Q143.3 24.0 142.7 24.9Q142.2 25.8 141.2 26.4Q140.3 27.0 139.2 27.4L139.2 27.4Q140.7 27.6 141.9 28.2Q143.0 28.8 143.7 29.8Q144.4 30.8 144.4 32.2ZM149.8 34.5L149.8 34.5L159.1 34.5L159.1 37.6L145.6 37.6L145.6 35.7Q148.3 33.3 151.2 30.2L151.2 30.2Q152.9 28.4 153.8 26.8Q154.7 25.3 154.7 23.8L154.7 23.8Q154.7 22.8 154.3 22.2Q153.9 21.5 153.3 21.2Q152.7 20.9 152.2 20.8Q151.6 20.6 151.2 20.6L151.2 20.6Q149.9 20.6 148.9 20.9Q147.9 21.2 147.5 21.5L147.5 21.5L146.7 19.3Q147.5 18.9 148.7 18.7Q150.0 18.4 152.1 18.4L152.1 18.4Q154.2 18.4 155.6 19.0Q157.1 19.7 157.8 20.8Q158.6 21.9 158.6 23.3L158.6 23.3Q158.6 24.7 157.8 26.2Q157.0 27.6 155.3 29.4L155.3 29.4Q153.3 31.4 149.8 34.5Z " transform="matrix(1.00,0.00,0.00,1.00,0.00,-1.00)" clip-path="url(#satori_cp-id-1-0)" mask="url(#satori_om-id-1-0)"/></svg>