<svg width="172" height="54" viewBox="0 0 172 54" xmlns="http://www.w3.org/2000/svg"><mask id="satori_om-id"><rect x="0" y="0" width="172" height="54" fill="#fff"/></mask><mask id="satori_om-id-0"><rect x="15" y="0" width="142" height="54" fill="#fff"/></mask><defs><clipPath id="satori_bc-id-0-0"><rect x="15" y="20" width="142" height="15"/></clipPath></defs><mask id="satori_om-id-0-0"><rect x="15" y="22" width="142" height="11" fill="#fff"/><path width="142" height="15" fill="none" stroke="#000" stroke-width="4" d="M15,20 A0,0 0 0 1 15,20 h142 A0,0 0 0 1 157,20"/><path width="142" height="15" fill="none" stroke="#000" stroke-width="4" d="M157,35 A0,0 0 0 1 157,35 h-142 A0,0 0 0 1 15,35"/></mask><path width="142" height="15" clip-path="url(#satori_bc-id-0-0)" fill="none" stroke="white" stroke-width="4" d="M15,20 A0,0 0 0 1 15,20 h142 A0,0 0 0 1 157,20"/><path width="142" height="15" clip-path="url(#satori_bc-id-0-0)" fill="none" stroke="white" stroke-width="4" d="M157,35 A0,0 0 0 1 157,35 h-142 A0,0 0 0 1 15,35"/><mask id="satori_om-id-1"><rect x="0" y="0" width="172" height="54" fill="#fff"/></mask><defs><clipPath id="satori_bc-id-1-0"><path x="0" y="0" width="172" height="54" d="M15,0 h142 a15,27 0 0 1 15,27 v0 a15,27 0 0 1 -15,27 h-142 a15,27 0 0 1 -15,-27 v0 a15,27 0 0 1 15,-27"/></clipPath></defs><clipPath id="satori_cp-id-1-0"><path x="0" y="0" width="172" height="54" d="M15,0 h142 a15,27 0 0 1 15,27 v0 a15,27 0 0 1 -15,27 h-142 a15,27 0 0 1 -15,-27 v0 a15,27 0 0 1 15,-27"/></clipPath><mask id="satori_om-id-1-0"><rect x="2" y="2" width="168" height="50" fill="#fff"/><path width="172" height="54" fill="none" stroke="#000" stroke-width="4" d="M1.888,13.888 A15,27 0 0 1 15,0 h142 a15,27 0 0 1 15,27 v0 a15,27 0 0 1 -15,27 h-142 a15,27 0 0 1 -15,-27 v0 A15,27 0 0 1 1.888,13.888"/></mask><path width="172" height="54" clip-path="url(#satori_bc-id-1-0)" fill="none" stroke="white" stroke-width="4" d="M1.888,13.888 A15,27 0 0 1 15,0 h142 a15,27 0 0 1 15,27 v0 a15,27 0 0 1 -15,27 h-142 a15,27 0 0 1 -15,-27 v0 A15,27 0 0 1 1.888,13.888"/><mask id="satori_om-id-1-0-0"><rect x="2" y="2" width="84" height="50" fill="#fff" mask="url(#satori_om-id-1-0)"/></mask><mask id="satori_om-id-1-0-0-0"><rect x="2" y="2" width="84" height="50" fill="#fff" mask="url(#satori_om-id-1-0)"/></mask><rect x="2" y="2" width="84" height="50" fill="#00953B" clip-path="url(#satori_cp-id-1-0)" mask="url(#satori_om-id-1-0)"/><mask id="satori_om-id-1-0-0-0-0"><rect x="9" y="18" width="70" height="19" fill="#fff" mask="url(#satori_om-id-1-0)"/></mask><mask id="satori_om-id-1-0-0-0-0-0"><rect x="9" y="18" width="39" height="19" fill="#fff" mask="url(#satori_om-id-1-0)"/></mask><path fill="white" d="M22.6 37.6L11.3 37.6L11.3 24.1Q11.3 23.4 12.1 22.3Q13.0 21.3 14.3 20.9L14.3 20.9L14.3 20.8L10.8 20.8L10.7 18.7L22.4 18.7L22.4 21.0L15.1 21.0L15.1 26.7L22.0 26.7L22.0 28.9L15.1 28.9L15.1 35.2L22.6 35.2L22.6 37.6ZM29.4 37.8L25.1 18.7L29.0 18.7L31.7 32.3L35.4 18.7L38.2 18.7L41.6 32.2L44.0 20.7Q44.2 19.8 44.7 19.4Q45.3 18.9 46.0 18.7Q46.6 18.5 47.1 18.5L47.1 18.5L42.6 37.6L39.7 37.6L36.1 23.9L32.9 35.4Q32.6 36.3 32.0 36.8Q31.5 37.4 30.7 37.6Q30.0 37.8 29.4 37.8L29.4 37.8Z " transform="matrix(1.00,0.00,0.00,1.00,0.00,-1.00)" clip-path="url(#satori_cp-id-1-0)" mask="url(#satori_om-id-1-0)"/><mask id="satori_om-id-1-0-0-0-0-1"><rect x="52" y="18" width="27" height="19" fill="#fff" mask="url(#satori_om-id-1-0)"/></mask><path fill="white" d="M56.5 34.5L56.5 34.5L65.8 34.5L65.8 37.6L52.3 37.6L52.3 35.7Q55.1 33.3 57.9 30.2L57.9 30.2Q59.6 28.4 60.5 26.8Q61.4 25.3 61.4 23.8L61.4 23.8Q61.4 22.8 61.0 22.2Q60.6 21.5 60.0 21.2Q59.4 20.9 58.9 20.8Q58.3 20.6 57.9 20.6L57.9 20.6Q56.6 20.6 55.6 20.9Q54.6 21.2 54.2 21.5L54.2 21.5L53.4 19.3Q54.2 18.9 55.4 18.7Q56.7 18.4 58.8 18.4L58.8 18.4Q60.9 18.4 62.3 19.0Q63.8 19.7 64.6 20.8Q65.3 21.9 65.3 23.3L65.3 23.3Q65.3 24.7 64.5 26.2Q63.7 27.6 62.0 29.4L62.0 29.4Q60.0 31.4 56.5 34.5ZM67.1 22.5L74.0 18.7L76.3 18.7L76.3 37.6L72.7 37.6L72.7 21.6L68.0 24.3L67.1 22.5Z " transform="matrix(1.00,0.00,0.00,1.00,0.00,-1.00)" clip-path="url(#satori_cp-id-1-0)" mask="url(#satori_om-id-1-0)"/><mask id="satori_om-id-1-0-1"><rect x="86" y="2" width="84" height="50" fill="#fff" mask="url(#satori_om-id-1-0)"/></mask><mask id="satori_om-id-1-0-1-0"><rect x="86" y="2" width="84" height="50" fill="#fff" mask="url(#satori_om-id-1-0)"/></mask><rect x="86" y="2" width="84" height="50" fill="#FF9E18" clip-path="url(#satori_cp-id-1-0)" mask="url(#satori_om-id-1-0)"/><mask id="satori_om-id-1-0-1-0-0"><rect x="95" y="18" width="66" height="19" fill="#fff" mask="url(#satori_om-id-1-0)"/></mask><mask id="satori_om-id-1-0-1-0-0-0"><rect x="95" y="18" width="31" height="19" fill="#fff" mask="url(#satori_om-id-1-0)"/></mask><path fill="#231F20" d="M109.3 19.2L109.3 19.2L108.6 21.6Q108.0 21.3 107.1 21.0Q106.3 20.7 105.2 20.7L105.2 20.7Q103.6 20.7 102.5 21.6Q101.4 22.6 100.8 24.3Q100.3 26.0 100.3 28.1L100.3 28.1Q100.3 31.6 101.6 33.6Q102.8 35.6 105.0 35.6L105.0 35.6Q105.7 35.6 106.4 35.4Q107.1 35.2 107.7 34.9Q108.3 34.7 108.6 34.5L108.6 34.5L109.4 36.8Q108.5 37.3 107.2 37.6Q106.0 37.9 104.3 37.9L104.3 37.9Q102.1 37.9 100.5 37.1Q98.9 36.3 97.9 34.9Q97.0 33.6 96.5 31.8Q96.0 30.1 96.0 28.2L96.0 28.2Q96.0 25.4 97.0 23.2Q98.1 21.0 100.0 19.7Q102.0 18.4 104.7 18.4L104.7 18.4Q107.4 18.4 109.3 19.2ZM123.6 19.2L123.6 19.2L122.8 21.6Q122.3 21.3 121.4 21.0Q120.5 20.7 119.5 20.7L119.5 20.7Q117.8 20.7 116.7 21.6Q115.6 22.6 115.1 24.3Q114.5 26.0 114.5 28.1L114.5 28.1Q114.5 31.6 115.8 33.6Q117.1 35.6 119.2 35.6L119.2 35.6Q120.0 35.6 120.7 35.4Q121.4 35.2 121.9 34.9Q122.5 34.7 122.8 34.5L122.8 34.5L123.6 36.8Q122.7 37.3 121.5 37.6Q120.2 37.9 118.5 37.9L118.5 37.9Q116.3 37.9 114.7 37.1Q113.2 36.3 112.2 34.9Q111.2 33.6 110.7 31.8Q110.2 30.1 110.2 28.2L110.2 28.2Q110.2 25.4 111.3 23.2Q112.3 21.0 114.2 19.7Q116.2 18.4 119.0 18.4L119.0 18.4Q121.6 18.4 123.6 19.2Z " transform="matrix(1.00,0.00,0.00,1.00,0.00,-1.00)" clip-path="url(#satori_cp-id-1-0)" mask="url(#satori_om-id-1-0)"/><mask id="satori_om-id-1-0-1-0-0-1"><rect x="130" y="18" width="31" height="19" fill="#fff" mask="url(#satori_om-id-1-0)"/></mask><path fill="#231F20" d="M134.5 34.5L134.5 34.5L143.8 34.5L143.8 37.6L130.3 37.6L130.3 35.7Q133.1 33.3 135.9 30.2L135.9 30.2Q137.6 28.4 138.5 26.8Q139.4 25.3 139.4 23.8L139.4 23.8Q139.4 22.8 139.0 22.2Q138.6 21.5 138.0 21.2Q137.4 20.9 136.9 20.8Q136.3 20.6 135.9 20.6L135.9 20.6Q134.6 20.6 133.6 20.9Q132.6 21.2 132.2 21.5L132.2 21.5L131.4 19.3Q132.2 18.9 133.4 18.7Q134.7 18.4 136.8 18.4L136.8 18.4Q138.9 18.4 140.3 19.0Q141.8 19.7 142.6 20.8Q143.3 21.9 143.3 23.3L143.3 23.3Q143.3 24.7 142.5 26.2Q141.7 27.6 140.0 29.4L140.0 29.4Q138.0 31.4 134.5 34.5ZM149.6 34.5L149.6 34.5L159.0 34.5L159.0 37.6L145.4 37.6L145.4 35.7Q148.2 33.3 151.0 30.2L151.0 30.2Q152.7 28.4 153.6 26.8Q154.5 25.3 154.5 23.8L154.5 23.8Q154.5 22.8 154.1 22.2Q153.7 21.5 153.1 21.2Q152.6 20.9 152.0 20.8Q151.4 20.6 151.0 20.6L151.0 20.6Q149.7 20.6 148.7 20.9Q147.7 21.2 147.3 21.5L147.3 21.5L146.5 19.3Q147.3 18.9 148.5 18.7Q149.8 18.4 151.9 18.4L151.9 18.4Q154.0 18.4 155.4 19.0Q156.9 19.7 157.7 20.8Q158.4 21.9 158.4 23.3L158.4 23.3Q158.4 24.7 157.6 26.2Q156.9 27.6 155.1 29.4L155.1 29.4Q153.1 31.4 149.6 34.5Z " transform="matrix(1.00,0.00,0.00,1.00,0.00,-1.00)" clip-path="url(#satori_cp-id-1-0)" mask="url(#satori_om-id-1-0)"/></svg>