<svg width="88" height="54" viewBox="0 0 88 54" xmlns="http://www.w3.org/2000/svg"><mask id="satori_om-id"><rect x="0" y="0" width="88" height="54" fill="#fff"/></mask><mask id="satori_om-id-0"><rect x="15" y="0" width="58" height="54" fill="#fff"/></mask><defs><clipPath id="satori_bc-id-0-0"><rect x="15" y="20" width="58" height="15"/></clipPath></defs><mask id="satori_om-id-0-0"><rect x="15" y="22" width="58" height="11" fill="#fff"/><path width="58" height="15" fill="none" stroke="#000" stroke-width="4" d="M15,20 A0,0 0 0 1 15,20 h58 A0,0 0 0 1 73,20"/><path width="58" height="15" fill="none" stroke="#000" stroke-width="4" d="M73,35 A0,0 0 0 1 73,35 h-58 A0,0 0 0 1 15,35"/></mask><path width="58" height="15" clip-path="url(#satori_bc-id-0-0)" fill="none" stroke="white" stroke-width="4" d="M15,20 A0,0 0 0 1 15,20 h58 A0,0 0 0 1 73,20"/><path width="58" height="15" clip-path="url(#satori_bc-id-0-0)" fill="none" stroke="white" stroke-width="4" d="M73,35 A0,0 0 0 1 73,35 h-58 A0,0 0 0 1 15,35"/><mask id="satori_om-id-1"><rect x="0" y="0" width="88" height="54" fill="#fff"/></mask><defs><clipPath id="satori_bc-id-1-0"><path x="0" y="0" width="88" height="54" d="M15,0 h58 a15,27 0 0 1 15,27 v0 a15,27 0 0 1 -15,27 h-58 a15,27 0 0 1 -15,-27 v0 a15,27 0 0 1 15,-27"/></clipPath></defs><clipPath id="satori_cp-id-1-0"><path x="0" y="0" width="88" height="54" d="M15,0 h58 a15,27 0 0 1 15,27 v0 a15,27 0 0 1 -15,27 h-58 a15,27 0 0 1 -15,-27 v0 a15,27 0 0 1 15,-27"/></clipPath><mask id="satori_om-id-1-0"><rect x="2" y="2" width="84" height="50" fill="#fff"/><path width="88" height="54" fill="none" stroke="#000" stroke-width="4" d="M1.888,13.888 A15,27 0 0 1 15,0 h58 a15,27 0 0 1 15,27 v0 a15,27 0 0 1 -15,27 h-58 a15,27 0 0 1 -15,-27 v0 A15,27 0 0 1 1.888,13.888"/></mask><path width="88" height="54" clip-path="url(#satori_bc-id-1-0)" fill="none" stroke="white" stroke-width="4" d="M1.888,13.888 A15,27 0 0 1 15,0 h58 a15,27 0 0 1 15,27 v0 a15,27 0 0 1 -15,27 h-58 a15,27 0 0 1 -15,-27 v0 A15,27 0 0 1 1.888,13.888"/><mask id="satori_om-id-1-0-0"><rect x="2" y="2" width="84" height="50" fill="#fff" mask="url(#satori_om-id-1-0)"/></mask><mask id="satori_om-id-1-0-0-0"><rect x="2" y="2" width="84" height="50" fill="#fff" mask="url(#satori_om-id-1-0)"/></mask><rect x="2" y="2" width="84" height="50" fill="#00953B" clip-path="url(#satori_cp-id-1-0)" mask="url(#satori_om-id-1-0)"/><mask id="satori_om-id-1-0-0-0-0"><rect x="8" y="18" width="73" height="19" fill="#fff" mask="url(#satori_om-id-1-0)"/></mask><mask id="satori_om-id-1-0-0-0-0-0"><rect x="8" y="18" width="39" height="19" fill="#fff" mask="url(#satori_om-id-1-0)"/></mask><path fill="white" d="M21.6 37.6L10.3 37.6L10.3 24.1Q10.3 23.4 11.1 22.3Q12.0 21.3 13.3 20.9L13.3 20.9L13.3 20.8L9.8 20.8L9.7 18.7L21.4 18.7L21.4 21.0L14.1 21.0L14.1 26.7L21.0 26.7L21.0 28.9L14.1 28.9L14.1 35.2L21.6 35.2L21.6 37.6ZM28.4 37.8L24.1 18.7L28.0 18.7L30.7 32.3L34.4 18.7L37.2 18.7L40.6 32.2L43.0 20.7Q43.2 19.8 43.7 19.4Q44.3 18.9 45.0 18.7Q45.6 18.5 46.1 18.5L46.1 18.5L41.6 37.6L38.7 37.6L35.1 23.9L31.9 35.4Q31.6 36.3 31.0 36.8Q30.5 37.4 29.7 37.6Q29.0 37.8 28.4 37.8L28.4 37.8Z " transform="matrix(1.00,0.00,0.00,1.00,0.00,-1.00)" clip-path="url(#satori_cp-id-1-0)" mask="url(#satori_om-id-1-0)"/><mask id="satori_om-id-1-0-0-0-0-1"><rect x="51" y="18" width="30" height="19" fill="#fff" mask="url(#satori_om-id-1-0)"/></mask><path fill="white" d="M55.5 34.5L55.5 34.5L64.8 34.5L64.8 37.6L51.3 37.6L51.3 35.7Q54.1 33.3 56.9 30.2L56.9 30.2Q58.6 28.4 59.5 26.8Q60.4 25.3 60.4 23.8L60.4 23.8Q60.4 22.8 60.0 22.2Q59.6 21.5 59.0 21.2Q58.4 20.9 57.9 20.8Q57.3 20.6 56.9 20.6L56.9 20.6Q55.6 20.6 54.6 20.9Q53.6 21.2 53.2 21.5L53.2 21.5L52.4 19.3Q53.2 18.9 54.4 18.7Q55.7 18.4 57.8 18.4L57.8 18.4Q59.9 18.4 61.3 19.0Q62.8 19.7 63.6 20.8Q64.3 21.9 64.3 23.3L64.3 23.3Q64.3 24.7 63.5 26.2Q62.7 27.6 61.0 29.4L61.0 29.4Q59.0 31.4 55.5 34.5ZM79.5 32.2L79.5 32.2Q79.5 33.8 78.6 35.1Q77.6 36.4 76.0 37.1Q74.3 37.9 72.1 37.9L72.1 37.9Q70.3 37.9 69.0 37.5Q67.7 37.2 66.8 36.7L66.8 36.7L67.5 34.5Q68.0 34.8 69.2 35.2Q70.3 35.6 71.7 35.6L71.7 35.6Q73.1 35.6 73.9 35.1Q74.8 34.6 75.2 33.9Q75.6 33.1 75.6 32.1L75.6 32.1Q75.6 31.1 75.0 30.2Q74.4 29.3 73.3 28.8L73.3 28.8Q72.7 28.7 71.9 28.6Q71.1 28.5 70.4 28.5L70.4 28.5L69.4 28.5L69.4 26.7L70.2 26.7Q71.0 26.7 71.8 26.6Q72.6 26.5 73.3 26.0L73.3 26.0Q73.9 25.7 74.3 25.1Q74.7 24.4 74.7 23.5L74.7 23.5Q74.7 22.1 73.8 21.3Q73.0 20.6 71.5 20.6L71.5 20.6Q70.3 20.6 69.4 20.9Q68.5 21.2 68.0 21.5L68.0 21.5L67.3 19.4Q67.9 19.0 69.1 18.7Q70.3 18.4 72.3 18.4L72.3 18.4Q75.1 18.4 76.8 19.6Q78.4 20.7 78.4 22.8L78.4 22.8Q78.4 24.0 77.9 24.9Q77.3 25.8 76.3 26.4Q75.4 27.0 74.3 27.4L74.3 27.4Q75.8 27.6 77.0 28.2Q78.1 28.8 78.8 29.8Q79.5 30.8 79.5 32.2Z " transform="matrix(1.00,0.00,0.00,1.00,0.00,-1.00)" clip-path="url(#satori_cp-id-1-0)" mask="url(#satori_om-id-1-0)"/></svg>