<svg width="88" height="54" viewBox="0 0 88 54" xmlns="http://www.w3.org/2000/svg"><mask id="satori_om-id"><rect x="0" y="0" width="88" height="54" fill="#fff"/></mask><mask id="satori_om-id-0"><rect x="15" y="0" width="58" height="54" fill="#fff"/></mask><defs><clipPath id="satori_bc-id-0-0"><rect x="15" y="20" width="58" height="15"/></clipPath></defs><mask id="satori_om-id-0-0"><rect x="15" y="22" width="58" height="11" fill="#fff"/><path width="58" height="15" fill="none" stroke="#000" stroke-width="4" d="M15,20 A0,0 0 0 1 15,20 h58 A0,0 0 0 1 73,20"/><path width="58" height="15" fill="none" stroke="#000" stroke-width="4" d="M73,35 A0,0 0 0 1 73,35 h-58 A0,0 0 0 1 15,35"/></mask><path width="58" height="15" clip-path="url(#satori_bc-id-0-0)" fill="none" stroke="white" stroke-width="4" d="M15,20 A0,0 0 0 1 15,20 h58 A0,0 0 0 1 73,20"/><path width="58" height="15" clip-path="url(#satori_bc-id-0-0)" fill="none" stroke="white" stroke-width="4" d="M73,35 A0,0 0 0 1 73,35 h-58 A0,0 0 0 1 15,35"/><mask id="satori_om-id-1"><rect x="0" y="0" width="88" height="54" fill="#fff"/></mask><defs><clipPath id="satori_bc-id-1-0"><path x="0" y="0" width="88" height="54" d="M15,0 h58 a15,27 0 0 1 15,27 v0 a15,27 0 0 1 -15,27 h-58 a15,27 0 0 1 -15,-27 v0 a15,27 0 0 1 15,-27"/></clipPath></defs><clipPath id="satori_cp-id-1-0"><path x="0" y="0" width="88" height="54" d="M15,0 h58 a15,27 0 0 1 15,27 v0 a15,27 0 0 1 -15,27 h-58 a15,27 0 0 1 -15,-27 v0 a15,27 0 0 1 15,-27"/></clipPath><mask id="satori_om-id-1-0"><rect x="2" y="2" width="84" height="50" fill="#fff"/><path width="88" height="54" fill="none" stroke="#000" stroke-width="4" d="M1.888,13.888 A15,27 0 0 1 15,0 h58 a15,27 0 0 1 15,27 v0 a15,27 0 0 1 -15,27 h-58 a15,27 0 0 1 -15,-27 v0 A15,27 0 0 1 1.888,13.888"/></mask><path width="88" height="54" clip-path="url(#satori_bc-id-1-0)" fill="none" stroke="white" stroke-width="4" d="M1.888,13.888 A15,27 0 0 1 15,0 h58 a15,27 0 0 1 15,27 v0 a15,27 0 0 1 -15,27 h-58 a15,27 0 0 1 -15,-27 v0 A15,27 0 0 1 1.888,13.888"/><mask id="satori_om-id-1-0-0"><rect x="2" y="2" width="84" height="50" fill="#fff" mask="url(#satori_om-id-1-0)"/></mask><mask id="satori_om-id-1-0-0-0"><rect x="2" y="2" width="84" height="50" fill="#fff" mask="url(#satori_om-id-1-0)"/></mask><rect x="2" y="2" width="84" height="50" fill="#00953B" clip-path="url(#satori_cp-id-1-0)" mask="url(#satori_om-id-1-0)"/><mask id="satori_om-id-1-0-0-0-0"><rect x="7" y="18" width="74" height="19" fill="#fff" mask="url(#satori_om-id-1-0)"/></mask><mask id="satori_om-id-1-0-0-0-0-0"><rect x="7" y="18" width="39" height="19" fill="#fff" mask="url(#satori_om-id-1-0)"/></mask><path fill="white" d="M20.6 37.6L9.3 37.6L9.3 24.1Q9.3 23.4 10.1 22.3Q11.0 21.3 12.3 20.9L12.3 20.9L12.3 20.8L8.8 20.8L8.7 18.7L20.4 18.7L20.4 21.0L13.1 21.0L13.1 26.7L20.0 26.7L20.0 28.9L13.1 28.9L13.1 35.2L20.6 35.2L20.6 37.6ZM27.4 37.8L23.1 18.7L27.0 18.7L29.7 32.3L33.4 18.7L36.2 18.7L39.6 32.2L42.0 20.7Q42.2 19.8 42.7 19.4Q43.3 18.9 44.0 18.7Q44.6 18.5 45.1 18.5L45.1 18.5L40.6 37.6L37.7 37.6L34.1 23.9L30.9 35.4Q30.6 36.3 30.0 36.8Q29.5 37.4 28.7 37.6Q28.0 37.8 27.4 37.8L27.4 37.8Z " transform="matrix(1.00,0.00,0.00,1.00,0.00,-1.00)" clip-path="url(#satori_cp-id-1-0)" mask="url(#satori_om-id-1-0)"/><mask id="satori_om-id-1-0-0-0-0-1"><rect x="50" y="18" width="31" height="19" fill="#fff" mask="url(#satori_om-id-1-0)"/></mask><path fill="white" d="M54.5 34.5L54.5 34.5L63.8 34.5L63.8 37.6L50.3 37.6L50.3 35.7Q53.1 33.3 55.9 30.2L55.9 30.2Q57.6 28.4 58.5 26.8Q59.4 25.3 59.4 23.8L59.4 23.8Q59.4 22.8 59.0 22.2Q58.6 21.5 58.0 21.2Q57.4 20.9 56.9 20.8Q56.3 20.6 55.9 20.6L55.9 20.6Q54.6 20.6 53.6 20.9Q52.6 21.2 52.2 21.5L52.2 21.5L51.4 19.3Q52.2 18.9 53.4 18.7Q54.7 18.4 56.8 18.4L56.8 18.4Q58.9 18.4 60.3 19.0Q61.8 19.7 62.6 20.8Q63.3 21.9 63.3 23.3L63.3 23.3Q63.3 24.7 62.5 26.2Q61.7 27.6 60.0 29.4L60.0 29.4Q58.0 31.4 54.5 34.5ZM67.3 36.9L67.3 36.9L68.1 34.8Q68.7 35.2 69.6 35.5Q70.4 35.7 71.4 35.7L71.4 35.7Q72.6 35.7 73.4 35.2Q74.2 34.7 74.7 33.8Q75.2 33.0 75.4 32.0Q75.7 31.0 75.7 30.1Q75.8 29.2 75.8 28.5L75.8 28.5L75.8 28.2Q75.4 28.7 74.8 29.3Q74.3 29.8 73.5 30.2Q72.7 30.6 71.7 30.6L71.7 30.6Q70.3 30.6 69.1 29.9Q67.9 29.2 67.1 27.9Q66.3 26.6 66.3 24.7L66.3 24.7Q66.3 23.0 67.1 21.6Q67.8 20.1 69.3 19.3Q70.7 18.4 72.8 18.4L72.8 18.4Q74.5 18.4 75.7 18.9Q76.9 19.5 77.7 20.4Q78.4 21.3 78.9 22.5Q79.3 23.6 79.5 24.9Q79.7 26.1 79.7 27.2L79.7 27.2Q79.7 29.8 79.1 31.9Q78.5 34.0 77.3 35.4L77.3 35.4Q76.5 36.4 75.5 36.9Q74.5 37.5 73.6 37.7Q72.6 37.9 71.8 37.9L71.8 37.9Q70.4 37.9 69.3 37.6Q68.2 37.3 67.3 36.9ZM70.1 24.3L70.1 24.3Q70.1 25.4 70.3 26.3Q70.6 27.2 71.2 27.8Q71.7 28.4 72.7 28.4L72.7 28.4Q73.7 28.4 74.3 27.9Q74.9 27.4 75.2 26.4Q75.5 25.5 75.5 24.2L75.5 24.2Q75.5 23.1 75.2 22.2Q74.9 21.3 74.3 20.8Q73.7 20.3 72.8 20.3L72.8 20.3Q71.8 20.3 71.2 20.8Q70.6 21.4 70.3 22.3Q70.1 23.3 70.1 24.3Z " transform="matrix(1.00,0.00,0.00,1.00,0.00,-1.00)" clip-path="url(#satori_cp-id-1-0)" mask="url(#satori_om-id-1-0)"/></svg>