<svg width="88" height="54" viewBox="0 0 88 54" xmlns="http://www.w3.org/2000/svg"><mask id="satori_om-id"><rect x="0" y="0" width="88" height="54" fill="#fff"/></mask><mask id="satori_om-id-0"><rect x="15" y="0" width="58" height="54" fill="#fff"/></mask><defs><clipPath id="satori_bc-id-0-0"><rect x="15" y="20" width="58" height="15"/></clipPath></defs><mask id="satori_om-id-0-0"><rect x="15" y="22" width="58" height="11" fill="#fff"/><path width="58" height="15" fill="none" stroke="#000" stroke-width="4" d="M15,20 A0,0 0 0 1 15,20 h58 A0,0 0 0 1 73,20"/><path width="58" height="15" fill="none" stroke="#000" stroke-width="4" d="M73,35 A0,0 0 0 1 73,35 h-58 A0,0 0 0 1 15,35"/></mask><path width="58" height="15" clip-path="url(#satori_bc-id-0-0)" fill="none" stroke="white" stroke-width="4" d="M15,20 A0,0 0 0 1 15,20 h58 A0,0 0 0 1 73,20"/><path width="58" height="15" clip-path="url(#satori_bc-id-0-0)" fill="none" stroke="white" stroke-width="4" d="M73,35 A0,0 0 0 1 73,35 h-58 A0,0 0 0 1 15,35"/><mask id="satori_om-id-1"><rect x="0" y="0" width="88" height="54" fill="#fff"/></mask><defs><clipPath id="satori_bc-id-1-0"><path x="0" y="0" width="88" height="54" d="M15,0 h58 a15,27 0 0 1 15,27 v0 a15,27 0 0 1 -15,27 h-58 a15,27 0 0 1 -15,-27 v0 a15,27 0 0 1 15,-27"/></clipPath></defs><clipPath id="satori_cp-id-1-0"><path x="0" y="0" width="88" height="54" d="M15,0 h58 a15,27 0 0 1 15,27 v0 a15,27 0 0 1 -15,27 h-58 a15,27 0 0 1 -15,-27 v0 a15,27 0 0 1 15,-27"/></clipPath><mask id="satori_om-id-1-0"><rect x="2" y="2" width="84" height="50" fill="#fff"/><path width="88" height="54" fill="none" stroke="#000" stroke-width="4" d="M1.888,13.888 A15,27 0 0 1 15,0 h58 a15,27 0 0 1 15,27 v0 a15,27 0 0 1 -15,27 h-58 a15,27 0 0 1 -15,-27 v0 A15,27 0 0 1 1.888,13.888"/></mask><path width="88" height="54" clip-path="url(#satori_bc-id-1-0)" fill="none" stroke="white" stroke-width="4" d="M1.888,13.888 A15,27 0 0 1 15,0 h58 a15,27 0 0 1 15,27 v0 a15,27 0 0 1 -15,27 h-58 a15,27 0 0 1 -15,-27 v0 A15,27 0 0 1 1.888,13.888"/><mask id="satori_om-id-1-0-0"><rect x="2" y="2" width="84" height="50" fill="#fff" mask="url(#satori_om-id-1-0)"/></mask><mask id="satori_om-id-1-0-0-0"><rect x="2" y="2" width="84" height="50" fill="#fff" mask="url(#satori_om-id-1-0)"/></mask><rect x="2" y="2" width="84" height="50" fill="#00953B" clip-path="url(#satori_cp-id-1-0)" mask="url(#satori_om-id-1-0)"/><mask id="satori_om-id-1-0-0-0-0"><rect x="15" y="18" width="58" height="19" fill="#fff" mask="url(#satori_om-id-1-0)"/></mask><mask id="satori_om-id-1-0-0-0-0-0"><rect x="15" y="18" width="39" height="19" fill="#fff" mask="url(#satori_om-id-1-0)"/></mask><path fill="white" d="M28.6 37.6L17.3 37.6L17.3 24.1Q17.3 23.4 18.1 22.3Q19.0 21.3 20.3 20.9L20.3 20.9L20.3 20.8L16.8 20.8L16.7 18.7L28.4 18.7L28.4 21.0L21.1 21.0L21.1 26.7L28.0 26.7L28.0 28.9L21.1 28.9L21.1 35.2L28.6 35.2L28.6 37.6ZM35.4 37.8L31.1 18.7L35.0 18.7L37.7 32.3L41.4 18.7L44.2 18.7L47.6 32.2L50.0 20.7Q50.2 19.8 50.7 19.4Q51.3 18.9 52.0 18.7Q52.6 18.5 53.1 18.5L53.1 18.5L48.6 37.6L45.7 37.6L42.1 23.9L38.9 35.4Q38.6 36.3 38.0 36.8Q37.5 37.4 36.7 37.6Q36.0 37.8 35.4 37.8L35.4 37.8Z " transform="matrix(1.00,0.00,0.00,1.00,0.00,-1.00)" clip-path="url(#satori_cp-id-1-0)" mask="url(#satori_om-id-1-0)"/><mask id="satori_om-id-1-0-0-0-0-1"><rect x="58" y="18" width="15" height="19" fill="#fff" mask="url(#satori_om-id-1-0)"/></mask><path fill="white" d="M71.4 32.2L71.4 32.2Q71.4 33.8 70.4 35.1Q69.5 36.4 67.9 37.1Q66.2 37.9 64.0 37.9L64.0 37.9Q62.2 37.9 60.9 37.5Q59.6 37.2 58.7 36.7L58.7 36.7L59.4 34.5Q59.9 34.8 61.1 35.2Q62.2 35.6 63.6 35.6L63.6 35.6Q65.0 35.6 65.8 35.1Q66.7 34.6 67.1 33.9Q67.5 33.1 67.5 32.1L67.5 32.1Q67.5 31.1 66.9 30.2Q66.3 29.3 65.2 28.8L65.2 28.8Q64.6 28.7 63.8 28.6Q63.0 28.5 62.2 28.5L62.2 28.5L61.3 28.5L61.3 26.7L62.0 26.7Q62.9 26.7 63.7 26.6Q64.5 26.5 65.2 26.0L65.2 26.0Q65.8 25.7 66.2 25.1Q66.6 24.4 66.6 23.5L66.6 23.5Q66.6 22.1 65.7 21.3Q64.9 20.6 63.4 20.6L63.4 20.6Q62.2 20.6 61.3 20.9Q60.4 21.2 59.9 21.5L59.9 21.5L59.1 19.4Q59.8 19.0 61.0 18.7Q62.2 18.4 64.1 18.4L64.1 18.4Q67.0 18.4 68.7 19.6Q70.3 20.7 70.3 22.8L70.3 22.8Q70.3 24.0 69.7 24.9Q69.2 25.8 68.2 26.4Q67.3 27.0 66.2 27.4L66.2 27.4Q67.7 27.6 68.9 28.2Q70.0 28.8 70.7 29.8Q71.4 30.8 71.4 32.2Z " transform="matrix(1.00,0.00,0.00,1.00,0.00,-1.00)" clip-path="url(#satori_cp-id-1-0)" mask="url(#satori_om-id-1-0)"/></svg>