<svg width="88" height="54" viewBox="0 0 88 54" xmlns="http://www.w3.org/2000/svg"><mask id="satori_om-id"><rect x="0" y="0" width="88" height="54" fill="#fff"/></mask><mask id="satori_om-id-0"><rect x="15" y="0" width="58" height="54" fill="#fff"/></mask><defs><clipPath id="satori_bc-id-0-0"><rect x="15" y="20" width="58" height="15"/></clipPath></defs><mask id="satori_om-id-0-0"><rect x="15" y="22" width="58" height="11" fill="#fff"/><path width="58" height="15" fill="none" stroke="#000" stroke-width="4" d="M15,20 A0,0 0 0 1 15,20 h58 A0,0 0 0 1 73,20"/><path width="58" height="15" fill="none" stroke="#000" stroke-width="4" d="M73,35 A0,0 0 0 1 73,35 h-58 A0,0 0 0 1 15,35"/></mask><path width="58" height="15" clip-path="url(#satori_bc-id-0-0)" fill="none" stroke="white" stroke-width="4" d="M15,20 A0,0 0 0 1 15,20 h58 A0,0 0 0 1 73,20"/><path width="58" height="15" clip-path="url(#satori_bc-id-0-0)" fill="none" stroke="white" stroke-width="4" d="M73,35 A0,0 0 0 1 73,35 h-58 A0,0 0 0 1 15,35"/><mask id="satori_om-id-1"><rect x="0" y="0" width="88" height="54" fill="#fff"/></mask><defs><clipPath id="satori_bc-id-1-0"><path x="0" y="0" width="88" height="54" d="M15,0 h58 a15,27 0 0 1 15,27 v0 a15,27 0 0 1 -15,27 h-58 a15,27 0 0 1 -15,-27 v0 a15,27 0 0 1 15,-27"/></clipPath></defs><clipPath id="satori_cp-id-1-0"><path x="0" y="0" width="88" height="54" d="M15,0 h58 a15,27 0 0 1 15,27 v0 a15,27 0 0 1 -15,27 h-58 a15,27 0 0 1 -15,-27 v0 a15,27 0 0 1 15,-27"/></clipPath><mask id="satori_om-id-1-0"><rect x="2" y="2" width="84" height="50" fill="#fff"/><path width="88" height="54" fill="none" stroke="#000" stroke-width="4" d="M1.888,13.888 A15,27 0 0 1 15,0 h58 a15,27 0 0 1 15,27 v0 a15,27 0 0 1 -15,27 h-58 a15,27 0 0 1 -15,-27 v0 A15,27 0 0 1 1.888,13.888"/></mask><path width="88" height="54" clip-path="url(#satori_bc-id-1-0)" fill="none" stroke="white" stroke-width="4" d="M1.888,13.888 A15,27 0 0 1 15,0 h58 a15,27 0 0 1 15,27 v0 a15,27 0 0 1 -15,27 h-58 a15,27 0 0 1 -15,-27 v0 A15,27 0 0 1 1.888,13.888"/><mask id="satori_om-id-1-0-0"><rect x="2" y="2" width="84" height="50" fill="#fff" mask="url(#satori_om-id-1-0)"/></mask><mask id="satori_om-id-1-0-0-0"><rect x="2" y="2" width="84" height="50" fill="#fff" mask="url(#satori_om-id-1-0)"/></mask><rect x="2" y="2" width="84" height="50" fill="#00953B" clip-path="url(#satori_cp-id-1-0)" mask="url(#satori_om-id-1-0)"/><mask id="satori_om-id-1-0-0-0-0"><rect x="7" y="18" width="74" height="19" fill="#fff" mask="url(#satori_om-id-1-0)"/></mask><mask id="satori_om-id-1-0-0-0-0-0"><rect x="7" y="18" width="39" height="19" fill="#fff" mask="url(#satori_om-id-1-0)"/></mask><path fill="white" d="M20.6 37.6L9.3 37.6L9.3 24.1Q9.3 23.4 10.1 22.3Q11.0 21.3 12.3 20.9L12.3 20.9L12.3 20.8L8.8 20.8L8.7 18.7L20.4 18.7L20.4 21.0L13.1 21.0L13.1 26.7L20.0 26.7L20.0 28.9L13.1 28.9L13.1 35.2L20.6 35.2L20.6 37.6ZM27.4 37.8L23.1 18.7L27.0 18.7L29.7 32.3L33.4 18.7L36.2 18.7L39.6 32.2L42.0 20.7Q42.2 19.8 42.7 19.4Q43.3 18.9 44.0 18.7Q44.6 18.5 45.1 18.5L45.1 18.5L40.6 37.6L37.7 37.6L34.1 23.9L30.9 35.4Q30.6 36.3 30.0 36.8Q29.5 37.4 28.7 37.6Q28.0 37.8 27.4 37.8L27.4 37.8Z " transform="matrix(1.00,0.00,0.00,1.00,0.00,-1.00)" clip-path="url(#satori_cp-id-1-0)" mask="url(#satori_om-id-1-0)"/><mask id="satori_om-id-1-0-0-0-0-1"><rect x="50" y="18" width="31" height="19" fill="#fff" mask="url(#satori_om-id-1-0)"/></mask><path fill="white" d="M63.4 32.2L63.4 32.2Q63.4 33.8 62.4 35.1Q61.5 36.4 59.9 37.1Q58.2 37.9 56.0 37.9L56.0 37.9Q54.2 37.9 52.9 37.5Q51.6 37.2 50.7 36.7L50.7 36.7L51.4 34.5Q51.9 34.8 53.1 35.2Q54.2 35.6 55.6 35.6L55.6 35.6Q57.0 35.6 57.8 35.1Q58.7 34.6 59.1 33.9Q59.5 33.1 59.5 32.1L59.5 32.1Q59.5 31.1 58.9 30.2Q58.3 29.3 57.2 28.8L57.2 28.8Q56.6 28.7 55.8 28.6Q55.0 28.5 54.2 28.5L54.2 28.5L53.3 28.5L53.3 26.7L54.0 26.7Q54.9 26.7 55.7 26.6Q56.5 26.5 57.2 26.0L57.2 26.0Q57.8 25.7 58.2 25.1Q58.6 24.4 58.6 23.5L58.6 23.5Q58.6 22.1 57.7 21.3Q56.9 20.6 55.4 20.6L55.4 20.6Q54.2 20.6 53.3 20.9Q52.4 21.2 51.9 21.5L51.9 21.5L51.1 19.4Q51.8 19.0 53.0 18.7Q54.2 18.4 56.1 18.4L56.1 18.4Q59.0 18.4 60.7 19.6Q62.3 20.7 62.3 22.8L62.3 22.8Q62.3 24.0 61.7 24.9Q61.2 25.8 60.2 26.4Q59.3 27.0 58.2 27.4L58.2 27.4Q59.7 27.6 60.9 28.2Q62.0 28.8 62.7 29.8Q63.4 30.8 63.4 32.2ZM66.4 28.2L66.4 28.2Q66.4 27.2 66.6 25.9Q66.7 24.7 67.1 23.4Q67.5 22.0 68.2 20.9Q68.9 19.8 70.2 19.1Q71.4 18.4 73.2 18.4L73.2 18.4Q74.9 18.4 76.0 19.0Q77.2 19.6 77.9 20.7Q78.6 21.7 79.0 23.0Q79.3 24.2 79.5 25.5Q79.6 26.8 79.6 27.9L79.6 27.9Q79.6 29.1 79.5 30.4Q79.3 31.8 78.9 33.1Q78.5 34.5 77.8 35.5Q77.1 36.6 75.9 37.2Q74.7 37.9 72.9 37.9L72.9 37.9Q71.2 37.9 70.0 37.2Q68.9 36.5 68.1 35.4Q67.4 34.3 67.1 33.0Q66.7 31.7 66.6 30.5Q66.4 29.2 66.4 28.2ZM70.3 28.2L70.3 28.2Q70.3 29.8 70.3 31.2Q70.4 32.7 70.7 33.7Q71.0 34.8 71.5 35.4Q72.1 36.0 73.0 36.0L73.0 36.0Q74.2 36.0 74.7 35.0Q75.3 34.1 75.6 32.3Q75.8 30.6 75.8 28.1L75.8 28.1Q75.8 23.8 75.2 22.0Q74.6 20.2 73.1 20.2L73.1 20.2Q72.1 20.2 71.5 20.9Q71.0 21.5 70.7 22.6Q70.4 23.7 70.3 25.2Q70.3 26.6 70.3 28.2Z " transform="matrix(1.00,0.00,0.00,1.00,0.00,-1.00)" clip-path="url(#satori_cp-id-1-0)" mask="url(#satori_om-id-1-0)"/></svg>