<svg width="88" height="54" viewBox="0 0 88 54" xmlns="http://www.w3.org/2000/svg"><mask id="satori_om-id"><rect x="0" y="0" width="88" height="54" fill="#fff"/></mask><mask id="satori_om-id-0"><rect x="15" y="0" width="58" height="54" fill="#fff"/></mask><defs><clipPath id="satori_bc-id-0-0"><rect x="15" y="20" width="58" height="15"/></clipPath></defs><mask id="satori_om-id-0-0"><rect x="15" y="22" width="58" height="11" fill="#fff"/><path width="58" height="15" fill="none" stroke="#000" stroke-width="4" d="M15,20 A0,0 0 0 1 15,20 h58 A0,0 0 0 1 73,20"/><path width="58" height="15" fill="none" stroke="#000" stroke-width="4" d="M73,35 A0,0 0 0 1 73,35 h-58 A0,0 0 0 1 15,35"/></mask><path width="58" height="15" clip-path="url(#satori_bc-id-0-0)" fill="none" stroke="white" stroke-width="4" d="M15,20 A0,0 0 0 1 15,20 h58 A0,0 0 0 1 73,20"/><path width="58" height="15" clip-path="url(#satori_bc-id-0-0)" fill="none" stroke="white" stroke-width="4" d="M73,35 A0,0 0 0 1 73,35 h-58 A0,0 0 0 1 15,35"/><mask id="satori_om-id-1"><rect x="0" y="0" width="88" height="54" fill="#fff"/></mask><defs><clipPath id="satori_bc-id-1-0"><path x="0" y="0" width="88" height="54" d="M15,0 h58 a15,27 0 0 1 15,27 v0 a15,27 0 0 1 -15,27 h-58 a15,27 0 0 1 -15,-27 v0 a15,27 0 0 1 15,-27"/></clipPath></defs><clipPath id="satori_cp-id-1-0"><path x="0" y="0" width="88" height="54" d="M15,0 h58 a15,27 0 0 1 15,27 v0 a15,27 0 0 1 -15,27 h-58 a15,27 0 0 1 -15,-27 v0 a15,27 0 0 1 15,-27"/></clipPath><mask id="satori_om-id-1-0"><rect x="2" y="2" width="84" height="50" fill="#fff"/><path width="88" height="54" fill="none" stroke="#000" stroke-width="4" d="M1.888,13.888 A15,27 0 0 1 15,0 h58 a15,27 0 0 1 15,27 v0 a15,27 0 0 1 -15,27 h-58 a15,27 0 0 1 -15,-27 v0 A15,27 0 0 1 1.888,13.888"/></mask><path width="88" height="54" clip-path="url(#satori_bc-id-1-0)" fill="none" stroke="white" stroke-width="4" d="M1.888,13.888 A15,27 0 0 1 15,0 h58 a15,27 0 0 1 15,27 v0 a15,27 0 0 1 -15,27 h-58 a15,27 0 0 1 -15,-27 v0 A15,27 0 0 1 1.888,13.888"/><mask id="satori_om-id-1-0-0"><rect x="2" y="2" width="84" height="50" fill="#fff" mask="url(#satori_om-id-1-0)"/></mask><mask id="satori_om-id-1-0-0-0"><rect x="2" y="2" width="84" height="50" fill="#fff" mask="url(#satori_om-id-1-0)"/></mask><rect x="2" y="2" width="84" height="50" fill="#00953B" clip-path="url(#satori_cp-id-1-0)" mask="url(#satori_om-id-1-0)"/><mask id="satori_om-id-1-0-0-0-0"><rect x="10" y="18" width="69" height="19" fill="#fff" mask="url(#satori_om-id-1-0)"/></mask><mask id="satori_om-id-1-0-0-0-0-0"><rect x="10" y="18" width="39" height="19" fill="#fff" mask="url(#satori_om-id-1-0)"/></mask><path fill="white" d="M23.6 37.6L12.3 37.6L12.3 24.1Q12.3 23.4 13.1 22.3Q14.0 21.3 15.3 20.9L15.3 20.9L15.3 20.8L11.8 20.8L11.7 18.7L23.4 18.7L23.4 21.0L16.1 21.0L16.1 26.7L23.0 26.7L23.0 28.9L16.1 28.9L16.1 35.2L23.6 35.2L23.6 37.6ZM30.4 37.8L26.1 18.7L30.0 18.7L32.7 32.3L36.4 18.7L39.2 18.7L42.6 32.2L45.0 20.7Q45.2 19.8 45.7 19.4Q46.3 18.9 47.0 18.7Q47.6 18.5 48.1 18.5L48.1 18.5L43.6 37.6L40.7 37.6L37.1 23.9L33.9 35.4Q33.6 36.3 33.0 36.8Q32.5 37.4 31.7 37.6Q31.0 37.8 30.4 37.8L30.4 37.8Z " transform="matrix(1.00,0.00,0.00,1.00,0.00,-1.00)" clip-path="url(#satori_cp-id-1-0)" mask="url(#satori_om-id-1-0)"/><mask id="satori_om-id-1-0-0-0-0-1"><rect x="53" y="18" width="26" height="19" fill="#fff" mask="url(#satori_om-id-1-0)"/></mask><path fill="white" d="M66.4 32.2L66.4 32.2Q66.4 33.8 65.4 35.1Q64.5 36.4 62.9 37.1Q61.2 37.9 59.0 37.9L59.0 37.9Q57.2 37.9 55.9 37.5Q54.6 37.2 53.7 36.7L53.7 36.7L54.4 34.5Q54.9 34.8 56.1 35.2Q57.2 35.6 58.6 35.6L58.6 35.6Q60.0 35.6 60.8 35.1Q61.7 34.6 62.1 33.9Q62.5 33.1 62.5 32.1L62.5 32.1Q62.5 31.1 61.9 30.2Q61.3 29.3 60.2 28.8L60.2 28.8Q59.6 28.7 58.8 28.6Q58.0 28.5 57.2 28.5L57.2 28.5L56.3 28.5L56.3 26.7L57.0 26.7Q57.9 26.7 58.7 26.6Q59.5 26.5 60.2 26.0L60.2 26.0Q60.8 25.7 61.2 25.1Q61.6 24.4 61.6 23.5L61.6 23.5Q61.6 22.1 60.7 21.3Q59.9 20.6 58.4 20.6L58.4 20.6Q57.2 20.6 56.3 20.9Q55.4 21.2 54.9 21.5L54.9 21.5L54.1 19.4Q54.8 19.0 56.0 18.7Q57.2 18.4 59.1 18.4L59.1 18.4Q62.0 18.4 63.7 19.6Q65.3 20.7 65.3 22.8L65.3 22.8Q65.3 24.0 64.7 24.9Q64.2 25.8 63.2 26.4Q62.3 27.0 61.2 27.4L61.2 27.4Q62.7 27.6 63.9 28.2Q65.0 28.8 65.7 29.8Q66.4 30.8 66.4 32.2ZM67.3 22.5L74.1 18.7L76.5 18.7L76.5 37.6L72.9 37.6L72.9 21.6L68.2 24.3L67.3 22.5Z " transform="matrix(1.00,0.00,0.00,1.00,0.00,-1.00)" clip-path="url(#satori_cp-id-1-0)" mask="url(#satori_om-id-1-0)"/></svg>