<svg width="88" height="54" viewBox="0 0 88 54" xmlns="http://www.w3.org/2000/svg"><mask id="satori_om-id"><rect x="0" y="0" width="88" height="54" fill="#fff"/></mask><mask id="satori_om-id-0"><rect x="15" y="0" width="58" height="54" fill="#fff"/></mask><defs><clipPath id="satori_bc-id-0-0"><rect x="15" y="20" width="58" height="15"/></clipPath></defs><mask id="satori_om-id-0-0"><rect x="15" y="22" width="58" height="11" fill="#fff"/><path width="58" height="15" fill="none" stroke="#000" stroke-width="4" d="M15,20 A0,0 0 0 1 15,20 h58 A0,0 0 0 1 73,20"/><path width="58" height="15" fill="none" stroke="#000" stroke-width="4" d="M73,35 A0,0 0 0 1 73,35 h-58 A0,0 0 0 1 15,35"/></mask><path width="58" height="15" clip-path="url(#satori_bc-id-0-0)" fill="none" stroke="white" stroke-width="4" d="M15,20 A0,0 0 0 1 15,20 h58 A0,0 0 0 1 73,20"/><path width="58" height="15" clip-path="url(#satori_bc-id-0-0)" fill="none" stroke="white" stroke-width="4" d="M73,35 A0,0 0 0 1 73,35 h-58 A0,0 0 0 1 15,35"/><mask id="satori_om-id-1"><rect x="0" y="0" width="88" height="54" fill="#fff"/></mask><defs><clipPath id="satori_bc-id-1-0"><path x="0" y="0" width="88" height="54" d="M15,0 h58 a15,27 0 0 1 15,27 v0 a15,27 0 0 1 -15,27 h-58 a15,27 0 0 1 -15,-27 v0 a15,27 0 0 1 15,-27"/></clipPath></defs><clipPath id="satori_cp-id-1-0"><path x="0" y="0" width="88" height="54" d="M15,0 h58 a15,27 0 0 1 15,27 v0 a15,27 0 0 1 -15,27 h-58 a15,27 0 0 1 -15,-27 v0 a15,27 0 0 1 15,-27"/></clipPath><mask id="satori_om-id-1-0"><rect x="2" y="2" width="84" height="50" fill="#fff"/><path width="88" height="54" fill="none" stroke="#000" stroke-width="4" d="M1.888,13.888 A15,27 0 0 1 15,0 h58 a15,27 0 0 1 15,27 v0 a15,27 0 0 1 -15,27 h-58 a15,27 0 0 1 -15,-27 v0 A15,27 0 0 1 1.888,13.888"/></mask><path width="88" height="54" clip-path="url(#satori_bc-id-1-0)" fill="none" stroke="white" stroke-width="4" d="M1.888,13.888 A15,27 0 0 1 15,0 h58 a15,27 0 0 1 15,27 v0 a15,27 0 0 1 -15,27 h-58 a15,27 0 0 1 -15,-27 v0 A15,27 0 0 1 1.888,13.888"/><mask id="satori_om-id-1-0-0"><rect x="2" y="2" width="84" height="50" fill="#fff" mask="url(#satori_om-id-1-0)"/></mask><mask id="satori_om-id-1-0-0-0"><rect x="2" y="2" width="84" height="50" fill="#fff" mask="url(#satori_om-id-1-0)"/></mask><rect x="2" y="2" width="84" height="50" fill="#00953B" clip-path="url(#satori_cp-id-1-0)" mask="url(#satori_om-id-1-0)"/><mask id="satori_om-id-1-0-0-0-0"><rect x="8" y="18" width="72" height="19" fill="#fff" mask="url(#satori_om-id-1-0)"/></mask><mask id="satori_om-id-1-0-0-0-0-0"><rect x="8" y="18" width="39" height="19" fill="#fff" mask="url(#satori_om-id-1-0)"/></mask><path fill="white" d="M21.6 37.6L10.3 37.6L10.3 24.1Q10.3 23.4 11.1 22.3Q12.0 21.3 13.3 20.9L13.3 20.9L13.3 20.8L9.8 20.8L9.7 18.7L21.4 18.7L21.4 21.0L14.1 21.0L14.1 26.7L21.0 26.7L21.0 28.9L14.1 28.9L14.1 35.2L21.6 35.2L21.6 37.6ZM28.4 37.8L24.1 18.7L28.0 18.7L30.7 32.3L34.4 18.7L37.2 18.7L40.6 32.2L43.0 20.7Q43.2 19.8 43.7 19.4Q44.3 18.9 45.0 18.7Q45.6 18.5 46.1 18.5L46.1 18.5L41.6 37.6L38.7 37.6L35.1 23.9L31.9 35.4Q31.6 36.3 31.0 36.8Q30.5 37.4 29.7 37.6Q29.0 37.8 28.4 37.8L28.4 37.8Z " transform="matrix(1.00,0.00,0.00,1.00,0.00,-1.00)" clip-path="url(#satori_cp-id-1-0)" mask="url(#satori_om-id-1-0)"/><mask id="satori_om-id-1-0-0-0-0-1"><rect x="51" y="18" width="29" height="19" fill="#fff" mask="url(#satori_om-id-1-0)"/></mask><path fill="white" d="M64.4 32.2L64.4 32.2Q64.4 33.8 63.4 35.1Q62.5 36.4 60.9 37.1Q59.2 37.9 57.0 37.9L57.0 37.9Q55.2 37.9 53.9 37.5Q52.6 37.2 51.7 36.7L51.7 36.7L52.4 34.5Q52.9 34.8 54.1 35.2Q55.2 35.6 56.6 35.6L56.6 35.6Q58.0 35.6 58.8 35.1Q59.7 34.6 60.1 33.9Q60.5 33.1 60.5 32.1L60.5 32.1Q60.5 31.1 59.9 30.2Q59.3 29.3 58.2 28.8L58.2 28.8Q57.6 28.7 56.8 28.6Q56.0 28.5 55.2 28.5L55.2 28.5L54.3 28.5L54.3 26.7L55.0 26.7Q55.9 26.7 56.7 26.6Q57.5 26.5 58.2 26.0L58.2 26.0Q58.8 25.7 59.2 25.1Q59.6 24.4 59.6 23.5L59.6 23.5Q59.6 22.1 58.7 21.3Q57.9 20.6 56.4 20.6L56.4 20.6Q55.2 20.6 54.3 20.9Q53.4 21.2 52.9 21.5L52.9 21.5L52.1 19.4Q52.8 19.0 54.0 18.7Q55.2 18.4 57.1 18.4L57.1 18.4Q60.0 18.4 61.7 19.6Q63.3 20.7 63.3 22.8L63.3 22.8Q63.3 24.0 62.7 24.9Q62.2 25.8 61.2 26.4Q60.3 27.0 59.2 27.4L59.2 27.4Q60.7 27.6 61.9 28.2Q63.0 28.8 63.7 29.8Q64.4 30.8 64.4 32.2ZM78.6 32.2L78.6 32.2Q78.6 33.8 77.7 35.1Q76.8 36.4 75.2 37.1Q73.5 37.9 71.3 37.9L71.3 37.9Q69.5 37.9 68.2 37.5Q66.9 37.2 66.0 36.7L66.0 36.7L66.7 34.5Q67.2 34.8 68.4 35.2Q69.5 35.6 70.9 35.6L70.9 35.6Q72.3 35.6 73.1 35.1Q74.0 34.6 74.4 33.9Q74.8 33.1 74.8 32.1L74.8 32.1Q74.8 31.1 74.2 30.2Q73.6 29.3 72.5 28.8L72.5 28.8Q71.9 28.7 71.1 28.6Q70.3 28.5 69.5 28.5L69.5 28.5L68.6 28.5L68.6 26.7L69.3 26.7Q70.2 26.7 71.0 26.6Q71.8 26.5 72.5 26.0L72.5 26.0Q73.1 25.7 73.5 25.1Q73.9 24.4 73.9 23.5L73.9 23.5Q73.9 22.1 73.0 21.3Q72.1 20.6 70.7 20.6L70.7 20.6Q69.5 20.6 68.6 20.9Q67.7 21.2 67.2 21.5L67.2 21.5L66.4 19.4Q67.1 19.0 68.3 18.7Q69.5 18.4 71.4 18.4L71.4 18.4Q74.3 18.4 75.9 19.6Q77.6 20.7 77.6 22.8L77.6 22.8Q77.6 24.0 77.0 24.9Q76.4 25.8 75.5 26.4Q74.6 27.0 73.5 27.4L73.5 27.4Q75.0 27.6 76.1 28.2Q77.3 28.8 78.0 29.8Q78.6 30.8 78.6 32.2Z " transform="matrix(1.00,0.00,0.00,1.00,0.00,-1.00)" clip-path="url(#satori_cp-id-1-0)" mask="url(#satori_om-id-1-0)"/></svg>