<svg width="88" height="54" viewBox="0 0 88 54" xmlns="http://www.w3.org/2000/svg"><mask id="satori_om-id"><rect x="0" y="0" width="88" height="54" fill="#fff"/></mask><mask id="satori_om-id-0"><rect x="15" y="0" width="58" height="54" fill="#fff"/></mask><defs><clipPath id="satori_bc-id-0-0"><rect x="15" y="20" width="58" height="15"/></clipPath></defs><mask id="satori_om-id-0-0"><rect x="15" y="22" width="58" height="11" fill="#fff"/><path width="58" height="15" fill="none" stroke="#000" stroke-width="4" d="M15,20 A0,0 0 0 1 15,20 h58 A0,0 0 0 1 73,20"/><path width="58" height="15" fill="none" stroke="#000" stroke-width="4" d="M73,35 A0,0 0 0 1 73,35 h-58 A0,0 0 0 1 15,35"/></mask><path width="58" height="15" clip-path="url(#satori_bc-id-0-0)" fill="none" stroke="white" stroke-width="4" d="M15,20 A0,0 0 0 1 15,20 h58 A0,0 0 0 1 73,20"/><path width="58" height="15" clip-path="url(#satori_bc-id-0-0)" fill="none" stroke="white" stroke-width="4" d="M73,35 A0,0 0 0 1 73,35 h-58 A0,0 0 0 1 15,35"/><mask id="satori_om-id-1"><rect x="0" y="0" width="88" height="54" fill="#fff"/></mask><defs><clipPath id="satori_bc-id-1-0"><path x="0" y="0" width="88" height="54" d="M15,0 h58 a15,27 0 0 1 15,27 v0 a15,27 0 0 1 -15,27 h-58 a15,27 0 0 1 -15,-27 v0 a15,27 0 0 1 15,-27"/></clipPath></defs><clipPath id="satori_cp-id-1-0"><path x="0" y="0" width="88" height="54" d="M15,0 h58 a15,27 0 0 1 15,27 v0 a15,27 0 0 1 -15,27 h-58 a15,27 0 0 1 -15,-27 v0 a15,27 0 0 1 15,-27"/></clipPath><mask id="satori_om-id-1-0"><rect x="2" y="2" width="84" height="50" fill="#fff"/><path width="88" height="54" fill="none" stroke="#000" stroke-width="4" d="M1.888,13.888 A15,27 0 0 1 15,0 h58 a15,27 0 0 1 15,27 v0 a15,27 0 0 1 -15,27 h-58 a15,27 0 0 1 -15,-27 v0 A15,27 0 0 1 1.888,13.888"/></mask><path width="88" height="54" clip-path="url(#satori_bc-id-1-0)" fill="none" stroke="white" stroke-width="4" d="M1.888,13.888 A15,27 0 0 1 15,0 h58 a15,27 0 0 1 15,27 v0 a15,27 0 0 1 -15,27 h-58 a15,27 0 0 1 -15,-27 v0 A15,27 0 0 1 1.888,13.888"/><mask id="satori_om-id-1-0-0"><rect x="2" y="2" width="84" height="50" fill="#fff" mask="url(#satori_om-id-1-0)"/></mask><mask id="satori_om-id-1-0-0-0"><rect x="2" y="2" width="84" height="50" fill="#fff" mask="url(#satori_om-id-1-0)"/></mask><rect x="2" y="2" width="84" height="50" fill="#00953B" clip-path="url(#satori_cp-id-1-0)" mask="url(#satori_om-id-1-0)"/><mask id="satori_om-id-1-0-0-0-0"><rect x="14" y="18" width="60" height="19" fill="#fff" mask="url(#satori_om-id-1-0)"/></mask><mask id="satori_om-id-1-0-0-0-0-0"><rect x="14" y="18" width="39" height="19" fill="#fff" mask="url(#satori_om-id-1-0)"/></mask><path fill="white" d="M27.6 37.6L16.3 37.6L16.3 24.1Q16.3 23.4 17.1 22.3Q18.0 21.3 19.3 20.9L19.3 20.9L19.3 20.8L15.8 20.8L15.7 18.7L27.4 18.7L27.4 21.0L20.1 21.0L20.1 26.7L27.0 26.7L27.0 28.9L20.1 28.9L20.1 35.2L27.6 35.2L27.6 37.6ZM34.4 37.8L30.1 18.7L34.0 18.7L36.7 32.3L40.4 18.7L43.2 18.7L46.6 32.2L49.0 20.7Q49.2 19.8 49.7 19.4Q50.3 18.9 51.0 18.7Q51.6 18.5 52.1 18.5L52.1 18.5L47.6 37.6L44.7 37.6L41.1 23.9L37.9 35.4Q37.6 36.3 37.0 36.8Q36.5 37.4 35.7 37.6Q35.0 37.8 34.4 37.8L34.4 37.8Z " transform="matrix(1.00,0.00,0.00,1.00,0.00,-1.00)" clip-path="url(#satori_cp-id-1-0)" mask="url(#satori_om-id-1-0)"/><mask id="satori_om-id-1-0-0-0-0-1"><rect x="57" y="18" width="17" height="19" fill="#fff" mask="url(#satori_om-id-1-0)"/></mask><path fill="white" d="M71.3 19.3L71.3 19.3L70.6 21.5Q70.1 21.2 69.2 20.9Q68.4 20.6 67.3 20.6L67.3 20.6Q65.8 20.6 64.9 21.4Q63.9 22.3 63.4 23.9Q62.9 25.4 62.9 27.5L62.9 27.5Q62.9 27.8 62.9 28.1L62.9 28.1Q63.4 27.1 64.2 26.6Q64.9 26.1 65.7 25.9Q66.4 25.7 67.0 25.7L67.0 25.7Q68.4 25.7 69.6 26.4Q70.8 27.0 71.5 28.3Q72.3 29.6 72.3 31.5L72.3 31.5Q72.3 33.3 71.5 34.8Q70.8 36.2 69.3 37.1Q67.9 37.9 65.9 37.9L65.9 37.9Q64.3 37.9 63.1 37.3Q61.9 36.7 61.1 35.8Q60.3 34.8 59.9 33.6Q59.4 32.4 59.2 31.0Q59.0 29.7 59.0 28.5L59.0 28.5Q59.0 25.2 60.1 22.9Q61.2 20.7 63.0 19.5Q64.8 18.4 67.1 18.4L67.1 18.4Q68.1 18.4 68.9 18.6Q69.8 18.7 70.4 18.9Q71.0 19.2 71.3 19.3ZM63.2 32.0L63.2 32.0Q63.2 32.6 63.3 33.3Q63.4 34.0 63.7 34.6Q64.0 35.2 64.5 35.6Q65.1 36.0 65.9 36.0L65.9 36.0Q66.8 36.0 67.3 35.6Q67.8 35.1 68.1 34.5Q68.4 33.9 68.5 33.1Q68.6 32.4 68.6 31.8L68.6 31.8Q68.6 30.3 68.2 29.5Q67.8 28.6 67.2 28.3Q66.6 27.9 65.9 27.9L65.9 27.9Q64.5 27.9 63.9 29.0Q63.2 30.1 63.2 32.0Z " transform="matrix(1.00,0.00,0.00,1.00,0.00,-1.00)" clip-path="url(#satori_cp-id-1-0)" mask="url(#satori_om-id-1-0)"/></svg>