<svg width="88" height="54" viewBox="0 0 88 54" xmlns="http://www.w3.org/2000/svg"><mask id="satori_om-id"><rect x="0" y="0" width="88" height="54" fill="#fff"/></mask><mask id="satori_om-id-0"><rect x="15" y="0" width="58" height="54" fill="#fff"/></mask><defs><clipPath id="satori_bc-id-0-0"><rect x="15" y="20" width="58" height="15"/></clipPath></defs><mask id="satori_om-id-0-0"><rect x="15" y="22" width="58" height="11" fill="#fff"/><path width="58" height="15" fill="none" stroke="#000" stroke-width="4" d="M15,20 A0,0 0 0 1 15,20 h58 A0,0 0 0 1 73,20"/><path width="58" height="15" fill="none" stroke="#000" stroke-width="4" d="M73,35 A0,0 0 0 1 73,35 h-58 A0,0 0 0 1 15,35"/></mask><path width="58" height="15" clip-path="url(#satori_bc-id-0-0)" fill="none" stroke="white" stroke-width="4" d="M15,20 A0,0 0 0 1 15,20 h58 A0,0 0 0 1 73,20"/><path width="58" height="15" clip-path="url(#satori_bc-id-0-0)" fill="none" stroke="white" stroke-width="4" d="M73,35 A0,0 0 0 1 73,35 h-58 A0,0 0 0 1 15,35"/><mask id="satori_om-id-1"><rect x="0" y="0" width="88" height="54" fill="#fff"/></mask><defs><clipPath id="satori_bc-id-1-0"><path x="0" y="0" width="88" height="54" d="M15,0 h58 a15,27 0 0 1 15,27 v0 a15,27 0 0 1 -15,27 h-58 a15,27 0 0 1 -15,-27 v0 a15,27 0 0 1 15,-27"/></clipPath></defs><clipPath id="satori_cp-id-1-0"><path x="0" y="0" width="88" height="54" d="M15,0 h58 a15,27 0 0 1 15,27 v0 a15,27 0 0 1 -15,27 h-58 a15,27 0 0 1 -15,-27 v0 a15,27 0 0 1 15,-27"/></clipPath><mask id="satori_om-id-1-0"><rect x="2" y="2" width="84" height="50" fill="#fff"/><path width="88" height="54" fill="none" stroke="#000" stroke-width="4" d="M1.888,13.888 A15,27 0 0 1 15,0 h58 a15,27 0 0 1 15,27 v0 a15,27 0 0 1 -15,27 h-58 a15,27 0 0 1 -15,-27 v0 A15,27 0 0 1 1.888,13.888"/></mask><path width="88" height="54" clip-path="url(#satori_bc-id-1-0)" fill="none" stroke="white" stroke-width="4" d="M1.888,13.888 A15,27 0 0 1 15,0 h58 a15,27 0 0 1 15,27 v0 a15,27 0 0 1 -15,27 h-58 a15,27 0 0 1 -15,-27 v0 A15,27 0 0 1 1.888,13.888"/><mask id="satori_om-id-1-0-0"><rect x="2" y="2" width="84" height="50" fill="#fff" mask="url(#satori_om-id-1-0)"/></mask><mask id="satori_om-id-1-0-0-0"><rect x="2" y="2" width="84" height="50" fill="#fff" mask="url(#satori_om-id-1-0)"/></mask><rect x="2" y="2" width="84" height="50" fill="#00953B" clip-path="url(#satori_cp-id-1-0)" mask="url(#satori_om-id-1-0)"/><mask id="satori_om-id-1-0-0-0-0"><rect x="15" y="18" width="59" height="19" fill="#fff" mask="url(#satori_om-id-1-0)"/></mask><mask id="satori_om-id-1-0-0-0-0-0"><rect x="15" y="18" width="39" height="19" fill="#fff" mask="url(#satori_om-id-1-0)"/></mask><path fill="white" d="M28.6 37.6L17.3 37.6L17.3 24.1Q17.3 23.4 18.1 22.3Q19.0 21.3 20.3 20.9L20.3 20.9L20.3 20.8L16.8 20.8L16.7 18.7L28.4 18.7L28.4 21.0L21.1 21.0L21.1 26.7L28.0 26.7L28.0 28.9L21.1 28.9L21.1 35.2L28.6 35.2L28.6 37.6ZM35.4 37.8L31.1 18.7L35.0 18.7L37.7 32.3L41.4 18.7L44.2 18.7L47.6 32.2L50.0 20.7Q50.2 19.8 50.7 19.4Q51.3 18.9 52.0 18.7Q52.6 18.5 53.1 18.5L53.1 18.5L48.6 37.6L45.7 37.6L42.1 23.9L38.9 35.4Q38.6 36.3 38.0 36.8Q37.5 37.4 36.7 37.6Q36.0 37.8 35.4 37.8L35.4 37.8Z " transform="matrix(1.00,0.00,0.00,1.00,0.00,-1.00)" clip-path="url(#satori_cp-id-1-0)" mask="url(#satori_om-id-1-0)"/><mask id="satori_om-id-1-0-0-0-0-1"><rect x="58" y="18" width="16" height="19" fill="#fff" mask="url(#satori_om-id-1-0)"/></mask><path fill="white" d="M60.2 36.9L60.2 36.9L61.0 34.8Q61.6 35.2 62.5 35.5Q63.3 35.7 64.3 35.7L64.3 35.7Q65.5 35.7 66.3 35.2Q67.1 34.7 67.6 33.8Q68.1 33.0 68.3 32.0Q68.6 31.0 68.6 30.1Q68.7 29.2 68.7 28.5L68.7 28.5L68.7 28.2Q68.3 28.7 67.7 29.3Q67.2 29.8 66.4 30.2Q65.6 30.6 64.6 30.6L64.6 30.6Q63.2 30.6 62.0 29.9Q60.8 29.2 60.0 27.9Q59.2 26.6 59.2 24.7L59.2 24.7Q59.2 23.0 60.0 21.6Q60.7 20.1 62.2 19.3Q63.6 18.4 65.7 18.4L65.7 18.4Q67.4 18.4 68.6 18.9Q69.8 19.5 70.5 20.4Q71.3 21.3 71.8 22.5Q72.2 23.6 72.4 24.9Q72.6 26.1 72.6 27.2L72.6 27.2Q72.6 29.8 72.0 31.9Q71.4 34.0 70.2 35.4L70.2 35.4Q69.4 36.4 68.4 36.9Q67.4 37.5 66.5 37.7Q65.5 37.9 64.7 37.9L64.7 37.9Q63.3 37.9 62.2 37.6Q61.1 37.3 60.2 36.9ZM63.0 24.3L63.0 24.3Q63.0 25.4 63.2 26.3Q63.5 27.2 64.0 27.8Q64.6 28.4 65.6 28.4L65.6 28.4Q66.5 28.4 67.2 27.9Q67.8 27.4 68.1 26.4Q68.4 25.5 68.4 24.2L68.4 24.2Q68.4 23.1 68.1 22.2Q67.8 21.3 67.2 20.8Q66.6 20.3 65.7 20.3L65.7 20.3Q64.7 20.3 64.1 20.8Q63.5 21.4 63.2 22.3Q63.0 23.3 63.0 24.3Z " transform="matrix(1.00,0.00,0.00,1.00,0.00,-1.00)" clip-path="url(#satori_cp-id-1-0)" mask="url(#satori_om-id-1-0)"/></svg>