<svg width="172" height="54" viewBox="0 0 172 54" xmlns="http://www.w3.org/2000/svg"><mask id="satori_om-id"><rect x="0" y="0" width="172" height="54" fill="#fff"/></mask><mask id="satori_om-id-0"><rect x="15" y="0" width="142" height="54" fill="#fff"/></mask><defs><clipPath id="satori_bc-id-0-0"><rect x="15" y="20" width="142" height="15"/></clipPath></defs><mask id="satori_om-id-0-0"><rect x="15" y="22" width="142" height="11" fill="#fff"/><path width="142" height="15" fill="none" stroke="#000" stroke-width="4" d="M15,20 A0,0 0 0 1 15,20 h142 A0,0 0 0 1 157,20"/><path width="142" height="15" fill="none" stroke="#000" stroke-width="4" d="M157,35 A0,0 0 0 1 157,35 h-142 A0,0 0 0 1 15,35"/></mask><path width="142" height="15" clip-path="url(#satori_bc-id-0-0)" fill="none" stroke="white" stroke-width="4" d="M15,20 A0,0 0 0 1 15,20 h142 A0,0 0 0 1 157,20"/><path width="142" height="15" clip-path="url(#satori_bc-id-0-0)" fill="none" stroke="white" stroke-width="4" d="M157,35 A0,0 0 0 1 157,35 h-142 A0,0 0 0 1 15,35"/><mask id="satori_om-id-1"><rect x="0" y="0" width="172" height="54" fill="#fff"/></mask><defs><clipPath id="satori_bc-id-1-0"><path x="0" y="0" width="172" height="54" d="M15,0 h142 a15,27 0 0 1 15,27 v0 a15,27 0 0 1 -15,27 h-142 a15,27 0 0 1 -15,-27 v0 a15,27 0 0 1 15,-27"/></clipPath></defs><clipPath id="satori_cp-id-1-0"><path x="0" y="0" width="172" height="54" d="M15,0 h142 a15,27 0 0 1 15,27 v0 a15,27 0 0 1 -15,27 h-142 a15,27 0 0 1 -15,-27 v0 a15,27 0 0 1 15,-27"/></clipPath><mask id="satori_om-id-1-0"><rect x="2" y="2" width="168" height="50" fill="#fff"/><path width="172" height="54" fill="none" stroke="#000" stroke-width="4" d="M1.888,13.888 A15,27 0 0 1 15,0 h142 a15,27 0 0 1 15,27 v0 a15,27 0 0 1 -15,27 h-142 a15,27 0 0 1 -15,-27 v0 A15,27 0 0 1 1.888,13.888"/></mask><path width="172" height="54" clip-path="url(#satori_bc-id-1-0)" fill="none" stroke="white" stroke-width="4" d="M1.888,13.888 A15,27 0 0 1 15,0 h142 a15,27 0 0 1 15,27 v0 a15,27 0 0 1 -15,27 h-142 a15,27 0 0 1 -15,-27 v0 A15,27 0 0 1 1.888,13.888"/><mask id="satori_om-id-1-0-0"><rect x="2" y="2" width="84" height="50" fill="#fff" mask="url(#satori_om-id-1-0)"/></mask><mask id="satori_om-id-1-0-0-0"><rect x="2" y="2" width="84" height="50" fill="#fff" mask="url(#satori_om-id-1-0)"/></mask><rect x="2" y="2" width="84" height="50" fill="#9E28B5" clip-path="url(#satori_cp-id-1-0)" mask="url(#satori_om-id-1-0)"/><mask id="satori_om-id-1-0-0-0-0"><rect x="20" y="18" width="49" height="19" fill="#fff" mask="url(#satori_om-id-1-0)"/></mask><mask id="satori_om-id-1-0-0-0-0-0"><rect x="20" y="18" width="33" height="19" fill="#fff" mask="url(#satori_om-id-1-0)"/></mask><path fill="white" d="M36.0 18.5L36.0 37.6L33.6 37.6L24.2 24.8L24.2 37.6L21.6 37.6L21.6 18.7L24.0 18.7L33.4 31.5L33.4 20.7Q33.4 20.3 33.8 19.8Q34.1 19.3 34.7 18.9Q35.3 18.5 36.0 18.5L36.0 18.5ZM50.8 37.6L39.5 37.6L39.5 24.1Q39.5 23.4 40.3 22.3Q41.2 21.3 42.5 20.9L42.5 20.9L42.5 20.8L39.1 20.8L38.9 18.7L50.7 18.7L50.7 21.0L43.3 21.0L43.3 26.7L50.2 26.7L50.2 28.9L43.3 28.9L43.3 35.2L50.8 35.2L50.8 37.6Z " transform="matrix(1.00,0.00,0.00,1.00,0.00,-1.00)" clip-path="url(#satori_cp-id-1-0)" mask="url(#satori_om-id-1-0)"/><mask id="satori_om-id-1-0-0-0-0-1"><rect x="57" y="18" width="12" height="19" fill="#fff" mask="url(#satori_om-id-1-0)"/></mask><path fill="white" d="M57.0 22.5L63.8 18.7L66.2 18.7L66.2 37.6L62.6 37.6L62.6 21.6L57.9 24.3L57.0 22.5Z " transform="matrix(1.00,0.00,0.00,1.00,0.00,-1.00)" clip-path="url(#satori_cp-id-1-0)" mask="url(#satori_om-id-1-0)"/><mask id="satori_om-id-1-0-1"><rect x="86" y="2" width="84" height="50" fill="#fff" mask="url(#satori_om-id-1-0)"/></mask><mask id="satori_om-id-1-0-1-0"><rect x="86" y="2" width="84" height="50" fill="#fff" mask="url(#satori_om-id-1-0)"/></mask><rect x="86" y="2" width="84" height="50" fill="#FF9E18" clip-path="url(#satori_cp-id-1-0)" mask="url(#satori_om-id-1-0)"/><mask id="satori_om-id-1-0-1-0-0"><rect x="95" y="18" width="66" height="19" fill="#fff" mask="url(#satori_om-id-1-0)"/></mask><mask id="satori_om-id-1-0-1-0-0-0"><rect x="95" y="18" width="31" height="19" fill="#fff" mask="url(#satori_om-id-1-0)"/></mask><path fill="#231F20" d="M109.3 19.2L109.3 19.2L108.6 21.6Q108.0 21.3 107.1 21.0Q106.3 20.7 105.2 20.7L105.2 20.7Q103.6 20.7 102.5 21.6Q101.4 22.6 100.8 24.3Q100.3 26.0 100.3 28.1L100.3 28.1Q100.3 31.6 101.6 33.6Q102.8 35.6 105.0 35.6L105.0 35.6Q105.7 35.6 106.4 35.4Q107.1 35.2 107.7 34.9Q108.3 34.7 108.6 34.5L108.6 34.5L109.4 36.8Q108.5 37.3 107.2 37.6Q106.0 37.9 104.3 37.9L104.3 37.9Q102.1 37.9 100.5 37.1Q98.9 36.3 97.9 34.9Q97.0 33.6 96.5 31.8Q96.0 30.1 96.0 28.2L96.0 28.2Q96.0 25.4 97.0 23.2Q98.1 21.0 100.0 19.7Q102.0 18.4 104.7 18.4L104.7 18.4Q107.4 18.4 109.3 19.2ZM123.6 19.2L123.6 19.2L122.8 21.6Q122.3 21.3 121.4 21.0Q120.5 20.7 119.5 20.7L119.5 20.7Q117.8 20.7 116.7 21.6Q115.6 22.6 115.1 24.3Q114.5 26.0 114.5 28.1L114.5 28.1Q114.5 31.6 115.8 33.6Q117.1 35.6 119.2 35.6L119.2 35.6Q120.0 35.6 120.7 35.4Q121.4 35.2 121.9 34.9Q122.5 34.7 122.8 34.5L122.8 34.5L123.6 36.8Q122.7 37.3 121.5 37.6Q120.2 37.9 118.5 37.9L118.5 37.9Q116.3 37.9 114.7 37.1Q113.2 36.3 112.2 34.9Q111.2 33.6 110.7 31.8Q110.2 30.1 110.2 28.2L110.2 28.2Q110.2 25.4 111.3 23.2Q112.3 21.0 114.2 19.7Q116.2 18.4 119.0 18.4L119.0 18.4Q121.6 18.4 123.6 19.2Z " transform="matrix(1.00,0.00,0.00,1.00,0.00,-1.00)" clip-path="url(#satori_cp-id-1-0)" mask="url(#satori_om-id-1-0)"/><mask id="satori_om-id-1-0-1-0-0-1"><rect x="130" y="18" width="31" height="19" fill="#fff" mask="url(#satori_om-id-1-0)"/></mask><path fill="#231F20" d="M134.5 34.5L134.5 34.5L143.8 34.5L143.8 37.6L130.3 37.6L130.3 35.7Q133.1 33.3 135.9 30.2L135.9 30.2Q137.6 28.4 138.5 26.8Q139.4 25.3 139.4 23.8L139.4 23.8Q139.4 22.8 139.0 22.2Q138.6 21.5 138.0 21.2Q137.4 20.9 136.9 20.8Q136.3 20.6 135.9 20.6L135.9 20.6Q134.6 20.6 133.6 20.9Q132.6 21.2 132.2 21.5L132.2 21.5L131.4 19.3Q132.2 18.9 133.4 18.7Q134.7 18.4 136.8 18.4L136.8 18.4Q138.9 18.4 140.3 19.0Q141.8 19.7 142.6 20.8Q143.3 21.9 143.3 23.3L143.3 23.3Q143.3 24.7 142.5 26.2Q141.7 27.6 140.0 29.4L140.0 29.4Q138.0 31.4 134.5 34.5ZM147.3 36.9L147.3 36.9L148.1 34.8Q148.7 35.2 149.6 35.5Q150.4 35.7 151.4 35.7L151.4 35.7Q152.6 35.7 153.4 35.2Q154.2 34.7 154.7 33.8Q155.2 33.0 155.4 32.0Q155.7 31.0 155.7 30.1Q155.8 29.2 155.8 28.5L155.8 28.5L155.8 28.2Q155.4 28.7 154.8 29.3Q154.3 29.8 153.5 30.2Q152.7 30.6 151.7 30.6L151.7 30.6Q150.3 30.6 149.1 29.9Q147.9 29.2 147.1 27.9Q146.3 26.6 146.3 24.7L146.3 24.7Q146.3 23.0 147.1 21.6Q147.8 20.1 149.3 19.3Q150.7 18.4 152.8 18.4L152.8 18.4Q154.5 18.4 155.7 18.9Q156.9 19.5 157.7 20.4Q158.4 21.3 158.9 22.5Q159.3 23.6 159.5 24.9Q159.7 26.1 159.7 27.2L159.7 27.2Q159.7 29.8 159.1 31.9Q158.5 34.0 157.3 35.4L157.3 35.4Q156.5 36.4 155.5 36.9Q154.5 37.5 153.6 37.7Q152.6 37.9 151.8 37.9L151.8 37.9Q150.4 37.9 149.3 37.6Q148.2 37.3 147.3 36.9ZM150.1 24.3L150.1 24.3Q150.1 25.4 150.3 26.3Q150.6 27.2 151.2 27.8Q151.7 28.4 152.7 28.4L152.7 28.4Q153.7 28.4 154.3 27.9Q154.9 27.4 155.2 26.4Q155.5 25.5 155.5 24.2L155.5 24.2Q155.5 23.1 155.2 22.2Q154.9 21.3 154.3 20.8Q153.7 20.3 152.8 20.3L152.8 20.3Q151.8 20.3 151.2 20.8Q150.6 21.4 150.3 22.3Q150.1 23.3 150.1 24.3Z " transform="matrix(1.00,0.00,0.00,1.00,0.00,-1.00)" clip-path="url(#satori_cp-id-1-0)" mask="url(#satori_om-id-1-0)"/></svg>