<svg width="88" height="54" viewBox="0 0 88 54" xmlns="http://www.w3.org/2000/svg"><mask id="satori_om-id"><rect x="0" y="0" width="88" height="54" fill="#fff"/></mask><mask id="satori_om-id-0"><rect x="15" y="0" width="58" height="54" fill="#fff"/></mask><defs><clipPath id="satori_bc-id-0-0"><rect x="15" y="20" width="58" height="15"/></clipPath></defs><mask id="satori_om-id-0-0"><rect x="15" y="22" width="58" height="11" fill="#fff"/><path width="58" height="15" fill="none" stroke="#000" stroke-width="4" d="M15,20 A0,0 0 0 1 15,20 h58 A0,0 0 0 1 73,20"/><path width="58" height="15" fill="none" stroke="#000" stroke-width="4" d="M73,35 A0,0 0 0 1 73,35 h-58 A0,0 0 0 1 15,35"/></mask><path width="58" height="15" clip-path="url(#satori_bc-id-0-0)" fill="none" stroke="white" stroke-width="4" d="M15,20 A0,0 0 0 1 15,20 h58 A0,0 0 0 1 73,20"/><path width="58" height="15" clip-path="url(#satori_bc-id-0-0)" fill="none" stroke="white" stroke-width="4" d="M73,35 A0,0 0 0 1 73,35 h-58 A0,0 0 0 1 15,35"/><mask id="satori_om-id-1"><rect x="0" y="0" width="88" height="54" fill="#fff"/></mask><defs><clipPath id="satori_bc-id-1-0"><path x="0" y="0" width="88" height="54" d="M15,0 h58 a15,27 0 0 1 15,27 v0 a15,27 0 0 1 -15,27 h-58 a15,27 0 0 1 -15,-27 v0 a15,27 0 0 1 15,-27"/></clipPath></defs><clipPath id="satori_cp-id-1-0"><path x="0" y="0" width="88" height="54" d="M15,0 h58 a15,27 0 0 1 15,27 v0 a15,27 0 0 1 -15,27 h-58 a15,27 0 0 1 -15,-27 v0 a15,27 0 0 1 15,-27"/></clipPath><mask id="satori_om-id-1-0"><rect x="2" y="2" width="84" height="50" fill="#fff"/><path width="88" height="54" fill="none" stroke="#000" stroke-width="4" d="M1.888,13.888 A15,27 0 0 1 15,0 h58 a15,27 0 0 1 15,27 v0 a15,27 0 0 1 -15,27 h-58 a15,27 0 0 1 -15,-27 v0 A15,27 0 0 1 1.888,13.888"/></mask><path width="88" height="54" clip-path="url(#satori_bc-id-1-0)" fill="none" stroke="white" stroke-width="4" d="M1.888,13.888 A15,27 0 0 1 15,0 h58 a15,27 0 0 1 15,27 v0 a15,27 0 0 1 -15,27 h-58 a15,27 0 0 1 -15,-27 v0 A15,27 0 0 1 1.888,13.888"/><mask id="satori_om-id-1-0-0"><rect x="2" y="2" width="84" height="50" fill="#fff" mask="url(#satori_om-id-1-0)"/></mask><mask id="satori_om-id-1-0-0-0"><rect x="2" y="2" width="84" height="50" fill="#fff" mask="url(#satori_om-id-1-0)"/></mask><rect x="2" y="2" width="84" height="50" fill="#9E28B5" clip-path="url(#satori_cp-id-1-0)" mask="url(#satori_om-id-1-0)"/><mask id="satori_om-id-1-0-0-0-0"><rect x="13" y="18" width="63" height="19" fill="#fff" mask="url(#satori_om-id-1-0)"/></mask><mask id="satori_om-id-1-0-0-0-0-0"><rect x="13" y="18" width="33" height="19" fill="#fff" mask="url(#satori_om-id-1-0)"/></mask><path fill="white" d="M29.0 18.5L29.0 37.6L26.6 37.6L17.2 24.8L17.2 37.6L14.6 37.6L14.6 18.7L17.0 18.7L26.4 31.5L26.4 20.7Q26.4 20.3 26.8 19.8Q27.1 19.3 27.7 18.9Q28.3 18.5 29.0 18.5L29.0 18.5ZM43.8 37.6L32.5 37.6L32.5 24.1Q32.5 23.4 33.3 22.3Q34.2 21.3 35.5 20.9L35.5 20.9L35.5 20.8L32.1 20.8L31.9 18.7L43.7 18.7L43.7 21.0L36.3 21.0L36.3 26.7L43.2 26.7L43.2 28.9L36.3 28.9L36.3 35.2L43.8 35.2L43.8 37.6Z " transform="matrix(1.00,0.00,0.00,1.00,0.00,-1.00)" clip-path="url(#satori_cp-id-1-0)" mask="url(#satori_om-id-1-0)"/><mask id="satori_om-id-1-0-0-0-0-1"><rect x="50" y="18" width="26" height="19" fill="#fff" mask="url(#satori_om-id-1-0)"/></mask><path fill="white" d="M50.0 22.5L56.8 18.7L59.2 18.7L59.2 37.6L55.6 37.6L55.6 21.6L50.9 24.3L50.0 22.5ZM74.7 32.2L74.7 32.2Q74.7 33.8 73.8 35.1Q72.8 36.4 71.2 37.1Q69.6 37.9 67.3 37.9L67.3 37.9Q65.5 37.9 64.2 37.5Q62.9 37.2 62.0 36.7L62.0 36.7L62.7 34.5Q63.2 34.8 64.4 35.2Q65.5 35.6 66.9 35.6L66.9 35.6Q68.3 35.6 69.1 35.1Q70.0 34.6 70.4 33.9Q70.8 33.1 70.8 32.1L70.8 32.1Q70.8 31.1 70.2 30.2Q69.6 29.3 68.5 28.8L68.5 28.8Q67.9 28.7 67.1 28.6Q66.3 28.5 65.6 28.5L65.6 28.5L64.6 28.5L64.6 26.7L65.4 26.7Q66.2 26.7 67.0 26.6Q67.8 26.5 68.5 26.0L68.5 26.0Q69.1 25.7 69.5 25.1Q69.9 24.4 69.9 23.5L69.9 23.5Q69.9 22.1 69.0 21.3Q68.2 20.6 66.7 20.6L66.7 20.6Q65.5 20.6 64.6 20.9Q63.8 21.2 63.2 21.5L63.2 21.5L62.5 19.4Q63.1 19.0 64.3 18.7Q65.5 18.4 67.5 18.4L67.5 18.4Q70.3 18.4 72.0 19.6Q73.7 20.7 73.7 22.8L73.7 22.8Q73.7 24.0 73.1 24.9Q72.5 25.8 71.5 26.4Q70.6 27.0 69.5 27.4L69.5 27.4Q71.0 27.6 72.2 28.2Q73.3 28.8 74.0 29.8Q74.7 30.8 74.7 32.2Z " transform="matrix(1.00,0.00,0.00,1.00,0.00,-1.00)" clip-path="url(#satori_cp-id-1-0)" mask="url(#satori_om-id-1-0)"/></svg>