<svg width="172" height="54" viewBox="0 0 172 54" xmlns="http://www.w3.org/2000/svg"><mask id="satori_om-id"><rect x="0" y="0" width="172" height="54" fill="#fff"/></mask><mask id="satori_om-id-0"><rect x="15" y="0" width="142" height="54" fill="#fff"/></mask><defs><clipPath id="satori_bc-id-0-0"><rect x="15" y="20" width="142" height="15"/></clipPath></defs><mask id="satori_om-id-0-0"><rect x="15" y="22" width="142" height="11" fill="#fff"/><path width="142" height="15" fill="none" stroke="#000" stroke-width="4" d="M15,20 A0,0 0 0 1 15,20 h142 A0,0 0 0 1 157,20"/><path width="142" height="15" fill="none" stroke="#000" stroke-width="4" d="M157,35 A0,0 0 0 1 157,35 h-142 A0,0 0 0 1 15,35"/></mask><path width="142" height="15" clip-path="url(#satori_bc-id-0-0)" fill="none" stroke="white" stroke-width="4" d="M15,20 A0,0 0 0 1 15,20 h142 A0,0 0 0 1 157,20"/><path width="142" height="15" clip-path="url(#satori_bc-id-0-0)" fill="none" stroke="white" stroke-width="4" d="M157,35 A0,0 0 0 1 157,35 h-142 A0,0 0 0 1 15,35"/><mask id="satori_om-id-1"><rect x="0" y="0" width="172" height="54" fill="#fff"/></mask><defs><clipPath id="satori_bc-id-1-0"><path x="0" y="0" width="172" height="54" d="M15,0 h142 a15,27 0 0 1 15,27 v0 a15,27 0 0 1 -15,27 h-142 a15,27 0 0 1 -15,-27 v0 a15,27 0 0 1 15,-27"/></clipPath></defs><clipPath id="satori_cp-id-1-0"><path x="0" y="0" width="172" height="54" d="M15,0 h142 a15,27 0 0 1 15,27 v0 a15,27 0 0 1 -15,27 h-142 a15,27 0 0 1 -15,-27 v0 a15,27 0 0 1 15,-27"/></clipPath><mask id="satori_om-id-1-0"><rect x="2" y="2" width="168" height="50" fill="#fff"/><path width="172" height="54" fill="none" stroke="#000" stroke-width="4" d="M1.888,13.888 A15,27 0 0 1 15,0 h142 a15,27 0 0 1 15,27 v0 a15,27 0 0 1 -15,27 h-142 a15,27 0 0 1 -15,-27 v0 A15,27 0 0 1 1.888,13.888"/></mask><path width="172" height="54" clip-path="url(#satori_bc-id-1-0)" fill="none" stroke="white" stroke-width="4" d="M1.888,13.888 A15,27 0 0 1 15,0 h142 a15,27 0 0 1 15,27 v0 a15,27 0 0 1 -15,27 h-142 a15,27 0 0 1 -15,-27 v0 A15,27 0 0 1 1.888,13.888"/><mask id="satori_om-id-1-0-0"><rect x="2" y="2" width="84" height="50" fill="#fff" mask="url(#satori_om-id-1-0)"/></mask><mask id="satori_om-id-1-0-0-0"><rect x="2" y="2" width="84" height="50" fill="#fff" mask="url(#satori_om-id-1-0)"/></mask><rect x="2" y="2" width="84" height="50" fill="#9E28B5" clip-path="url(#satori_cp-id-1-0)" mask="url(#satori_om-id-1-0)"/><mask id="satori_om-id-1-0-0-0-0"><rect x="12" y="18" width="65" height="19" fill="#fff" mask="url(#satori_om-id-1-0)"/></mask><mask id="satori_om-id-1-0-0-0-0-0"><rect x="12" y="18" width="33" height="19" fill="#fff" mask="url(#satori_om-id-1-0)"/></mask><path fill="white" d="M28.0 18.5L28.0 37.6L25.6 37.6L16.2 24.8L16.2 37.6L13.6 37.6L13.6 18.7L16.0 18.7L25.4 31.5L25.4 20.7Q25.4 20.3 25.8 19.8Q26.1 19.3 26.7 18.9Q27.3 18.5 28.0 18.5L28.0 18.5ZM42.8 37.6L31.5 37.6L31.5 24.1Q31.5 23.4 32.3 22.3Q33.2 21.3 34.5 20.9L34.5 20.9L34.5 20.8L31.1 20.8L30.9 18.7L42.7 18.7L42.7 21.0L35.3 21.0L35.3 26.7L42.2 26.7L42.2 28.9L35.3 28.9L35.3 35.2L42.8 35.2L42.8 37.6Z " transform="matrix(1.00,0.00,0.00,1.00,0.00,-1.00)" clip-path="url(#satori_cp-id-1-0)" mask="url(#satori_om-id-1-0)"/><mask id="satori_om-id-1-0-0-0-0-1"><rect x="49" y="18" width="28" height="19" fill="#fff" mask="url(#satori_om-id-1-0)"/></mask><path fill="white" d="M49.0 22.5L55.8 18.7L58.2 18.7L58.2 37.6L54.6 37.6L54.6 21.6L49.9 24.3L49.0 22.5ZM74.6 19.3L74.6 19.3L73.9 21.5Q73.4 21.2 72.6 20.9Q71.7 20.6 70.6 20.6L70.6 20.6Q69.1 20.6 68.2 21.4Q67.2 22.3 66.7 23.9Q66.2 25.4 66.2 27.5L66.2 27.5Q66.2 27.8 66.2 28.1L66.2 28.1Q66.7 27.1 67.5 26.6Q68.2 26.1 69.0 25.9Q69.7 25.7 70.3 25.7L70.3 25.7Q71.7 25.7 72.9 26.4Q74.1 27.0 74.9 28.3Q75.6 29.6 75.6 31.5L75.6 31.5Q75.6 33.3 74.8 34.8Q74.1 36.2 72.6 37.1Q71.2 37.9 69.2 37.9L69.2 37.9Q67.6 37.9 66.4 37.3Q65.2 36.7 64.4 35.8Q63.6 34.8 63.2 33.6Q62.7 32.4 62.5 31.0Q62.4 29.7 62.4 28.5L62.4 28.5Q62.4 25.2 63.4 22.9Q64.5 20.7 66.3 19.5Q68.1 18.4 70.4 18.4L70.4 18.4Q71.4 18.4 72.2 18.6Q73.1 18.7 73.7 18.9Q74.3 19.2 74.6 19.3ZM66.5 32.0L66.5 32.0Q66.5 32.6 66.6 33.3Q66.8 34.0 67.0 34.6Q67.3 35.2 67.9 35.6Q68.4 36.0 69.2 36.0L69.2 36.0Q70.1 36.0 70.6 35.6Q71.1 35.1 71.4 34.5Q71.7 33.9 71.8 33.1Q71.9 32.4 71.9 31.8L71.9 31.8Q71.9 30.3 71.5 29.5Q71.1 28.6 70.5 28.3Q69.9 27.9 69.2 27.9L69.2 27.9Q67.8 27.9 67.2 29.0Q66.5 30.1 66.5 32.0Z " transform="matrix(1.00,0.00,0.00,1.00,0.00,-1.00)" clip-path="url(#satori_cp-id-1-0)" mask="url(#satori_om-id-1-0)"/><mask id="satori_om-id-1-0-1"><rect x="86" y="2" width="84" height="50" fill="#fff" mask="url(#satori_om-id-1-0)"/></mask><mask id="satori_om-id-1-0-1-0"><rect x="86" y="2" width="84" height="50" fill="#fff" mask="url(#satori_om-id-1-0)"/></mask><rect x="86" y="2" width="84" height="50" fill="#718472" clip-path="url(#satori_cp-id-1-0)" mask="url(#satori_om-id-1-0)"/><mask id="satori_om-id-1-0-1-0-0"><rect x="105" y="18" width="47" height="19" fill="#fff" mask="url(#satori_om-id-1-0)"/></mask><mask id="satori_om-id-1-0-1-0-0-0"><rect x="105" y="18" width="43" height="19" fill="#fff" mask="url(#satori_om-id-1-0)"/></mask><path fill="white" d="M116.8 19.2L116.8 19.2L116.1 21.5Q115.4 21.1 114.5 20.9Q113.5 20.6 112.6 20.6L112.6 20.6Q111.2 20.6 110.4 21.1Q109.7 21.7 109.7 22.7L109.7 22.7Q109.7 23.5 110.2 24.1Q110.8 24.7 112.2 25.7L112.2 25.7L113.4 26.5Q114.7 27.4 115.7 28.2Q116.6 29.1 117.1 30.2Q117.6 31.2 117.6 32.6L117.6 32.6Q117.6 35.1 116.0 36.5Q114.4 37.9 111.3 37.9L111.3 37.9Q110.2 37.9 109.3 37.7Q108.4 37.5 107.6 37.2Q106.9 36.9 106.4 36.7L106.4 36.7L107.2 34.2Q107.9 34.7 109.0 35.2Q110.1 35.6 111.3 35.6L111.3 35.6Q112.3 35.6 112.9 35.3Q113.5 35.0 113.8 34.5Q114.1 34.0 114.1 33.4L114.1 33.4Q114.1 32.5 113.5 31.8Q112.9 31.1 111.4 30.1L111.4 30.1L110.2 29.4Q108.2 28.1 107.2 26.7Q106.2 25.4 106.2 23.4L106.2 23.4Q106.2 21.8 107.0 20.7Q107.8 19.6 109.2 19.0Q110.6 18.4 112.4 18.4L112.4 18.4Q114.9 18.4 116.8 19.2ZM128.0 37.6L124.2 37.6L124.2 24.2Q124.2 23.5 125.1 22.5Q125.9 21.4 127.3 21.1L127.3 21.1L127.3 21.0L119.4 21.0L119.2 18.7L133.0 18.7L133.0 21.0L128.0 21.0L128.0 37.6ZM146.2 19.2L146.2 19.2L145.5 21.6Q144.9 21.3 144.0 21.0Q143.2 20.7 142.1 20.7L142.1 20.7Q140.5 20.7 139.4 21.6Q138.3 22.6 137.7 24.3Q137.2 26.0 137.2 28.1L137.2 28.1Q137.2 31.6 138.5 33.6Q139.7 35.6 141.9 35.6L141.9 35.6Q142.6 35.6 143.3 35.4Q144.0 35.2 144.6 34.9Q145.2 34.7 145.5 34.5L145.5 34.5L146.3 36.8Q145.4 37.3 144.1 37.6Q142.9 37.9 141.1 37.9L141.1 37.9Q139.0 37.9 137.4 37.1Q135.8 36.3 134.8 34.9Q133.8 33.6 133.4 31.8Q132.9 30.1 132.9 28.2L132.9 28.2Q132.9 25.4 133.9 23.2Q135.0 21.0 136.9 19.7Q138.9 18.4 141.6 18.4L141.6 18.4Q144.3 18.4 146.2 19.2Z " transform="matrix(1.00,0.00,0.00,1.00,0.00,-1.00)" clip-path="url(#satori_cp-id-1-0)" mask="url(#satori_om-id-1-0)"/><mask id="satori_om-id-1-0-1-0-0-1"><rect x="152" y="18" width="0" height="19" fill="#fff" mask="url(#satori_om-id-1-0)"/></mask></svg>