<svg width="172" height="54" viewBox="0 0 172 54" xmlns="http://www.w3.org/2000/svg"><mask id="satori_om-id"><rect x="0" y="0" width="172" height="54" fill="#fff"/></mask><mask id="satori_om-id-0"><rect x="15" y="0" width="142" height="54" fill="#fff"/></mask><defs><clipPath id="satori_bc-id-0-0"><rect x="15" y="20" width="142" height="15"/></clipPath></defs><mask id="satori_om-id-0-0"><rect x="15" y="22" width="142" height="11" fill="#fff"/><path width="142" height="15" fill="none" stroke="#000" stroke-width="4" d="M15,20 A0,0 0 0 1 15,20 h142 A0,0 0 0 1 157,20"/><path width="142" height="15" fill="none" stroke="#000" stroke-width="4" d="M157,35 A0,0 0 0 1 157,35 h-142 A0,0 0 0 1 15,35"/></mask><path width="142" height="15" clip-path="url(#satori_bc-id-0-0)" fill="none" stroke="white" stroke-width="4" d="M15,20 A0,0 0 0 1 15,20 h142 A0,0 0 0 1 157,20"/><path width="142" height="15" clip-path="url(#satori_bc-id-0-0)" fill="none" stroke="white" stroke-width="4" d="M157,35 A0,0 0 0 1 157,35 h-142 A0,0 0 0 1 15,35"/><mask id="satori_om-id-1"><rect x="0" y="0" width="172" height="54" fill="#fff"/></mask><defs><clipPath id="satori_bc-id-1-0"><path x="0" y="0" width="172" height="54" d="M15,0 h142 a15,27 0 0 1 15,27 v0 a15,27 0 0 1 -15,27 h-142 a15,27 0 0 1 -15,-27 v0 a15,27 0 0 1 15,-27"/></clipPath></defs><clipPath id="satori_cp-id-1-0"><path x="0" y="0" width="172" height="54" d="M15,0 h142 a15,27 0 0 1 15,27 v0 a15,27 0 0 1 -15,27 h-142 a15,27 0 0 1 -15,-27 v0 a15,27 0 0 1 15,-27"/></clipPath><mask id="satori_om-id-1-0"><rect x="2" y="2" width="168" height="50" fill="#fff"/><path width="172" height="54" fill="none" stroke="#000" stroke-width="4" d="M1.888,13.888 A15,27 0 0 1 15,0 h142 a15,27 0 0 1 15,27 v0 a15,27 0 0 1 -15,27 h-142 a15,27 0 0 1 -15,-27 v0 A15,27 0 0 1 1.888,13.888"/></mask><path width="172" height="54" clip-path="url(#satori_bc-id-1-0)" fill="none" stroke="white" stroke-width="4" d="M1.888,13.888 A15,27 0 0 1 15,0 h142 a15,27 0 0 1 15,27 v0 a15,27 0 0 1 -15,27 h-142 a15,27 0 0 1 -15,-27 v0 A15,27 0 0 1 1.888,13.888"/><mask id="satori_om-id-1-0-0"><rect x="2" y="2" width="84" height="50" fill="#fff" mask="url(#satori_om-id-1-0)"/></mask><mask id="satori_om-id-1-0-0-0"><rect x="2" y="2" width="84" height="50" fill="#fff" mask="url(#satori_om-id-1-0)"/></mask><rect x="2" y="2" width="84" height="50" fill="#9E28B5" clip-path="url(#satori_cp-id-1-0)" mask="url(#satori_om-id-1-0)"/><mask id="satori_om-id-1-0-0-0-0"><rect x="13" y="18" width="63" height="19" fill="#fff" mask="url(#satori_om-id-1-0)"/></mask><mask id="satori_om-id-1-0-0-0-0-0"><rect x="13" y="18" width="33" height="19" fill="#fff" mask="url(#satori_om-id-1-0)"/></mask><path fill="white" d="M29.0 18.5L29.0 37.6L26.6 37.6L17.2 24.8L17.2 37.6L14.6 37.6L14.6 18.7L17.0 18.7L26.4 31.5L26.4 20.7Q26.4 20.3 26.8 19.8Q27.1 19.3 27.7 18.9Q28.3 18.5 29.0 18.5L29.0 18.5ZM43.8 37.6L32.5 37.6L32.5 24.1Q32.5 23.4 33.3 22.3Q34.2 21.3 35.5 20.9L35.5 20.9L35.5 20.8L32.1 20.8L31.9 18.7L43.7 18.7L43.7 21.0L36.3 21.0L36.3 26.7L43.2 26.7L43.2 28.9L36.3 28.9L36.3 35.2L43.8 35.2L43.8 37.6Z " transform="matrix(1.00,0.00,0.00,1.00,0.00,-1.00)" clip-path="url(#satori_cp-id-1-0)" mask="url(#satori_om-id-1-0)"/><mask id="satori_om-id-1-0-0-0-0-1"><rect x="50" y="18" width="26" height="19" fill="#fff" mask="url(#satori_om-id-1-0)"/></mask><path fill="white" d="M50.0 22.5L56.8 18.7L59.2 18.7L59.2 37.6L55.6 37.6L55.6 21.6L50.9 24.3L50.0 22.5ZM61.8 21.8L61.8 18.7L75.0 18.7L75.0 20.5L66.5 37.6L63.9 37.6L72.0 21.8L61.8 21.8Z " transform="matrix(1.00,0.00,0.00,1.00,0.00,-1.00)" clip-path="url(#satori_cp-id-1-0)" mask="url(#satori_om-id-1-0)"/><mask id="satori_om-id-1-0-1"><rect x="86" y="2" width="84" height="50" fill="#fff" mask="url(#satori_om-id-1-0)"/></mask><mask id="satori_om-id-1-0-1-0"><rect x="86" y="2" width="84" height="50" fill="#fff" mask="url(#satori_om-id-1-0)"/></mask><rect x="86" y="2" width="84" height="50" fill="#718472" clip-path="url(#satori_cp-id-1-0)" mask="url(#satori_om-id-1-0)"/><mask id="satori_om-id-1-0-1-0-0"><rect x="103" y="18" width="50" height="19" fill="#fff" mask="url(#satori_om-id-1-0)"/></mask><mask id="satori_om-id-1-0-1-0-0-0"><rect x="103" y="18" width="46" height="19" fill="#fff" mask="url(#satori_om-id-1-0)"/></mask><path fill="white" d="M111.0 20.8L111.0 20.8L109.1 20.8L109.1 27.5L110.7 27.5Q111.3 27.5 112.0 27.4Q112.7 27.3 113.3 27.0Q113.9 26.6 114.3 25.9Q114.7 25.1 114.7 23.8L114.7 23.8Q114.7 22.7 114.4 22.1Q114.0 21.5 113.4 21.2Q112.9 20.9 112.2 20.9Q111.6 20.8 111.0 20.8ZM109.1 37.6L105.3 37.6L105.3 24.1Q105.3 23.3 106.1 22.3Q107.0 21.2 108.3 20.9L108.3 20.9L108.3 20.8L104.8 20.8L104.7 18.7L110.8 18.7Q112.8 18.7 114.0 18.8Q115.3 18.9 116.4 19.5L116.4 19.5Q117.2 20.0 117.7 20.7Q118.2 21.4 118.4 22.2Q118.6 23.0 118.6 23.7L118.6 23.7Q118.6 25.3 118.0 26.4Q117.3 27.6 116.3 28.2Q115.2 28.9 113.9 29.2Q112.7 29.4 111.4 29.4L111.4 29.4L109.1 29.4L109.1 37.6ZM129.1 37.6L125.3 37.6L125.3 24.2Q125.3 23.5 126.1 22.5Q127.0 21.4 128.3 21.1L128.3 21.1L128.3 21.0L120.4 21.0L120.3 18.7L134.1 18.7L134.1 21.0L129.1 21.0L129.1 37.6ZM147.3 19.2L147.3 19.2L146.6 21.6Q146.0 21.3 145.1 21.0Q144.3 20.7 143.2 20.7L143.2 20.7Q141.6 20.7 140.5 21.6Q139.4 22.6 138.8 24.3Q138.3 26.0 138.3 28.1L138.3 28.1Q138.3 31.6 139.6 33.6Q140.8 35.6 143.0 35.6L143.0 35.6Q143.7 35.6 144.4 35.4Q145.1 35.2 145.7 34.9Q146.2 34.7 146.6 34.5L146.6 34.5L147.4 36.8Q146.5 37.3 145.2 37.6Q143.9 37.9 142.2 37.9L142.2 37.9Q140.0 37.9 138.5 37.1Q136.9 36.3 135.9 34.9Q134.9 33.6 134.5 31.8Q134.0 30.1 134.0 28.2L134.0 28.2Q134.0 25.4 135.0 23.2Q136.0 21.0 138.0 19.7Q139.9 18.4 142.7 18.4L142.7 18.4Q145.4 18.4 147.3 19.2Z " transform="matrix(1.00,0.00,0.00,1.00,0.00,-1.00)" clip-path="url(#satori_cp-id-1-0)" mask="url(#satori_om-id-1-0)"/><mask id="satori_om-id-1-0-1-0-0-1"><rect x="153" y="18" width="0" height="19" fill="#fff" mask="url(#satori_om-id-1-0)"/></mask></svg>