<svg width="172" height="54" viewBox="0 0 172 54" xmlns="http://www.w3.org/2000/svg"><mask id="satori_om-id"><rect x="0" y="0" width="172" height="54" fill="#fff"/></mask><mask id="satori_om-id-0"><rect x="15" y="0" width="142" height="54" fill="#fff"/></mask><defs><clipPath id="satori_bc-id-0-0"><rect x="15" y="20" width="142" height="15"/></clipPath></defs><mask id="satori_om-id-0-0"><rect x="15" y="22" width="142" height="11" fill="#fff"/><path width="142" height="15" fill="none" stroke="#000" stroke-width="4" d="M15,20 A0,0 0 0 1 15,20 h142 A0,0 0 0 1 157,20"/><path width="142" height="15" fill="none" stroke="#000" stroke-width="4" d="M157,35 A0,0 0 0 1 157,35 h-142 A0,0 0 0 1 15,35"/></mask><path width="142" height="15" clip-path="url(#satori_bc-id-0-0)" fill="none" stroke="white" stroke-width="4" d="M15,20 A0,0 0 0 1 15,20 h142 A0,0 0 0 1 157,20"/><path width="142" height="15" clip-path="url(#satori_bc-id-0-0)" fill="none" stroke="white" stroke-width="4" d="M157,35 A0,0 0 0 1 157,35 h-142 A0,0 0 0 1 15,35"/><mask id="satori_om-id-1"><rect x="0" y="0" width="172" height="54" fill="#fff"/></mask><defs><clipPath id="satori_bc-id-1-0"><path x="0" y="0" width="172" height="54" d="M15,0 h142 a15,27 0 0 1 15,27 v0 a15,27 0 0 1 -15,27 h-142 a15,27 0 0 1 -15,-27 v0 a15,27 0 0 1 15,-27"/></clipPath></defs><clipPath id="satori_cp-id-1-0"><path x="0" y="0" width="172" height="54" d="M15,0 h142 a15,27 0 0 1 15,27 v0 a15,27 0 0 1 -15,27 h-142 a15,27 0 0 1 -15,-27 v0 a15,27 0 0 1 15,-27"/></clipPath><mask id="satori_om-id-1-0"><rect x="2" y="2" width="168" height="50" fill="#fff"/><path width="172" height="54" fill="none" stroke="#000" stroke-width="4" d="M1.888,13.888 A15,27 0 0 1 15,0 h142 a15,27 0 0 1 15,27 v0 a15,27 0 0 1 -15,27 h-142 a15,27 0 0 1 -15,-27 v0 A15,27 0 0 1 1.888,13.888"/></mask><path width="172" height="54" clip-path="url(#satori_bc-id-1-0)" fill="none" stroke="white" stroke-width="4" d="M1.888,13.888 A15,27 0 0 1 15,0 h142 a15,27 0 0 1 15,27 v0 a15,27 0 0 1 -15,27 h-142 a15,27 0 0 1 -15,-27 v0 A15,27 0 0 1 1.888,13.888"/><mask id="satori_om-id-1-0-0"><rect x="2" y="2" width="84" height="50" fill="#fff" mask="url(#satori_om-id-1-0)"/></mask><mask id="satori_om-id-1-0-0-0"><rect x="2" y="2" width="84" height="50" fill="#fff" mask="url(#satori_om-id-1-0)"/></mask><rect x="2" y="2" width="84" height="50" fill="#9E28B5" clip-path="url(#satori_cp-id-1-0)" mask="url(#satori_om-id-1-0)"/><mask id="satori_om-id-1-0-0-0-0"><rect x="18" y="18" width="53" height="19" fill="#fff" mask="url(#satori_om-id-1-0)"/></mask><mask id="satori_om-id-1-0-0-0-0-0"><rect x="18" y="18" width="33" height="19" fill="#fff" mask="url(#satori_om-id-1-0)"/></mask><path fill="white" d="M34.0 18.5L34.0 37.6L31.6 37.6L22.2 24.8L22.2 37.6L19.6 37.6L19.6 18.7L22.0 18.7L31.4 31.5L31.4 20.7Q31.4 20.3 31.8 19.8Q32.1 19.3 32.7 18.9Q33.3 18.5 34.0 18.5L34.0 18.5ZM48.8 37.6L37.5 37.6L37.5 24.1Q37.5 23.4 38.3 22.3Q39.2 21.3 40.5 20.9L40.5 20.9L40.5 20.8L37.1 20.8L36.9 18.7L48.7 18.7L48.7 21.0L41.3 21.0L41.3 26.7L48.2 26.7L48.2 28.9L41.3 28.9L41.3 35.2L48.8 35.2L48.8 37.6Z " transform="matrix(1.00,0.00,0.00,1.00,0.00,-1.00)" clip-path="url(#satori_cp-id-1-0)" mask="url(#satori_om-id-1-0)"/><mask id="satori_om-id-1-0-0-0-0-1"><rect x="55" y="18" width="16" height="19" fill="#fff" mask="url(#satori_om-id-1-0)"/></mask><path fill="white" d="M56.2 30.3L65.2 18.7L67.4 18.7L67.4 30.0L69.8 30.0L69.8 32.3L67.4 32.3L67.4 37.6L64.0 37.6L64.0 32.3L56.2 32.3L56.2 30.3ZM64.0 30.0L64.0 23.3L58.9 30.0L64.0 30.0Z " transform="matrix(1.00,0.00,0.00,1.00,0.00,-1.00)" clip-path="url(#satori_cp-id-1-0)" mask="url(#satori_om-id-1-0)"/><mask id="satori_om-id-1-0-1"><rect x="86" y="2" width="84" height="50" fill="#fff" mask="url(#satori_om-id-1-0)"/></mask><mask id="satori_om-id-1-0-1-0"><rect x="86" y="2" width="84" height="50" fill="#fff" mask="url(#satori_om-id-1-0)"/></mask><rect x="86" y="2" width="84" height="50" fill="#005DA6" clip-path="url(#satori_cp-id-1-0)" mask="url(#satori_om-id-1-0)"/><mask id="satori_om-id-1-0-1-0-0"><rect x="96" y="18" width="64" height="19" fill="#fff" mask="url(#satori_om-id-1-0)"/></mask><mask id="satori_om-id-1-0-1-0-0-0"><rect x="96" y="18" width="32" height="19" fill="#fff" mask="url(#satori_om-id-1-0)"/></mask><path fill="white" d="M103.2 20.8L103.2 20.8L102.1 20.8L102.1 35.5L103.0 35.5Q103.7 35.5 104.5 35.4Q105.2 35.4 105.9 35.0Q106.6 34.6 107.1 33.7Q107.7 32.9 108.0 31.4Q108.3 29.9 108.3 27.6L108.3 27.6Q108.3 25.6 108.0 24.3Q107.7 23.1 107.2 22.3Q106.7 21.6 106.1 21.3Q105.4 20.9 104.7 20.9Q103.9 20.8 103.2 20.8ZM102.2 37.6L98.3 37.6L98.3 24.0Q98.3 23.3 99.1 22.3Q100.0 21.2 101.3 20.9L101.3 20.9L101.3 20.8L97.8 20.8L97.7 18.7L102.8 18.7Q104.0 18.7 105.2 18.7Q106.5 18.8 107.7 19.2Q108.9 19.6 109.9 20.5L109.9 20.5Q111.1 21.6 111.6 22.9Q112.1 24.2 112.3 25.5Q112.4 26.8 112.4 27.6L112.4 27.6Q112.4 29.1 112.1 30.9Q111.7 32.6 110.8 34.1Q109.8 35.6 108.1 36.6L108.1 36.6Q106.8 37.2 105.4 37.4Q104.0 37.6 102.2 37.6L102.2 37.6ZM120.7 37.6L116.8 37.6L116.8 24.2Q116.8 23.5 117.7 22.5Q118.6 21.4 119.9 21.1L119.9 21.1L119.9 21.0L112.0 21.0L111.8 18.7L125.6 18.7L125.6 21.0L120.7 21.0L120.7 37.6Z " transform="matrix(1.00,0.00,0.00,1.00,0.00,-1.00)" clip-path="url(#satori_cp-id-1-0)" mask="url(#satori_om-id-1-0)"/><mask id="satori_om-id-1-0-1-0-0-1"><rect x="132" y="18" width="28" height="19" fill="#fff" mask="url(#satori_om-id-1-0)"/></mask><path fill="white" d="M132.0 22.5L138.8 18.7L141.2 18.7L141.2 37.6L137.6 37.6L137.6 21.6L132.9 24.3L132.0 22.5ZM145.6 36.9L145.6 36.9L146.3 34.8Q146.9 35.2 147.8 35.5Q148.6 35.7 149.6 35.7L149.6 35.7Q150.8 35.7 151.6 35.2Q152.4 34.7 152.9 33.8Q153.4 33.0 153.6 32.0Q153.9 31.0 153.9 30.1Q154.0 29.2 154.0 28.5L154.0 28.5L154.0 28.2Q153.6 28.7 153.0 29.3Q152.5 29.8 151.7 30.2Q150.9 30.6 149.9 30.6L149.9 30.6Q148.5 30.6 147.3 29.9Q146.1 29.2 145.3 27.9Q144.6 26.6 144.6 24.7L144.6 24.7Q144.6 23.0 145.3 21.6Q146.0 20.1 147.5 19.3Q148.9 18.4 151.0 18.4L151.0 18.4Q152.7 18.4 153.9 18.9Q155.1 19.5 155.9 20.4Q156.6 21.3 157.1 22.5Q157.5 23.6 157.7 24.9Q157.9 26.1 157.9 27.2L157.9 27.2Q157.9 29.8 157.3 31.9Q156.7 34.0 155.5 35.4L155.5 35.4Q154.7 36.4 153.7 36.9Q152.8 37.5 151.8 37.7Q150.8 37.9 150.0 37.9L150.0 37.9Q148.6 37.9 147.5 37.6Q146.4 37.3 145.6 36.9ZM148.3 24.3L148.3 24.3Q148.3 25.4 148.5 26.3Q148.8 27.2 149.4 27.8Q149.9 28.4 150.9 28.4L150.9 28.4Q151.9 28.4 152.5 27.9Q153.1 27.4 153.4 26.4Q153.7 25.5 153.7 24.2L153.7 24.2Q153.7 23.1 153.4 22.2Q153.1 21.3 152.5 20.8Q151.9 20.3 151.0 20.3L151.0 20.3Q150.0 20.3 149.4 20.8Q148.8 21.4 148.5 22.3Q148.3 23.3 148.3 24.3Z " transform="matrix(1.00,0.00,0.00,1.00,0.00,-1.00)" clip-path="url(#satori_cp-id-1-0)" mask="url(#satori_om-id-1-0)"/></svg>