<svg width="172" height="54" viewBox="0 0 172 54" xmlns="http://www.w3.org/2000/svg"><mask id="satori_om-id"><rect x="0" y="0" width="172" height="54" fill="#fff"/></mask><mask id="satori_om-id-0"><rect x="15" y="0" width="142" height="54" fill="#fff"/></mask><defs><clipPath id="satori_bc-id-0-0"><rect x="15" y="20" width="142" height="15"/></clipPath></defs><mask id="satori_om-id-0-0"><rect x="15" y="22" width="142" height="11" fill="#fff"/><path width="142" height="15" fill="none" stroke="#000" stroke-width="4" d="M15,20 A0,0 0 0 1 15,20 h142 A0,0 0 0 1 157,20"/><path width="142" height="15" fill="none" stroke="#000" stroke-width="4" d="M157,35 A0,0 0 0 1 157,35 h-142 A0,0 0 0 1 15,35"/></mask><path width="142" height="15" clip-path="url(#satori_bc-id-0-0)" fill="none" stroke="white" stroke-width="4" d="M15,20 A0,0 0 0 1 15,20 h142 A0,0 0 0 1 157,20"/><path width="142" height="15" clip-path="url(#satori_bc-id-0-0)" fill="none" stroke="white" stroke-width="4" d="M157,35 A0,0 0 0 1 157,35 h-142 A0,0 0 0 1 15,35"/><mask id="satori_om-id-1"><rect x="0" y="0" width="172" height="54" fill="#fff"/></mask><defs><clipPath id="satori_bc-id-1-0"><path x="0" y="0" width="172" height="54" d="M15,0 h142 a15,27 0 0 1 15,27 v0 a15,27 0 0 1 -15,27 h-142 a15,27 0 0 1 -15,-27 v0 a15,27 0 0 1 15,-27"/></clipPath></defs><clipPath id="satori_cp-id-1-0"><path x="0" y="0" width="172" height="54" d="M15,0 h142 a15,27 0 0 1 15,27 v0 a15,27 0 0 1 -15,27 h-142 a15,27 0 0 1 -15,-27 v0 a15,27 0 0 1 15,-27"/></clipPath><mask id="satori_om-id-1-0"><rect x="2" y="2" width="168" height="50" fill="#fff"/><path width="172" height="54" fill="none" stroke="#000" stroke-width="4" d="M1.888,13.888 A15,27 0 0 1 15,0 h142 a15,27 0 0 1 15,27 v0 a15,27 0 0 1 -15,27 h-142 a15,27 0 0 1 -15,-27 v0 A15,27 0 0 1 1.888,13.888"/></mask><path width="172" height="54" clip-path="url(#satori_bc-id-1-0)" fill="none" stroke="white" stroke-width="4" d="M1.888,13.888 A15,27 0 0 1 15,0 h142 a15,27 0 0 1 15,27 v0 a15,27 0 0 1 -15,27 h-142 a15,27 0 0 1 -15,-27 v0 A15,27 0 0 1 1.888,13.888"/><mask id="satori_om-id-1-0-0"><rect x="2" y="2" width="84" height="50" fill="#fff" mask="url(#satori_om-id-1-0)"/></mask><mask id="satori_om-id-1-0-0-0"><rect x="2" y="2" width="84" height="50" fill="#fff" mask="url(#satori_om-id-1-0)"/></mask><rect x="2" y="2" width="84" height="50" fill="#9E28B5" clip-path="url(#satori_cp-id-1-0)" mask="url(#satori_om-id-1-0)"/><mask id="satori_om-id-1-0-0-0-0"><rect x="18" y="18" width="52" height="19" fill="#fff" mask="url(#satori_om-id-1-0)"/></mask><mask id="satori_om-id-1-0-0-0-0-0"><rect x="18" y="18" width="33" height="19" fill="#fff" mask="url(#satori_om-id-1-0)"/></mask><path fill="white" d="M34.0 18.5L34.0 37.6L31.6 37.6L22.2 24.8L22.2 37.6L19.6 37.6L19.6 18.7L22.0 18.7L31.4 31.5L31.4 20.7Q31.4 20.3 31.8 19.8Q32.1 19.3 32.7 18.9Q33.3 18.5 34.0 18.5L34.0 18.5ZM48.8 37.6L37.5 37.6L37.5 24.1Q37.5 23.4 38.3 22.3Q39.2 21.3 40.5 20.9L40.5 20.9L40.5 20.8L37.1 20.8L36.9 18.7L48.7 18.7L48.7 21.0L41.3 21.0L41.3 26.7L48.2 26.7L48.2 28.9L41.3 28.9L41.3 35.2L48.8 35.2L48.8 37.6Z " transform="matrix(1.00,0.00,0.00,1.00,0.00,-1.00)" clip-path="url(#satori_cp-id-1-0)" mask="url(#satori_om-id-1-0)"/><mask id="satori_om-id-1-0-0-0-0-1"><rect x="55" y="18" width="15" height="19" fill="#fff" mask="url(#satori_om-id-1-0)"/></mask><path fill="white" d="M55.5 21.8L55.5 18.7L68.7 18.7L68.7 20.5L60.2 37.6L57.6 37.6L65.7 21.8L55.5 21.8Z " transform="matrix(1.00,0.00,0.00,1.00,0.00,-1.00)" clip-path="url(#satori_cp-id-1-0)" mask="url(#satori_om-id-1-0)"/><mask id="satori_om-id-1-0-1"><rect x="86" y="2" width="84" height="50" fill="#fff" mask="url(#satori_om-id-1-0)"/></mask><mask id="satori_om-id-1-0-1-0"><rect x="86" y="2" width="84" height="50" fill="#fff" mask="url(#satori_om-id-1-0)"/></mask><rect x="86" y="2" width="84" height="50" fill="#005DA6" clip-path="url(#satori_cp-id-1-0)" mask="url(#satori_om-id-1-0)"/><mask id="satori_om-id-1-0-1-0-0"><rect x="97" y="18" width="63" height="19" fill="#fff" mask="url(#satori_om-id-1-0)"/></mask><mask id="satori_om-id-1-0-1-0-0-0"><rect x="97" y="18" width="32" height="19" fill="#fff" mask="url(#satori_om-id-1-0)"/></mask><path fill="white" d="M104.2 20.8L104.2 20.8L103.1 20.8L103.1 35.5L104.0 35.5Q104.7 35.5 105.5 35.4Q106.2 35.4 106.9 35.0Q107.6 34.6 108.1 33.7Q108.7 32.9 109.0 31.4Q109.3 29.9 109.3 27.6L109.3 27.6Q109.3 25.6 109.0 24.3Q108.7 23.1 108.2 22.3Q107.7 21.6 107.1 21.3Q106.4 20.9 105.7 20.9Q104.9 20.8 104.2 20.8ZM103.2 37.6L99.3 37.6L99.3 24.0Q99.3 23.3 100.1 22.3Q101.0 21.2 102.3 20.9L102.3 20.9L102.3 20.8L98.8 20.8L98.7 18.7L103.8 18.7Q105.0 18.7 106.2 18.7Q107.5 18.8 108.7 19.2Q109.9 19.6 110.9 20.5L110.9 20.5Q112.1 21.6 112.6 22.9Q113.1 24.2 113.3 25.5Q113.4 26.8 113.4 27.6L113.4 27.6Q113.4 29.1 113.1 30.9Q112.7 32.6 111.8 34.1Q110.8 35.6 109.1 36.6L109.1 36.6Q107.8 37.2 106.4 37.4Q105.0 37.6 103.2 37.6L103.2 37.6ZM121.7 37.6L117.8 37.6L117.8 24.2Q117.8 23.5 118.7 22.5Q119.6 21.4 120.9 21.1L120.9 21.1L120.9 21.0L113.0 21.0L112.8 18.7L126.6 18.7L126.6 21.0L121.7 21.0L121.7 37.6Z " transform="matrix(1.00,0.00,0.00,1.00,0.00,-1.00)" clip-path="url(#satori_cp-id-1-0)" mask="url(#satori_om-id-1-0)"/><mask id="satori_om-id-1-0-1-0-0-1"><rect x="133" y="18" width="27" height="19" fill="#fff" mask="url(#satori_om-id-1-0)"/></mask><path fill="white" d="M133.0 22.5L139.8 18.7L142.2 18.7L142.2 37.6L138.6 37.6L138.6 21.6L133.9 24.3L133.0 22.5ZM148.8 34.5L148.8 34.5L158.2 34.5L158.2 37.6L144.6 37.6L144.6 35.7Q147.4 33.3 150.2 30.2L150.2 30.2Q151.9 28.4 152.8 26.8Q153.7 25.3 153.7 23.8L153.7 23.8Q153.7 22.8 153.3 22.2Q152.9 21.5 152.3 21.2Q151.8 20.9 151.2 20.8Q150.6 20.6 150.2 20.6L150.2 20.6Q148.9 20.6 147.9 20.9Q146.9 21.2 146.5 21.5L146.5 21.5L145.7 19.3Q146.5 18.9 147.7 18.7Q149.0 18.4 151.1 18.4L151.1 18.4Q153.2 18.4 154.6 19.0Q156.1 19.7 156.9 20.8Q157.6 21.9 157.6 23.3L157.6 23.3Q157.6 24.7 156.8 26.2Q156.1 27.6 154.3 29.4L154.3 29.4Q152.3 31.4 148.8 34.5Z " transform="matrix(1.00,0.00,0.00,1.00,0.00,-1.00)" clip-path="url(#satori_cp-id-1-0)" mask="url(#satori_om-id-1-0)"/></svg>