<svg width="88" height="54" viewBox="0 0 88 54" xmlns="http://www.w3.org/2000/svg"><mask id="satori_om-id"><rect x="0" y="0" width="88" height="54" fill="#fff"/></mask><mask id="satori_om-id-0"><rect x="15" y="0" width="58" height="54" fill="#fff"/></mask><defs><clipPath id="satori_bc-id-0-0"><rect x="15" y="20" width="58" height="15"/></clipPath></defs><mask id="satori_om-id-0-0"><rect x="15" y="22" width="58" height="11" fill="#fff"/><path width="58" height="15" fill="none" stroke="#000" stroke-width="4" d="M15,20 A0,0 0 0 1 15,20 h58 A0,0 0 0 1 73,20"/><path width="58" height="15" fill="none" stroke="#000" stroke-width="4" d="M73,35 A0,0 0 0 1 73,35 h-58 A0,0 0 0 1 15,35"/></mask><path width="58" height="15" clip-path="url(#satori_bc-id-0-0)" fill="none" stroke="white" stroke-width="4" d="M15,20 A0,0 0 0 1 15,20 h58 A0,0 0 0 1 73,20"/><path width="58" height="15" clip-path="url(#satori_bc-id-0-0)" fill="none" stroke="white" stroke-width="4" d="M73,35 A0,0 0 0 1 73,35 h-58 A0,0 0 0 1 15,35"/><mask id="satori_om-id-1"><rect x="0" y="0" width="88" height="54" fill="#fff"/></mask><defs><clipPath id="satori_bc-id-1-0"><path x="0" y="0" width="88" height="54" d="M15,0 h58 a15,27 0 0 1 15,27 v0 a15,27 0 0 1 -15,27 h-58 a15,27 0 0 1 -15,-27 v0 a15,27 0 0 1 15,-27"/></clipPath></defs><clipPath id="satori_cp-id-1-0"><path x="0" y="0" width="88" height="54" d="M15,0 h58 a15,27 0 0 1 15,27 v0 a15,27 0 0 1 -15,27 h-58 a15,27 0 0 1 -15,-27 v0 a15,27 0 0 1 15,-27"/></clipPath><mask id="satori_om-id-1-0"><rect x="2" y="2" width="84" height="50" fill="#fff"/><path width="88" height="54" fill="none" stroke="#000" stroke-width="4" d="M1.888,13.888 A15,27 0 0 1 15,0 h58 a15,27 0 0 1 15,27 v0 a15,27 0 0 1 -15,27 h-58 a15,27 0 0 1 -15,-27 v0 A15,27 0 0 1 1.888,13.888"/></mask><path width="88" height="54" clip-path="url(#satori_bc-id-1-0)" fill="none" stroke="white" stroke-width="4" d="M1.888,13.888 A15,27 0 0 1 15,0 h58 a15,27 0 0 1 15,27 v0 a15,27 0 0 1 -15,27 h-58 a15,27 0 0 1 -15,-27 v0 A15,27 0 0 1 1.888,13.888"/><mask id="satori_om-id-1-0-0"><rect x="2" y="2" width="84" height="50" fill="#fff" mask="url(#satori_om-id-1-0)"/></mask><mask id="satori_om-id-1-0-0-0"><rect x="2" y="2" width="84" height="50" fill="#fff" mask="url(#satori_om-id-1-0)"/></mask><rect x="2" y="2" width="84" height="50" fill="#E1251B" clip-path="url(#satori_cp-id-1-0)" mask="url(#satori_om-id-1-0)"/><mask id="satori_om-id-1-0-0-0-0"><rect x="12" y="18" width="64" height="19" fill="#fff" mask="url(#satori_om-id-1-0)"/></mask><mask id="satori_om-id-1-0-0-0-0-0"><rect x="12" y="18" width="32" height="19" fill="#fff" mask="url(#satori_om-id-1-0)"/></mask><path fill="white" d="M28.0 18.5L28.0 37.6L25.6 37.6L16.2 24.8L16.2 37.6L13.6 37.6L13.6 18.7L16.0 18.7L25.4 31.5L25.4 20.7Q25.4 20.3 25.8 19.8Q26.1 19.3 26.7 18.9Q27.3 18.5 28.0 18.5L28.0 18.5ZM41.2 19.2L41.2 19.2L40.5 21.5Q39.8 21.1 38.8 20.9Q37.9 20.6 36.9 20.6L36.9 20.6Q35.6 20.6 34.8 21.1Q34.1 21.7 34.1 22.7L34.1 22.7Q34.1 23.5 34.6 24.1Q35.1 24.7 36.5 25.7L36.5 25.7L37.7 26.5Q39.1 27.4 40.0 28.2Q41.0 29.1 41.5 30.2Q42.0 31.2 42.0 32.6L42.0 32.6Q42.0 35.1 40.4 36.5Q38.7 37.9 35.7 37.9L35.7 37.9Q34.6 37.9 33.7 37.7Q32.8 37.5 32.0 37.2Q31.3 36.9 30.7 36.7L30.7 36.7L31.6 34.2Q32.3 34.7 33.4 35.2Q34.5 35.6 35.6 35.6L35.6 35.6Q36.6 35.6 37.3 35.3Q37.9 35.0 38.2 34.5Q38.5 34.0 38.5 33.4L38.5 33.4Q38.5 32.5 37.9 31.8Q37.3 31.1 35.8 30.1L35.8 30.1L34.6 29.4Q32.6 28.1 31.6 26.7Q30.6 25.4 30.6 23.4L30.6 23.4Q30.6 21.8 31.4 20.7Q32.2 19.6 33.6 19.0Q35.0 18.4 36.8 18.4L36.8 18.4Q39.2 18.4 41.2 19.2Z " transform="matrix(1.00,0.00,0.00,1.00,0.00,-1.00)" clip-path="url(#satori_cp-id-1-0)" mask="url(#satori_om-id-1-0)"/><mask id="satori_om-id-1-0-0-0-0-1"><rect x="48" y="18" width="28" height="19" fill="#fff" mask="url(#satori_om-id-1-0)"/></mask><path fill="white" d="M48.0 22.5L54.8 18.7L57.2 18.7L57.2 37.6L53.6 37.6L53.6 21.6L48.9 24.3L48.0 22.5ZM61.5 28.2L61.5 28.2Q61.5 27.2 61.6 25.9Q61.7 24.7 62.1 23.4Q62.5 22.0 63.2 20.9Q64.0 19.8 65.2 19.1Q66.4 18.4 68.2 18.4L68.2 18.4Q69.9 18.4 71.1 19.0Q72.2 19.6 72.9 20.7Q73.6 21.7 74.0 23.0Q74.4 24.2 74.5 25.5Q74.6 26.8 74.6 27.9L74.6 27.9Q74.6 29.1 74.5 30.4Q74.3 31.8 74.0 33.1Q73.6 34.5 72.8 35.5Q72.1 36.6 70.9 37.2Q69.7 37.9 67.9 37.9L67.9 37.9Q66.2 37.9 65.0 37.2Q63.9 36.5 63.2 35.4Q62.4 34.3 62.1 33.0Q61.7 31.7 61.6 30.5Q61.5 29.2 61.5 28.2ZM65.3 28.2L65.3 28.2Q65.3 29.8 65.4 31.2Q65.4 32.7 65.7 33.7Q66.0 34.8 66.5 35.4Q67.1 36.0 68.0 36.0L68.0 36.0Q69.2 36.0 69.8 35.0Q70.4 34.1 70.6 32.3Q70.8 30.6 70.8 28.1L70.8 28.1Q70.8 23.8 70.2 22.0Q69.6 20.2 68.1 20.2L68.1 20.2Q67.1 20.2 66.6 20.9Q66.0 21.5 65.7 22.6Q65.4 23.7 65.4 25.2Q65.3 26.6 65.3 28.2Z " transform="matrix(1.00,0.00,0.00,1.00,0.00,-1.00)" clip-path="url(#satori_cp-id-1-0)" mask="url(#satori_om-id-1-0)"/></svg>