<svg width="88" height="54" viewBox="0 0 88 54" xmlns="http://www.w3.org/2000/svg"><mask id="satori_om-id"><rect x="0" y="0" width="88" height="54" fill="#fff"/></mask><mask id="satori_om-id-0"><rect x="15" y="0" width="58" height="54" fill="#fff"/></mask><defs><clipPath id="satori_bc-id-0-0"><rect x="15" y="20" width="58" height="15"/></clipPath></defs><mask id="satori_om-id-0-0"><rect x="15" y="22" width="58" height="11" fill="#fff"/><path width="58" height="15" fill="none" stroke="#000" stroke-width="4" d="M15,20 A0,0 0 0 1 15,20 h58 A0,0 0 0 1 73,20"/><path width="58" height="15" fill="none" stroke="#000" stroke-width="4" d="M73,35 A0,0 0 0 1 73,35 h-58 A0,0 0 0 1 15,35"/></mask><path width="58" height="15" clip-path="url(#satori_bc-id-0-0)" fill="none" stroke="white" stroke-width="4" d="M15,20 A0,0 0 0 1 15,20 h58 A0,0 0 0 1 73,20"/><path width="58" height="15" clip-path="url(#satori_bc-id-0-0)" fill="none" stroke="white" stroke-width="4" d="M73,35 A0,0 0 0 1 73,35 h-58 A0,0 0 0 1 15,35"/><mask id="satori_om-id-1"><rect x="0" y="0" width="88" height="54" fill="#fff"/></mask><defs><clipPath id="satori_bc-id-1-0"><path x="0" y="0" width="88" height="54" d="M15,0 h58 a15,27 0 0 1 15,27 v0 a15,27 0 0 1 -15,27 h-58 a15,27 0 0 1 -15,-27 v0 a15,27 0 0 1 15,-27"/></clipPath></defs><clipPath id="satori_cp-id-1-0"><path x="0" y="0" width="88" height="54" d="M15,0 h58 a15,27 0 0 1 15,27 v0 a15,27 0 0 1 -15,27 h-58 a15,27 0 0 1 -15,-27 v0 a15,27 0 0 1 15,-27"/></clipPath><mask id="satori_om-id-1-0"><rect x="2" y="2" width="84" height="50" fill="#fff"/><path width="88" height="54" fill="none" stroke="#000" stroke-width="4" d="M1.888,13.888 A15,27 0 0 1 15,0 h58 a15,27 0 0 1 15,27 v0 a15,27 0 0 1 -15,27 h-58 a15,27 0 0 1 -15,-27 v0 A15,27 0 0 1 1.888,13.888"/></mask><path width="88" height="54" clip-path="url(#satori_bc-id-1-0)" fill="none" stroke="white" stroke-width="4" d="M1.888,13.888 A15,27 0 0 1 15,0 h58 a15,27 0 0 1 15,27 v0 a15,27 0 0 1 -15,27 h-58 a15,27 0 0 1 -15,-27 v0 A15,27 0 0 1 1.888,13.888"/><mask id="satori_om-id-1-0-0"><rect x="2" y="2" width="84" height="50" fill="#fff" mask="url(#satori_om-id-1-0)"/></mask><mask id="satori_om-id-1-0-0-0"><rect x="2" y="2" width="84" height="50" fill="#fff" mask="url(#satori_om-id-1-0)"/></mask><rect x="2" y="2" width="84" height="50" fill="#E1251B" clip-path="url(#satori_cp-id-1-0)" mask="url(#satori_om-id-1-0)"/><mask id="satori_om-id-1-0-0-0-0"><rect x="13" y="18" width="63" height="19" fill="#fff" mask="url(#satori_om-id-1-0)"/></mask><mask id="satori_om-id-1-0-0-0-0-0"><rect x="13" y="18" width="32" height="19" fill="#fff" mask="url(#satori_om-id-1-0)"/></mask><path fill="white" d="M29.0 18.5L29.0 37.6L26.6 37.6L17.2 24.8L17.2 37.6L14.6 37.6L14.6 18.7L17.0 18.7L26.4 31.5L26.4 20.7Q26.4 20.3 26.8 19.8Q27.1 19.3 27.7 18.9Q28.3 18.5 29.0 18.5L29.0 18.5ZM42.2 19.2L42.2 19.2L41.5 21.5Q40.8 21.1 39.8 20.9Q38.9 20.6 37.9 20.6L37.9 20.6Q36.6 20.6 35.8 21.1Q35.1 21.7 35.1 22.7L35.1 22.7Q35.1 23.5 35.6 24.1Q36.1 24.7 37.5 25.7L37.5 25.7L38.7 26.5Q40.1 27.4 41.0 28.2Q42.0 29.1 42.5 30.2Q43.0 31.2 43.0 32.6L43.0 32.6Q43.0 35.1 41.4 36.5Q39.7 37.9 36.7 37.9L36.7 37.9Q35.6 37.9 34.7 37.7Q33.8 37.5 33.0 37.2Q32.3 36.9 31.7 36.7L31.7 36.7L32.6 34.2Q33.3 34.7 34.4 35.2Q35.5 35.6 36.6 35.6L36.6 35.6Q37.6 35.6 38.3 35.3Q38.9 35.0 39.2 34.5Q39.5 34.0 39.5 33.4L39.5 33.4Q39.5 32.5 38.9 31.8Q38.3 31.1 36.8 30.1L36.8 30.1L35.6 29.4Q33.6 28.1 32.6 26.7Q31.6 25.4 31.6 23.4L31.6 23.4Q31.6 21.8 32.4 20.7Q33.2 19.6 34.6 19.0Q36.0 18.4 37.8 18.4L37.8 18.4Q40.2 18.4 42.2 19.2Z " transform="matrix(1.00,0.00,0.00,1.00,0.00,-1.00)" clip-path="url(#satori_cp-id-1-0)" mask="url(#satori_om-id-1-0)"/><mask id="satori_om-id-1-0-0-0-0-1"><rect x="49" y="18" width="27" height="19" fill="#fff" mask="url(#satori_om-id-1-0)"/></mask><path fill="white" d="M49.0 22.5L55.8 18.7L58.2 18.7L58.2 37.6L54.6 37.6L54.6 21.6L49.9 24.3L49.0 22.5ZM62.4 29.2L62.4 18.7L73.0 18.7L73.0 21.7L64.6 21.7L64.6 26.5Q65.5 26.2 66.2 26.1Q67.0 26.0 67.6 26.0L67.6 26.0Q68.9 26.0 70.1 26.4Q71.3 26.7 72.2 27.5Q73.1 28.2 73.7 29.2Q74.2 30.3 74.2 31.6L74.2 31.6Q74.2 32.8 73.7 34.0Q73.3 35.1 72.3 36.0Q71.4 36.9 70.0 37.4Q68.7 37.9 66.9 37.9L66.9 37.9Q65.6 37.9 64.6 37.7Q63.7 37.5 62.9 37.2Q62.2 37.0 61.6 36.7L61.6 36.7L62.4 34.5Q63.1 34.9 64.1 35.2Q65.1 35.6 66.5 35.6L66.5 35.6Q67.5 35.6 68.4 35.2Q69.3 34.9 69.8 34.0Q70.3 33.2 70.3 31.8L70.3 31.8Q70.3 30.7 70.0 30.0Q69.6 29.3 69.0 28.9Q68.4 28.5 67.7 28.3Q67.0 28.1 66.2 28.1L66.2 28.1Q65.3 28.1 64.6 28.3Q63.8 28.5 63.3 28.7Q62.8 29.0 62.4 29.2L62.4 29.2Z " transform="matrix(1.00,0.00,0.00,1.00,0.00,-1.00)" clip-path="url(#satori_cp-id-1-0)" mask="url(#satori_om-id-1-0)"/></svg>