<svg width="172" height="54" viewBox="0 0 172 54" xmlns="http://www.w3.org/2000/svg"><mask id="satori_om-id"><rect x="0" y="0" width="172" height="54" fill="#fff"/></mask><mask id="satori_om-id-0"><rect x="15" y="0" width="142" height="54" fill="#fff"/></mask><defs><clipPath id="satori_bc-id-0-0"><rect x="15" y="20" width="142" height="15"/></clipPath></defs><mask id="satori_om-id-0-0"><rect x="15" y="22" width="142" height="11" fill="#fff"/><path width="142" height="15" fill="none" stroke="#000" stroke-width="4" d="M15,20 A0,0 0 0 1 15,20 h142 A0,0 0 0 1 157,20"/><path width="142" height="15" fill="none" stroke="#000" stroke-width="4" d="M157,35 A0,0 0 0 1 157,35 h-142 A0,0 0 0 1 15,35"/></mask><path width="142" height="15" clip-path="url(#satori_bc-id-0-0)" fill="none" stroke="white" stroke-width="4" d="M15,20 A0,0 0 0 1 15,20 h142 A0,0 0 0 1 157,20"/><path width="142" height="15" clip-path="url(#satori_bc-id-0-0)" fill="none" stroke="white" stroke-width="4" d="M157,35 A0,0 0 0 1 157,35 h-142 A0,0 0 0 1 15,35"/><mask id="satori_om-id-1"><rect x="0" y="0" width="172" height="54" fill="#fff"/></mask><defs><clipPath id="satori_bc-id-1-0"><path x="0" y="0" width="172" height="54" d="M15,0 h142 a15,27 0 0 1 15,27 v0 a15,27 0 0 1 -15,27 h-142 a15,27 0 0 1 -15,-27 v0 a15,27 0 0 1 15,-27"/></clipPath></defs><clipPath id="satori_cp-id-1-0"><path x="0" y="0" width="172" height="54" d="M15,0 h142 a15,27 0 0 1 15,27 v0 a15,27 0 0 1 -15,27 h-142 a15,27 0 0 1 -15,-27 v0 a15,27 0 0 1 15,-27"/></clipPath><mask id="satori_om-id-1-0"><rect x="2" y="2" width="168" height="50" fill="#fff"/><path width="172" height="54" fill="none" stroke="#000" stroke-width="4" d="M1.888,13.888 A15,27 0 0 1 15,0 h142 a15,27 0 0 1 15,27 v0 a15,27 0 0 1 -15,27 h-142 a15,27 0 0 1 -15,-27 v0 A15,27 0 0 1 1.888,13.888"/></mask><path width="172" height="54" clip-path="url(#satori_bc-id-1-0)" fill="none" stroke="white" stroke-width="4" d="M1.888,13.888 A15,27 0 0 1 15,0 h142 a15,27 0 0 1 15,27 v0 a15,27 0 0 1 -15,27 h-142 a15,27 0 0 1 -15,-27 v0 A15,27 0 0 1 1.888,13.888"/><mask id="satori_om-id-1-0-0"><rect x="2" y="2" width="84" height="50" fill="#fff" mask="url(#satori_om-id-1-0)"/></mask><mask id="satori_om-id-1-0-0-0"><rect x="2" y="2" width="84" height="50" fill="#fff" mask="url(#satori_om-id-1-0)"/></mask><rect x="2" y="2" width="84" height="50" fill="#E1251B" clip-path="url(#satori_cp-id-1-0)" mask="url(#satori_om-id-1-0)"/><mask id="satori_om-id-1-0-0-0-0"><rect x="13" y="18" width="62" height="19" fill="#fff" mask="url(#satori_om-id-1-0)"/></mask><mask id="satori_om-id-1-0-0-0-0-0"><rect x="13" y="18" width="32" height="19" fill="#fff" mask="url(#satori_om-id-1-0)"/></mask><path fill="white" d="M29.0 18.5L29.0 37.6L26.6 37.6L17.2 24.8L17.2 37.6L14.6 37.6L14.6 18.7L17.0 18.7L26.4 31.5L26.4 20.7Q26.4 20.3 26.8 19.8Q27.1 19.3 27.7 18.9Q28.3 18.5 29.0 18.5L29.0 18.5ZM42.2 19.2L42.2 19.2L41.5 21.5Q40.8 21.1 39.8 20.9Q38.9 20.6 37.9 20.6L37.9 20.6Q36.6 20.6 35.8 21.1Q35.1 21.7 35.1 22.7L35.1 22.7Q35.1 23.5 35.6 24.1Q36.1 24.7 37.5 25.7L37.5 25.7L38.7 26.5Q40.1 27.4 41.0 28.2Q42.0 29.1 42.5 30.2Q43.0 31.2 43.0 32.6L43.0 32.6Q43.0 35.1 41.4 36.5Q39.7 37.9 36.7 37.9L36.7 37.9Q35.6 37.9 34.7 37.7Q33.8 37.5 33.0 37.2Q32.3 36.9 31.7 36.7L31.7 36.7L32.6 34.2Q33.3 34.7 34.4 35.2Q35.5 35.6 36.6 35.6L36.6 35.6Q37.6 35.6 38.3 35.3Q38.9 35.0 39.2 34.5Q39.5 34.0 39.5 33.4L39.5 33.4Q39.5 32.5 38.9 31.8Q38.3 31.1 36.8 30.1L36.8 30.1L35.6 29.4Q33.6 28.1 32.6 26.7Q31.6 25.4 31.6 23.4L31.6 23.4Q31.6 21.8 32.4 20.7Q33.2 19.6 34.6 19.0Q36.0 18.4 37.8 18.4L37.8 18.4Q40.2 18.4 42.2 19.2Z " transform="matrix(1.00,0.00,0.00,1.00,0.00,-1.00)" clip-path="url(#satori_cp-id-1-0)" mask="url(#satori_om-id-1-0)"/><mask id="satori_om-id-1-0-0-0-0-1"><rect x="49" y="18" width="26" height="19" fill="#fff" mask="url(#satori_om-id-1-0)"/></mask><path fill="white" d="M49.0 22.5L55.8 18.7L58.2 18.7L58.2 37.6L54.6 37.6L54.6 21.6L49.9 24.3L49.0 22.5ZM60.8 21.8L60.8 18.7L74.0 18.7L74.0 20.5L65.5 37.6L62.9 37.6L71.0 21.8L60.8 21.8Z " transform="matrix(1.00,0.00,0.00,1.00,0.00,-1.00)" clip-path="url(#satori_cp-id-1-0)" mask="url(#satori_om-id-1-0)"/><mask id="satori_om-id-1-0-1"><rect x="86" y="2" width="84" height="50" fill="#fff" mask="url(#satori_om-id-1-0)"/></mask><mask id="satori_om-id-1-0-1-0"><rect x="86" y="2" width="84" height="50" fill="#fff" mask="url(#satori_om-id-1-0)"/></mask><rect x="86" y="2" width="84" height="50" fill="#FF9E18" clip-path="url(#satori_cp-id-1-0)" mask="url(#satori_om-id-1-0)"/><mask id="satori_om-id-1-0-1-0-0"><rect x="97" y="18" width="62" height="19" fill="#fff" mask="url(#satori_om-id-1-0)"/></mask><mask id="satori_om-id-1-0-1-0-0-0"><rect x="97" y="18" width="31" height="19" fill="#fff" mask="url(#satori_om-id-1-0)"/></mask><path fill="#231F20" d="M111.3 19.2L111.3 19.2L110.6 21.6Q110.0 21.3 109.1 21.0Q108.3 20.7 107.2 20.7L107.2 20.7Q105.6 20.7 104.5 21.6Q103.4 22.6 102.8 24.3Q102.3 26.0 102.3 28.1L102.3 28.1Q102.3 31.6 103.6 33.6Q104.8 35.6 107.0 35.6L107.0 35.6Q107.7 35.6 108.4 35.4Q109.1 35.2 109.7 34.9Q110.3 34.7 110.6 34.5L110.6 34.5L111.4 36.8Q110.5 37.3 109.2 37.6Q108.0 37.9 106.3 37.9L106.3 37.9Q104.1 37.9 102.5 37.1Q100.9 36.3 99.9 34.9Q99.0 33.6 98.5 31.8Q98.0 30.1 98.0 28.2L98.0 28.2Q98.0 25.4 99.0 23.2Q100.1 21.0 102.0 19.7Q104.0 18.4 106.7 18.4L106.7 18.4Q109.4 18.4 111.3 19.2ZM125.6 19.2L125.6 19.2L124.8 21.6Q124.3 21.3 123.4 21.0Q122.5 20.7 121.5 20.7L121.5 20.7Q119.8 20.7 118.7 21.6Q117.6 22.6 117.1 24.3Q116.5 26.0 116.5 28.1L116.5 28.1Q116.5 31.6 117.8 33.6Q119.1 35.6 121.2 35.6L121.2 35.6Q122.0 35.6 122.7 35.4Q123.4 35.2 123.9 34.9Q124.5 34.7 124.8 34.5L124.8 34.5L125.6 36.8Q124.7 37.3 123.5 37.6Q122.2 37.9 120.5 37.9L120.5 37.9Q118.3 37.9 116.7 37.1Q115.2 36.3 114.2 34.9Q113.2 33.6 112.7 31.8Q112.2 30.1 112.2 28.2L112.2 28.2Q112.2 25.4 113.3 23.2Q114.3 21.0 116.2 19.7Q118.2 18.4 121.0 18.4L121.0 18.4Q123.6 18.4 125.6 19.2Z " transform="matrix(1.00,0.00,0.00,1.00,0.00,-1.00)" clip-path="url(#satori_cp-id-1-0)" mask="url(#satori_om-id-1-0)"/><mask id="satori_om-id-1-0-1-0-0-1"><rect x="132" y="18" width="27" height="19" fill="#fff" mask="url(#satori_om-id-1-0)"/></mask><path fill="#231F20" d="M132.0 22.5L138.8 18.7L141.2 18.7L141.2 37.6L137.6 37.6L137.6 21.6L132.9 24.3L132.0 22.5ZM145.4 29.2L145.4 18.7L156.0 18.7L156.0 21.7L147.6 21.7L147.6 26.5Q148.5 26.2 149.2 26.1Q150.0 26.0 150.6 26.0L150.6 26.0Q151.9 26.0 153.1 26.4Q154.3 26.7 155.2 27.5Q156.1 28.2 156.7 29.2Q157.2 30.3 157.2 31.6L157.2 31.6Q157.2 32.8 156.7 34.0Q156.3 35.1 155.3 36.0Q154.4 36.9 153.0 37.4Q151.7 37.9 149.9 37.9L149.9 37.9Q148.6 37.9 147.6 37.7Q146.7 37.5 145.9 37.2Q145.2 37.0 144.6 36.7L144.6 36.7L145.4 34.5Q146.1 34.9 147.1 35.2Q148.1 35.6 149.5 35.6L149.5 35.6Q150.5 35.6 151.4 35.2Q152.3 34.9 152.8 34.0Q153.3 33.2 153.3 31.8L153.3 31.8Q153.3 30.7 153.0 30.0Q152.6 29.3 152.0 28.9Q151.4 28.5 150.7 28.3Q150.0 28.1 149.2 28.1L149.2 28.1Q148.3 28.1 147.6 28.3Q146.8 28.5 146.3 28.7Q145.8 29.0 145.4 29.2L145.4 29.2Z " transform="matrix(1.00,0.00,0.00,1.00,0.00,-1.00)" clip-path="url(#satori_cp-id-1-0)" mask="url(#satori_om-id-1-0)"/></svg>