<svg width="88" height="54" viewBox="0 0 88 54" xmlns="http://www.w3.org/2000/svg"><mask id="satori_om-id"><rect x="0" y="0" width="88" height="54" fill="#fff"/></mask><mask id="satori_om-id-0"><rect x="15" y="0" width="58" height="54" fill="#fff"/></mask><defs><clipPath id="satori_bc-id-0-0"><rect x="15" y="20" width="58" height="15"/></clipPath></defs><mask id="satori_om-id-0-0"><rect x="15" y="22" width="58" height="11" fill="#fff"/><path width="58" height="15" fill="none" stroke="#000" stroke-width="4" d="M15,20 A0,0 0 0 1 15,20 h58 A0,0 0 0 1 73,20"/><path width="58" height="15" fill="none" stroke="#000" stroke-width="4" d="M73,35 A0,0 0 0 1 73,35 h-58 A0,0 0 0 1 15,35"/></mask><path width="58" height="15" clip-path="url(#satori_bc-id-0-0)" fill="none" stroke="white" stroke-width="4" d="M15,20 A0,0 0 0 1 15,20 h58 A0,0 0 0 1 73,20"/><path width="58" height="15" clip-path="url(#satori_bc-id-0-0)" fill="none" stroke="white" stroke-width="4" d="M73,35 A0,0 0 0 1 73,35 h-58 A0,0 0 0 1 15,35"/><mask id="satori_om-id-1"><rect x="0" y="0" width="88" height="54" fill="#fff"/></mask><defs><clipPath id="satori_bc-id-1-0"><path x="0" y="0" width="88" height="54" d="M15,0 h58 a15,27 0 0 1 15,27 v0 a15,27 0 0 1 -15,27 h-58 a15,27 0 0 1 -15,-27 v0 a15,27 0 0 1 15,-27"/></clipPath></defs><clipPath id="satori_cp-id-1-0"><path x="0" y="0" width="88" height="54" d="M15,0 h58 a15,27 0 0 1 15,27 v0 a15,27 0 0 1 -15,27 h-58 a15,27 0 0 1 -15,-27 v0 a15,27 0 0 1 15,-27"/></clipPath><mask id="satori_om-id-1-0"><rect x="2" y="2" width="84" height="50" fill="#fff"/><path width="88" height="54" fill="none" stroke="#000" stroke-width="4" d="M1.888,13.888 A15,27 0 0 1 15,0 h58 a15,27 0 0 1 15,27 v0 a15,27 0 0 1 -15,27 h-58 a15,27 0 0 1 -15,-27 v0 A15,27 0 0 1 1.888,13.888"/></mask><path width="88" height="54" clip-path="url(#satori_bc-id-1-0)" fill="none" stroke="white" stroke-width="4" d="M1.888,13.888 A15,27 0 0 1 15,0 h58 a15,27 0 0 1 15,27 v0 a15,27 0 0 1 -15,27 h-58 a15,27 0 0 1 -15,-27 v0 A15,27 0 0 1 1.888,13.888"/><mask id="satori_om-id-1-0-0"><rect x="2" y="2" width="84" height="50" fill="#fff" mask="url(#satori_om-id-1-0)"/></mask><mask id="satori_om-id-1-0-0-0"><rect x="2" y="2" width="84" height="50" fill="#fff" mask="url(#satori_om-id-1-0)"/></mask><rect x="2" y="2" width="84" height="50" fill="#E1251B" clip-path="url(#satori_cp-id-1-0)" mask="url(#satori_om-id-1-0)"/><mask id="satori_om-id-1-0-0-0-0"><rect x="12" y="18" width="64" height="19" fill="#fff" mask="url(#satori_om-id-1-0)"/></mask><mask id="satori_om-id-1-0-0-0-0-0"><rect x="12" y="18" width="32" height="19" fill="#fff" mask="url(#satori_om-id-1-0)"/></mask><path fill="white" d="M28.0 18.5L28.0 37.6L25.6 37.6L16.2 24.8L16.2 37.6L13.6 37.6L13.6 18.7L16.0 18.7L25.4 31.5L25.4 20.7Q25.4 20.3 25.8 19.8Q26.1 19.3 26.7 18.9Q27.3 18.5 28.0 18.5L28.0 18.5ZM41.2 19.2L41.2 19.2L40.5 21.5Q39.8 21.1 38.8 20.9Q37.9 20.6 36.9 20.6L36.9 20.6Q35.6 20.6 34.8 21.1Q34.1 21.7 34.1 22.7L34.1 22.7Q34.1 23.5 34.6 24.1Q35.1 24.7 36.5 25.7L36.5 25.7L37.7 26.5Q39.1 27.4 40.0 28.2Q41.0 29.1 41.5 30.2Q42.0 31.2 42.0 32.6L42.0 32.6Q42.0 35.1 40.4 36.5Q38.7 37.9 35.7 37.9L35.7 37.9Q34.6 37.9 33.7 37.7Q32.8 37.5 32.0 37.2Q31.3 36.9 30.7 36.7L30.7 36.7L31.6 34.2Q32.3 34.7 33.4 35.2Q34.5 35.6 35.6 35.6L35.6 35.6Q36.6 35.6 37.3 35.3Q37.9 35.0 38.2 34.5Q38.5 34.0 38.5 33.4L38.5 33.4Q38.5 32.5 37.9 31.8Q37.3 31.1 35.8 30.1L35.8 30.1L34.6 29.4Q32.6 28.1 31.6 26.7Q30.6 25.4 30.6 23.4L30.6 23.4Q30.6 21.8 31.4 20.7Q32.2 19.6 33.6 19.0Q35.0 18.4 36.8 18.4L36.8 18.4Q39.2 18.4 41.2 19.2Z " transform="matrix(1.00,0.00,0.00,1.00,0.00,-1.00)" clip-path="url(#satori_cp-id-1-0)" mask="url(#satori_om-id-1-0)"/><mask id="satori_om-id-1-0-0-0-0-1"><rect x="48" y="18" width="28" height="19" fill="#fff" mask="url(#satori_om-id-1-0)"/></mask><path fill="white" d="M48.0 22.5L54.8 18.7L57.2 18.7L57.2 37.6L53.6 37.6L53.6 21.6L48.9 24.3L48.0 22.5ZM74.3 23.1L74.3 23.1Q74.3 24.7 73.2 26.0Q72.2 27.2 70.4 27.7L70.4 27.7Q70.8 27.8 71.3 27.9Q71.8 28.1 72.4 28.4Q73.0 28.7 73.6 29.2Q74.1 29.8 74.4 30.5Q74.8 31.3 74.8 32.5L74.8 32.5Q74.8 33.5 74.4 34.5Q74.0 35.4 73.1 36.2Q72.3 37.0 71.0 37.4Q69.7 37.9 67.9 37.9L67.9 37.9Q66.1 37.9 64.8 37.4Q63.5 37.0 62.7 36.2Q61.9 35.4 61.6 34.5Q61.2 33.6 61.2 32.7L61.2 32.7Q61.2 31.6 61.7 30.7Q62.1 29.9 62.7 29.3Q63.4 28.7 64.1 28.3Q64.9 27.9 65.6 27.7L65.6 27.7Q64.1 27.3 63.3 26.5Q62.4 25.8 62.1 24.9Q61.8 24.0 61.8 23.2L61.8 23.2Q61.8 22.3 62.1 21.5Q62.5 20.6 63.3 19.9Q64.0 19.2 65.2 18.8Q66.4 18.4 68.1 18.4L68.1 18.4Q69.8 18.4 71.0 18.8Q72.2 19.3 73.0 20.0Q73.7 20.7 74.0 21.5Q74.3 22.4 74.3 23.1ZM65.3 23.5L65.3 23.5Q65.3 25.0 66.1 25.9Q66.8 26.8 68.0 26.8L68.0 26.8Q69.2 26.8 69.9 25.9Q70.7 25.1 70.7 23.5L70.7 23.5Q70.7 22.6 70.4 21.9Q70.1 21.1 69.5 20.7Q68.9 20.3 68.0 20.3L68.0 20.3Q67.1 20.3 66.5 20.8Q65.9 21.3 65.6 22.0Q65.3 22.8 65.3 23.5ZM65.1 32.3L65.1 32.3Q65.1 33.5 65.5 34.4Q65.9 35.2 66.6 35.6Q67.2 36.1 68.1 36.1L68.1 36.1Q69.0 36.1 69.6 35.6Q70.3 35.1 70.6 34.2Q71.0 33.4 71.0 32.3L71.0 32.3Q71.0 31.1 70.5 30.3Q70.1 29.5 69.5 29.1Q68.8 28.7 68.0 28.7L68.0 28.7Q66.8 28.7 65.9 29.6Q65.1 30.6 65.1 32.3Z " transform="matrix(1.00,0.00,0.00,1.00,0.00,-1.00)" clip-path="url(#satori_cp-id-1-0)" mask="url(#satori_om-id-1-0)"/></svg>