<svg width="88" height="54" viewBox="0 0 88 54" xmlns="http://www.w3.org/2000/svg"><mask id="satori_om-id"><rect x="0" y="0" width="88" height="54" fill="#fff"/></mask><mask id="satori_om-id-0"><rect x="15" y="0" width="58" height="54" fill="#fff"/></mask><defs><clipPath id="satori_bc-id-0-0"><rect x="15" y="20" width="58" height="15"/></clipPath></defs><mask id="satori_om-id-0-0"><rect x="15" y="22" width="58" height="11" fill="#fff"/><path width="58" height="15" fill="none" stroke="#000" stroke-width="4" d="M15,20 A0,0 0 0 1 15,20 h58 A0,0 0 0 1 73,20"/><path width="58" height="15" fill="none" stroke="#000" stroke-width="4" d="M73,35 A0,0 0 0 1 73,35 h-58 A0,0 0 0 1 15,35"/></mask><path width="58" height="15" clip-path="url(#satori_bc-id-0-0)" fill="none" stroke="white" stroke-width="4" d="M15,20 A0,0 0 0 1 15,20 h58 A0,0 0 0 1 73,20"/><path width="58" height="15" clip-path="url(#satori_bc-id-0-0)" fill="none" stroke="white" stroke-width="4" d="M73,35 A0,0 0 0 1 73,35 h-58 A0,0 0 0 1 15,35"/><mask id="satori_om-id-1"><rect x="0" y="0" width="88" height="54" fill="#fff"/></mask><defs><clipPath id="satori_bc-id-1-0"><path x="0" y="0" width="88" height="54" d="M15,0 h58 a15,27 0 0 1 15,27 v0 a15,27 0 0 1 -15,27 h-58 a15,27 0 0 1 -15,-27 v0 a15,27 0 0 1 15,-27"/></clipPath></defs><clipPath id="satori_cp-id-1-0"><path x="0" y="0" width="88" height="54" d="M15,0 h58 a15,27 0 0 1 15,27 v0 a15,27 0 0 1 -15,27 h-58 a15,27 0 0 1 -15,-27 v0 a15,27 0 0 1 15,-27"/></clipPath><mask id="satori_om-id-1-0"><rect x="2" y="2" width="84" height="50" fill="#fff"/><path width="88" height="54" fill="none" stroke="#000" stroke-width="4" d="M1.888,13.888 A15,27 0 0 1 15,0 h58 a15,27 0 0 1 15,27 v0 a15,27 0 0 1 -15,27 h-58 a15,27 0 0 1 -15,-27 v0 A15,27 0 0 1 1.888,13.888"/></mask><path width="88" height="54" clip-path="url(#satori_bc-id-1-0)" fill="none" stroke="white" stroke-width="4" d="M1.888,13.888 A15,27 0 0 1 15,0 h58 a15,27 0 0 1 15,27 v0 a15,27 0 0 1 -15,27 h-58 a15,27 0 0 1 -15,-27 v0 A15,27 0 0 1 1.888,13.888"/><mask id="satori_om-id-1-0-0"><rect x="2" y="2" width="84" height="50" fill="#fff" mask="url(#satori_om-id-1-0)"/></mask><mask id="satori_om-id-1-0-0-0"><rect x="2" y="2" width="84" height="50" fill="#fff" mask="url(#satori_om-id-1-0)"/></mask><rect x="2" y="2" width="84" height="50" fill="#E1251B" clip-path="url(#satori_cp-id-1-0)" mask="url(#satori_om-id-1-0)"/><mask id="satori_om-id-1-0-0-0-0"><rect x="12" y="18" width="64" height="19" fill="#fff" mask="url(#satori_om-id-1-0)"/></mask><mask id="satori_om-id-1-0-0-0-0-0"><rect x="12" y="18" width="32" height="19" fill="#fff" mask="url(#satori_om-id-1-0)"/></mask><path fill="white" d="M28.0 18.5L28.0 37.6L25.6 37.6L16.2 24.8L16.2 37.6L13.6 37.6L13.6 18.7L16.0 18.7L25.4 31.5L25.4 20.7Q25.4 20.3 25.8 19.8Q26.1 19.3 26.7 18.9Q27.3 18.5 28.0 18.5L28.0 18.5ZM41.2 19.2L41.2 19.2L40.5 21.5Q39.8 21.1 38.8 20.9Q37.9 20.6 36.9 20.6L36.9 20.6Q35.6 20.6 34.8 21.1Q34.1 21.7 34.1 22.7L34.1 22.7Q34.1 23.5 34.6 24.1Q35.1 24.7 36.5 25.7L36.5 25.7L37.7 26.5Q39.1 27.4 40.0 28.2Q41.0 29.1 41.5 30.2Q42.0 31.2 42.0 32.6L42.0 32.6Q42.0 35.1 40.4 36.5Q38.7 37.9 35.7 37.9L35.7 37.9Q34.6 37.9 33.7 37.7Q32.8 37.5 32.0 37.2Q31.3 36.9 30.7 36.7L30.7 36.7L31.6 34.2Q32.3 34.7 33.4 35.2Q34.5 35.6 35.6 35.6L35.6 35.6Q36.6 35.6 37.3 35.3Q37.9 35.0 38.2 34.5Q38.5 34.0 38.5 33.4L38.5 33.4Q38.5 32.5 37.9 31.8Q37.3 31.1 35.8 30.1L35.8 30.1L34.6 29.4Q32.6 28.1 31.6 26.7Q30.6 25.4 30.6 23.4L30.6 23.4Q30.6 21.8 31.4 20.7Q32.2 19.6 33.6 19.0Q35.0 18.4 36.8 18.4L36.8 18.4Q39.2 18.4 41.2 19.2Z " transform="matrix(1.00,0.00,0.00,1.00,0.00,-1.00)" clip-path="url(#satori_cp-id-1-0)" mask="url(#satori_om-id-1-0)"/><mask id="satori_om-id-1-0-0-0-0-1"><rect x="48" y="18" width="28" height="19" fill="#fff" mask="url(#satori_om-id-1-0)"/></mask><path fill="white" d="M48.0 22.5L54.8 18.7L57.2 18.7L57.2 37.6L53.6 37.6L53.6 21.6L48.9 24.3L48.0 22.5ZM61.6 36.9L61.6 36.9L62.3 34.8Q62.9 35.2 63.8 35.5Q64.6 35.7 65.6 35.7L65.6 35.7Q66.8 35.7 67.6 35.2Q68.4 34.7 68.9 33.8Q69.4 33.0 69.6 32.0Q69.9 31.0 69.9 30.1Q70.0 29.2 70.0 28.5L70.0 28.5L70.0 28.2Q69.6 28.7 69.0 29.3Q68.5 29.8 67.7 30.2Q66.9 30.6 65.9 30.6L65.9 30.6Q64.5 30.6 63.3 29.9Q62.1 29.2 61.3 27.9Q60.6 26.6 60.6 24.7L60.6 24.7Q60.6 23.0 61.3 21.6Q62.0 20.1 63.5 19.3Q64.9 18.4 67.0 18.4L67.0 18.4Q68.7 18.4 69.9 18.9Q71.1 19.5 71.9 20.4Q72.6 21.3 73.1 22.5Q73.5 23.6 73.7 24.9Q73.9 26.1 73.9 27.2L73.9 27.2Q73.9 29.8 73.3 31.9Q72.7 34.0 71.5 35.4L71.5 35.4Q70.7 36.4 69.7 36.9Q68.8 37.5 67.8 37.7Q66.8 37.9 66.0 37.9L66.0 37.9Q64.6 37.9 63.5 37.6Q62.4 37.3 61.6 36.9ZM64.3 24.3L64.3 24.3Q64.3 25.4 64.5 26.3Q64.8 27.2 65.4 27.8Q65.9 28.4 66.9 28.4L66.9 28.4Q67.9 28.4 68.5 27.9Q69.1 27.4 69.4 26.4Q69.7 25.5 69.7 24.2L69.7 24.2Q69.7 23.1 69.4 22.2Q69.1 21.3 68.5 20.8Q67.9 20.3 67.0 20.3L67.0 20.3Q66.0 20.3 65.4 20.8Q64.8 21.4 64.5 22.3Q64.3 23.3 64.3 24.3Z " transform="matrix(1.00,0.00,0.00,1.00,0.00,-1.00)" clip-path="url(#satori_cp-id-1-0)" mask="url(#satori_om-id-1-0)"/></svg>