<svg width="172" height="54" viewBox="0 0 172 54" xmlns="http://www.w3.org/2000/svg"><mask id="satori_om-id"><rect x="0" y="0" width="172" height="54" fill="#fff"/></mask><mask id="satori_om-id-0"><rect x="15" y="0" width="142" height="54" fill="#fff"/></mask><defs><clipPath id="satori_bc-id-0-0"><rect x="15" y="20" width="142" height="15"/></clipPath></defs><mask id="satori_om-id-0-0"><rect x="15" y="22" width="142" height="11" fill="#fff"/><path width="142" height="15" fill="none" stroke="#000" stroke-width="4" d="M15,20 A0,0 0 0 1 15,20 h142 A0,0 0 0 1 157,20"/><path width="142" height="15" fill="none" stroke="#000" stroke-width="4" d="M157,35 A0,0 0 0 1 157,35 h-142 A0,0 0 0 1 15,35"/></mask><path width="142" height="15" clip-path="url(#satori_bc-id-0-0)" fill="none" stroke="white" stroke-width="4" d="M15,20 A0,0 0 0 1 15,20 h142 A0,0 0 0 1 157,20"/><path width="142" height="15" clip-path="url(#satori_bc-id-0-0)" fill="none" stroke="white" stroke-width="4" d="M157,35 A0,0 0 0 1 157,35 h-142 A0,0 0 0 1 15,35"/><mask id="satori_om-id-1"><rect x="0" y="0" width="172" height="54" fill="#fff"/></mask><defs><clipPath id="satori_bc-id-1-0"><path x="0" y="0" width="172" height="54" d="M15,0 h142 a15,27 0 0 1 15,27 v0 a15,27 0 0 1 -15,27 h-142 a15,27 0 0 1 -15,-27 v0 a15,27 0 0 1 15,-27"/></clipPath></defs><clipPath id="satori_cp-id-1-0"><path x="0" y="0" width="172" height="54" d="M15,0 h142 a15,27 0 0 1 15,27 v0 a15,27 0 0 1 -15,27 h-142 a15,27 0 0 1 -15,-27 v0 a15,27 0 0 1 15,-27"/></clipPath><mask id="satori_om-id-1-0"><rect x="2" y="2" width="168" height="50" fill="#fff"/><path width="172" height="54" fill="none" stroke="#000" stroke-width="4" d="M1.888,13.888 A15,27 0 0 1 15,0 h142 a15,27 0 0 1 15,27 v0 a15,27 0 0 1 -15,27 h-142 a15,27 0 0 1 -15,-27 v0 A15,27 0 0 1 1.888,13.888"/></mask><path width="172" height="54" clip-path="url(#satori_bc-id-1-0)" fill="none" stroke="white" stroke-width="4" d="M1.888,13.888 A15,27 0 0 1 15,0 h142 a15,27 0 0 1 15,27 v0 a15,27 0 0 1 -15,27 h-142 a15,27 0 0 1 -15,-27 v0 A15,27 0 0 1 1.888,13.888"/><mask id="satori_om-id-1-0-0"><rect x="2" y="2" width="84" height="50" fill="#fff" mask="url(#satori_om-id-1-0)"/></mask><mask id="satori_om-id-1-0-0-0"><rect x="2" y="2" width="84" height="50" fill="#fff" mask="url(#satori_om-id-1-0)"/></mask><rect x="2" y="2" width="84" height="50" fill="#E1251B" clip-path="url(#satori_cp-id-1-0)" mask="url(#satori_om-id-1-0)"/><mask id="satori_om-id-1-0-0-0-0"><rect x="13" y="18" width="63" height="19" fill="#fff" mask="url(#satori_om-id-1-0)"/></mask><mask id="satori_om-id-1-0-0-0-0-0"><rect x="13" y="18" width="32" height="19" fill="#fff" mask="url(#satori_om-id-1-0)"/></mask><path fill="white" d="M29.0 18.5L29.0 37.6L26.6 37.6L17.2 24.8L17.2 37.6L14.6 37.6L14.6 18.7L17.0 18.7L26.4 31.5L26.4 20.7Q26.4 20.3 26.8 19.8Q27.1 19.3 27.7 18.9Q28.3 18.5 29.0 18.5L29.0 18.5ZM42.2 19.2L42.2 19.2L41.5 21.5Q40.8 21.1 39.8 20.9Q38.9 20.6 37.9 20.6L37.9 20.6Q36.6 20.6 35.8 21.1Q35.1 21.7 35.1 22.7L35.1 22.7Q35.1 23.5 35.6 24.1Q36.1 24.7 37.5 25.7L37.5 25.7L38.7 26.5Q40.1 27.4 41.0 28.2Q42.0 29.1 42.5 30.2Q43.0 31.2 43.0 32.6L43.0 32.6Q43.0 35.1 41.4 36.5Q39.7 37.9 36.7 37.9L36.7 37.9Q35.6 37.9 34.7 37.7Q33.8 37.5 33.0 37.2Q32.3 36.9 31.7 36.7L31.7 36.7L32.6 34.2Q33.3 34.7 34.4 35.2Q35.5 35.6 36.6 35.6L36.6 35.6Q37.6 35.6 38.3 35.3Q38.9 35.0 39.2 34.5Q39.5 34.0 39.5 33.4L39.5 33.4Q39.5 32.5 38.9 31.8Q38.3 31.1 36.8 30.1L36.8 30.1L35.6 29.4Q33.6 28.1 32.6 26.7Q31.6 25.4 31.6 23.4L31.6 23.4Q31.6 21.8 32.4 20.7Q33.2 19.6 34.6 19.0Q36.0 18.4 37.8 18.4L37.8 18.4Q40.2 18.4 42.2 19.2Z " transform="matrix(1.00,0.00,0.00,1.00,0.00,-1.00)" clip-path="url(#satori_cp-id-1-0)" mask="url(#satori_om-id-1-0)"/><mask id="satori_om-id-1-0-0-0-0-1"><rect x="49" y="18" width="27" height="19" fill="#fff" mask="url(#satori_om-id-1-0)"/></mask><path fill="white" d="M53.5 34.5L53.5 34.5L62.8 34.5L62.8 37.6L49.3 37.6L49.3 35.7Q52.1 33.3 54.9 30.2L54.9 30.2Q56.6 28.4 57.5 26.8Q58.4 25.3 58.4 23.8L58.4 23.8Q58.4 22.8 58.0 22.2Q57.6 21.5 57.0 21.2Q56.4 20.9 55.9 20.8Q55.3 20.6 54.9 20.6L54.9 20.6Q53.6 20.6 52.6 20.9Q51.6 21.2 51.2 21.5L51.2 21.5L50.4 19.3Q51.2 18.9 52.4 18.7Q53.7 18.4 55.8 18.4L55.8 18.4Q57.9 18.4 59.3 19.0Q60.8 19.7 61.6 20.8Q62.3 21.9 62.3 23.3L62.3 23.3Q62.3 24.7 61.5 26.2Q60.7 27.6 59.0 29.4L59.0 29.4Q57.0 31.4 53.5 34.5ZM64.1 22.5L71.0 18.7L73.3 18.7L73.3 37.6L69.7 37.6L69.7 21.6L65.0 24.3L64.1 22.5Z " transform="matrix(1.00,0.00,0.00,1.00,0.00,-1.00)" clip-path="url(#satori_cp-id-1-0)" mask="url(#satori_om-id-1-0)"/><mask id="satori_om-id-1-0-1"><rect x="86" y="2" width="84" height="50" fill="#fff" mask="url(#satori_om-id-1-0)"/></mask><mask id="satori_om-id-1-0-1-0"><rect x="86" y="2" width="84" height="50" fill="#fff" mask="url(#satori_om-id-1-0)"/></mask><rect x="86" y="2" width="84" height="50" fill="#005DA6" clip-path="url(#satori_cp-id-1-0)" mask="url(#satori_om-id-1-0)"/><mask id="satori_om-id-1-0-1-0-0"><rect x="99" y="18" width="59" height="19" fill="#fff" mask="url(#satori_om-id-1-0)"/></mask><mask id="satori_om-id-1-0-1-0-0-0"><rect x="99" y="18" width="32" height="19" fill="#fff" mask="url(#satori_om-id-1-0)"/></mask><path fill="white" d="M106.2 20.8L106.2 20.8L105.1 20.8L105.1 35.5L106.0 35.5Q106.7 35.5 107.5 35.4Q108.2 35.4 108.9 35.0Q109.6 34.6 110.1 33.7Q110.7 32.9 111.0 31.4Q111.3 29.9 111.3 27.6L111.3 27.6Q111.3 25.6 111.0 24.3Q110.7 23.1 110.2 22.3Q109.7 21.6 109.1 21.3Q108.4 20.9 107.7 20.9Q106.9 20.8 106.2 20.8ZM105.2 37.6L101.3 37.6L101.3 24.0Q101.3 23.3 102.1 22.3Q103.0 21.2 104.3 20.9L104.3 20.9L104.3 20.8L100.8 20.8L100.7 18.7L105.8 18.7Q107.0 18.7 108.2 18.7Q109.5 18.8 110.7 19.2Q111.9 19.6 112.9 20.5L112.9 20.5Q114.1 21.6 114.6 22.9Q115.1 24.2 115.3 25.5Q115.4 26.8 115.4 27.6L115.4 27.6Q115.4 29.1 115.1 30.9Q114.7 32.6 113.8 34.1Q112.8 35.6 111.1 36.6L111.1 36.6Q109.8 37.2 108.4 37.4Q107.0 37.6 105.2 37.6L105.2 37.6ZM123.7 37.6L119.8 37.6L119.8 24.2Q119.8 23.5 120.7 22.5Q121.6 21.4 122.9 21.1L122.9 21.1L122.9 21.0L115.0 21.0L114.8 18.7L128.6 18.7L128.6 21.0L123.7 21.0L123.7 37.6Z " transform="matrix(1.00,0.00,0.00,1.00,0.00,-1.00)" clip-path="url(#satori_cp-id-1-0)" mask="url(#satori_om-id-1-0)"/><mask id="satori_om-id-1-0-1-0-0-1"><rect x="135" y="18" width="23" height="19" fill="#fff" mask="url(#satori_om-id-1-0)"/></mask><path fill="white" d="M135.0 22.5L141.8 18.7L144.2 18.7L144.2 37.6L140.6 37.6L140.6 21.6L135.9 24.3L135.0 22.5ZM146.3 22.5L153.2 18.7L155.5 18.7L155.5 37.6L151.9 37.6L151.9 21.6L147.2 24.3L146.3 22.5Z " transform="matrix(1.00,0.00,0.00,1.00,0.00,-1.00)" clip-path="url(#satori_cp-id-1-0)" mask="url(#satori_om-id-1-0)"/></svg>