<svg width="172" height="54" viewBox="0 0 172 54" xmlns="http://www.w3.org/2000/svg"><mask id="satori_om-id"><rect x="0" y="0" width="172" height="54" fill="#fff"/></mask><mask id="satori_om-id-0"><rect x="15" y="0" width="142" height="54" fill="#fff"/></mask><defs><clipPath id="satori_bc-id-0-0"><rect x="15" y="20" width="142" height="15"/></clipPath></defs><mask id="satori_om-id-0-0"><rect x="15" y="22" width="142" height="11" fill="#fff"/><path width="142" height="15" fill="none" stroke="#000" stroke-width="4" d="M15,20 A0,0 0 0 1 15,20 h142 A0,0 0 0 1 157,20"/><path width="142" height="15" fill="none" stroke="#000" stroke-width="4" d="M157,35 A0,0 0 0 1 157,35 h-142 A0,0 0 0 1 15,35"/></mask><path width="142" height="15" clip-path="url(#satori_bc-id-0-0)" fill="none" stroke="white" stroke-width="4" d="M15,20 A0,0 0 0 1 15,20 h142 A0,0 0 0 1 157,20"/><path width="142" height="15" clip-path="url(#satori_bc-id-0-0)" fill="none" stroke="white" stroke-width="4" d="M157,35 A0,0 0 0 1 157,35 h-142 A0,0 0 0 1 15,35"/><mask id="satori_om-id-1"><rect x="0" y="0" width="172" height="54" fill="#fff"/></mask><defs><clipPath id="satori_bc-id-1-0"><path x="0" y="0" width="172" height="54" d="M15,0 h142 a15,27 0 0 1 15,27 v0 a15,27 0 0 1 -15,27 h-142 a15,27 0 0 1 -15,-27 v0 a15,27 0 0 1 15,-27"/></clipPath></defs><clipPath id="satori_cp-id-1-0"><path x="0" y="0" width="172" height="54" d="M15,0 h142 a15,27 0 0 1 15,27 v0 a15,27 0 0 1 -15,27 h-142 a15,27 0 0 1 -15,-27 v0 a15,27 0 0 1 15,-27"/></clipPath><mask id="satori_om-id-1-0"><rect x="2" y="2" width="168" height="50" fill="#fff"/><path width="172" height="54" fill="none" stroke="#000" stroke-width="4" d="M1.888,13.888 A15,27 0 0 1 15,0 h142 a15,27 0 0 1 15,27 v0 a15,27 0 0 1 -15,27 h-142 a15,27 0 0 1 -15,-27 v0 A15,27 0 0 1 1.888,13.888"/></mask><path width="172" height="54" clip-path="url(#satori_bc-id-1-0)" fill="none" stroke="white" stroke-width="4" d="M1.888,13.888 A15,27 0 0 1 15,0 h142 a15,27 0 0 1 15,27 v0 a15,27 0 0 1 -15,27 h-142 a15,27 0 0 1 -15,-27 v0 A15,27 0 0 1 1.888,13.888"/><mask id="satori_om-id-1-0-0"><rect x="2" y="2" width="84" height="50" fill="#fff" mask="url(#satori_om-id-1-0)"/></mask><mask id="satori_om-id-1-0-0-0"><rect x="2" y="2" width="84" height="50" fill="#fff" mask="url(#satori_om-id-1-0)"/></mask><rect x="2" y="2" width="84" height="50" fill="#E1251B" clip-path="url(#satori_cp-id-1-0)" mask="url(#satori_om-id-1-0)"/><mask id="satori_om-id-1-0-0-0-0"><rect x="11" y="18" width="67" height="19" fill="#fff" mask="url(#satori_om-id-1-0)"/></mask><mask id="satori_om-id-1-0-0-0-0-0"><rect x="11" y="18" width="32" height="19" fill="#fff" mask="url(#satori_om-id-1-0)"/></mask><path fill="white" d="M27.0 18.5L27.0 37.6L24.6 37.6L15.2 24.8L15.2 37.6L12.6 37.6L12.6 18.7L15.0 18.7L24.4 31.5L24.4 20.7Q24.4 20.3 24.8 19.8Q25.1 19.3 25.7 18.9Q26.3 18.5 27.0 18.5L27.0 18.5ZM40.2 19.2L40.2 19.2L39.5 21.5Q38.8 21.1 37.8 20.9Q36.9 20.6 35.9 20.6L35.9 20.6Q34.6 20.6 33.8 21.1Q33.1 21.7 33.1 22.7L33.1 22.7Q33.1 23.5 33.6 24.1Q34.1 24.7 35.5 25.7L35.5 25.7L36.7 26.5Q38.1 27.4 39.0 28.2Q40.0 29.1 40.5 30.2Q41.0 31.2 41.0 32.6L41.0 32.6Q41.0 35.1 39.4 36.5Q37.7 37.9 34.7 37.9L34.7 37.9Q33.6 37.9 32.7 37.7Q31.8 37.5 31.0 37.2Q30.3 36.9 29.7 36.7L29.7 36.7L30.6 34.2Q31.3 34.7 32.4 35.2Q33.5 35.6 34.6 35.6L34.6 35.6Q35.6 35.6 36.3 35.3Q36.9 35.0 37.2 34.5Q37.5 34.0 37.5 33.4L37.5 33.4Q37.5 32.5 36.9 31.8Q36.3 31.1 34.8 30.1L34.8 30.1L33.6 29.4Q31.6 28.1 30.6 26.7Q29.6 25.4 29.6 23.4L29.6 23.4Q29.6 21.8 30.4 20.7Q31.2 19.6 32.6 19.0Q34.0 18.4 35.8 18.4L35.8 18.4Q38.2 18.4 40.2 19.2Z " transform="matrix(1.00,0.00,0.00,1.00,0.00,-1.00)" clip-path="url(#satori_cp-id-1-0)" mask="url(#satori_om-id-1-0)"/><mask id="satori_om-id-1-0-0-0-0-1"><rect x="47" y="18" width="31" height="19" fill="#fff" mask="url(#satori_om-id-1-0)"/></mask><path fill="white" d="M51.5 34.5L51.5 34.5L60.8 34.5L60.8 37.6L47.3 37.6L47.3 35.7Q50.1 33.3 52.9 30.2L52.9 30.2Q54.6 28.4 55.5 26.8Q56.4 25.3 56.4 23.8L56.4 23.8Q56.4 22.8 56.0 22.2Q55.6 21.5 55.0 21.2Q54.4 20.9 53.9 20.8Q53.3 20.6 52.9 20.6L52.9 20.6Q51.6 20.6 50.6 20.9Q49.6 21.2 49.2 21.5L49.2 21.5L48.4 19.3Q49.2 18.9 50.4 18.7Q51.7 18.4 53.8 18.4L53.8 18.4Q55.9 18.4 57.3 19.0Q58.8 19.7 59.6 20.8Q60.3 21.9 60.3 23.3L60.3 23.3Q60.3 24.7 59.5 26.2Q58.7 27.6 57.0 29.4L57.0 29.4Q55.0 31.4 51.5 34.5ZM66.6 34.5L66.6 34.5L76.0 34.5L76.0 37.6L62.4 37.6L62.4 35.7Q65.2 33.3 68.0 30.2L68.0 30.2Q69.7 28.4 70.6 26.8Q71.5 25.3 71.5 23.8L71.5 23.8Q71.5 22.8 71.1 22.2Q70.7 21.5 70.1 21.2Q69.6 20.9 69.0 20.8Q68.4 20.6 68.0 20.6L68.0 20.6Q66.7 20.6 65.7 20.9Q64.7 21.2 64.3 21.5L64.3 21.5L63.5 19.3Q64.3 18.9 65.5 18.7Q66.8 18.4 68.9 18.4L68.9 18.4Q71.0 18.4 72.4 19.0Q73.9 19.7 74.7 20.8Q75.4 21.9 75.4 23.3L75.4 23.3Q75.4 24.7 74.6 26.2Q73.9 27.6 72.1 29.4L72.1 29.4Q70.1 31.4 66.6 34.5Z " transform="matrix(1.00,0.00,0.00,1.00,0.00,-1.00)" clip-path="url(#satori_cp-id-1-0)" mask="url(#satori_om-id-1-0)"/><mask id="satori_om-id-1-0-1"><rect x="86" y="2" width="84" height="50" fill="#fff" mask="url(#satori_om-id-1-0)"/></mask><mask id="satori_om-id-1-0-1-0"><rect x="86" y="2" width="84" height="50" fill="#fff" mask="url(#satori_om-id-1-0)"/></mask><rect x="86" y="2" width="84" height="50" fill="#9D5918" clip-path="url(#satori_cp-id-1-0)" mask="url(#satori_om-id-1-0)"/><mask id="satori_om-id-1-0-1-0-0"><rect x="98" y="18" width="60" height="19" fill="#fff" mask="url(#satori_om-id-1-0)"/></mask><mask id="satori_om-id-1-0-1-0-0-0"><rect x="98" y="18" width="29" height="19" fill="#fff" mask="url(#satori_om-id-1-0)"/></mask><path fill="white" d="M107.5 37.6L103.6 37.6L103.6 24.2Q103.6 23.5 104.5 22.5Q105.4 21.4 106.7 21.1L106.7 21.1L106.7 21.0L98.8 21.0L98.6 18.7L112.4 18.7L112.4 21.0L107.5 21.0L107.5 37.6ZM126.7 37.6L115.4 37.6L115.4 24.1Q115.4 23.4 116.3 22.3Q117.1 21.3 118.5 20.9L118.5 20.9L118.5 20.8L115.0 20.8L114.8 18.7L126.6 18.7L126.6 21.0L119.2 21.0L119.2 26.7L126.1 26.7L126.1 28.9L119.2 28.9L119.2 35.2L126.7 35.2L126.7 37.6Z " transform="matrix(1.00,0.00,0.00,1.00,0.00,-1.00)" clip-path="url(#satori_cp-id-1-0)" mask="url(#satori_om-id-1-0)"/><mask id="satori_om-id-1-0-1-0-0-1"><rect x="131" y="18" width="27" height="19" fill="#fff" mask="url(#satori_om-id-1-0)"/></mask><path fill="white" d="M131.0 22.5L137.8 18.7L140.2 18.7L140.2 37.6L136.6 37.6L136.6 21.6L131.9 24.3L131.0 22.5ZM143.5 30.3L152.5 18.7L154.8 18.7L154.8 30.0L157.1 30.0L157.1 32.3L154.8 32.3L154.8 37.6L151.3 37.6L151.3 32.3L143.5 32.3L143.5 30.3ZM151.3 30.0L151.3 23.3L146.2 30.0L151.3 30.0Z " transform="matrix(1.00,0.00,0.00,1.00,0.00,-1.00)" clip-path="url(#satori_cp-id-1-0)" mask="url(#satori_om-id-1-0)"/></svg>