<svg width="88" height="54" viewBox="0 0 88 54" xmlns="http://www.w3.org/2000/svg"><mask id="satori_om-id"><rect x="0" y="0" width="88" height="54" fill="#fff"/></mask><mask id="satori_om-id-0"><rect x="15" y="0" width="58" height="54" fill="#fff"/></mask><defs><clipPath id="satori_bc-id-0-0"><rect x="15" y="20" width="58" height="15"/></clipPath></defs><mask id="satori_om-id-0-0"><rect x="15" y="22" width="58" height="11" fill="#fff"/><path width="58" height="15" fill="none" stroke="#000" stroke-width="4" d="M15,20 A0,0 0 0 1 15,20 h58 A0,0 0 0 1 73,20"/><path width="58" height="15" fill="none" stroke="#000" stroke-width="4" d="M73,35 A0,0 0 0 1 73,35 h-58 A0,0 0 0 1 15,35"/></mask><path width="58" height="15" clip-path="url(#satori_bc-id-0-0)" fill="none" stroke="white" stroke-width="4" d="M15,20 A0,0 0 0 1 15,20 h58 A0,0 0 0 1 73,20"/><path width="58" height="15" clip-path="url(#satori_bc-id-0-0)" fill="none" stroke="white" stroke-width="4" d="M73,35 A0,0 0 0 1 73,35 h-58 A0,0 0 0 1 15,35"/><mask id="satori_om-id-1"><rect x="0" y="0" width="88" height="54" fill="#fff"/></mask><defs><clipPath id="satori_bc-id-1-0"><path x="0" y="0" width="88" height="54" d="M15,0 h58 a15,27 0 0 1 15,27 v0 a15,27 0 0 1 -15,27 h-58 a15,27 0 0 1 -15,-27 v0 a15,27 0 0 1 15,-27"/></clipPath></defs><clipPath id="satori_cp-id-1-0"><path x="0" y="0" width="88" height="54" d="M15,0 h58 a15,27 0 0 1 15,27 v0 a15,27 0 0 1 -15,27 h-58 a15,27 0 0 1 -15,-27 v0 a15,27 0 0 1 15,-27"/></clipPath><mask id="satori_om-id-1-0"><rect x="2" y="2" width="84" height="50" fill="#fff"/><path width="88" height="54" fill="none" stroke="#000" stroke-width="4" d="M1.888,13.888 A15,27 0 0 1 15,0 h58 a15,27 0 0 1 15,27 v0 a15,27 0 0 1 -15,27 h-58 a15,27 0 0 1 -15,-27 v0 A15,27 0 0 1 1.888,13.888"/></mask><path width="88" height="54" clip-path="url(#satori_bc-id-1-0)" fill="none" stroke="white" stroke-width="4" d="M1.888,13.888 A15,27 0 0 1 15,0 h58 a15,27 0 0 1 15,27 v0 a15,27 0 0 1 -15,27 h-58 a15,27 0 0 1 -15,-27 v0 A15,27 0 0 1 1.888,13.888"/><mask id="satori_om-id-1-0-0"><rect x="2" y="2" width="84" height="50" fill="#fff" mask="url(#satori_om-id-1-0)"/></mask><mask id="satori_om-id-1-0-0-0"><rect x="2" y="2" width="84" height="50" fill="#fff" mask="url(#satori_om-id-1-0)"/></mask><rect x="2" y="2" width="84" height="50" fill="#718472" clip-path="url(#satori_cp-id-1-0)" mask="url(#satori_om-id-1-0)"/><mask id="satori_om-id-1-0-0-0-0"><rect x="18" y="18" width="52" height="19" fill="#fff" mask="url(#satori_om-id-1-0)"/></mask><mask id="satori_om-id-1-0-0-0-0-0"><rect x="18" y="18" width="32" height="19" fill="#fff" mask="url(#satori_om-id-1-0)"/></mask><path fill="white" d="M26.0 20.8L26.0 20.8L24.1 20.8L24.1 27.5L25.7 27.5Q26.3 27.5 27.0 27.4Q27.7 27.3 28.3 27.0Q28.9 26.6 29.3 25.9Q29.7 25.1 29.7 23.8L29.7 23.8Q29.7 22.7 29.4 22.1Q29.0 21.5 28.4 21.2Q27.9 20.9 27.2 20.9Q26.6 20.8 26.0 20.8ZM24.1 37.6L20.3 37.6L20.3 24.1Q20.3 23.3 21.1 22.3Q22.0 21.2 23.3 20.9L23.3 20.9L23.3 20.8L19.8 20.8L19.7 18.7L25.8 18.7Q27.8 18.7 29.0 18.8Q30.3 18.9 31.4 19.5L31.4 19.5Q32.2 20.0 32.7 20.7Q33.2 21.4 33.4 22.2Q33.6 23.0 33.6 23.7L33.6 23.7Q33.6 25.3 33.0 26.4Q32.3 27.6 31.3 28.2Q30.2 28.9 28.9 29.2Q27.7 29.4 26.4 29.4L26.4 29.4L24.1 29.4L24.1 37.6ZM48.2 37.6L36.9 37.6L36.9 24.1Q36.9 23.4 37.8 22.3Q38.6 21.3 40.0 20.9L40.0 20.9L40.0 20.8L36.5 20.8L36.3 18.7L48.1 18.7L48.1 21.0L40.7 21.0L40.7 26.7L47.6 26.7L47.6 28.9L40.7 28.9L40.7 35.2L48.2 35.2L48.2 37.6Z " transform="matrix(1.00,0.00,0.00,1.00,0.00,-1.00)" clip-path="url(#satori_cp-id-1-0)" mask="url(#satori_om-id-1-0)"/><mask id="satori_om-id-1-0-0-0-0-1"><rect x="54" y="18" width="16" height="19" fill="#fff" mask="url(#satori_om-id-1-0)"/></mask><path fill="white" d="M58.5 34.5L58.5 34.5L67.8 34.5L67.8 37.6L54.3 37.6L54.3 35.7Q57.1 33.3 59.9 30.2L59.9 30.2Q61.6 28.4 62.5 26.8Q63.4 25.3 63.4 23.8L63.4 23.8Q63.4 22.8 63.0 22.2Q62.6 21.5 62.0 21.2Q61.4 20.9 60.9 20.8Q60.3 20.6 59.9 20.6L59.9 20.6Q58.6 20.6 57.6 20.9Q56.6 21.2 56.2 21.5L56.2 21.5L55.4 19.3Q56.2 18.9 57.4 18.7Q58.7 18.4 60.8 18.4L60.8 18.4Q62.9 18.4 64.3 19.0Q65.8 19.7 66.6 20.8Q67.3 21.9 67.3 23.3L67.3 23.3Q67.3 24.7 66.5 26.2Q65.7 27.6 64.0 29.4L64.0 29.4Q62.0 31.4 58.5 34.5Z " transform="matrix(1.00,0.00,0.00,1.00,0.00,-1.00)" clip-path="url(#satori_cp-id-1-0)" mask="url(#satori_om-id-1-0)"/></svg>