<svg width="88" height="54" viewBox="0 0 88 54" xmlns="http://www.w3.org/2000/svg"><mask id="satori_om-id"><rect x="0" y="0" width="88" height="54" fill="#fff"/></mask><mask id="satori_om-id-0"><rect x="15" y="0" width="58" height="54" fill="#fff"/></mask><defs><clipPath id="satori_bc-id-0-0"><rect x="15" y="20" width="58" height="15"/></clipPath></defs><mask id="satori_om-id-0-0"><rect x="15" y="22" width="58" height="11" fill="#fff"/><path width="58" height="15" fill="none" stroke="#000" stroke-width="4" d="M15,20 A0,0 0 0 1 15,20 h58 A0,0 0 0 1 73,20"/><path width="58" height="15" fill="none" stroke="#000" stroke-width="4" d="M73,35 A0,0 0 0 1 73,35 h-58 A0,0 0 0 1 15,35"/></mask><path width="58" height="15" clip-path="url(#satori_bc-id-0-0)" fill="none" stroke="white" stroke-width="4" d="M15,20 A0,0 0 0 1 15,20 h58 A0,0 0 0 1 73,20"/><path width="58" height="15" clip-path="url(#satori_bc-id-0-0)" fill="none" stroke="white" stroke-width="4" d="M73,35 A0,0 0 0 1 73,35 h-58 A0,0 0 0 1 15,35"/><mask id="satori_om-id-1"><rect x="0" y="0" width="88" height="54" fill="#fff"/></mask><defs><clipPath id="satori_bc-id-1-0"><path x="0" y="0" width="88" height="54" d="M15,0 h58 a15,27 0 0 1 15,27 v0 a15,27 0 0 1 -15,27 h-58 a15,27 0 0 1 -15,-27 v0 a15,27 0 0 1 15,-27"/></clipPath></defs><clipPath id="satori_cp-id-1-0"><path x="0" y="0" width="88" height="54" d="M15,0 h58 a15,27 0 0 1 15,27 v0 a15,27 0 0 1 -15,27 h-58 a15,27 0 0 1 -15,-27 v0 a15,27 0 0 1 15,-27"/></clipPath><mask id="satori_om-id-1-0"><rect x="2" y="2" width="84" height="50" fill="#fff"/><path width="88" height="54" fill="none" stroke="#000" stroke-width="4" d="M1.888,13.888 A15,27 0 0 1 15,0 h58 a15,27 0 0 1 15,27 v0 a15,27 0 0 1 -15,27 h-58 a15,27 0 0 1 -15,-27 v0 A15,27 0 0 1 1.888,13.888"/></mask><path width="88" height="54" clip-path="url(#satori_bc-id-1-0)" fill="none" stroke="white" stroke-width="4" d="M1.888,13.888 A15,27 0 0 1 15,0 h58 a15,27 0 0 1 15,27 v0 a15,27 0 0 1 -15,27 h-58 a15,27 0 0 1 -15,-27 v0 A15,27 0 0 1 1.888,13.888"/><mask id="satori_om-id-1-0-0"><rect x="2" y="2" width="84" height="50" fill="#fff" mask="url(#satori_om-id-1-0)"/></mask><mask id="satori_om-id-1-0-0-0"><rect x="2" y="2" width="84" height="50" fill="#fff" mask="url(#satori_om-id-1-0)"/></mask><rect x="2" y="2" width="84" height="50" fill="#718472" clip-path="url(#satori_cp-id-1-0)" mask="url(#satori_om-id-1-0)"/><mask id="satori_om-id-1-0-0-0-0"><rect x="19" y="18" width="51" height="19" fill="#fff" mask="url(#satori_om-id-1-0)"/></mask><mask id="satori_om-id-1-0-0-0-0-0"><rect x="19" y="18" width="32" height="19" fill="#fff" mask="url(#satori_om-id-1-0)"/></mask><path fill="white" d="M27.0 20.8L27.0 20.8L25.1 20.8L25.1 27.5L26.7 27.5Q27.3 27.5 28.0 27.4Q28.7 27.3 29.3 27.0Q29.9 26.6 30.3 25.9Q30.7 25.1 30.7 23.8L30.7 23.8Q30.7 22.7 30.4 22.1Q30.0 21.5 29.4 21.2Q28.9 20.9 28.2 20.9Q27.6 20.8 27.0 20.8ZM25.1 37.6L21.3 37.6L21.3 24.1Q21.3 23.3 22.1 22.3Q23.0 21.2 24.3 20.9L24.3 20.9L24.3 20.8L20.8 20.8L20.7 18.7L26.8 18.7Q28.8 18.7 30.0 18.8Q31.3 18.9 32.4 19.5L32.4 19.5Q33.2 20.0 33.7 20.7Q34.2 21.4 34.4 22.2Q34.6 23.0 34.6 23.7L34.6 23.7Q34.6 25.3 34.0 26.4Q33.3 27.6 32.3 28.2Q31.2 28.9 29.9 29.2Q28.7 29.4 27.4 29.4L27.4 29.4L25.1 29.4L25.1 37.6ZM49.2 37.6L37.9 37.6L37.9 24.1Q37.9 23.4 38.8 22.3Q39.6 21.3 41.0 20.9L41.0 20.9L41.0 20.8L37.5 20.8L37.3 18.7L49.1 18.7L49.1 21.0L41.7 21.0L41.7 26.7L48.6 26.7L48.6 28.9L41.7 28.9L41.7 35.2L49.2 35.2L49.2 37.6Z " transform="matrix(1.00,0.00,0.00,1.00,0.00,-1.00)" clip-path="url(#satori_cp-id-1-0)" mask="url(#satori_om-id-1-0)"/><mask id="satori_om-id-1-0-0-0-0-1"><rect x="55" y="18" width="15" height="19" fill="#fff" mask="url(#satori_om-id-1-0)"/></mask><path fill="white" d="M68.4 32.2L68.4 32.2Q68.4 33.8 67.4 35.1Q66.5 36.4 64.9 37.1Q63.2 37.9 61.0 37.9L61.0 37.9Q59.2 37.9 57.9 37.5Q56.6 37.2 55.7 36.7L55.7 36.7L56.4 34.5Q56.9 34.8 58.1 35.2Q59.2 35.6 60.6 35.6L60.6 35.6Q62.0 35.6 62.8 35.1Q63.7 34.6 64.1 33.9Q64.5 33.1 64.5 32.1L64.5 32.1Q64.5 31.1 63.9 30.2Q63.3 29.3 62.2 28.8L62.2 28.8Q61.6 28.7 60.8 28.6Q60.0 28.5 59.2 28.5L59.2 28.5L58.3 28.5L58.3 26.7L59.0 26.7Q59.9 26.7 60.7 26.6Q61.5 26.5 62.2 26.0L62.2 26.0Q62.8 25.7 63.2 25.1Q63.6 24.4 63.6 23.5L63.6 23.5Q63.6 22.1 62.7 21.3Q61.9 20.6 60.4 20.6L60.4 20.6Q59.2 20.6 58.3 20.9Q57.4 21.2 56.9 21.5L56.9 21.5L56.1 19.4Q56.8 19.0 58.0 18.7Q59.2 18.4 61.1 18.4L61.1 18.4Q64.0 18.4 65.7 19.6Q67.3 20.7 67.3 22.8L67.3 22.8Q67.3 24.0 66.7 24.9Q66.2 25.8 65.2 26.4Q64.3 27.0 63.2 27.4L63.2 27.4Q64.7 27.6 65.9 28.2Q67.0 28.8 67.7 29.8Q68.4 30.8 68.4 32.2Z " transform="matrix(1.00,0.00,0.00,1.00,0.00,-1.00)" clip-path="url(#satori_cp-id-1-0)" mask="url(#satori_om-id-1-0)"/></svg>