<svg width="88" height="54" viewBox="0 0 88 54" xmlns="http://www.w3.org/2000/svg"><mask id="satori_om-id"><rect x="0" y="0" width="88" height="54" fill="#fff"/></mask><mask id="satori_om-id-0"><rect x="15" y="0" width="58" height="54" fill="#fff"/></mask><defs><clipPath id="satori_bc-id-0-0"><rect x="15" y="20" width="58" height="15"/></clipPath></defs><mask id="satori_om-id-0-0"><rect x="15" y="22" width="58" height="11" fill="#fff"/><path width="58" height="15" fill="none" stroke="#000" stroke-width="4" d="M15,20 A0,0 0 0 1 15,20 h58 A0,0 0 0 1 73,20"/><path width="58" height="15" fill="none" stroke="#000" stroke-width="4" d="M73,35 A0,0 0 0 1 73,35 h-58 A0,0 0 0 1 15,35"/></mask><path width="58" height="15" clip-path="url(#satori_bc-id-0-0)" fill="none" stroke="white" stroke-width="4" d="M15,20 A0,0 0 0 1 15,20 h58 A0,0 0 0 1 73,20"/><path width="58" height="15" clip-path="url(#satori_bc-id-0-0)" fill="none" stroke="white" stroke-width="4" d="M73,35 A0,0 0 0 1 73,35 h-58 A0,0 0 0 1 15,35"/><mask id="satori_om-id-1"><rect x="0" y="0" width="88" height="54" fill="#fff"/></mask><defs><clipPath id="satori_bc-id-1-0"><path x="0" y="0" width="88" height="54" d="M15,0 h58 a15,27 0 0 1 15,27 v0 a15,27 0 0 1 -15,27 h-58 a15,27 0 0 1 -15,-27 v0 a15,27 0 0 1 15,-27"/></clipPath></defs><clipPath id="satori_cp-id-1-0"><path x="0" y="0" width="88" height="54" d="M15,0 h58 a15,27 0 0 1 15,27 v0 a15,27 0 0 1 -15,27 h-58 a15,27 0 0 1 -15,-27 v0 a15,27 0 0 1 15,-27"/></clipPath><mask id="satori_om-id-1-0"><rect x="2" y="2" width="84" height="50" fill="#fff"/><path width="88" height="54" fill="none" stroke="#000" stroke-width="4" d="M1.888,13.888 A15,27 0 0 1 15,0 h58 a15,27 0 0 1 15,27 v0 a15,27 0 0 1 -15,27 h-58 a15,27 0 0 1 -15,-27 v0 A15,27 0 0 1 1.888,13.888"/></mask><path width="88" height="54" clip-path="url(#satori_bc-id-1-0)" fill="none" stroke="white" stroke-width="4" d="M1.888,13.888 A15,27 0 0 1 15,0 h58 a15,27 0 0 1 15,27 v0 a15,27 0 0 1 -15,27 h-58 a15,27 0 0 1 -15,-27 v0 A15,27 0 0 1 1.888,13.888"/><mask id="satori_om-id-1-0-0"><rect x="2" y="2" width="84" height="50" fill="#fff" mask="url(#satori_om-id-1-0)"/></mask><mask id="satori_om-id-1-0-0-0"><rect x="2" y="2" width="84" height="50" fill="#fff" mask="url(#satori_om-id-1-0)"/></mask><rect x="2" y="2" width="84" height="50" fill="#718472" clip-path="url(#satori_cp-id-1-0)" mask="url(#satori_om-id-1-0)"/><mask id="satori_om-id-1-0-0-0-0"><rect x="18" y="18" width="52" height="19" fill="#fff" mask="url(#satori_om-id-1-0)"/></mask><mask id="satori_om-id-1-0-0-0-0-0"><rect x="18" y="18" width="32" height="19" fill="#fff" mask="url(#satori_om-id-1-0)"/></mask><path fill="white" d="M26.0 20.8L26.0 20.8L24.1 20.8L24.1 27.5L25.7 27.5Q26.3 27.5 27.0 27.4Q27.7 27.3 28.3 27.0Q28.9 26.6 29.3 25.9Q29.7 25.1 29.7 23.8L29.7 23.8Q29.7 22.7 29.4 22.1Q29.0 21.5 28.4 21.2Q27.9 20.9 27.2 20.9Q26.6 20.8 26.0 20.8ZM24.1 37.6L20.3 37.6L20.3 24.1Q20.3 23.3 21.1 22.3Q22.0 21.2 23.3 20.9L23.3 20.9L23.3 20.8L19.8 20.8L19.7 18.7L25.8 18.7Q27.8 18.7 29.0 18.8Q30.3 18.9 31.4 19.5L31.4 19.5Q32.2 20.0 32.7 20.7Q33.2 21.4 33.4 22.2Q33.6 23.0 33.6 23.7L33.6 23.7Q33.6 25.3 33.0 26.4Q32.3 27.6 31.3 28.2Q30.2 28.9 28.9 29.2Q27.7 29.4 26.4 29.4L26.4 29.4L24.1 29.4L24.1 37.6ZM48.2 37.6L36.9 37.6L36.9 24.1Q36.9 23.4 37.8 22.3Q38.6 21.3 40.0 20.9L40.0 20.9L40.0 20.8L36.5 20.8L36.3 18.7L48.1 18.7L48.1 21.0L40.7 21.0L40.7 26.7L47.6 26.7L47.6 28.9L40.7 28.9L40.7 35.2L48.2 35.2L48.2 37.6Z " transform="matrix(1.00,0.00,0.00,1.00,0.00,-1.00)" clip-path="url(#satori_cp-id-1-0)" mask="url(#satori_om-id-1-0)"/><mask id="satori_om-id-1-0-0-0-0-1"><rect x="54" y="18" width="16" height="19" fill="#fff" mask="url(#satori_om-id-1-0)"/></mask><path fill="white" d="M56.1 29.2L56.1 18.7L66.7 18.7L66.7 21.7L58.3 21.7L58.3 26.5Q59.1 26.2 59.9 26.1Q60.7 26.0 61.3 26.0L61.3 26.0Q62.6 26.0 63.8 26.4Q65.0 26.7 65.9 27.5Q66.8 28.2 67.4 29.2Q67.9 30.3 67.9 31.6L67.9 31.6Q67.9 32.8 67.4 34.0Q67.0 35.1 66.0 36.0Q65.1 36.9 63.7 37.4Q62.3 37.9 60.6 37.9L60.6 37.9Q59.3 37.9 58.3 37.7Q57.3 37.5 56.6 37.2Q55.8 37.0 55.3 36.7L55.3 36.7L56.1 34.5Q56.8 34.9 57.8 35.2Q58.8 35.6 60.2 35.6L60.2 35.6Q61.2 35.6 62.1 35.2Q63.0 34.9 63.5 34.0Q64.0 33.2 64.0 31.8L64.0 31.8Q64.0 30.7 63.7 30.0Q63.3 29.3 62.7 28.9Q62.1 28.5 61.4 28.3Q60.7 28.1 59.9 28.1L59.9 28.1Q59.0 28.1 58.2 28.3Q57.5 28.5 57.0 28.7Q56.5 29.0 56.1 29.2L56.1 29.2Z " transform="matrix(1.00,0.00,0.00,1.00,0.00,-1.00)" clip-path="url(#satori_cp-id-1-0)" mask="url(#satori_om-id-1-0)"/></svg>