<svg width="88" height="54" viewBox="0 0 88 54" xmlns="http://www.w3.org/2000/svg"><mask id="satori_om-id"><rect x="0" y="0" width="88" height="54" fill="#fff"/></mask><mask id="satori_om-id-0"><rect x="15" y="0" width="58" height="54" fill="#fff"/></mask><defs><clipPath id="satori_bc-id-0-0"><rect x="15" y="20" width="58" height="15"/></clipPath></defs><mask id="satori_om-id-0-0"><rect x="15" y="22" width="58" height="11" fill="#fff"/><path width="58" height="15" fill="none" stroke="#000" stroke-width="4" d="M15,20 A0,0 0 0 1 15,20 h58 A0,0 0 0 1 73,20"/><path width="58" height="15" fill="none" stroke="#000" stroke-width="4" d="M73,35 A0,0 0 0 1 73,35 h-58 A0,0 0 0 1 15,35"/></mask><path width="58" height="15" clip-path="url(#satori_bc-id-0-0)" fill="none" stroke="white" stroke-width="4" d="M15,20 A0,0 0 0 1 15,20 h58 A0,0 0 0 1 73,20"/><path width="58" height="15" clip-path="url(#satori_bc-id-0-0)" fill="none" stroke="white" stroke-width="4" d="M73,35 A0,0 0 0 1 73,35 h-58 A0,0 0 0 1 15,35"/><mask id="satori_om-id-1"><rect x="0" y="0" width="88" height="54" fill="#fff"/></mask><defs><clipPath id="satori_bc-id-1-0"><path x="0" y="0" width="88" height="54" d="M15,0 h58 a15,27 0 0 1 15,27 v0 a15,27 0 0 1 -15,27 h-58 a15,27 0 0 1 -15,-27 v0 a15,27 0 0 1 15,-27"/></clipPath></defs><clipPath id="satori_cp-id-1-0"><path x="0" y="0" width="88" height="54" d="M15,0 h58 a15,27 0 0 1 15,27 v0 a15,27 0 0 1 -15,27 h-58 a15,27 0 0 1 -15,-27 v0 a15,27 0 0 1 15,-27"/></clipPath><mask id="satori_om-id-1-0"><rect x="2" y="2" width="84" height="50" fill="#fff"/><path width="88" height="54" fill="none" stroke="#000" stroke-width="4" d="M1.888,13.888 A15,27 0 0 1 15,0 h58 a15,27 0 0 1 15,27 v0 a15,27 0 0 1 -15,27 h-58 a15,27 0 0 1 -15,-27 v0 A15,27 0 0 1 1.888,13.888"/></mask><path width="88" height="54" clip-path="url(#satori_bc-id-1-0)" fill="none" stroke="white" stroke-width="4" d="M1.888,13.888 A15,27 0 0 1 15,0 h58 a15,27 0 0 1 15,27 v0 a15,27 0 0 1 -15,27 h-58 a15,27 0 0 1 -15,-27 v0 A15,27 0 0 1 1.888,13.888"/><mask id="satori_om-id-1-0-0"><rect x="2" y="2" width="84" height="50" fill="#fff" mask="url(#satori_om-id-1-0)"/></mask><mask id="satori_om-id-1-0-0-0"><rect x="2" y="2" width="84" height="50" fill="#fff" mask="url(#satori_om-id-1-0)"/></mask><rect x="2" y="2" width="84" height="50" fill="#718472" clip-path="url(#satori_cp-id-1-0)" mask="url(#satori_om-id-1-0)"/><mask id="satori_om-id-1-0-0-0-0"><rect x="16" y="18" width="57" height="19" fill="#fff" mask="url(#satori_om-id-1-0)"/></mask><mask id="satori_om-id-1-0-0-0-0-0"><rect x="16" y="18" width="41" height="19" fill="#fff" mask="url(#satori_om-id-1-0)"/></mask><path fill="white" d="M24.0 20.8L24.0 20.8L22.1 20.8L22.1 27.5L23.7 27.5Q24.3 27.5 25.0 27.4Q25.7 27.3 26.3 27.0Q26.9 26.6 27.3 25.9Q27.7 25.1 27.7 23.8L27.7 23.8Q27.7 22.7 27.4 22.1Q27.0 21.5 26.4 21.2Q25.9 20.9 25.2 20.9Q24.6 20.8 24.0 20.8ZM22.1 37.6L18.3 37.6L18.3 24.1Q18.3 23.3 19.1 22.3Q20.0 21.2 21.3 20.9L21.3 20.9L21.3 20.8L17.8 20.8L17.7 18.7L23.8 18.7Q25.8 18.7 27.0 18.8Q28.3 18.9 29.4 19.5L29.4 19.5Q30.2 20.0 30.7 20.7Q31.2 21.4 31.4 22.2Q31.6 23.0 31.6 23.7L31.6 23.7Q31.6 25.3 31.0 26.4Q30.3 27.6 29.3 28.2Q28.2 28.9 26.9 29.2Q25.7 29.4 24.4 29.4L24.4 29.4L22.1 29.4L22.1 37.6ZM38.1 37.8L33.9 18.7L37.8 18.7L40.4 32.3L44.1 18.7L47.0 18.7L50.4 32.2L52.7 20.7Q52.9 19.8 53.5 19.4Q54.0 18.9 54.7 18.7Q55.4 18.5 55.9 18.5L55.9 18.5L51.3 37.6L48.5 37.6L44.9 23.9L41.6 35.4Q41.3 36.3 40.8 36.8Q40.2 37.4 39.5 37.6Q38.8 37.8 38.1 37.8L38.1 37.8Z " transform="matrix(1.00,0.00,0.00,1.00,0.00,-1.00)" clip-path="url(#satori_cp-id-1-0)" mask="url(#satori_om-id-1-0)"/><mask id="satori_om-id-1-0-0-0-0-1"><rect x="61" y="18" width="12" height="19" fill="#fff" mask="url(#satori_om-id-1-0)"/></mask><path fill="white" d="M61.0 22.5L67.8 18.7L70.2 18.7L70.2 37.6L66.6 37.6L66.6 21.6L61.9 24.3L61.0 22.5Z " transform="matrix(1.00,0.00,0.00,1.00,0.00,-1.00)" clip-path="url(#satori_cp-id-1-0)" mask="url(#satori_om-id-1-0)"/></svg>