<svg width="88" height="54" viewBox="0 0 88 54" xmlns="http://www.w3.org/2000/svg"><mask id="satori_om-id"><rect x="0" y="0" width="88" height="54" fill="#fff"/></mask><mask id="satori_om-id-0"><rect x="15" y="0" width="58" height="54" fill="#fff"/></mask><defs><clipPath id="satori_bc-id-0-0"><rect x="15" y="20" width="58" height="15"/></clipPath></defs><mask id="satori_om-id-0-0"><rect x="15" y="22" width="58" height="11" fill="#fff"/><path width="58" height="15" fill="none" stroke="#000" stroke-width="4" d="M15,20 A0,0 0 0 1 15,20 h58 A0,0 0 0 1 73,20"/><path width="58" height="15" fill="none" stroke="#000" stroke-width="4" d="M73,35 A0,0 0 0 1 73,35 h-58 A0,0 0 0 1 15,35"/></mask><path width="58" height="15" clip-path="url(#satori_bc-id-0-0)" fill="none" stroke="white" stroke-width="4" d="M15,20 A0,0 0 0 1 15,20 h58 A0,0 0 0 1 73,20"/><path width="58" height="15" clip-path="url(#satori_bc-id-0-0)" fill="none" stroke="white" stroke-width="4" d="M73,35 A0,0 0 0 1 73,35 h-58 A0,0 0 0 1 15,35"/><mask id="satori_om-id-1"><rect x="0" y="0" width="88" height="54" fill="#fff"/></mask><defs><clipPath id="satori_bc-id-1-0"><path x="0" y="0" width="88" height="54" d="M15,0 h58 a15,27 0 0 1 15,27 v0 a15,27 0 0 1 -15,27 h-58 a15,27 0 0 1 -15,-27 v0 a15,27 0 0 1 15,-27"/></clipPath></defs><clipPath id="satori_cp-id-1-0"><path x="0" y="0" width="88" height="54" d="M15,0 h58 a15,27 0 0 1 15,27 v0 a15,27 0 0 1 -15,27 h-58 a15,27 0 0 1 -15,-27 v0 a15,27 0 0 1 15,-27"/></clipPath><mask id="satori_om-id-1-0"><rect x="2" y="2" width="84" height="50" fill="#fff"/><path width="88" height="54" fill="none" stroke="#000" stroke-width="4" d="M1.888,13.888 A15,27 0 0 1 15,0 h58 a15,27 0 0 1 15,27 v0 a15,27 0 0 1 -15,27 h-58 a15,27 0 0 1 -15,-27 v0 A15,27 0 0 1 1.888,13.888"/></mask><path width="88" height="54" clip-path="url(#satori_bc-id-1-0)" fill="none" stroke="white" stroke-width="4" d="M1.888,13.888 A15,27 0 0 1 15,0 h58 a15,27 0 0 1 15,27 v0 a15,27 0 0 1 -15,27 h-58 a15,27 0 0 1 -15,-27 v0 A15,27 0 0 1 1.888,13.888"/><mask id="satori_om-id-1-0-0"><rect x="2" y="2" width="84" height="50" fill="#fff" mask="url(#satori_om-id-1-0)"/></mask><mask id="satori_om-id-1-0-0-0"><rect x="2" y="2" width="84" height="50" fill="#fff" mask="url(#satori_om-id-1-0)"/></mask><rect x="2" y="2" width="84" height="50" fill="#718472" clip-path="url(#satori_cp-id-1-0)" mask="url(#satori_om-id-1-0)"/><mask id="satori_om-id-1-0-0-0-0"><rect x="14" y="18" width="60" height="19" fill="#fff" mask="url(#satori_om-id-1-0)"/></mask><mask id="satori_om-id-1-0-0-0-0-0"><rect x="14" y="18" width="41" height="19" fill="#fff" mask="url(#satori_om-id-1-0)"/></mask><path fill="white" d="M22.0 20.8L22.0 20.8L20.1 20.8L20.1 27.5L21.7 27.5Q22.3 27.5 23.0 27.4Q23.7 27.3 24.3 27.0Q24.9 26.6 25.3 25.9Q25.7 25.1 25.7 23.8L25.7 23.8Q25.7 22.7 25.4 22.1Q25.0 21.5 24.4 21.2Q23.9 20.9 23.2 20.9Q22.6 20.8 22.0 20.8ZM20.1 37.6L16.3 37.6L16.3 24.1Q16.3 23.3 17.1 22.3Q18.0 21.2 19.3 20.9L19.3 20.9L19.3 20.8L15.8 20.8L15.7 18.7L21.8 18.7Q23.8 18.7 25.0 18.8Q26.3 18.9 27.4 19.5L27.4 19.5Q28.2 20.0 28.7 20.7Q29.2 21.4 29.4 22.2Q29.6 23.0 29.6 23.7L29.6 23.7Q29.6 25.3 29.0 26.4Q28.3 27.6 27.3 28.2Q26.2 28.9 24.9 29.2Q23.7 29.4 22.4 29.4L22.4 29.4L20.1 29.4L20.1 37.6ZM36.1 37.8L31.9 18.7L35.8 18.7L38.4 32.3L42.1 18.7L45.0 18.7L48.4 32.2L50.7 20.7Q50.9 19.8 51.5 19.4Q52.0 18.9 52.7 18.7Q53.4 18.5 53.9 18.5L53.9 18.5L49.3 37.6L46.5 37.6L42.9 23.9L39.6 35.4Q39.3 36.3 38.8 36.8Q38.2 37.4 37.5 37.6Q36.8 37.8 36.1 37.8L36.1 37.8Z " transform="matrix(1.00,0.00,0.00,1.00,0.00,-1.00)" clip-path="url(#satori_cp-id-1-0)" mask="url(#satori_om-id-1-0)"/><mask id="satori_om-id-1-0-0-0-0-1"><rect x="59" y="18" width="15" height="19" fill="#fff" mask="url(#satori_om-id-1-0)"/></mask><path fill="white" d="M72.4 32.2L72.4 32.2Q72.4 33.8 71.4 35.1Q70.5 36.4 68.9 37.1Q67.2 37.9 65.0 37.9L65.0 37.9Q63.2 37.9 61.9 37.5Q60.6 37.2 59.7 36.7L59.7 36.7L60.4 34.5Q60.9 34.8 62.1 35.2Q63.2 35.6 64.6 35.6L64.6 35.6Q66.0 35.6 66.8 35.1Q67.7 34.6 68.1 33.9Q68.5 33.1 68.5 32.1L68.5 32.1Q68.5 31.1 67.9 30.2Q67.3 29.3 66.2 28.8L66.2 28.8Q65.6 28.7 64.8 28.6Q64.0 28.5 63.2 28.5L63.2 28.5L62.3 28.5L62.3 26.7L63.0 26.7Q63.9 26.7 64.7 26.6Q65.5 26.5 66.2 26.0L66.2 26.0Q66.8 25.7 67.2 25.1Q67.6 24.4 67.6 23.5L67.6 23.5Q67.6 22.1 66.7 21.3Q65.9 20.6 64.4 20.6L64.4 20.6Q63.2 20.6 62.3 20.9Q61.4 21.2 60.9 21.5L60.9 21.5L60.1 19.4Q60.8 19.0 62.0 18.7Q63.2 18.4 65.1 18.4L65.1 18.4Q68.0 18.4 69.7 19.6Q71.3 20.7 71.3 22.8L71.3 22.8Q71.3 24.0 70.7 24.9Q70.2 25.8 69.2 26.4Q68.3 27.0 67.2 27.4L67.2 27.4Q68.7 27.6 69.9 28.2Q71.0 28.8 71.7 29.8Q72.4 30.8 72.4 32.2Z " transform="matrix(1.00,0.00,0.00,1.00,0.00,-1.00)" clip-path="url(#satori_cp-id-1-0)" mask="url(#satori_om-id-1-0)"/></svg>