<svg width="88" height="54" viewBox="0 0 88 54" xmlns="http://www.w3.org/2000/svg"><mask id="satori_om-id"><rect x="0" y="0" width="88" height="54" fill="#fff"/></mask><mask id="satori_om-id-0"><rect x="15" y="0" width="58" height="54" fill="#fff"/></mask><defs><clipPath id="satori_bc-id-0-0"><rect x="15" y="20" width="58" height="15"/></clipPath></defs><mask id="satori_om-id-0-0"><rect x="15" y="22" width="58" height="11" fill="#fff"/><path width="58" height="15" fill="none" stroke="#000" stroke-width="4" d="M15,20 A0,0 0 0 1 15,20 h58 A0,0 0 0 1 73,20"/><path width="58" height="15" fill="none" stroke="#000" stroke-width="4" d="M73,35 A0,0 0 0 1 73,35 h-58 A0,0 0 0 1 15,35"/></mask><path width="58" height="15" clip-path="url(#satori_bc-id-0-0)" fill="none" stroke="white" stroke-width="4" d="M15,20 A0,0 0 0 1 15,20 h58 A0,0 0 0 1 73,20"/><path width="58" height="15" clip-path="url(#satori_bc-id-0-0)" fill="none" stroke="white" stroke-width="4" d="M73,35 A0,0 0 0 1 73,35 h-58 A0,0 0 0 1 15,35"/><mask id="satori_om-id-1"><rect x="0" y="0" width="88" height="54" fill="#fff"/></mask><defs><clipPath id="satori_bc-id-1-0"><path x="0" y="0" width="88" height="54" d="M15,0 h58 a15,27 0 0 1 15,27 v0 a15,27 0 0 1 -15,27 h-58 a15,27 0 0 1 -15,-27 v0 a15,27 0 0 1 15,-27"/></clipPath></defs><clipPath id="satori_cp-id-1-0"><path x="0" y="0" width="88" height="54" d="M15,0 h58 a15,27 0 0 1 15,27 v0 a15,27 0 0 1 -15,27 h-58 a15,27 0 0 1 -15,-27 v0 a15,27 0 0 1 15,-27"/></clipPath><mask id="satori_om-id-1-0"><rect x="2" y="2" width="84" height="50" fill="#fff"/><path width="88" height="54" fill="none" stroke="#000" stroke-width="4" d="M1.888,13.888 A15,27 0 0 1 15,0 h58 a15,27 0 0 1 15,27 v0 a15,27 0 0 1 -15,27 h-58 a15,27 0 0 1 -15,-27 v0 A15,27 0 0 1 1.888,13.888"/></mask><path width="88" height="54" clip-path="url(#satori_bc-id-1-0)" fill="none" stroke="white" stroke-width="4" d="M1.888,13.888 A15,27 0 0 1 15,0 h58 a15,27 0 0 1 15,27 v0 a15,27 0 0 1 -15,27 h-58 a15,27 0 0 1 -15,-27 v0 A15,27 0 0 1 1.888,13.888"/><mask id="satori_om-id-1-0-0"><rect x="2" y="2" width="84" height="50" fill="#fff" mask="url(#satori_om-id-1-0)"/></mask><mask id="satori_om-id-1-0-0-0"><rect x="2" y="2" width="84" height="50" fill="#fff" mask="url(#satori_om-id-1-0)"/></mask><rect x="2" y="2" width="84" height="50" fill="#718472" clip-path="url(#satori_cp-id-1-0)" mask="url(#satori_om-id-1-0)"/><mask id="satori_om-id-1-0-0-0-0"><rect x="14" y="18" width="61" height="19" fill="#fff" mask="url(#satori_om-id-1-0)"/></mask><mask id="satori_om-id-1-0-0-0-0-0"><rect x="14" y="18" width="41" height="19" fill="#fff" mask="url(#satori_om-id-1-0)"/></mask><path fill="white" d="M22.0 20.8L22.0 20.8L20.1 20.8L20.1 27.5L21.7 27.5Q22.3 27.5 23.0 27.4Q23.7 27.3 24.3 27.0Q24.9 26.6 25.3 25.9Q25.7 25.1 25.7 23.8L25.7 23.8Q25.7 22.7 25.4 22.1Q25.0 21.5 24.4 21.2Q23.9 20.9 23.2 20.9Q22.6 20.8 22.0 20.8ZM20.1 37.6L16.3 37.6L16.3 24.1Q16.3 23.3 17.1 22.3Q18.0 21.2 19.3 20.9L19.3 20.9L19.3 20.8L15.8 20.8L15.7 18.7L21.8 18.7Q23.8 18.7 25.0 18.8Q26.3 18.9 27.4 19.5L27.4 19.5Q28.2 20.0 28.7 20.7Q29.2 21.4 29.4 22.2Q29.6 23.0 29.6 23.7L29.6 23.7Q29.6 25.3 29.0 26.4Q28.3 27.6 27.3 28.2Q26.2 28.9 24.9 29.2Q23.7 29.4 22.4 29.4L22.4 29.4L20.1 29.4L20.1 37.6ZM36.1 37.8L31.9 18.7L35.8 18.7L38.4 32.3L42.1 18.7L45.0 18.7L48.4 32.2L50.7 20.7Q50.9 19.8 51.5 19.4Q52.0 18.9 52.7 18.7Q53.4 18.5 53.9 18.5L53.9 18.5L49.3 37.6L46.5 37.6L42.9 23.9L39.6 35.4Q39.3 36.3 38.8 36.8Q38.2 37.4 37.5 37.6Q36.8 37.8 36.1 37.8L36.1 37.8Z " transform="matrix(1.00,0.00,0.00,1.00,0.00,-1.00)" clip-path="url(#satori_cp-id-1-0)" mask="url(#satori_om-id-1-0)"/><mask id="satori_om-id-1-0-0-0-0-1"><rect x="59" y="18" width="16" height="19" fill="#fff" mask="url(#satori_om-id-1-0)"/></mask><path fill="white" d="M60.2 30.3L69.2 18.7L71.4 18.7L71.4 30.0L73.8 30.0L73.8 32.3L71.4 32.3L71.4 37.6L68.0 37.6L68.0 32.3L60.2 32.3L60.2 30.3ZM68.0 30.0L68.0 23.3L62.9 30.0L68.0 30.0Z " transform="matrix(1.00,0.00,0.00,1.00,0.00,-1.00)" clip-path="url(#satori_cp-id-1-0)" mask="url(#satori_om-id-1-0)"/></svg>