<svg width="88" height="54" viewBox="0 0 88 54" xmlns="http://www.w3.org/2000/svg"><mask id="satori_om-id"><rect x="0" y="0" width="88" height="54" fill="#fff"/></mask><mask id="satori_om-id-0"><rect x="15" y="0" width="58" height="54" fill="#fff"/></mask><defs><clipPath id="satori_bc-id-0-0"><rect x="15" y="20" width="58" height="15"/></clipPath></defs><mask id="satori_om-id-0-0"><rect x="15" y="22" width="58" height="11" fill="#fff"/><path width="58" height="15" fill="none" stroke="#000" stroke-width="4" d="M15,20 A0,0 0 0 1 15,20 h58 A0,0 0 0 1 73,20"/><path width="58" height="15" fill="none" stroke="#000" stroke-width="4" d="M73,35 A0,0 0 0 1 73,35 h-58 A0,0 0 0 1 15,35"/></mask><path width="58" height="15" clip-path="url(#satori_bc-id-0-0)" fill="none" stroke="white" stroke-width="4" d="M15,20 A0,0 0 0 1 15,20 h58 A0,0 0 0 1 73,20"/><path width="58" height="15" clip-path="url(#satori_bc-id-0-0)" fill="none" stroke="white" stroke-width="4" d="M73,35 A0,0 0 0 1 73,35 h-58 A0,0 0 0 1 15,35"/><mask id="satori_om-id-1"><rect x="0" y="0" width="88" height="54" fill="#fff"/></mask><defs><clipPath id="satori_bc-id-1-0"><path x="0" y="0" width="88" height="54" d="M15,0 h58 a15,27 0 0 1 15,27 v0 a15,27 0 0 1 -15,27 h-58 a15,27 0 0 1 -15,-27 v0 a15,27 0 0 1 15,-27"/></clipPath></defs><clipPath id="satori_cp-id-1-0"><path x="0" y="0" width="88" height="54" d="M15,0 h58 a15,27 0 0 1 15,27 v0 a15,27 0 0 1 -15,27 h-58 a15,27 0 0 1 -15,-27 v0 a15,27 0 0 1 15,-27"/></clipPath><mask id="satori_om-id-1-0"><rect x="2" y="2" width="84" height="50" fill="#fff"/><path width="88" height="54" fill="none" stroke="#000" stroke-width="4" d="M1.888,13.888 A15,27 0 0 1 15,0 h58 a15,27 0 0 1 15,27 v0 a15,27 0 0 1 -15,27 h-58 a15,27 0 0 1 -15,-27 v0 A15,27 0 0 1 1.888,13.888"/></mask><path width="88" height="54" clip-path="url(#satori_bc-id-1-0)" fill="none" stroke="white" stroke-width="4" d="M1.888,13.888 A15,27 0 0 1 15,0 h58 a15,27 0 0 1 15,27 v0 a15,27 0 0 1 -15,27 h-58 a15,27 0 0 1 -15,-27 v0 A15,27 0 0 1 1.888,13.888"/><mask id="satori_om-id-1-0-0"><rect x="2" y="2" width="84" height="50" fill="#fff" mask="url(#satori_om-id-1-0)"/></mask><mask id="satori_om-id-1-0-0-0"><rect x="2" y="2" width="84" height="50" fill="#fff" mask="url(#satori_om-id-1-0)"/></mask><rect x="2" y="2" width="84" height="50" fill="#718472" clip-path="url(#satori_cp-id-1-0)" mask="url(#satori_om-id-1-0)"/><mask id="satori_om-id-1-0-0-0-0"><rect x="13" y="18" width="62" height="19" fill="#fff" mask="url(#satori_om-id-1-0)"/></mask><mask id="satori_om-id-1-0-0-0-0-0"><rect x="13" y="18" width="41" height="19" fill="#fff" mask="url(#satori_om-id-1-0)"/></mask><path fill="white" d="M21.0 20.8L21.0 20.8L19.1 20.8L19.1 27.5L20.7 27.5Q21.3 27.5 22.0 27.4Q22.7 27.3 23.3 27.0Q23.9 26.6 24.3 25.9Q24.7 25.1 24.7 23.8L24.7 23.8Q24.7 22.7 24.4 22.1Q24.0 21.5 23.4 21.2Q22.9 20.9 22.2 20.9Q21.6 20.8 21.0 20.8ZM19.1 37.6L15.3 37.6L15.3 24.1Q15.3 23.3 16.1 22.3Q17.0 21.2 18.3 20.9L18.3 20.9L18.3 20.8L14.8 20.8L14.7 18.7L20.8 18.7Q22.8 18.7 24.0 18.8Q25.3 18.9 26.4 19.5L26.4 19.5Q27.2 20.0 27.7 20.7Q28.2 21.4 28.4 22.2Q28.6 23.0 28.6 23.7L28.6 23.7Q28.6 25.3 28.0 26.4Q27.3 27.6 26.3 28.2Q25.2 28.9 23.9 29.2Q22.7 29.4 21.4 29.4L21.4 29.4L19.1 29.4L19.1 37.6ZM35.1 37.8L30.9 18.7L34.8 18.7L37.4 32.3L41.1 18.7L44.0 18.7L47.4 32.2L49.7 20.7Q49.9 19.8 50.5 19.4Q51.0 18.9 51.7 18.7Q52.4 18.5 52.9 18.5L52.9 18.5L48.3 37.6L45.5 37.6L41.9 23.9L38.6 35.4Q38.3 36.3 37.8 36.8Q37.2 37.4 36.5 37.6Q35.8 37.8 35.1 37.8L35.1 37.8Z " transform="matrix(1.00,0.00,0.00,1.00,0.00,-1.00)" clip-path="url(#satori_cp-id-1-0)" mask="url(#satori_om-id-1-0)"/><mask id="satori_om-id-1-0-0-0-0-1"><rect x="58" y="18" width="17" height="19" fill="#fff" mask="url(#satori_om-id-1-0)"/></mask><path fill="white" d="M72.3 19.3L72.3 19.3L71.6 21.5Q71.1 21.2 70.2 20.9Q69.4 20.6 68.3 20.6L68.3 20.6Q66.8 20.6 65.9 21.4Q64.9 22.3 64.4 23.9Q63.9 25.4 63.9 27.5L63.9 27.5Q63.9 27.8 63.9 28.1L63.9 28.1Q64.4 27.1 65.2 26.6Q65.9 26.1 66.7 25.9Q67.4 25.7 68.0 25.7L68.0 25.7Q69.4 25.7 70.6 26.4Q71.8 27.0 72.5 28.3Q73.3 29.6 73.3 31.5L73.3 31.5Q73.3 33.3 72.5 34.8Q71.8 36.2 70.3 37.1Q68.9 37.9 66.9 37.9L66.9 37.9Q65.3 37.9 64.1 37.3Q62.9 36.7 62.1 35.8Q61.3 34.8 60.9 33.6Q60.4 32.4 60.2 31.0Q60.0 29.7 60.0 28.5L60.0 28.5Q60.0 25.2 61.1 22.9Q62.2 20.7 64.0 19.5Q65.8 18.4 68.1 18.4L68.1 18.4Q69.1 18.4 69.9 18.6Q70.8 18.7 71.4 18.9Q72.0 19.2 72.3 19.3ZM64.2 32.0L64.2 32.0Q64.2 32.6 64.3 33.3Q64.4 34.0 64.7 34.6Q65.0 35.2 65.5 35.6Q66.1 36.0 66.9 36.0L66.9 36.0Q67.8 36.0 68.3 35.6Q68.8 35.1 69.1 34.5Q69.4 33.9 69.5 33.1Q69.6 32.4 69.6 31.8L69.6 31.8Q69.6 30.3 69.2 29.5Q68.8 28.6 68.2 28.3Q67.6 27.9 66.9 27.9L66.9 27.9Q65.5 27.9 64.9 29.0Q64.2 30.1 64.2 32.0Z " transform="matrix(1.00,0.00,0.00,1.00,0.00,-1.00)" clip-path="url(#satori_cp-id-1-0)" mask="url(#satori_om-id-1-0)"/></svg>