<svg width="88" height="54" viewBox="0 0 88 54" xmlns="http://www.w3.org/2000/svg"><mask id="satori_om-id"><rect x="0" y="0" width="88" height="54" fill="#fff"/></mask><mask id="satori_om-id-0"><rect x="15" y="0" width="58" height="54" fill="#fff"/></mask><defs><clipPath id="satori_bc-id-0-0"><rect x="15" y="20" width="58" height="15"/></clipPath></defs><mask id="satori_om-id-0-0"><rect x="15" y="22" width="58" height="11" fill="#fff"/><path width="58" height="15" fill="none" stroke="#000" stroke-width="4" d="M15,20 A0,0 0 0 1 15,20 h58 A0,0 0 0 1 73,20"/><path width="58" height="15" fill="none" stroke="#000" stroke-width="4" d="M73,35 A0,0 0 0 1 73,35 h-58 A0,0 0 0 1 15,35"/></mask><path width="58" height="15" clip-path="url(#satori_bc-id-0-0)" fill="none" stroke="white" stroke-width="4" d="M15,20 A0,0 0 0 1 15,20 h58 A0,0 0 0 1 73,20"/><path width="58" height="15" clip-path="url(#satori_bc-id-0-0)" fill="none" stroke="white" stroke-width="4" d="M73,35 A0,0 0 0 1 73,35 h-58 A0,0 0 0 1 15,35"/><mask id="satori_om-id-1"><rect x="0" y="0" width="88" height="54" fill="#fff"/></mask><defs><clipPath id="satori_bc-id-1-0"><path x="0" y="0" width="88" height="54" d="M15,0 h58 a15,27 0 0 1 15,27 v0 a15,27 0 0 1 -15,27 h-58 a15,27 0 0 1 -15,-27 v0 a15,27 0 0 1 15,-27"/></clipPath></defs><clipPath id="satori_cp-id-1-0"><path x="0" y="0" width="88" height="54" d="M15,0 h58 a15,27 0 0 1 15,27 v0 a15,27 0 0 1 -15,27 h-58 a15,27 0 0 1 -15,-27 v0 a15,27 0 0 1 15,-27"/></clipPath><mask id="satori_om-id-1-0"><rect x="2" y="2" width="84" height="50" fill="#fff"/><path width="88" height="54" fill="none" stroke="#000" stroke-width="4" d="M1.888,13.888 A15,27 0 0 1 15,0 h58 a15,27 0 0 1 15,27 v0 a15,27 0 0 1 -15,27 h-58 a15,27 0 0 1 -15,-27 v0 A15,27 0 0 1 1.888,13.888"/></mask><path width="88" height="54" clip-path="url(#satori_bc-id-1-0)" fill="none" stroke="white" stroke-width="4" d="M1.888,13.888 A15,27 0 0 1 15,0 h58 a15,27 0 0 1 15,27 v0 a15,27 0 0 1 -15,27 h-58 a15,27 0 0 1 -15,-27 v0 A15,27 0 0 1 1.888,13.888"/><mask id="satori_om-id-1-0-0"><rect x="2" y="2" width="84" height="50" fill="#fff" mask="url(#satori_om-id-1-0)"/></mask><mask id="satori_om-id-1-0-0-0"><rect x="2" y="2" width="84" height="50" fill="#fff" mask="url(#satori_om-id-1-0)"/></mask><rect x="2" y="2" width="84" height="50" fill="#718472" clip-path="url(#satori_cp-id-1-0)" mask="url(#satori_om-id-1-0)"/><mask id="satori_om-id-1-0-0-0-0"><rect x="22" y="18" width="45" height="19" fill="#fff" mask="url(#satori_om-id-1-0)"/></mask><mask id="satori_om-id-1-0-0-0-0-0"><rect x="22" y="18" width="29" height="19" fill="#fff" mask="url(#satori_om-id-1-0)"/></mask><path fill="white" d="M33.8 19.2L33.8 19.2L33.1 21.5Q32.4 21.1 31.5 20.9Q30.5 20.6 29.6 20.6L29.6 20.6Q28.2 20.6 27.4 21.1Q26.7 21.7 26.7 22.7L26.7 22.7Q26.7 23.5 27.2 24.1Q27.8 24.7 29.2 25.7L29.2 25.7L30.4 26.5Q31.7 27.4 32.7 28.2Q33.6 29.1 34.1 30.2Q34.6 31.2 34.6 32.6L34.6 32.6Q34.6 35.1 33.0 36.5Q31.4 37.9 28.3 37.9L28.3 37.9Q27.2 37.9 26.3 37.7Q25.4 37.5 24.6 37.2Q23.9 36.9 23.4 36.7L23.4 36.7L24.2 34.2Q24.9 34.7 26.0 35.2Q27.1 35.6 28.3 35.6L28.3 35.6Q29.3 35.6 29.9 35.3Q30.5 35.0 30.8 34.5Q31.1 34.0 31.1 33.4L31.1 33.4Q31.1 32.5 30.5 31.8Q29.9 31.1 28.4 30.1L28.4 30.1L27.2 29.4Q25.2 28.1 24.2 26.7Q23.2 25.4 23.2 23.4L23.2 23.4Q23.2 21.8 24.0 20.7Q24.8 19.6 26.2 19.0Q27.6 18.4 29.4 18.4L29.4 18.4Q31.9 18.4 33.8 19.2ZM49.5 37.6L38.2 37.6L38.2 24.1Q38.2 23.4 39.1 22.3Q40.0 21.3 41.3 20.9L41.3 20.9L41.3 20.8L37.8 20.8L37.6 18.7L49.4 18.7L49.4 21.0L42.1 21.0L42.1 26.7L48.9 26.7L48.9 28.9L42.1 28.9L42.1 35.2L49.5 35.2L49.5 37.6Z " transform="matrix(1.00,0.00,0.00,1.00,0.00,-1.00)" clip-path="url(#satori_cp-id-1-0)" mask="url(#satori_om-id-1-0)"/><mask id="satori_om-id-1-0-0-0-0-1"><rect x="55" y="18" width="12" height="19" fill="#fff" mask="url(#satori_om-id-1-0)"/></mask><path fill="white" d="M55.0 22.5L61.8 18.7L64.2 18.7L64.2 37.6L60.6 37.6L60.6 21.6L55.9 24.3L55.0 22.5Z " transform="matrix(1.00,0.00,0.00,1.00,0.00,-1.00)" clip-path="url(#satori_cp-id-1-0)" mask="url(#satori_om-id-1-0)"/></svg>