<svg width="88" height="54" viewBox="0 0 88 54" xmlns="http://www.w3.org/2000/svg"><mask id="satori_om-id"><rect x="0" y="0" width="88" height="54" fill="#fff"/></mask><mask id="satori_om-id-0"><rect x="15" y="0" width="58" height="54" fill="#fff"/></mask><defs><clipPath id="satori_bc-id-0-0"><rect x="15" y="20" width="58" height="15"/></clipPath></defs><mask id="satori_om-id-0-0"><rect x="15" y="22" width="58" height="11" fill="#fff"/><path width="58" height="15" fill="none" stroke="#000" stroke-width="4" d="M15,20 A0,0 0 0 1 15,20 h58 A0,0 0 0 1 73,20"/><path width="58" height="15" fill="none" stroke="#000" stroke-width="4" d="M73,35 A0,0 0 0 1 73,35 h-58 A0,0 0 0 1 15,35"/></mask><path width="58" height="15" clip-path="url(#satori_bc-id-0-0)" fill="none" stroke="white" stroke-width="4" d="M15,20 A0,0 0 0 1 15,20 h58 A0,0 0 0 1 73,20"/><path width="58" height="15" clip-path="url(#satori_bc-id-0-0)" fill="none" stroke="white" stroke-width="4" d="M73,35 A0,0 0 0 1 73,35 h-58 A0,0 0 0 1 15,35"/><mask id="satori_om-id-1"><rect x="0" y="0" width="88" height="54" fill="#fff"/></mask><defs><clipPath id="satori_bc-id-1-0"><path x="0" y="0" width="88" height="54" d="M15,0 h58 a15,27 0 0 1 15,27 v0 a15,27 0 0 1 -15,27 h-58 a15,27 0 0 1 -15,-27 v0 a15,27 0 0 1 15,-27"/></clipPath></defs><clipPath id="satori_cp-id-1-0"><path x="0" y="0" width="88" height="54" d="M15,0 h58 a15,27 0 0 1 15,27 v0 a15,27 0 0 1 -15,27 h-58 a15,27 0 0 1 -15,-27 v0 a15,27 0 0 1 15,-27"/></clipPath><mask id="satori_om-id-1-0"><rect x="2" y="2" width="84" height="50" fill="#fff"/><path width="88" height="54" fill="none" stroke="#000" stroke-width="4" d="M1.888,13.888 A15,27 0 0 1 15,0 h58 a15,27 0 0 1 15,27 v0 a15,27 0 0 1 -15,27 h-58 a15,27 0 0 1 -15,-27 v0 A15,27 0 0 1 1.888,13.888"/></mask><path width="88" height="54" clip-path="url(#satori_bc-id-1-0)" fill="none" stroke="white" stroke-width="4" d="M1.888,13.888 A15,27 0 0 1 15,0 h58 a15,27 0 0 1 15,27 v0 a15,27 0 0 1 -15,27 h-58 a15,27 0 0 1 -15,-27 v0 A15,27 0 0 1 1.888,13.888"/><mask id="satori_om-id-1-0-0"><rect x="2" y="2" width="84" height="50" fill="#fff" mask="url(#satori_om-id-1-0)"/></mask><mask id="satori_om-id-1-0-0-0"><rect x="2" y="2" width="84" height="50" fill="#fff" mask="url(#satori_om-id-1-0)"/></mask><rect x="2" y="2" width="84" height="50" fill="#718472" clip-path="url(#satori_cp-id-1-0)" mask="url(#satori_om-id-1-0)"/><mask id="satori_om-id-1-0-0-0-0"><rect x="20" y="18" width="49" height="19" fill="#fff" mask="url(#satori_om-id-1-0)"/></mask><mask id="satori_om-id-1-0-0-0-0-0"><rect x="20" y="18" width="29" height="19" fill="#fff" mask="url(#satori_om-id-1-0)"/></mask><path fill="white" d="M31.8 19.2L31.8 19.2L31.1 21.5Q30.4 21.1 29.5 20.9Q28.5 20.6 27.6 20.6L27.6 20.6Q26.2 20.6 25.4 21.1Q24.7 21.7 24.7 22.7L24.7 22.7Q24.7 23.5 25.2 24.1Q25.8 24.7 27.2 25.7L27.2 25.7L28.4 26.5Q29.7 27.4 30.7 28.2Q31.6 29.1 32.1 30.2Q32.6 31.2 32.6 32.6L32.6 32.6Q32.6 35.1 31.0 36.5Q29.4 37.9 26.3 37.9L26.3 37.9Q25.2 37.9 24.3 37.7Q23.4 37.5 22.6 37.2Q21.9 36.9 21.4 36.7L21.4 36.7L22.2 34.2Q22.9 34.7 24.0 35.2Q25.1 35.6 26.3 35.6L26.3 35.6Q27.3 35.6 27.9 35.3Q28.5 35.0 28.8 34.5Q29.1 34.0 29.1 33.4L29.1 33.4Q29.1 32.5 28.5 31.8Q27.9 31.1 26.4 30.1L26.4 30.1L25.2 29.4Q23.2 28.1 22.2 26.7Q21.2 25.4 21.2 23.4L21.2 23.4Q21.2 21.8 22.0 20.7Q22.8 19.6 24.2 19.0Q25.6 18.4 27.4 18.4L27.4 18.4Q29.9 18.4 31.8 19.2ZM47.5 37.6L36.2 37.6L36.2 24.1Q36.2 23.4 37.1 22.3Q38.0 21.3 39.3 20.9L39.3 20.9L39.3 20.8L35.8 20.8L35.6 18.7L47.4 18.7L47.4 21.0L40.1 21.0L40.1 26.7L46.9 26.7L46.9 28.9L40.1 28.9L40.1 35.2L47.5 35.2L47.5 37.6Z " transform="matrix(1.00,0.00,0.00,1.00,0.00,-1.00)" clip-path="url(#satori_cp-id-1-0)" mask="url(#satori_om-id-1-0)"/><mask id="satori_om-id-1-0-0-0-0-1"><rect x="53" y="18" width="16" height="19" fill="#fff" mask="url(#satori_om-id-1-0)"/></mask><path fill="white" d="M55.1 29.2L55.1 18.7L65.7 18.7L65.7 21.7L57.3 21.7L57.3 26.5Q58.1 26.2 58.9 26.1Q59.7 26.0 60.3 26.0L60.3 26.0Q61.6 26.0 62.8 26.4Q64.0 26.7 64.9 27.5Q65.8 28.2 66.4 29.2Q66.9 30.3 66.9 31.6L66.9 31.6Q66.9 32.8 66.4 34.0Q66.0 35.1 65.0 36.0Q64.1 36.9 62.7 37.4Q61.3 37.9 59.6 37.9L59.6 37.9Q58.3 37.9 57.3 37.7Q56.3 37.5 55.6 37.2Q54.8 37.0 54.3 36.7L54.3 36.7L55.1 34.5Q55.8 34.9 56.8 35.2Q57.8 35.6 59.2 35.6L59.2 35.6Q60.2 35.6 61.1 35.2Q62.0 34.9 62.5 34.0Q63.0 33.2 63.0 31.8L63.0 31.8Q63.0 30.7 62.7 30.0Q62.3 29.3 61.7 28.9Q61.1 28.5 60.4 28.3Q59.7 28.1 58.9 28.1L58.9 28.1Q58.0 28.1 57.2 28.3Q56.5 28.5 56.0 28.7Q55.5 29.0 55.1 29.2L55.1 29.2Z " transform="matrix(1.00,0.00,0.00,1.00,0.00,-1.00)" clip-path="url(#satori_cp-id-1-0)" mask="url(#satori_om-id-1-0)"/></svg>