<svg width="88" height="54" viewBox="0 0 88 54" xmlns="http://www.w3.org/2000/svg"><mask id="satori_om-id"><rect x="0" y="0" width="88" height="54" fill="#fff"/></mask><mask id="satori_om-id-0"><rect x="15" y="0" width="58" height="54" fill="#fff"/></mask><defs><clipPath id="satori_bc-id-0-0"><rect x="15" y="20" width="58" height="15"/></clipPath></defs><mask id="satori_om-id-0-0"><rect x="15" y="22" width="58" height="11" fill="#fff"/><path width="58" height="15" fill="none" stroke="#000" stroke-width="4" d="M15,20 A0,0 0 0 1 15,20 h58 A0,0 0 0 1 73,20"/><path width="58" height="15" fill="none" stroke="#000" stroke-width="4" d="M73,35 A0,0 0 0 1 73,35 h-58 A0,0 0 0 1 15,35"/></mask><path width="58" height="15" clip-path="url(#satori_bc-id-0-0)" fill="none" stroke="white" stroke-width="4" d="M15,20 A0,0 0 0 1 15,20 h58 A0,0 0 0 1 73,20"/><path width="58" height="15" clip-path="url(#satori_bc-id-0-0)" fill="none" stroke="white" stroke-width="4" d="M73,35 A0,0 0 0 1 73,35 h-58 A0,0 0 0 1 15,35"/><mask id="satori_om-id-1"><rect x="0" y="0" width="88" height="54" fill="#fff"/></mask><defs><clipPath id="satori_bc-id-1-0"><path x="0" y="0" width="88" height="54" d="M15,0 h58 a15,27 0 0 1 15,27 v0 a15,27 0 0 1 -15,27 h-58 a15,27 0 0 1 -15,-27 v0 a15,27 0 0 1 15,-27"/></clipPath></defs><clipPath id="satori_cp-id-1-0"><path x="0" y="0" width="88" height="54" d="M15,0 h58 a15,27 0 0 1 15,27 v0 a15,27 0 0 1 -15,27 h-58 a15,27 0 0 1 -15,-27 v0 a15,27 0 0 1 15,-27"/></clipPath><mask id="satori_om-id-1-0"><rect x="2" y="2" width="84" height="50" fill="#fff"/><path width="88" height="54" fill="none" stroke="#000" stroke-width="4" d="M1.888,13.888 A15,27 0 0 1 15,0 h58 a15,27 0 0 1 15,27 v0 a15,27 0 0 1 -15,27 h-58 a15,27 0 0 1 -15,-27 v0 A15,27 0 0 1 1.888,13.888"/></mask><path width="88" height="54" clip-path="url(#satori_bc-id-1-0)" fill="none" stroke="white" stroke-width="4" d="M1.888,13.888 A15,27 0 0 1 15,0 h58 a15,27 0 0 1 15,27 v0 a15,27 0 0 1 -15,27 h-58 a15,27 0 0 1 -15,-27 v0 A15,27 0 0 1 1.888,13.888"/><mask id="satori_om-id-1-0-0"><rect x="2" y="2" width="84" height="50" fill="#fff" mask="url(#satori_om-id-1-0)"/></mask><mask id="satori_om-id-1-0-0-0"><rect x="2" y="2" width="84" height="50" fill="#fff" mask="url(#satori_om-id-1-0)"/></mask><rect x="2" y="2" width="84" height="50" fill="#718472" clip-path="url(#satori_cp-id-1-0)" mask="url(#satori_om-id-1-0)"/><mask id="satori_om-id-1-0-0-0-0"><rect x="15" y="18" width="58" height="19" fill="#fff" mask="url(#satori_om-id-1-0)"/></mask><mask id="satori_om-id-1-0-0-0-0-0"><rect x="15" y="18" width="38" height="19" fill="#fff" mask="url(#satori_om-id-1-0)"/></mask><path fill="white" d="M26.8 19.2L26.8 19.2L26.1 21.5Q25.4 21.1 24.5 20.9Q23.5 20.6 22.6 20.6L22.6 20.6Q21.2 20.6 20.4 21.1Q19.7 21.7 19.7 22.7L19.7 22.7Q19.7 23.5 20.2 24.1Q20.8 24.7 22.2 25.7L22.2 25.7L23.4 26.5Q24.7 27.4 25.7 28.2Q26.6 29.1 27.1 30.2Q27.6 31.2 27.6 32.6L27.6 32.6Q27.6 35.1 26.0 36.5Q24.4 37.9 21.3 37.9L21.3 37.9Q20.2 37.9 19.3 37.7Q18.4 37.5 17.6 37.2Q16.9 36.9 16.4 36.7L16.4 36.7L17.2 34.2Q17.9 34.7 19.0 35.2Q20.1 35.6 21.3 35.6L21.3 35.6Q22.3 35.6 22.9 35.3Q23.5 35.0 23.8 34.5Q24.1 34.0 24.1 33.4L24.1 33.4Q24.1 32.5 23.5 31.8Q22.9 31.1 21.4 30.1L21.4 30.1L20.2 29.4Q18.2 28.1 17.2 26.7Q16.2 25.4 16.2 23.4L16.2 23.4Q16.2 21.8 17.0 20.7Q17.8 19.6 19.2 19.0Q20.6 18.4 22.4 18.4L22.4 18.4Q24.9 18.4 26.8 19.2ZM33.7 37.8L29.5 18.7L33.4 18.7L36.0 32.3L39.7 18.7L42.6 18.7L46.0 32.2L48.3 20.7Q48.5 19.8 49.1 19.4Q49.6 18.9 50.3 18.7Q51.0 18.5 51.5 18.5L51.5 18.5L46.9 37.6L44.1 37.6L40.5 23.9L37.2 35.4Q36.9 36.3 36.4 36.8Q35.8 37.4 35.1 37.6Q34.4 37.8 33.7 37.8L33.7 37.8Z " transform="matrix(1.00,0.00,0.00,1.00,0.00,-1.00)" clip-path="url(#satori_cp-id-1-0)" mask="url(#satori_om-id-1-0)"/><mask id="satori_om-id-1-0-0-0-0-1"><rect x="57" y="18" width="16" height="19" fill="#fff" mask="url(#satori_om-id-1-0)"/></mask><path fill="white" d="M58.2 30.3L67.2 18.7L69.4 18.7L69.4 30.0L71.8 30.0L71.8 32.3L69.4 32.3L69.4 37.6L66.0 37.6L66.0 32.3L58.2 32.3L58.2 30.3ZM66.0 30.0L66.0 23.3L60.9 30.0L66.0 30.0Z " transform="matrix(1.00,0.00,0.00,1.00,0.00,-1.00)" clip-path="url(#satori_cp-id-1-0)" mask="url(#satori_om-id-1-0)"/></svg>