<svg width="88" height="54" viewBox="0 0 88 54" xmlns="http://www.w3.org/2000/svg"><mask id="satori_om-id"><rect x="0" y="0" width="88" height="54" fill="#fff"/></mask><mask id="satori_om-id-0"><rect x="15" y="0" width="58" height="54" fill="#fff"/></mask><defs><clipPath id="satori_bc-id-0-0"><rect x="15" y="20" width="58" height="15"/></clipPath></defs><mask id="satori_om-id-0-0"><rect x="15" y="22" width="58" height="11" fill="#fff"/><path width="58" height="15" fill="none" stroke="#000" stroke-width="4" d="M15,20 A0,0 0 0 1 15,20 h58 A0,0 0 0 1 73,20"/><path width="58" height="15" fill="none" stroke="#000" stroke-width="4" d="M73,35 A0,0 0 0 1 73,35 h-58 A0,0 0 0 1 15,35"/></mask><path width="58" height="15" clip-path="url(#satori_bc-id-0-0)" fill="none" stroke="white" stroke-width="4" d="M15,20 A0,0 0 0 1 15,20 h58 A0,0 0 0 1 73,20"/><path width="58" height="15" clip-path="url(#satori_bc-id-0-0)" fill="none" stroke="white" stroke-width="4" d="M73,35 A0,0 0 0 1 73,35 h-58 A0,0 0 0 1 15,35"/><mask id="satori_om-id-1"><rect x="0" y="0" width="88" height="54" fill="#fff"/></mask><defs><clipPath id="satori_bc-id-1-0"><path x="0" y="0" width="88" height="54" d="M15,0 h58 a15,27 0 0 1 15,27 v0 a15,27 0 0 1 -15,27 h-58 a15,27 0 0 1 -15,-27 v0 a15,27 0 0 1 15,-27"/></clipPath></defs><clipPath id="satori_cp-id-1-0"><path x="0" y="0" width="88" height="54" d="M15,0 h58 a15,27 0 0 1 15,27 v0 a15,27 0 0 1 -15,27 h-58 a15,27 0 0 1 -15,-27 v0 a15,27 0 0 1 15,-27"/></clipPath><mask id="satori_om-id-1-0"><rect x="2" y="2" width="84" height="50" fill="#fff"/><path width="88" height="54" fill="none" stroke="#000" stroke-width="4" d="M1.888,13.888 A15,27 0 0 1 15,0 h58 a15,27 0 0 1 15,27 v0 a15,27 0 0 1 -15,27 h-58 a15,27 0 0 1 -15,-27 v0 A15,27 0 0 1 1.888,13.888"/></mask><path width="88" height="54" clip-path="url(#satori_bc-id-1-0)" fill="none" stroke="white" stroke-width="4" d="M1.888,13.888 A15,27 0 0 1 15,0 h58 a15,27 0 0 1 15,27 v0 a15,27 0 0 1 -15,27 h-58 a15,27 0 0 1 -15,-27 v0 A15,27 0 0 1 1.888,13.888"/><mask id="satori_om-id-1-0-0"><rect x="2" y="2" width="84" height="50" fill="#fff" mask="url(#satori_om-id-1-0)"/></mask><mask id="satori_om-id-1-0-0-0"><rect x="2" y="2" width="84" height="50" fill="#fff" mask="url(#satori_om-id-1-0)"/></mask><rect x="2" y="2" width="84" height="50" fill="#718472" clip-path="url(#satori_cp-id-1-0)" mask="url(#satori_om-id-1-0)"/><mask id="satori_om-id-1-0-0-0-0"><rect x="16" y="18" width="57" height="19" fill="#fff" mask="url(#satori_om-id-1-0)"/></mask><mask id="satori_om-id-1-0-0-0-0-0"><rect x="16" y="18" width="38" height="19" fill="#fff" mask="url(#satori_om-id-1-0)"/></mask><path fill="white" d="M27.8 19.2L27.8 19.2L27.1 21.5Q26.4 21.1 25.5 20.9Q24.5 20.6 23.6 20.6L23.6 20.6Q22.2 20.6 21.4 21.1Q20.7 21.7 20.7 22.7L20.7 22.7Q20.7 23.5 21.2 24.1Q21.8 24.7 23.2 25.7L23.2 25.7L24.4 26.5Q25.7 27.4 26.7 28.2Q27.6 29.1 28.1 30.2Q28.6 31.2 28.6 32.6L28.6 32.6Q28.6 35.1 27.0 36.5Q25.4 37.9 22.3 37.9L22.3 37.9Q21.2 37.9 20.3 37.7Q19.4 37.5 18.6 37.2Q17.9 36.9 17.4 36.7L17.4 36.7L18.2 34.2Q18.9 34.7 20.0 35.2Q21.1 35.6 22.3 35.6L22.3 35.6Q23.3 35.6 23.9 35.3Q24.5 35.0 24.8 34.5Q25.1 34.0 25.1 33.4L25.1 33.4Q25.1 32.5 24.5 31.8Q23.9 31.1 22.4 30.1L22.4 30.1L21.2 29.4Q19.2 28.1 18.2 26.7Q17.2 25.4 17.2 23.4L17.2 23.4Q17.2 21.8 18.0 20.7Q18.8 19.6 20.2 19.0Q21.6 18.4 23.4 18.4L23.4 18.4Q25.9 18.4 27.8 19.2ZM34.7 37.8L30.5 18.7L34.4 18.7L37.0 32.3L40.7 18.7L43.6 18.7L47.0 32.2L49.3 20.7Q49.5 19.8 50.1 19.4Q50.6 18.9 51.3 18.7Q52.0 18.5 52.5 18.5L52.5 18.5L47.9 37.6L45.1 37.6L41.5 23.9L38.2 35.4Q37.9 36.3 37.4 36.8Q36.8 37.4 36.1 37.6Q35.4 37.8 34.7 37.8L34.7 37.8Z " transform="matrix(1.00,0.00,0.00,1.00,0.00,-1.00)" clip-path="url(#satori_cp-id-1-0)" mask="url(#satori_om-id-1-0)"/><mask id="satori_om-id-1-0-0-0-0-1"><rect x="58" y="18" width="15" height="19" fill="#fff" mask="url(#satori_om-id-1-0)"/></mask><path fill="white" d="M58.5 21.8L58.5 18.7L71.7 18.7L71.7 20.5L63.2 37.6L60.6 37.6L68.7 21.8L58.5 21.8Z " transform="matrix(1.00,0.00,0.00,1.00,0.00,-1.00)" clip-path="url(#satori_cp-id-1-0)" mask="url(#satori_om-id-1-0)"/></svg>