<svg width="88" height="54" viewBox="0 0 88 54" xmlns="http://www.w3.org/2000/svg"><mask id="satori_om-id"><rect x="0" y="0" width="88" height="54" fill="#fff"/></mask><mask id="satori_om-id-0"><rect x="15" y="0" width="58" height="54" fill="#fff"/></mask><defs><clipPath id="satori_bc-id-0-0"><rect x="15" y="20" width="58" height="15"/></clipPath></defs><mask id="satori_om-id-0-0"><rect x="15" y="22" width="58" height="11" fill="#fff"/><path width="58" height="15" fill="none" stroke="#000" stroke-width="4" d="M15,20 A0,0 0 0 1 15,20 h58 A0,0 0 0 1 73,20"/><path width="58" height="15" fill="none" stroke="#000" stroke-width="4" d="M73,35 A0,0 0 0 1 73,35 h-58 A0,0 0 0 1 15,35"/></mask><path width="58" height="15" clip-path="url(#satori_bc-id-0-0)" fill="none" stroke="white" stroke-width="4" d="M15,20 A0,0 0 0 1 15,20 h58 A0,0 0 0 1 73,20"/><path width="58" height="15" clip-path="url(#satori_bc-id-0-0)" fill="none" stroke="white" stroke-width="4" d="M73,35 A0,0 0 0 1 73,35 h-58 A0,0 0 0 1 15,35"/><mask id="satori_om-id-1"><rect x="0" y="0" width="88" height="54" fill="#fff"/></mask><defs><clipPath id="satori_bc-id-1-0"><path x="0" y="0" width="88" height="54" d="M15,0 h58 a15,27 0 0 1 15,27 v0 a15,27 0 0 1 -15,27 h-58 a15,27 0 0 1 -15,-27 v0 a15,27 0 0 1 15,-27"/></clipPath></defs><clipPath id="satori_cp-id-1-0"><path x="0" y="0" width="88" height="54" d="M15,0 h58 a15,27 0 0 1 15,27 v0 a15,27 0 0 1 -15,27 h-58 a15,27 0 0 1 -15,-27 v0 a15,27 0 0 1 15,-27"/></clipPath><mask id="satori_om-id-1-0"><rect x="2" y="2" width="84" height="50" fill="#fff"/><path width="88" height="54" fill="none" stroke="#000" stroke-width="4" d="M1.888,13.888 A15,27 0 0 1 15,0 h58 a15,27 0 0 1 15,27 v0 a15,27 0 0 1 -15,27 h-58 a15,27 0 0 1 -15,-27 v0 A15,27 0 0 1 1.888,13.888"/></mask><path width="88" height="54" clip-path="url(#satori_bc-id-1-0)" fill="none" stroke="white" stroke-width="4" d="M1.888,13.888 A15,27 0 0 1 15,0 h58 a15,27 0 0 1 15,27 v0 a15,27 0 0 1 -15,27 h-58 a15,27 0 0 1 -15,-27 v0 A15,27 0 0 1 1.888,13.888"/><mask id="satori_om-id-1-0-0"><rect x="2" y="2" width="84" height="50" fill="#fff" mask="url(#satori_om-id-1-0)"/></mask><mask id="satori_om-id-1-0-0-0"><rect x="2" y="2" width="84" height="50" fill="#fff" mask="url(#satori_om-id-1-0)"/></mask><rect x="2" y="2" width="84" height="50" fill="#9D5918" clip-path="url(#satori_cp-id-1-0)" mask="url(#satori_om-id-1-0)"/><mask id="satori_om-id-1-0-0-0-0"><rect x="14" y="18" width="60" height="19" fill="#fff" mask="url(#satori_om-id-1-0)"/></mask><mask id="satori_om-id-1-0-0-0-0-0"><rect x="14" y="18" width="29" height="19" fill="#fff" mask="url(#satori_om-id-1-0)"/></mask><path fill="white" d="M23.5 37.6L19.6 37.6L19.6 24.2Q19.6 23.5 20.5 22.5Q21.4 21.4 22.7 21.1L22.7 21.1L22.7 21.0L14.8 21.0L14.6 18.7L28.4 18.7L28.4 21.0L23.5 21.0L23.5 37.6ZM42.7 37.6L31.4 37.6L31.4 24.1Q31.4 23.4 32.3 22.3Q33.1 21.3 34.5 20.9L34.5 20.9L34.5 20.8L31.0 20.8L30.8 18.7L42.6 18.7L42.6 21.0L35.2 21.0L35.2 26.7L42.1 26.7L42.1 28.9L35.2 28.9L35.2 35.2L42.7 35.2L42.7 37.6Z " transform="matrix(1.00,0.00,0.00,1.00,0.00,-1.00)" clip-path="url(#satori_cp-id-1-0)" mask="url(#satori_om-id-1-0)"/><mask id="satori_om-id-1-0-0-0-0-1"><rect x="47" y="18" width="27" height="19" fill="#fff" mask="url(#satori_om-id-1-0)"/></mask><path fill="white" d="M47.0 22.5L53.8 18.7L56.2 18.7L56.2 37.6L52.6 37.6L52.6 21.6L47.9 24.3L47.0 22.5ZM60.4 29.2L60.4 18.7L71.0 18.7L71.0 21.7L62.6 21.7L62.6 26.5Q63.5 26.2 64.2 26.1Q65.0 26.0 65.6 26.0L65.6 26.0Q66.9 26.0 68.1 26.4Q69.3 26.7 70.2 27.5Q71.1 28.2 71.7 29.2Q72.2 30.3 72.2 31.6L72.2 31.6Q72.2 32.8 71.7 34.0Q71.3 35.1 70.3 36.0Q69.4 36.9 68.0 37.4Q66.7 37.9 64.9 37.9L64.9 37.9Q63.6 37.9 62.6 37.7Q61.7 37.5 60.9 37.2Q60.2 37.0 59.6 36.7L59.6 36.7L60.4 34.5Q61.1 34.9 62.1 35.2Q63.1 35.6 64.5 35.6L64.5 35.6Q65.5 35.6 66.4 35.2Q67.3 34.9 67.8 34.0Q68.3 33.2 68.3 31.8L68.3 31.8Q68.3 30.7 68.0 30.0Q67.6 29.3 67.0 28.9Q66.4 28.5 65.7 28.3Q65.0 28.1 64.2 28.1L64.2 28.1Q63.3 28.1 62.6 28.3Q61.8 28.5 61.3 28.7Q60.8 29.0 60.4 29.2L60.4 29.2Z " transform="matrix(1.00,0.00,0.00,1.00,0.00,-1.00)" clip-path="url(#satori_cp-id-1-0)" mask="url(#satori_om-id-1-0)"/></svg>