<svg width="88" height="54" viewBox="0 0 88 54" xmlns="http://www.w3.org/2000/svg"><mask id="satori_om-id"><rect x="0" y="0" width="88" height="54" fill="#fff"/></mask><mask id="satori_om-id-0"><rect x="15" y="0" width="58" height="54" fill="#fff"/></mask><defs><clipPath id="satori_bc-id-0-0"><rect x="15" y="20" width="58" height="15"/></clipPath></defs><mask id="satori_om-id-0-0"><rect x="15" y="22" width="58" height="11" fill="#fff"/><path width="58" height="15" fill="none" stroke="#000" stroke-width="4" d="M15,20 A0,0 0 0 1 15,20 h58 A0,0 0 0 1 73,20"/><path width="58" height="15" fill="none" stroke="#000" stroke-width="4" d="M73,35 A0,0 0 0 1 73,35 h-58 A0,0 0 0 1 15,35"/></mask><path width="58" height="15" clip-path="url(#satori_bc-id-0-0)" fill="none" stroke="white" stroke-width="4" d="M15,20 A0,0 0 0 1 15,20 h58 A0,0 0 0 1 73,20"/><path width="58" height="15" clip-path="url(#satori_bc-id-0-0)" fill="none" stroke="white" stroke-width="4" d="M73,35 A0,0 0 0 1 73,35 h-58 A0,0 0 0 1 15,35"/><mask id="satori_om-id-1"><rect x="0" y="0" width="88" height="54" fill="#fff"/></mask><defs><clipPath id="satori_bc-id-1-0"><path x="0" y="0" width="88" height="54" d="M15,0 h58 a15,27 0 0 1 15,27 v0 a15,27 0 0 1 -15,27 h-58 a15,27 0 0 1 -15,-27 v0 a15,27 0 0 1 15,-27"/></clipPath></defs><clipPath id="satori_cp-id-1-0"><path x="0" y="0" width="88" height="54" d="M15,0 h58 a15,27 0 0 1 15,27 v0 a15,27 0 0 1 -15,27 h-58 a15,27 0 0 1 -15,-27 v0 a15,27 0 0 1 15,-27"/></clipPath><mask id="satori_om-id-1-0"><rect x="2" y="2" width="84" height="50" fill="#fff"/><path width="88" height="54" fill="none" stroke="#000" stroke-width="4" d="M1.888,13.888 A15,27 0 0 1 15,0 h58 a15,27 0 0 1 15,27 v0 a15,27 0 0 1 -15,27 h-58 a15,27 0 0 1 -15,-27 v0 A15,27 0 0 1 1.888,13.888"/></mask><path width="88" height="54" clip-path="url(#satori_bc-id-1-0)" fill="none" stroke="white" stroke-width="4" d="M1.888,13.888 A15,27 0 0 1 15,0 h58 a15,27 0 0 1 15,27 v0 a15,27 0 0 1 -15,27 h-58 a15,27 0 0 1 -15,-27 v0 A15,27 0 0 1 1.888,13.888"/><mask id="satori_om-id-1-0-0"><rect x="2" y="2" width="84" height="50" fill="#fff" mask="url(#satori_om-id-1-0)"/></mask><mask id="satori_om-id-1-0-0-0"><rect x="2" y="2" width="84" height="50" fill="#fff" mask="url(#satori_om-id-1-0)"/></mask><rect x="2" y="2" width="84" height="50" fill="#9D5918" clip-path="url(#satori_cp-id-1-0)" mask="url(#satori_om-id-1-0)"/><mask id="satori_om-id-1-0-0-0-0"><rect x="14" y="18" width="61" height="19" fill="#fff" mask="url(#satori_om-id-1-0)"/></mask><mask id="satori_om-id-1-0-0-0-0-0"><rect x="14" y="18" width="29" height="19" fill="#fff" mask="url(#satori_om-id-1-0)"/></mask><path fill="white" d="M23.5 37.6L19.6 37.6L19.6 24.2Q19.6 23.5 20.5 22.5Q21.4 21.4 22.7 21.1L22.7 21.1L22.7 21.0L14.8 21.0L14.6 18.7L28.4 18.7L28.4 21.0L23.5 21.0L23.5 37.6ZM42.7 37.6L31.4 37.6L31.4 24.1Q31.4 23.4 32.3 22.3Q33.1 21.3 34.5 20.9L34.5 20.9L34.5 20.8L31.0 20.8L30.8 18.7L42.6 18.7L42.6 21.0L35.2 21.0L35.2 26.7L42.1 26.7L42.1 28.9L35.2 28.9L35.2 35.2L42.7 35.2L42.7 37.6Z " transform="matrix(1.00,0.00,0.00,1.00,0.00,-1.00)" clip-path="url(#satori_cp-id-1-0)" mask="url(#satori_om-id-1-0)"/><mask id="satori_om-id-1-0-0-0-0-1"><rect x="47" y="18" width="28" height="19" fill="#fff" mask="url(#satori_om-id-1-0)"/></mask><path fill="white" d="M47.0 22.5L53.8 18.7L56.2 18.7L56.2 37.6L52.6 37.6L52.6 21.6L47.9 24.3L47.0 22.5ZM72.6 19.3L72.6 19.3L71.9 21.5Q71.4 21.2 70.6 20.9Q69.7 20.6 68.6 20.6L68.6 20.6Q67.1 20.6 66.2 21.4Q65.2 22.3 64.7 23.9Q64.2 25.4 64.2 27.5L64.2 27.5Q64.2 27.8 64.2 28.1L64.2 28.1Q64.7 27.1 65.5 26.6Q66.2 26.1 67.0 25.9Q67.7 25.7 68.3 25.7L68.3 25.7Q69.7 25.7 70.9 26.4Q72.1 27.0 72.9 28.3Q73.6 29.6 73.6 31.5L73.6 31.5Q73.6 33.3 72.8 34.8Q72.1 36.2 70.6 37.1Q69.2 37.9 67.2 37.9L67.2 37.9Q65.6 37.9 64.4 37.3Q63.2 36.7 62.4 35.8Q61.6 34.8 61.2 33.6Q60.7 32.4 60.5 31.0Q60.4 29.7 60.4 28.5L60.4 28.5Q60.4 25.2 61.4 22.9Q62.5 20.7 64.3 19.5Q66.1 18.4 68.4 18.4L68.4 18.4Q69.4 18.4 70.2 18.6Q71.1 18.7 71.7 18.9Q72.3 19.2 72.6 19.3ZM64.5 32.0L64.5 32.0Q64.5 32.6 64.6 33.3Q64.8 34.0 65.0 34.6Q65.3 35.2 65.9 35.6Q66.4 36.0 67.2 36.0L67.2 36.0Q68.1 36.0 68.6 35.6Q69.1 35.1 69.4 34.5Q69.7 33.9 69.8 33.1Q69.9 32.4 69.9 31.8L69.9 31.8Q69.9 30.3 69.5 29.5Q69.1 28.6 68.5 28.3Q67.9 27.9 67.2 27.9L67.2 27.9Q65.8 27.9 65.2 29.0Q64.5 30.1 64.5 32.0Z " transform="matrix(1.00,0.00,0.00,1.00,0.00,-1.00)" clip-path="url(#satori_cp-id-1-0)" mask="url(#satori_om-id-1-0)"/></svg>