<svg width="88" height="54" viewBox="0 0 88 54" xmlns="http://www.w3.org/2000/svg"><mask id="satori_om-id"><rect x="0" y="0" width="88" height="54" fill="#fff"/></mask><mask id="satori_om-id-0"><rect x="15" y="0" width="58" height="54" fill="#fff"/></mask><defs><clipPath id="satori_bc-id-0-0"><rect x="15" y="20" width="58" height="15"/></clipPath></defs><mask id="satori_om-id-0-0"><rect x="15" y="22" width="58" height="11" fill="#fff"/><path width="58" height="15" fill="none" stroke="#000" stroke-width="4" d="M15,20 A0,0 0 0 1 15,20 h58 A0,0 0 0 1 73,20"/><path width="58" height="15" fill="none" stroke="#000" stroke-width="4" d="M73,35 A0,0 0 0 1 73,35 h-58 A0,0 0 0 1 15,35"/></mask><path width="58" height="15" clip-path="url(#satori_bc-id-0-0)" fill="none" stroke="white" stroke-width="4" d="M15,20 A0,0 0 0 1 15,20 h58 A0,0 0 0 1 73,20"/><path width="58" height="15" clip-path="url(#satori_bc-id-0-0)" fill="none" stroke="white" stroke-width="4" d="M73,35 A0,0 0 0 1 73,35 h-58 A0,0 0 0 1 15,35"/><mask id="satori_om-id-1"><rect x="0" y="0" width="88" height="54" fill="#fff"/></mask><defs><clipPath id="satori_bc-id-1-0"><path x="0" y="0" width="88" height="54" d="M15,0 h58 a15,27 0 0 1 15,27 v0 a15,27 0 0 1 -15,27 h-58 a15,27 0 0 1 -15,-27 v0 a15,27 0 0 1 15,-27"/></clipPath></defs><clipPath id="satori_cp-id-1-0"><path x="0" y="0" width="88" height="54" d="M15,0 h58 a15,27 0 0 1 15,27 v0 a15,27 0 0 1 -15,27 h-58 a15,27 0 0 1 -15,-27 v0 a15,27 0 0 1 15,-27"/></clipPath><mask id="satori_om-id-1-0"><rect x="2" y="2" width="84" height="50" fill="#fff"/><path width="88" height="54" fill="none" stroke="#000" stroke-width="4" d="M1.888,13.888 A15,27 0 0 1 15,0 h58 a15,27 0 0 1 15,27 v0 a15,27 0 0 1 -15,27 h-58 a15,27 0 0 1 -15,-27 v0 A15,27 0 0 1 1.888,13.888"/></mask><path width="88" height="54" clip-path="url(#satori_bc-id-1-0)" fill="none" stroke="white" stroke-width="4" d="M1.888,13.888 A15,27 0 0 1 15,0 h58 a15,27 0 0 1 15,27 v0 a15,27 0 0 1 -15,27 h-58 a15,27 0 0 1 -15,-27 v0 A15,27 0 0 1 1.888,13.888"/><mask id="satori_om-id-1-0-0"><rect x="2" y="2" width="84" height="50" fill="#fff" mask="url(#satori_om-id-1-0)"/></mask><mask id="satori_om-id-1-0-0-0"><rect x="2" y="2" width="84" height="50" fill="#fff" mask="url(#satori_om-id-1-0)"/></mask><rect x="2" y="2" width="84" height="50" fill="#9D5918" clip-path="url(#satori_cp-id-1-0)" mask="url(#satori_om-id-1-0)"/><mask id="satori_om-id-1-0-0-0-0"><rect x="14" y="18" width="61" height="19" fill="#fff" mask="url(#satori_om-id-1-0)"/></mask><mask id="satori_om-id-1-0-0-0-0-0"><rect x="14" y="18" width="29" height="19" fill="#fff" mask="url(#satori_om-id-1-0)"/></mask><path fill="white" d="M23.5 37.6L19.6 37.6L19.6 24.2Q19.6 23.5 20.5 22.5Q21.4 21.4 22.7 21.1L22.7 21.1L22.7 21.0L14.8 21.0L14.6 18.7L28.4 18.7L28.4 21.0L23.5 21.0L23.5 37.6ZM42.7 37.6L31.4 37.6L31.4 24.1Q31.4 23.4 32.3 22.3Q33.1 21.3 34.5 20.9L34.5 20.9L34.5 20.8L31.0 20.8L30.8 18.7L42.6 18.7L42.6 21.0L35.2 21.0L35.2 26.7L42.1 26.7L42.1 28.9L35.2 28.9L35.2 35.2L42.7 35.2L42.7 37.6Z " transform="matrix(1.00,0.00,0.00,1.00,0.00,-1.00)" clip-path="url(#satori_cp-id-1-0)" mask="url(#satori_om-id-1-0)"/><mask id="satori_om-id-1-0-0-0-0-1"><rect x="47" y="18" width="28" height="19" fill="#fff" mask="url(#satori_om-id-1-0)"/></mask><path fill="white" d="M47.0 22.5L53.8 18.7L56.2 18.7L56.2 37.6L52.6 37.6L52.6 21.6L47.9 24.3L47.0 22.5ZM73.3 23.1L73.3 23.1Q73.3 24.7 72.2 26.0Q71.2 27.2 69.4 27.7L69.4 27.7Q69.8 27.8 70.3 27.9Q70.8 28.1 71.4 28.4Q72.0 28.7 72.6 29.2Q73.1 29.8 73.4 30.5Q73.8 31.3 73.8 32.5L73.8 32.5Q73.8 33.5 73.4 34.5Q73.0 35.4 72.1 36.2Q71.3 37.0 70.0 37.4Q68.7 37.9 66.9 37.9L66.9 37.9Q65.1 37.9 63.8 37.4Q62.5 37.0 61.7 36.2Q60.9 35.4 60.6 34.5Q60.2 33.6 60.2 32.7L60.2 32.7Q60.2 31.6 60.7 30.7Q61.1 29.9 61.7 29.3Q62.4 28.7 63.1 28.3Q63.9 27.9 64.6 27.7L64.6 27.7Q63.1 27.3 62.3 26.5Q61.4 25.8 61.1 24.9Q60.8 24.0 60.8 23.2L60.8 23.2Q60.8 22.3 61.1 21.5Q61.5 20.6 62.3 19.9Q63.0 19.2 64.2 18.8Q65.4 18.4 67.1 18.4L67.1 18.4Q68.8 18.4 70.0 18.8Q71.2 19.3 72.0 20.0Q72.7 20.7 73.0 21.5Q73.3 22.4 73.3 23.1ZM64.3 23.5L64.3 23.5Q64.3 25.0 65.1 25.9Q65.8 26.8 67.0 26.8L67.0 26.8Q68.2 26.8 68.9 25.9Q69.7 25.1 69.7 23.5L69.7 23.5Q69.7 22.6 69.4 21.9Q69.1 21.1 68.5 20.7Q67.9 20.3 67.0 20.3L67.0 20.3Q66.1 20.3 65.5 20.8Q64.9 21.3 64.6 22.0Q64.3 22.8 64.3 23.5ZM64.1 32.3L64.1 32.3Q64.1 33.5 64.5 34.4Q64.9 35.2 65.6 35.6Q66.2 36.1 67.1 36.1L67.1 36.1Q68.0 36.1 68.6 35.6Q69.3 35.1 69.6 34.2Q70.0 33.4 70.0 32.3L70.0 32.3Q70.0 31.1 69.5 30.3Q69.1 29.5 68.5 29.1Q67.8 28.7 67.0 28.7L67.0 28.7Q65.8 28.7 64.9 29.6Q64.1 30.6 64.1 32.3Z " transform="matrix(1.00,0.00,0.00,1.00,0.00,-1.00)" clip-path="url(#satori_cp-id-1-0)" mask="url(#satori_om-id-1-0)"/></svg>