<svg width="88" height="54" viewBox="0 0 88 54" xmlns="http://www.w3.org/2000/svg"><mask id="satori_om-id"><rect x="0" y="0" width="88" height="54" fill="#fff"/></mask><mask id="satori_om-id-0"><rect x="15" y="0" width="58" height="54" fill="#fff"/></mask><defs><clipPath id="satori_bc-id-0-0"><rect x="15" y="20" width="58" height="15"/></clipPath></defs><mask id="satori_om-id-0-0"><rect x="15" y="22" width="58" height="11" fill="#fff"/><path width="58" height="15" fill="none" stroke="#000" stroke-width="4" d="M15,20 A0,0 0 0 1 15,20 h58 A0,0 0 0 1 73,20"/><path width="58" height="15" fill="none" stroke="#000" stroke-width="4" d="M73,35 A0,0 0 0 1 73,35 h-58 A0,0 0 0 1 15,35"/></mask><path width="58" height="15" clip-path="url(#satori_bc-id-0-0)" fill="none" stroke="white" stroke-width="4" d="M15,20 A0,0 0 0 1 15,20 h58 A0,0 0 0 1 73,20"/><path width="58" height="15" clip-path="url(#satori_bc-id-0-0)" fill="none" stroke="white" stroke-width="4" d="M73,35 A0,0 0 0 1 73,35 h-58 A0,0 0 0 1 15,35"/><mask id="satori_om-id-1"><rect x="0" y="0" width="88" height="54" fill="#fff"/></mask><defs><clipPath id="satori_bc-id-1-0"><path x="0" y="0" width="88" height="54" d="M15,0 h58 a15,27 0 0 1 15,27 v0 a15,27 0 0 1 -15,27 h-58 a15,27 0 0 1 -15,-27 v0 a15,27 0 0 1 15,-27"/></clipPath></defs><clipPath id="satori_cp-id-1-0"><path x="0" y="0" width="88" height="54" d="M15,0 h58 a15,27 0 0 1 15,27 v0 a15,27 0 0 1 -15,27 h-58 a15,27 0 0 1 -15,-27 v0 a15,27 0 0 1 15,-27"/></clipPath><mask id="satori_om-id-1-0"><rect x="2" y="2" width="84" height="50" fill="#fff"/><path width="88" height="54" fill="none" stroke="#000" stroke-width="4" d="M1.888,13.888 A15,27 0 0 1 15,0 h58 a15,27 0 0 1 15,27 v0 a15,27 0 0 1 -15,27 h-58 a15,27 0 0 1 -15,-27 v0 A15,27 0 0 1 1.888,13.888"/></mask><path width="88" height="54" clip-path="url(#satori_bc-id-1-0)" fill="none" stroke="white" stroke-width="4" d="M1.888,13.888 A15,27 0 0 1 15,0 h58 a15,27 0 0 1 15,27 v0 a15,27 0 0 1 -15,27 h-58 a15,27 0 0 1 -15,-27 v0 A15,27 0 0 1 1.888,13.888"/><mask id="satori_om-id-1-0-0"><rect x="2" y="2" width="84" height="50" fill="#fff" mask="url(#satori_om-id-1-0)"/></mask><mask id="satori_om-id-1-0-0-0"><rect x="2" y="2" width="84" height="50" fill="#fff" mask="url(#satori_om-id-1-0)"/></mask><rect x="2" y="2" width="84" height="50" fill="#9D5918" clip-path="url(#satori_cp-id-1-0)" mask="url(#satori_om-id-1-0)"/><mask id="satori_om-id-1-0-0-0-0"><rect x="12" y="18" width="64" height="19" fill="#fff" mask="url(#satori_om-id-1-0)"/></mask><mask id="satori_om-id-1-0-0-0-0-0"><rect x="12" y="18" width="29" height="19" fill="#fff" mask="url(#satori_om-id-1-0)"/></mask><path fill="white" d="M21.5 37.6L17.6 37.6L17.6 24.2Q17.6 23.5 18.5 22.5Q19.4 21.4 20.7 21.1L20.7 21.1L20.7 21.0L12.8 21.0L12.6 18.7L26.4 18.7L26.4 21.0L21.5 21.0L21.5 37.6ZM40.7 37.6L29.4 37.6L29.4 24.1Q29.4 23.4 30.3 22.3Q31.1 21.3 32.5 20.9L32.5 20.9L32.5 20.8L29.0 20.8L28.8 18.7L40.6 18.7L40.6 21.0L33.2 21.0L33.2 26.7L40.1 26.7L40.1 28.9L33.2 28.9L33.2 35.2L40.7 35.2L40.7 37.6Z " transform="matrix(1.00,0.00,0.00,1.00,0.00,-1.00)" clip-path="url(#satori_cp-id-1-0)" mask="url(#satori_om-id-1-0)"/><mask id="satori_om-id-1-0-0-0-0-1"><rect x="45" y="18" width="31" height="19" fill="#fff" mask="url(#satori_om-id-1-0)"/></mask><path fill="white" d="M49.5 34.5L49.5 34.5L58.8 34.5L58.8 37.6L45.3 37.6L45.3 35.7Q48.1 33.3 50.9 30.2L50.9 30.2Q52.6 28.4 53.5 26.8Q54.4 25.3 54.4 23.8L54.4 23.8Q54.4 22.8 54.0 22.2Q53.6 21.5 53.0 21.2Q52.4 20.9 51.9 20.8Q51.3 20.6 50.9 20.6L50.9 20.6Q49.6 20.6 48.6 20.9Q47.6 21.2 47.2 21.5L47.2 21.5L46.4 19.3Q47.2 18.9 48.4 18.7Q49.7 18.4 51.8 18.4L51.8 18.4Q53.9 18.4 55.3 19.0Q56.8 19.7 57.6 20.8Q58.3 21.9 58.3 23.3L58.3 23.3Q58.3 24.7 57.5 26.2Q56.7 27.6 55.0 29.4L55.0 29.4Q53.0 31.4 49.5 34.5ZM61.3 30.3L70.3 18.7L72.6 18.7L72.6 30.0L74.9 30.0L74.9 32.3L72.6 32.3L72.6 37.6L69.1 37.6L69.1 32.3L61.3 32.3L61.3 30.3ZM69.1 30.0L69.1 23.3L64.0 30.0L69.1 30.0Z " transform="matrix(1.00,0.00,0.00,1.00,0.00,-1.00)" clip-path="url(#satori_cp-id-1-0)" mask="url(#satori_om-id-1-0)"/></svg>