<svg width="88" height="54" viewBox="0 0 88 54" xmlns="http://www.w3.org/2000/svg"><mask id="satori_om-id"><rect x="0" y="0" width="88" height="54" fill="#fff"/></mask><mask id="satori_om-id-0"><rect x="15" y="0" width="58" height="54" fill="#fff"/></mask><defs><clipPath id="satori_bc-id-0-0"><rect x="15" y="20" width="58" height="15"/></clipPath></defs><mask id="satori_om-id-0-0"><rect x="15" y="22" width="58" height="11" fill="#fff"/><path width="58" height="15" fill="none" stroke="#000" stroke-width="4" d="M15,20 A0,0 0 0 1 15,20 h58 A0,0 0 0 1 73,20"/><path width="58" height="15" fill="none" stroke="#000" stroke-width="4" d="M73,35 A0,0 0 0 1 73,35 h-58 A0,0 0 0 1 15,35"/></mask><path width="58" height="15" clip-path="url(#satori_bc-id-0-0)" fill="none" stroke="white" stroke-width="4" d="M15,20 A0,0 0 0 1 15,20 h58 A0,0 0 0 1 73,20"/><path width="58" height="15" clip-path="url(#satori_bc-id-0-0)" fill="none" stroke="white" stroke-width="4" d="M73,35 A0,0 0 0 1 73,35 h-58 A0,0 0 0 1 15,35"/><mask id="satori_om-id-1"><rect x="0" y="0" width="88" height="54" fill="#fff"/></mask><defs><clipPath id="satori_bc-id-1-0"><path x="0" y="0" width="88" height="54" d="M15,0 h58 a15,27 0 0 1 15,27 v0 a15,27 0 0 1 -15,27 h-58 a15,27 0 0 1 -15,-27 v0 a15,27 0 0 1 15,-27"/></clipPath></defs><clipPath id="satori_cp-id-1-0"><path x="0" y="0" width="88" height="54" d="M15,0 h58 a15,27 0 0 1 15,27 v0 a15,27 0 0 1 -15,27 h-58 a15,27 0 0 1 -15,-27 v0 a15,27 0 0 1 15,-27"/></clipPath><mask id="satori_om-id-1-0"><rect x="2" y="2" width="84" height="50" fill="#fff"/><path width="88" height="54" fill="none" stroke="#000" stroke-width="4" d="M1.888,13.888 A15,27 0 0 1 15,0 h58 a15,27 0 0 1 15,27 v0 a15,27 0 0 1 -15,27 h-58 a15,27 0 0 1 -15,-27 v0 A15,27 0 0 1 1.888,13.888"/></mask><path width="88" height="54" clip-path="url(#satori_bc-id-1-0)" fill="none" stroke="white" stroke-width="4" d="M1.888,13.888 A15,27 0 0 1 15,0 h58 a15,27 0 0 1 15,27 v0 a15,27 0 0 1 -15,27 h-58 a15,27 0 0 1 -15,-27 v0 A15,27 0 0 1 1.888,13.888"/><mask id="satori_om-id-1-0-0"><rect x="2" y="2" width="84" height="50" fill="#fff" mask="url(#satori_om-id-1-0)"/></mask><mask id="satori_om-id-1-0-0-0"><rect x="2" y="2" width="84" height="50" fill="#fff" mask="url(#satori_om-id-1-0)"/></mask><rect x="2" y="2" width="84" height="50" fill="#9D5918" clip-path="url(#satori_cp-id-1-0)" mask="url(#satori_om-id-1-0)"/><mask id="satori_om-id-1-0-0-0-0"><rect x="19" y="18" width="50" height="19" fill="#fff" mask="url(#satori_om-id-1-0)"/></mask><mask id="satori_om-id-1-0-0-0-0-0"><rect x="19" y="18" width="29" height="19" fill="#fff" mask="url(#satori_om-id-1-0)"/></mask><path fill="white" d="M28.5 37.6L24.6 37.6L24.6 24.2Q24.6 23.5 25.5 22.5Q26.4 21.4 27.7 21.1L27.7 21.1L27.7 21.0L19.8 21.0L19.6 18.7L33.4 18.7L33.4 21.0L28.5 21.0L28.5 37.6ZM47.7 37.6L36.4 37.6L36.4 24.1Q36.4 23.4 37.3 22.3Q38.1 21.3 39.5 20.9L39.5 20.9L39.5 20.8L36.0 20.8L35.8 18.7L47.6 18.7L47.6 21.0L40.2 21.0L40.2 26.7L47.1 26.7L47.1 28.9L40.2 28.9L40.2 35.2L47.7 35.2L47.7 37.6Z " transform="matrix(1.00,0.00,0.00,1.00,0.00,-1.00)" clip-path="url(#satori_cp-id-1-0)" mask="url(#satori_om-id-1-0)"/><mask id="satori_om-id-1-0-0-0-0-1"><rect x="52" y="18" width="17" height="19" fill="#fff" mask="url(#satori_om-id-1-0)"/></mask><path fill="white" d="M66.3 19.3L66.3 19.3L65.6 21.5Q65.1 21.2 64.2 20.9Q63.4 20.6 62.3 20.6L62.3 20.6Q60.8 20.6 59.9 21.4Q58.9 22.3 58.4 23.9Q57.9 25.4 57.9 27.5L57.9 27.5Q57.9 27.8 57.9 28.1L57.9 28.1Q58.4 27.1 59.2 26.6Q59.9 26.1 60.7 25.9Q61.4 25.7 62.0 25.7L62.0 25.7Q63.4 25.7 64.6 26.4Q65.8 27.0 66.5 28.3Q67.3 29.6 67.3 31.5L67.3 31.5Q67.3 33.3 66.5 34.8Q65.8 36.2 64.3 37.1Q62.9 37.9 60.9 37.9L60.9 37.9Q59.3 37.9 58.1 37.3Q56.9 36.7 56.1 35.8Q55.3 34.8 54.9 33.6Q54.4 32.4 54.2 31.0Q54.0 29.7 54.0 28.5L54.0 28.5Q54.0 25.2 55.1 22.9Q56.2 20.7 58.0 19.5Q59.8 18.4 62.1 18.4L62.1 18.4Q63.1 18.4 63.9 18.6Q64.8 18.7 65.4 18.9Q66.0 19.2 66.3 19.3ZM58.2 32.0L58.2 32.0Q58.2 32.6 58.3 33.3Q58.4 34.0 58.7 34.6Q59.0 35.2 59.5 35.6Q60.1 36.0 60.9 36.0L60.9 36.0Q61.8 36.0 62.3 35.6Q62.8 35.1 63.1 34.5Q63.4 33.9 63.5 33.1Q63.6 32.4 63.6 31.8L63.6 31.8Q63.6 30.3 63.2 29.5Q62.8 28.6 62.2 28.3Q61.6 27.9 60.9 27.9L60.9 27.9Q59.5 27.9 58.9 29.0Q58.2 30.1 58.2 32.0Z " transform="matrix(1.00,0.00,0.00,1.00,0.00,-1.00)" clip-path="url(#satori_cp-id-1-0)" mask="url(#satori_om-id-1-0)"/></svg>