<svg width="88" height="54" viewBox="0 0 88 54" xmlns="http://www.w3.org/2000/svg"><mask id="satori_om-id"><rect x="0" y="0" width="88" height="54" fill="#fff"/></mask><mask id="satori_om-id-0"><rect x="15" y="0" width="58" height="54" fill="#fff"/></mask><defs><clipPath id="satori_bc-id-0-0"><rect x="15" y="20" width="58" height="15"/></clipPath></defs><mask id="satori_om-id-0-0"><rect x="15" y="22" width="58" height="11" fill="#fff"/><path width="58" height="15" fill="none" stroke="#000" stroke-width="4" d="M15,20 A0,0 0 0 1 15,20 h58 A0,0 0 0 1 73,20"/><path width="58" height="15" fill="none" stroke="#000" stroke-width="4" d="M73,35 A0,0 0 0 1 73,35 h-58 A0,0 0 0 1 15,35"/></mask><path width="58" height="15" clip-path="url(#satori_bc-id-0-0)" fill="none" stroke="white" stroke-width="4" d="M15,20 A0,0 0 0 1 15,20 h58 A0,0 0 0 1 73,20"/><path width="58" height="15" clip-path="url(#satori_bc-id-0-0)" fill="none" stroke="white" stroke-width="4" d="M73,35 A0,0 0 0 1 73,35 h-58 A0,0 0 0 1 15,35"/><mask id="satori_om-id-1"><rect x="0" y="0" width="88" height="54" fill="#fff"/></mask><defs><clipPath id="satori_bc-id-1-0"><path x="0" y="0" width="88" height="54" d="M15,0 h58 a15,27 0 0 1 15,27 v0 a15,27 0 0 1 -15,27 h-58 a15,27 0 0 1 -15,-27 v0 a15,27 0 0 1 15,-27"/></clipPath></defs><clipPath id="satori_cp-id-1-0"><path x="0" y="0" width="88" height="54" d="M15,0 h58 a15,27 0 0 1 15,27 v0 a15,27 0 0 1 -15,27 h-58 a15,27 0 0 1 -15,-27 v0 a15,27 0 0 1 15,-27"/></clipPath><mask id="satori_om-id-1-0"><rect x="2" y="2" width="84" height="50" fill="#fff"/><path width="88" height="54" fill="none" stroke="#000" stroke-width="4" d="M1.888,13.888 A15,27 0 0 1 15,0 h58 a15,27 0 0 1 15,27 v0 a15,27 0 0 1 -15,27 h-58 a15,27 0 0 1 -15,-27 v0 A15,27 0 0 1 1.888,13.888"/></mask><path width="88" height="54" clip-path="url(#satori_bc-id-1-0)" fill="none" stroke="white" stroke-width="4" d="M1.888,13.888 A15,27 0 0 1 15,0 h58 a15,27 0 0 1 15,27 v0 a15,27 0 0 1 -15,27 h-58 a15,27 0 0 1 -15,-27 v0 A15,27 0 0 1 1.888,13.888"/><mask id="satori_om-id-1-0-0"><rect x="2" y="2" width="84" height="50" fill="#fff" mask="url(#satori_om-id-1-0)"/></mask><mask id="satori_om-id-1-0-0-0"><rect x="2" y="2" width="84" height="50" fill="#fff" mask="url(#satori_om-id-1-0)"/></mask><rect x="2" y="2" width="84" height="50" fill="#9D5918" clip-path="url(#satori_cp-id-1-0)" mask="url(#satori_om-id-1-0)"/><mask id="satori_om-id-1-0-0-0-0"><rect x="20" y="18" width="48" height="19" fill="#fff" mask="url(#satori_om-id-1-0)"/></mask><mask id="satori_om-id-1-0-0-0-0-0"><rect x="20" y="18" width="29" height="19" fill="#fff" mask="url(#satori_om-id-1-0)"/></mask><path fill="white" d="M29.5 37.6L25.6 37.6L25.6 24.2Q25.6 23.5 26.5 22.5Q27.4 21.4 28.7 21.1L28.7 21.1L28.7 21.0L20.8 21.0L20.6 18.7L34.4 18.7L34.4 21.0L29.5 21.0L29.5 37.6ZM48.7 37.6L37.4 37.6L37.4 24.1Q37.4 23.4 38.3 22.3Q39.1 21.3 40.5 20.9L40.5 20.9L40.5 20.8L37.0 20.8L36.8 18.7L48.6 18.7L48.6 21.0L41.2 21.0L41.2 26.7L48.1 26.7L48.1 28.9L41.2 28.9L41.2 35.2L48.7 35.2L48.7 37.6Z " transform="matrix(1.00,0.00,0.00,1.00,0.00,-1.00)" clip-path="url(#satori_cp-id-1-0)" mask="url(#satori_om-id-1-0)"/><mask id="satori_om-id-1-0-0-0-0-1"><rect x="53" y="18" width="15" height="19" fill="#fff" mask="url(#satori_om-id-1-0)"/></mask><path fill="white" d="M53.5 21.8L53.5 18.7L66.7 18.7L66.7 20.5L58.2 37.6L55.6 37.6L63.7 21.8L53.5 21.8Z " transform="matrix(1.00,0.00,0.00,1.00,0.00,-1.00)" clip-path="url(#satori_cp-id-1-0)" mask="url(#satori_om-id-1-0)"/></svg>